G04*
G04 #@! TF.GenerationSoftware,Altium Limited,Altium Designer,22.6.1 (34)*
G04*
G04 Layer_Physical_Order=1*
G04 Layer_Color=255*
%FSLAX44Y44*%
%MOMM*%
G71*
G04*
G04 #@! TF.SameCoordinates,74DF644D-C5CC-47E8-8FD8-F3D1935BC2B4*
G04*
G04*
G04 #@! TF.FilePolarity,Positive*
G04*
G01*
G75*
%ADD11C,0.1000*%
%ADD12C,0.2000*%
%ADD13C,0.2540*%
%ADD17R,0.8500X0.3000*%
%ADD18R,0.3000X0.8500*%
%ADD19R,4.2500X4.2500*%
%ADD20R,1.8000X0.7000*%
%ADD21R,1.8000X0.8000*%
%ADD22C,0.2000*%
%ADD23R,4.7500X4.7500*%
%ADD24R,0.5000X0.4000*%
%ADD25R,0.3000X0.3500*%
%ADD26R,0.3500X0.3000*%
%ADD27R,2.7000X1.0000*%
%ADD28R,0.6300X0.3500*%
%ADD29R,0.3000X0.5800*%
%ADD30R,0.2500X0.5800*%
%ADD31R,1.0000X1.7000*%
%ADD32R,0.7000X0.3000*%
%ADD33R,1.0000X0.3000*%
%ADD34R,0.3000X1.0000*%
%ADD35R,2.8000X2.8000*%
%ADD36R,0.6000X0.5000*%
%ADD37C,0.3500*%
%ADD38R,1.4000X1.0000*%
%ADD39R,0.5000X0.6000*%
%ADD40R,0.6500X1.5250*%
%ADD41R,0.8000X0.9000*%
%ADD42C,0.6900*%
%ADD43R,0.5000X0.7500*%
%ADD44R,0.6000X1.3000*%
%ADD45R,0.2393X0.7311*%
G04:AMPARAMS|DCode=46|XSize=0.7311mm|YSize=0.2393mm|CornerRadius=0.1196mm|HoleSize=0mm|Usage=FLASHONLY|Rotation=270.000|XOffset=0mm|YOffset=0mm|HoleType=Round|Shape=RoundedRectangle|*
%AMROUNDEDRECTD46*
21,1,0.7311,0.0000,0,0,270.0*
21,1,0.4918,0.2393,0,0,270.0*
1,1,0.2393,0.0000,-0.2459*
1,1,0.2393,0.0000,0.2459*
1,1,0.2393,0.0000,0.2459*
1,1,0.2393,0.0000,-0.2459*
%
%ADD46ROUNDEDRECTD46*%
G04:AMPARAMS|DCode=47|XSize=0.2393mm|YSize=0.7311mm|CornerRadius=0.1196mm|HoleSize=0mm|Usage=FLASHONLY|Rotation=270.000|XOffset=0mm|YOffset=0mm|HoleType=Round|Shape=RoundedRectangle|*
%AMROUNDEDRECTD47*
21,1,0.2393,0.4918,0,0,270.0*
21,1,0.0000,0.7311,0,0,270.0*
1,1,0.2393,-0.2459,0.0000*
1,1,0.2393,-0.2459,0.0000*
1,1,0.2393,0.2459,0.0000*
1,1,0.2393,0.2459,0.0000*
%
%ADD47ROUNDEDRECTD47*%
%ADD48R,0.3000X0.4500*%
%ADD49R,0.4500X0.3000*%
%ADD50C,0.2125*%
%ADD51C,0.3825*%
%ADD52R,0.8000X0.6500*%
%ADD53R,0.8000X1.6000*%
%ADD77R,2.7500X2.7500*%
%ADD81C,0.1030*%
%ADD82C,0.2540*%
%ADD83C,0.8000*%
%ADD84C,0.6000*%
%ADD85C,0.5000*%
%ADD86C,0.1500*%
D11*
X807547Y704622D02*
G03*
X807547Y702122I3578J-1250D01*
G01*
X808958Y713981D02*
G03*
X807547Y709622I2167J-3109D01*
G01*
Y699622D02*
G03*
X807547Y697122I3578J-1250D01*
G01*
Y702122D02*
G03*
X807547Y699622I3578J-1250D01*
G01*
Y707122D02*
G03*
X807547Y704622I3578J-1250D01*
G01*
Y709622D02*
G03*
X807547Y707122I3578J-1250D01*
G01*
Y697122D02*
G03*
X807547Y694622I3578J-1250D01*
G01*
Y692122D02*
G03*
X807547Y689622I3578J-1250D01*
G01*
Y694622D02*
G03*
X807547Y692122I3578J-1250D01*
G01*
X808958Y713981D02*
G03*
X806046Y715880I-102112J-153367D01*
G01*
X807547Y682122D02*
G03*
X807547Y679622I3578J-1250D01*
G01*
Y684622D02*
G03*
X807547Y682122I3578J-1250D01*
G01*
Y677122D02*
G03*
X807547Y674622I3578J-1250D01*
G01*
Y679622D02*
G03*
X807547Y677122I3578J-1250D01*
G01*
Y687122D02*
G03*
X807547Y684622I3578J-1250D01*
G01*
Y689622D02*
G03*
X807547Y687122I3578J-1250D01*
G01*
Y674622D02*
G03*
X807547Y672122I3578J-1250D01*
G01*
Y669622D02*
G03*
X807547Y667122I3578J-1250D01*
G01*
Y672122D02*
G03*
X807547Y669622I3578J-1250D01*
G01*
X792215Y723894D02*
G03*
X724080Y744057I-85370J-163280D01*
G01*
X807547Y659622D02*
G03*
X807547Y657122I3578J-1250D01*
G01*
Y662122D02*
G03*
X807547Y659622I3578J-1250D01*
G01*
Y654622D02*
G03*
X807547Y652122I3578J-1250D01*
G01*
Y657122D02*
G03*
X807547Y654622I3578J-1250D01*
G01*
Y664622D02*
G03*
X807547Y662122I3578J-1250D01*
G01*
Y667122D02*
G03*
X807547Y664622I3578J-1250D01*
G01*
Y652122D02*
G03*
X807547Y649622I3578J-1250D01*
G01*
D02*
G03*
X807547Y647122I3578J-1250D01*
G01*
Y637122D02*
G03*
X807547Y634622I3578J-1250D01*
G01*
Y639622D02*
G03*
X807547Y637122I3578J-1250D01*
G01*
Y632122D02*
G03*
X807547Y629622I3578J-1250D01*
G01*
Y634622D02*
G03*
X807547Y632122I3578J-1250D01*
G01*
Y644622D02*
G03*
X807547Y642122I3578J-1250D01*
G01*
Y647122D02*
G03*
X807547Y644622I3578J-1250D01*
G01*
Y642122D02*
G03*
X807547Y639622I3578J-1250D01*
G01*
Y629622D02*
G03*
X807609Y626958I3578J-1250D01*
G01*
Y626958D02*
G03*
X806046Y626873I-578J-3746D01*
G01*
X760781Y626791D02*
G03*
X758281Y626791I-1250J-3578D01*
G01*
D02*
G03*
X755781Y626791I-1250J-3578D01*
G01*
X765781D02*
G03*
X763281Y626791I-1250J-3578D01*
G01*
D02*
G03*
X760781Y626791I-1250J-3578D01*
G01*
X778281D02*
G03*
X775781Y626791I-1250J-3578D01*
G01*
D02*
G03*
X773281Y626791I-1250J-3578D01*
G01*
X781966Y627002D02*
G03*
X780781Y626791I65J-3789D01*
G01*
D02*
G03*
X778281Y626791I-1250J-3578D01*
G01*
X770781D02*
G03*
X768281Y626791I-1250J-3578D01*
G01*
D02*
G03*
X765781Y626791I-1250J-3578D01*
G01*
X773281D02*
G03*
X770781Y626791I-1250J-3578D01*
G01*
X733281D02*
G03*
X730781Y626791I-1250J-3578D01*
G01*
D02*
G03*
X728281Y626791I-1250J-3578D01*
G01*
X738281D02*
G03*
X735781Y626791I-1250J-3578D01*
G01*
D02*
G03*
X733281Y626791I-1250J-3578D01*
G01*
X725781D02*
G03*
X723281Y626791I-1250J-3578D01*
G01*
D02*
G03*
X720781Y626791I-1250J-3578D01*
G01*
X728281D02*
G03*
X725781Y626791I-1250J-3578D01*
G01*
X750781D02*
G03*
X748281Y626791I-1250J-3578D01*
G01*
D02*
G03*
X745781Y626791I-1250J-3578D01*
G01*
X755781D02*
G03*
X753281Y626791I-1250J-3578D01*
G01*
D02*
G03*
X750781Y626791I-1250J-3578D01*
G01*
X743281D02*
G03*
X740781Y626791I-1250J-3578D01*
G01*
D02*
G03*
X738281Y626791I-1250J-3578D01*
G01*
X745781D02*
G03*
X743281Y626791I-1250J-3578D01*
G01*
X710000Y744838D02*
G03*
X692080Y744272I-3154J-184224D01*
G01*
X678000Y742593D02*
G03*
X619761Y722986I28846J-181979D01*
G01*
X653980Y722803D02*
G03*
X651480Y722803I-1250J-3578D01*
G01*
D02*
G03*
X648980Y722803I-1250J-3578D01*
G01*
X658980D02*
G03*
X656480Y722803I-1250J-3578D01*
G01*
D02*
G03*
X653980Y722803I-1250J-3578D01*
G01*
X641480D02*
G03*
X638980Y722803I-1250J-3578D01*
G01*
D02*
G03*
X636480Y722803I-1250J-3578D01*
G01*
X646480D02*
G03*
X643980Y722803I-1250J-3578D01*
G01*
D02*
G03*
X641480Y722803I-1250J-3578D01*
G01*
X671480D02*
G03*
X668980Y722803I-1250J-3578D01*
G01*
D02*
G03*
X666480Y722803I-1250J-3578D01*
G01*
X676480D02*
G03*
X673980Y722803I-1250J-3578D01*
G01*
D02*
G03*
X671480Y722803I-1250J-3578D01*
G01*
X663980D02*
G03*
X661480Y722803I-1250J-3578D01*
G01*
D02*
G03*
X658980Y722803I-1250J-3578D01*
G01*
X666480D02*
G03*
X663980Y722803I-1250J-3578D01*
G01*
X631480D02*
G03*
X628980Y722803I-1250J-3578D01*
G01*
D02*
G03*
X626480Y722803I-1250J-3578D01*
G01*
X636480D02*
G03*
X633980Y722803I-1250J-3578D01*
G01*
D02*
G03*
X631480Y722803I-1250J-3578D01*
G01*
X623980D02*
G03*
X621480Y722803I-1250J-3578D01*
G01*
D02*
G03*
X619761Y722986I-1250J-3578D01*
G01*
X626480Y722803D02*
G03*
X623980Y722803I-1250J-3578D01*
G01*
X648980D02*
G03*
X646480Y722803I-1250J-3578D01*
G01*
X679986Y722270D02*
G03*
X676480Y722803I-2256J-3045D01*
G01*
X686966Y719956D02*
G03*
X685747Y720043I-878J-3687D01*
G01*
X685747Y720043D02*
G03*
X679986Y722270I-3672J-937D01*
G01*
X720781Y626791D02*
G03*
X718281Y626791I-1250J-3578D01*
G01*
D02*
G03*
X715781Y626791I-1250J-3578D01*
G01*
X713281D02*
G03*
X711046Y626872I-1250J-3578D01*
G01*
X715781Y626791D02*
G03*
X713281Y626791I-1250J-3578D01*
G01*
X806046Y695738D02*
X807518Y697210D01*
X806046Y698674D02*
X807522Y697198D01*
X806046Y695846D02*
X807480Y694411D01*
X806046Y693017D02*
X807415Y691648D01*
X806046Y692909D02*
X807455Y694319D01*
X806046Y690081D02*
X807373Y691408D01*
X806046Y715645D02*
X808296Y713394D01*
X806046Y712816D02*
X807384Y711478D01*
X806046Y712708D02*
X807971Y714633D01*
X806046Y709988D02*
X807348Y708686D01*
X806046Y709880D02*
X807348Y711182D01*
X806046Y707159D02*
X807335Y705870D01*
X806046Y707051D02*
X807335Y708341D01*
X806046Y701395D02*
X807389Y702737D01*
X806046Y704331D02*
X807351Y703026D01*
X806046Y698566D02*
X807445Y699966D01*
X806046Y701503D02*
X807406Y700142D01*
X806046Y704223D02*
X807351Y705528D01*
X806046Y702394D02*
Y710814D01*
Y691394D02*
Y699314D01*
Y673110D02*
X807542Y674606D01*
X806046Y676047D02*
X807528Y674565D01*
X806046Y673218D02*
X807453Y671811D01*
X806046Y670390D02*
X807395Y669041D01*
X806046Y670282D02*
X807417Y671653D01*
X806046Y667454D02*
X807355Y668763D01*
X806046Y687253D02*
X807339Y688546D01*
X806046Y690189D02*
X807368Y688867D01*
X806046Y684424D02*
X807338Y685717D01*
X806046Y687360D02*
X807340Y686066D01*
X806046Y688314D02*
Y691394D01*
Y688314D02*
Y691394D01*
Y684532D02*
X807338Y683240D01*
X806046Y678767D02*
X807409Y680130D01*
X806046Y681704D02*
X807367Y680383D01*
X806046Y675939D02*
X807472Y677365D01*
X806046Y678875D02*
X807442Y677479D01*
X806046Y681596D02*
X807363Y682913D01*
X806046Y680394D02*
Y688314D01*
Y677314D02*
Y680394D01*
X754925Y738481D02*
X781966Y711440D01*
X751109Y739469D02*
X781966Y708612D01*
X781166Y729211D02*
X786483Y723894D01*
X776259Y731290D02*
X783654Y723894D01*
X762947Y736116D02*
X781966Y717097D01*
X758866Y737369D02*
X781966Y714269D01*
X771614Y733106D02*
X781966Y722754D01*
X767188Y734704D02*
X781966Y719926D01*
X730233Y743374D02*
X781966Y691641D01*
X727022Y743757D02*
X781966Y688813D01*
X736861Y742404D02*
X781966Y697298D01*
X733511Y742925D02*
X781966Y694470D01*
X743800Y741121D02*
X781966Y702955D01*
X740288Y741804D02*
X781966Y700127D01*
X747404Y740345D02*
X781966Y705784D01*
X724080Y729737D02*
X736763Y742420D01*
X724080Y724080D02*
X741564Y741564D01*
X724080Y726908D02*
X739177Y742006D01*
X724080Y738222D02*
X729344Y743486D01*
X724080Y741050D02*
X726809Y743780D01*
X724080Y732565D02*
X734320Y742805D01*
X724080Y735394D02*
X731847Y743161D01*
X724080Y735385D02*
X781966Y677499D01*
X724080Y738214D02*
X781966Y680328D01*
X724080Y729729D02*
X781966Y671843D01*
X724080Y732557D02*
X781966Y674671D01*
X724080Y743871D02*
X781966Y685985D01*
X724080Y723782D02*
Y744057D01*
Y741042D02*
X781966Y683156D01*
X806046Y710814D02*
Y713394D01*
Y715880D01*
Y699314D02*
Y702394D01*
Y710814D02*
Y713394D01*
X786401Y726805D02*
X789311Y723894D01*
X783291D02*
X786266Y726869D01*
X788948Y723894D02*
X790058Y725004D01*
X786119Y723894D02*
X788171Y725946D01*
X806046Y677314D02*
Y680394D01*
Y699314D02*
Y702394D01*
Y666314D02*
Y669394D01*
Y677314D01*
X781966Y669394D02*
Y677314D01*
Y680394D01*
Y666314D02*
Y669394D01*
Y723894D02*
X792215D01*
X781966Y722569D02*
X783291Y723894D01*
X781966Y699314D02*
Y702394D01*
Y710814D01*
Y713394D01*
Y723894D01*
Y710814D02*
Y713394D01*
Y688314D02*
Y691394D01*
X724080Y726900D02*
X781966Y669014D01*
Y677314D02*
Y680394D01*
Y688314D01*
Y691394D02*
Y699314D01*
Y702394D01*
Y688314D02*
Y691394D01*
X806046Y653419D02*
X807497Y651968D01*
X806046Y653311D02*
X807500Y654766D01*
X806046Y650483D02*
X807483Y651920D01*
X806046Y650591D02*
X807429Y649208D01*
X806046Y647763D02*
X807377Y646432D01*
X806046Y647655D02*
X807387Y648996D01*
X806046Y644314D02*
Y647394D01*
Y661797D02*
X807345Y663096D01*
X806046Y667561D02*
X807355Y666253D01*
X806046Y658968D02*
X807379Y660301D01*
X806046Y661905D02*
X807345Y660606D01*
X806046Y658394D02*
Y666314D01*
Y669394D01*
Y664733D02*
X807336Y663443D01*
X806046Y664625D02*
X807336Y665915D01*
X806046Y656140D02*
X807431Y657525D01*
X806046Y659076D02*
X807390Y657733D01*
X806046Y647394D02*
Y655314D01*
Y656248D02*
X807489Y654805D01*
X806046Y655314D02*
Y658394D01*
Y655314D02*
Y658394D01*
X754273Y626994D02*
X781966Y654687D01*
X806046Y630684D02*
X807531Y632169D01*
X806046Y630792D02*
X807469Y629369D01*
X806046Y627856D02*
X807438Y629248D01*
X806046Y627964D02*
X807007Y627003D01*
X806046Y626873D02*
Y633314D01*
Y627963D02*
X807007Y627003D01*
X806046Y644934D02*
X807345Y643636D01*
X806046Y644826D02*
X807344Y646124D01*
X806046Y639277D02*
X807357Y637966D01*
X806046Y639169D02*
X807356Y640479D01*
X806046Y641998D02*
X807336Y643288D01*
X806046Y644314D02*
Y647394D01*
Y642106D02*
X807336Y640816D01*
X806046Y636449D02*
X807420Y635075D01*
X806046Y636341D02*
X807397Y637692D01*
X806046Y633620D02*
X807546Y632120D01*
X806046Y633513D02*
X807456Y634923D01*
X806046Y633314D02*
Y635894D01*
Y644314D01*
Y633314D02*
Y635894D01*
X781966Y644314D02*
Y647394D01*
Y655314D01*
Y635894D02*
Y644314D01*
Y647394D01*
Y658394D02*
Y666314D01*
Y669394D01*
Y655314D02*
Y658394D01*
Y655314D02*
Y658394D01*
X765475Y626883D02*
X781966Y643374D01*
X762706Y626942D02*
X781966Y646202D01*
X771148Y626898D02*
X781966Y637717D01*
X768229Y626808D02*
X781966Y640545D01*
Y633314D02*
Y635894D01*
X759918Y626983D02*
X781966Y649030D01*
Y633314D02*
Y635894D01*
X737301Y626993D02*
X781966Y671658D01*
X731633Y626982D02*
X781966Y677315D01*
X757109Y627002D02*
X781966Y651859D01*
X740097Y626960D02*
X781966Y668829D01*
X724080Y724072D02*
X781966Y666186D01*
X721541Y723782D02*
X781966Y663357D01*
X734482Y627002D02*
X781966Y674486D01*
X725788Y626793D02*
X781966Y682971D01*
X723034Y626868D02*
X781966Y685800D01*
X748475Y626853D02*
X781966Y660344D01*
X745632Y626839D02*
X781966Y663173D01*
X742873Y626908D02*
X781966Y666001D01*
X728743Y626920D02*
X781966Y680143D01*
X751400Y626950D02*
X781966Y657516D01*
Y627002D02*
Y633314D01*
X774050Y626972D02*
X781966Y634888D01*
X779732Y626997D02*
X781966Y629231D01*
X776907Y627001D02*
X781966Y632060D01*
X700566Y744758D02*
X710000Y735323D01*
X697850Y744645D02*
X710000Y732495D01*
X695172Y744495D02*
X710000Y729667D01*
X692530Y744308D02*
X710000Y726838D01*
X708956Y744853D02*
X710000Y743809D01*
X706117Y744863D02*
X710000Y740980D01*
X703321Y744831D02*
X710000Y738152D01*
X692080Y736362D02*
Y744272D01*
X710000Y723894D02*
Y744838D01*
X692080Y741929D02*
X710000Y724009D01*
X695610Y723894D02*
X710000Y738284D01*
X692781Y723894D02*
X710000Y741113D01*
X692080Y741930D02*
X710000Y724010D01*
X692080Y726021D02*
X710000Y743941D01*
X692080Y739101D02*
X707287Y723894D01*
X692080Y734506D02*
X702384Y744811D01*
X692080Y740163D02*
X696490Y744574D01*
X692080Y737335D02*
X699462Y744717D01*
X692080Y742992D02*
X693467Y744378D01*
X678000Y736362D02*
Y742593D01*
X674955Y742084D02*
X678000Y739039D01*
X672563Y741647D02*
X678000Y736210D01*
X692080Y731678D02*
X705260Y744858D01*
X692080Y728849D02*
X708091Y744861D01*
X660753Y722978D02*
X678000Y740225D01*
X667860Y740693D02*
X678000Y730554D01*
X665548Y740177D02*
X678000Y727725D01*
X663261Y739636D02*
X678000Y724897D01*
X701267Y723894D02*
X710000Y732627D01*
X698438Y723894D02*
X710000Y735456D01*
X704095Y723894D02*
X710000Y729799D01*
X692080Y723894D02*
X710000D01*
X692080Y730616D02*
X698802Y723894D01*
X692080D02*
Y733282D01*
Y724959D02*
X693145Y723894D01*
X692080Y727787D02*
X695973Y723894D01*
X710228Y723782D02*
X711046Y722964D01*
X710000Y723782D02*
X711046D01*
X724080D01*
X710227D02*
X711046Y722963D01*
X706924Y723894D02*
X710000Y726971D01*
X704095Y723894D02*
X710000Y729799D01*
Y723894D02*
X711046D01*
X692080Y733282D02*
Y736362D01*
Y733282D02*
Y736362D01*
Y733444D02*
X701630Y723894D01*
X692080Y736273D02*
X704458Y723894D01*
X678000Y733282D02*
Y736362D01*
Y733282D02*
Y736362D01*
Y723782D02*
Y733282D01*
Y724897D02*
X679115Y723782D01*
X666294Y722862D02*
X678000Y734568D01*
Y723782D02*
X686966D01*
X677760Y723015D02*
X678527Y723782D01*
X672040Y722951D02*
X678000Y728912D01*
X663532Y722929D02*
X678000Y737397D01*
X674919Y723002D02*
X678000Y726083D01*
X677375Y742493D02*
X678000Y741867D01*
X657954Y723008D02*
X677451Y742505D01*
X670199Y741183D02*
X678000Y733382D01*
X655131Y723013D02*
X674038Y741920D01*
X652277Y722988D02*
X670543Y741253D01*
X652185Y736570D02*
X665780Y722974D01*
X650038Y735889D02*
X662916Y723010D01*
X647912Y735185D02*
X660086Y723012D01*
X660999Y739070D02*
X677105Y722963D01*
X658760Y738480D02*
X674333Y722907D01*
X669104Y722844D02*
X678000Y731740D01*
X656546Y737866D02*
X671577Y722835D01*
X649379Y722918D02*
X666956Y740495D01*
X646447Y722814D02*
X663271Y739638D01*
X654354Y737229D02*
X668693Y722890D01*
X638140Y722992D02*
X651505Y736357D01*
X635332Y723013D02*
X647295Y734976D01*
X645808Y734461D02*
X657281Y722988D01*
X635596Y730531D02*
X643134Y722993D01*
X632498Y723008D02*
X642905Y733414D01*
X629629Y722967D02*
X638303Y731641D01*
X633613Y729686D02*
X640285Y723014D01*
X631649Y728822D02*
X637465Y723006D01*
X643694Y722890D02*
X659476Y738671D01*
X640926Y722950D02*
X655559Y737583D01*
X643725Y733716D02*
X654498Y722943D01*
X641663Y732950D02*
X651732Y722881D01*
X639621Y732163D02*
X648981Y722803D01*
X637599Y731357D02*
X646025Y722930D01*
X626708Y722874D02*
X633448Y729614D01*
X629704Y727938D02*
X634669Y722973D01*
X623851Y722845D02*
X628280Y727275D01*
X627777Y727037D02*
X631893Y722921D01*
X625869Y726116D02*
X629133Y722852D01*
X623979Y725178D02*
X626295Y722862D01*
X621092Y722915D02*
X622710Y724533D01*
X622106Y724222D02*
X623368Y722961D01*
X711046Y654478D02*
X784343Y727774D01*
X711046Y657306D02*
X782401Y728661D01*
X713056Y723782D02*
X781966Y654872D01*
X711046Y722964D02*
X781966Y652044D01*
X711046Y660135D02*
X780440Y729529D01*
X711046Y662963D02*
X778461Y730378D01*
X718713Y723782D02*
X781966Y660529D01*
X715884Y723782D02*
X781966Y657701D01*
X711046Y717307D02*
X781966Y646386D01*
X711046Y648821D02*
X781966Y719741D01*
X711046Y714478D02*
X781966Y643558D01*
X711046Y645992D02*
X781966Y716912D01*
X711046Y651649D02*
X781966Y722569D01*
X711046Y722963D02*
X781966Y652043D01*
X711046Y720135D02*
X781966Y649215D01*
X711046Y691247D02*
X757550Y737751D01*
X711046Y694075D02*
X755339Y738369D01*
X711046Y685590D02*
X761902Y736447D01*
X711046Y688419D02*
X759737Y737110D01*
X711046Y702561D02*
X748565Y740079D01*
X711046Y705389D02*
X746257Y740600D01*
X711046Y696904D02*
X753105Y738963D01*
X711046Y699732D02*
X750847Y739534D01*
X711046Y671448D02*
X772405Y732807D01*
X711046Y674277D02*
X770346Y733577D01*
X711046Y665791D02*
X776462Y731207D01*
X711046Y668620D02*
X774443Y732017D01*
X711046Y679933D02*
X766167Y735054D01*
X711046Y682762D02*
X764045Y735761D01*
X711046Y677105D02*
X768267Y734326D01*
X714681Y627000D02*
X781966Y694285D01*
X711851Y626998D02*
X781966Y697113D01*
X717485Y626975D02*
X781966Y691457D01*
X711046Y683365D02*
X767430Y626982D01*
X711046Y677709D02*
X761761Y626993D01*
X711046Y680537D02*
X764581Y627002D01*
X711046Y660738D02*
X744790Y626994D01*
X711046Y674880D02*
X758966Y626960D01*
X720268Y626930D02*
X781966Y688628D01*
X711046Y689022D02*
X773276Y626792D01*
X711046Y672052D02*
X756190Y626908D01*
X711046Y686194D02*
X770320Y626920D01*
X711046Y666395D02*
X750589Y626852D01*
X711046Y669223D02*
X753430Y626839D01*
X711046Y663567D02*
X747663Y626950D01*
X711046Y637507D02*
X781966Y708427D01*
X711046Y708821D02*
X781966Y637901D01*
X711046Y634679D02*
X781966Y705599D01*
X711046Y705993D02*
X781966Y635073D01*
X711046Y711650D02*
X781966Y640730D01*
X711046Y643164D02*
X781966Y714084D01*
X711046Y640336D02*
X781966Y711256D01*
X711046Y631850D02*
X781966Y702770D01*
X711046Y703164D02*
X781966Y632244D01*
X711046Y629022D02*
X781966Y699942D01*
X711046Y700336D02*
X781966Y629416D01*
X711046Y694679D02*
X778795Y626931D01*
X711046Y697508D02*
X781578Y626976D01*
X711046Y691851D02*
X776029Y626868D01*
X711046Y719531D02*
X715297Y723782D01*
X711046Y722360D02*
X712468Y723782D01*
X711046Y711046D02*
X723782Y723782D01*
X711046Y713874D02*
X720954Y723782D01*
X711046Y710814D02*
Y713394D01*
Y723782D01*
Y702394D02*
Y710814D01*
Y713394D01*
Y688314D02*
Y691394D01*
Y688314D02*
Y691394D01*
Y677314D02*
Y680394D01*
Y688314D01*
Y699314D02*
Y702394D01*
Y699314D02*
Y702394D01*
Y691394D02*
Y699314D01*
X681943Y723782D02*
X682925Y722800D01*
X679903Y722329D02*
X681356Y723782D01*
X684883Y721652D02*
X686966Y723735D01*
X683145Y722743D02*
X684184Y723782D01*
X679115D02*
X680393Y722504D01*
X711046Y708218D02*
X743924Y741096D01*
X686966Y719956D02*
Y723782D01*
X711046Y716703D02*
X718125Y723782D01*
X684772D02*
X686966Y721588D01*
X686118Y720059D02*
X686966Y720907D01*
X711046Y638111D02*
X722156Y627001D01*
X711046Y640939D02*
X725013Y626972D01*
X711046Y632454D02*
X716530Y626969D01*
X711046Y635282D02*
X719331Y626997D01*
X711046Y633314D02*
Y635894D01*
Y644314D01*
Y629626D02*
X713750Y626922D01*
X711046Y633314D02*
Y635894D01*
Y643768D02*
X727916Y626898D01*
X711046Y646596D02*
X730833Y626809D01*
X711046Y626872D02*
Y633314D01*
Y658394D02*
Y666314D01*
Y669394D01*
Y655314D02*
Y658394D01*
Y655314D02*
Y658394D01*
Y669394D02*
Y677314D01*
Y680394D01*
Y666314D02*
Y669394D01*
Y655081D02*
X739144Y626983D01*
X711046Y657910D02*
X741954Y627002D01*
X711046Y649425D02*
X733587Y626883D01*
X711046Y652253D02*
X736357Y626942D01*
X711046Y644314D02*
Y647394D01*
Y655314D01*
Y644314D02*
Y647394D01*
D12*
X903478Y560832D02*
G03*
X903478Y560832I-196596J0D01*
G01*
D13*
X600437Y468140D02*
X601181Y468884D01*
X599693Y467396D02*
X600437Y468140D01*
X799556Y392212D02*
Y468884D01*
X599693Y400948D02*
Y467396D01*
X597154Y715046D02*
X681482D01*
X601181Y468884D02*
X799556D01*
Y617546D01*
X682970Y620522D02*
X684458Y619034D01*
X682970Y620522D02*
Y713558D01*
X682226Y714302D02*
X682970Y713558D01*
X681482Y715046D02*
X682226Y714302D01*
X684458Y619034D02*
X798068D01*
X799556Y617546D01*
X815304Y624114D02*
Y714756D01*
X798068Y619034D02*
X810224D01*
X815304Y624114D01*
D17*
X816792Y539426D02*
D03*
Y534426D02*
D03*
Y529426D02*
D03*
Y524426D02*
D03*
Y519426D02*
D03*
Y514426D02*
D03*
Y509426D02*
D03*
Y504426D02*
D03*
Y499426D02*
D03*
Y494426D02*
D03*
X875792D02*
D03*
Y499426D02*
D03*
Y504426D02*
D03*
Y509426D02*
D03*
Y514426D02*
D03*
Y519426D02*
D03*
Y524426D02*
D03*
Y529426D02*
D03*
Y534426D02*
D03*
Y539426D02*
D03*
D18*
X823792Y487426D02*
D03*
X828792D02*
D03*
X833792D02*
D03*
X838792D02*
D03*
X843792D02*
D03*
X848792D02*
D03*
X853792D02*
D03*
X858792D02*
D03*
X863792D02*
D03*
X868792D02*
D03*
Y546426D02*
D03*
X863792D02*
D03*
X858792D02*
D03*
X853792D02*
D03*
X848792D02*
D03*
X843792D02*
D03*
X838792D02*
D03*
X833792D02*
D03*
X828792D02*
D03*
X823792D02*
D03*
D19*
X846292Y516926D02*
D03*
D20*
X794006Y629354D02*
D03*
Y717354D02*
D03*
X699006D02*
D03*
Y629354D02*
D03*
D21*
X794006Y640354D02*
D03*
Y651354D02*
D03*
Y662354D02*
D03*
Y673354D02*
D03*
Y684354D02*
D03*
Y695354D02*
D03*
Y706354D02*
D03*
X699006D02*
D03*
Y695354D02*
D03*
Y684354D02*
D03*
Y673354D02*
D03*
Y662354D02*
D03*
Y651354D02*
D03*
Y640354D02*
D03*
D22*
X817892Y590764D02*
D03*
Y595764D02*
D03*
Y600764D02*
D03*
Y610764D02*
D03*
Y615764D02*
D03*
Y585764D02*
D03*
Y580764D02*
D03*
Y575764D02*
D03*
Y570764D02*
D03*
X877892Y568264D02*
D03*
Y573264D02*
D03*
Y578264D02*
D03*
Y583264D02*
D03*
Y608264D02*
D03*
Y603264D02*
D03*
Y598264D02*
D03*
X822892Y563264D02*
D03*
Y568264D02*
D03*
Y578264D02*
D03*
Y583264D02*
D03*
Y608264D02*
D03*
Y603264D02*
D03*
Y598264D02*
D03*
Y593264D02*
D03*
Y588264D02*
D03*
X882892Y615764D02*
D03*
Y605764D02*
D03*
Y595764D02*
D03*
Y590764D02*
D03*
Y560764D02*
D03*
Y565764D02*
D03*
Y570764D02*
D03*
Y575764D02*
D03*
Y580764D02*
D03*
Y585764D02*
D03*
X850392Y615764D02*
D03*
X845392D02*
D03*
X840392D02*
D03*
X835392D02*
D03*
X830392D02*
D03*
X825392D02*
D03*
X855392D02*
D03*
X860392D02*
D03*
X865392D02*
D03*
X850392Y560764D02*
D03*
X855392D02*
D03*
X860392D02*
D03*
X865392D02*
D03*
X870392D02*
D03*
X845392D02*
D03*
X840392D02*
D03*
X830392D02*
D03*
X877892Y555764D02*
D03*
X872892D02*
D03*
X867892D02*
D03*
X862892D02*
D03*
X857892D02*
D03*
X822892D02*
D03*
X827892D02*
D03*
X837892D02*
D03*
X842892D02*
D03*
X847892D02*
D03*
X852892D02*
D03*
X837892Y620764D02*
D03*
X842892D02*
D03*
X847892D02*
D03*
X877892D02*
D03*
X872892D02*
D03*
X867892D02*
D03*
X862892D02*
D03*
X857892D02*
D03*
X852892D02*
D03*
X832892Y555764D02*
D03*
D23*
X850392Y588264D02*
D03*
D24*
X568536Y678060D02*
D03*
Y671560D02*
D03*
Y665060D02*
D03*
Y658560D02*
D03*
X583536D02*
D03*
Y665060D02*
D03*
Y671560D02*
D03*
Y678060D02*
D03*
D25*
X825152Y670560D02*
D03*
X830152D02*
D03*
X835152D02*
D03*
X840152D02*
D03*
Y685810D02*
D03*
X835152D02*
D03*
X830152D02*
D03*
X825152D02*
D03*
D26*
X840402Y675685D02*
D03*
Y680685D02*
D03*
X824652D02*
D03*
Y675685D02*
D03*
D27*
X765302Y395908D02*
D03*
Y417908D02*
D03*
X764794Y455500D02*
D03*
Y433500D02*
D03*
X667766Y395654D02*
D03*
Y417654D02*
D03*
Y455422D02*
D03*
Y433422D02*
D03*
D28*
X728980Y386842D02*
D03*
X720280D02*
D03*
D29*
X729630Y380492D02*
D03*
X719630D02*
D03*
Y393192D02*
D03*
X729630D02*
D03*
D30*
X724630Y380492D02*
D03*
Y393192D02*
D03*
D31*
X699516Y386588D02*
D03*
D32*
X689016Y379088D02*
D03*
Y384088D02*
D03*
Y389088D02*
D03*
Y394088D02*
D03*
X710016D02*
D03*
Y389088D02*
D03*
Y384088D02*
D03*
Y379088D02*
D03*
D33*
X693034Y443244D02*
D03*
Y438244D02*
D03*
Y433244D02*
D03*
Y428244D02*
D03*
Y423244D02*
D03*
Y418244D02*
D03*
Y413244D02*
D03*
X740034D02*
D03*
Y418244D02*
D03*
Y423244D02*
D03*
Y428244D02*
D03*
Y433244D02*
D03*
Y438244D02*
D03*
Y443244D02*
D03*
D34*
X701534Y404744D02*
D03*
X706534D02*
D03*
X711534D02*
D03*
X716534D02*
D03*
X721534D02*
D03*
X726534D02*
D03*
X731534D02*
D03*
Y451744D02*
D03*
X726534D02*
D03*
X721534D02*
D03*
X716534D02*
D03*
X711534D02*
D03*
X706534D02*
D03*
X701534D02*
D03*
D35*
X716534Y428244D02*
D03*
D36*
X740410Y383358D02*
D03*
Y392358D02*
D03*
D37*
X786088Y485434D02*
D03*
X778088D02*
D03*
X770088D02*
D03*
X738088D02*
D03*
X730088D02*
D03*
X722088D02*
D03*
X786088Y493434D02*
D03*
X778088D02*
D03*
X770088D02*
D03*
X738088D02*
D03*
X730088D02*
D03*
X722088D02*
D03*
X786088Y501434D02*
D03*
X778088D02*
D03*
X770088D02*
D03*
X738088D02*
D03*
X730088D02*
D03*
X722088D02*
D03*
X786088Y509434D02*
D03*
X778088D02*
D03*
X770088D02*
D03*
X738088D02*
D03*
X730088D02*
D03*
X722088D02*
D03*
X786088Y517434D02*
D03*
X778088D02*
D03*
X770088D02*
D03*
X738088D02*
D03*
X730088D02*
D03*
X722088D02*
D03*
X786088Y525434D02*
D03*
X778088D02*
D03*
X770088D02*
D03*
X738088D02*
D03*
X730088D02*
D03*
X722088D02*
D03*
X786088Y533434D02*
D03*
X778088D02*
D03*
X770088D02*
D03*
X738088D02*
D03*
X730088D02*
D03*
X722088D02*
D03*
X786088Y541434D02*
D03*
X778088D02*
D03*
X770088D02*
D03*
X738088D02*
D03*
X730088D02*
D03*
X722088D02*
D03*
X786088Y549434D02*
D03*
X778088D02*
D03*
X770088D02*
D03*
X738088D02*
D03*
X730088D02*
D03*
X722088D02*
D03*
X786088Y557434D02*
D03*
X778088D02*
D03*
X770088D02*
D03*
X738088D02*
D03*
X730088D02*
D03*
X722088D02*
D03*
X786088Y565434D02*
D03*
X778088D02*
D03*
X770088D02*
D03*
X738088D02*
D03*
X730088D02*
D03*
X722088D02*
D03*
X786088Y573434D02*
D03*
X778088D02*
D03*
X770088D02*
D03*
X738088D02*
D03*
X730088D02*
D03*
X722088D02*
D03*
X786088Y581434D02*
D03*
X778088D02*
D03*
X770088D02*
D03*
X738088D02*
D03*
X730088D02*
D03*
X722088D02*
D03*
X786088Y589434D02*
D03*
X778088D02*
D03*
X770088D02*
D03*
X738088D02*
D03*
X730088D02*
D03*
X722088D02*
D03*
X786088Y597434D02*
D03*
X778088D02*
D03*
X770088D02*
D03*
X738088D02*
D03*
X730088D02*
D03*
X722088D02*
D03*
X786088Y605434D02*
D03*
X778088D02*
D03*
X770088D02*
D03*
X738088D02*
D03*
X730088D02*
D03*
X722088D02*
D03*
D38*
X636602Y436016D02*
D03*
Y455016D02*
D03*
X614602Y445516D02*
D03*
X636348Y401980D02*
D03*
Y420980D02*
D03*
X614348Y411480D02*
D03*
D39*
X851178Y633004D02*
D03*
X860178D02*
D03*
X832660Y632496D02*
D03*
X841660D02*
D03*
X832660Y645958D02*
D03*
X841660D02*
D03*
X851504Y659928D02*
D03*
X860504D02*
D03*
X832478Y659674D02*
D03*
X841478D02*
D03*
X851432Y646466D02*
D03*
X860432D02*
D03*
D40*
X545338Y585274D02*
D03*
X558038D02*
D03*
X570738D02*
D03*
X583438D02*
D03*
Y639514D02*
D03*
X570738D02*
D03*
X558038D02*
D03*
X545338D02*
D03*
D41*
X562762Y549976D02*
D03*
X581762D02*
D03*
X572262Y569976D02*
D03*
D42*
X551052Y560446D02*
D03*
D43*
X527052Y571246D02*
D03*
X543052D02*
D03*
X551052D02*
D03*
X535052D02*
D03*
X527052Y549946D02*
D03*
X543052D02*
D03*
X551052D02*
D03*
X535052D02*
D03*
D44*
X543270Y482298D02*
D03*
X555970D02*
D03*
X568670D02*
D03*
X581370D02*
D03*
Y535298D02*
D03*
X568670D02*
D03*
X555970D02*
D03*
X543270D02*
D03*
D45*
X840544Y475634D02*
D03*
D46*
X835544D02*
D03*
X830544D02*
D03*
X825544D02*
D03*
X820544D02*
D03*
Y437823D02*
D03*
X825544D02*
D03*
X830544D02*
D03*
X835544D02*
D03*
X840544D02*
D03*
D47*
X811638Y466728D02*
D03*
Y461728D02*
D03*
Y456728D02*
D03*
Y451728D02*
D03*
Y446728D02*
D03*
X849449D02*
D03*
Y451728D02*
D03*
Y456728D02*
D03*
Y461728D02*
D03*
Y466728D02*
D03*
D48*
X565996Y445502D02*
D03*
X570996D02*
D03*
X575996D02*
D03*
X580996D02*
D03*
Y471002D02*
D03*
X575996D02*
D03*
X570996D02*
D03*
X565996D02*
D03*
D49*
X586246Y450752D02*
D03*
Y455752D02*
D03*
Y460752D02*
D03*
Y465752D02*
D03*
X560746D02*
D03*
Y460752D02*
D03*
Y455752D02*
D03*
Y450752D02*
D03*
D50*
X597538Y589274D02*
D03*
X601538D02*
D03*
X609538D02*
D03*
X613538D02*
D03*
X621538D02*
D03*
X629538D02*
D03*
X637538D02*
D03*
X645538D02*
D03*
X657538D02*
D03*
X665538D02*
D03*
X673538D02*
D03*
X681538D02*
D03*
X689538D02*
D03*
X693538D02*
D03*
X701538D02*
D03*
X705538D02*
D03*
X597538Y585274D02*
D03*
X601538D02*
D03*
X605538D02*
D03*
X609538D02*
D03*
X613538D02*
D03*
X617538D02*
D03*
X621538D02*
D03*
X629538D02*
D03*
X633538D02*
D03*
X637538D02*
D03*
X645538D02*
D03*
X649538D02*
D03*
X653538D02*
D03*
X657538D02*
D03*
X665538D02*
D03*
X669538D02*
D03*
X673538D02*
D03*
X681538D02*
D03*
X685538D02*
D03*
X689538D02*
D03*
X693538D02*
D03*
X697538D02*
D03*
X701538D02*
D03*
X705538D02*
D03*
X601538Y581274D02*
D03*
X605538D02*
D03*
X609538D02*
D03*
X613538D02*
D03*
X617538D02*
D03*
X621538D02*
D03*
X625538D02*
D03*
X629538D02*
D03*
X633538D02*
D03*
X637538D02*
D03*
X641538D02*
D03*
X645538D02*
D03*
X649538D02*
D03*
X653538D02*
D03*
X657538D02*
D03*
X661538D02*
D03*
X665538D02*
D03*
X669538D02*
D03*
X673538D02*
D03*
X677538D02*
D03*
X681538D02*
D03*
X685538D02*
D03*
X689538D02*
D03*
X693538D02*
D03*
X697538D02*
D03*
X701538D02*
D03*
X597538Y577274D02*
D03*
X601538D02*
D03*
X605538D02*
D03*
X609538D02*
D03*
X617538D02*
D03*
X621538D02*
D03*
X625538D02*
D03*
X629538D02*
D03*
X637538D02*
D03*
X641538D02*
D03*
X645538D02*
D03*
X657538D02*
D03*
X661538D02*
D03*
X665538D02*
D03*
X673538D02*
D03*
X677538D02*
D03*
X681538D02*
D03*
X685538D02*
D03*
X693538D02*
D03*
X697538D02*
D03*
X701538D02*
D03*
X705538D02*
D03*
X597538Y573274D02*
D03*
X601538D02*
D03*
X605538D02*
D03*
X613538D02*
D03*
X617538D02*
D03*
X621538D02*
D03*
X629538D02*
D03*
X637538D02*
D03*
X645538D02*
D03*
X657538D02*
D03*
X665538D02*
D03*
X673538D02*
D03*
X681538D02*
D03*
X685538D02*
D03*
X689538D02*
D03*
X697538D02*
D03*
X701538D02*
D03*
X705538D02*
D03*
X601538Y569274D02*
D03*
X605538D02*
D03*
X609538D02*
D03*
X613538D02*
D03*
X617538D02*
D03*
X621538D02*
D03*
X625538D02*
D03*
X629538D02*
D03*
X633538D02*
D03*
X637538D02*
D03*
X641538D02*
D03*
X645538D02*
D03*
X649538D02*
D03*
X653538D02*
D03*
X657538D02*
D03*
X661538D02*
D03*
X665538D02*
D03*
X669538D02*
D03*
X673538D02*
D03*
X677538D02*
D03*
X681538D02*
D03*
X685538D02*
D03*
X689538D02*
D03*
X693538D02*
D03*
X697538D02*
D03*
X701538D02*
D03*
X597538Y565274D02*
D03*
X601538D02*
D03*
X605538D02*
D03*
X609538D02*
D03*
X613538D02*
D03*
X617538D02*
D03*
X621538D02*
D03*
X629538D02*
D03*
X637538D02*
D03*
X645538D02*
D03*
X657538D02*
D03*
X665538D02*
D03*
X673538D02*
D03*
X681538D02*
D03*
X685538D02*
D03*
X689538D02*
D03*
X693538D02*
D03*
X697538D02*
D03*
X701538D02*
D03*
X705538D02*
D03*
X605538Y561274D02*
D03*
X609538D02*
D03*
X617538D02*
D03*
X633538D02*
D03*
X669538D02*
D03*
X685538D02*
D03*
X693538D02*
D03*
X697538D02*
D03*
X597538Y557274D02*
D03*
X601538D02*
D03*
X605538D02*
D03*
X609538D02*
D03*
X613538D02*
D03*
X617538D02*
D03*
X621538D02*
D03*
X629538D02*
D03*
X637538D02*
D03*
X645538D02*
D03*
X649538D02*
D03*
X653538D02*
D03*
X657538D02*
D03*
X665538D02*
D03*
X673538D02*
D03*
X681538D02*
D03*
X685538D02*
D03*
X689538D02*
D03*
X693538D02*
D03*
X697538D02*
D03*
X701538D02*
D03*
X705538D02*
D03*
X601538Y553274D02*
D03*
X605538D02*
D03*
X617538D02*
D03*
X625538D02*
D03*
X677538D02*
D03*
X685538D02*
D03*
X697538D02*
D03*
X701538D02*
D03*
X597538Y549274D02*
D03*
X601538D02*
D03*
X605538D02*
D03*
X609538D02*
D03*
X613538D02*
D03*
X617538D02*
D03*
X621538D02*
D03*
X629538D02*
D03*
X637538D02*
D03*
X645538D02*
D03*
X657538D02*
D03*
X665538D02*
D03*
X673538D02*
D03*
X681538D02*
D03*
X685538D02*
D03*
X689538D02*
D03*
X693538D02*
D03*
X697538D02*
D03*
X701538D02*
D03*
X705538D02*
D03*
X605538Y545274D02*
D03*
X609538D02*
D03*
X617538D02*
D03*
X685538D02*
D03*
X693538D02*
D03*
X697538D02*
D03*
X597538Y541274D02*
D03*
X601538D02*
D03*
X605538D02*
D03*
X609538D02*
D03*
X613538D02*
D03*
X617538D02*
D03*
X621538D02*
D03*
X629538D02*
D03*
X637538D02*
D03*
X645538D02*
D03*
X657538D02*
D03*
X665538D02*
D03*
X673538D02*
D03*
X681538D02*
D03*
X685538D02*
D03*
X689538D02*
D03*
X693538D02*
D03*
X697538D02*
D03*
X701538D02*
D03*
X705538D02*
D03*
X601538Y537274D02*
D03*
X605538D02*
D03*
X617538D02*
D03*
X629538D02*
D03*
X673538D02*
D03*
X685538D02*
D03*
X697538D02*
D03*
X701538D02*
D03*
X601538Y533274D02*
D03*
X605538D02*
D03*
X617538D02*
D03*
X629538D02*
D03*
X673538D02*
D03*
X685538D02*
D03*
X697538D02*
D03*
X701538D02*
D03*
X597538Y529274D02*
D03*
X601538D02*
D03*
X605538D02*
D03*
X609538D02*
D03*
X613538D02*
D03*
X617538D02*
D03*
X621538D02*
D03*
X629538D02*
D03*
X637538D02*
D03*
X645538D02*
D03*
X657538D02*
D03*
X665538D02*
D03*
X673538D02*
D03*
X681538D02*
D03*
X685538D02*
D03*
X689538D02*
D03*
X693538D02*
D03*
X697538D02*
D03*
X701538D02*
D03*
X705538D02*
D03*
X605538Y525274D02*
D03*
X609538D02*
D03*
X617538D02*
D03*
X685538D02*
D03*
X693538D02*
D03*
X697538D02*
D03*
X597538Y521274D02*
D03*
X601538D02*
D03*
X605538D02*
D03*
X609538D02*
D03*
X613538D02*
D03*
X617538D02*
D03*
X621538D02*
D03*
X629538D02*
D03*
X637538D02*
D03*
X645538D02*
D03*
X657538D02*
D03*
X665538D02*
D03*
X673538D02*
D03*
X681538D02*
D03*
X685538D02*
D03*
X689538D02*
D03*
X693538D02*
D03*
X697538D02*
D03*
X701538D02*
D03*
X705538D02*
D03*
X601538Y517274D02*
D03*
X605538D02*
D03*
X617538D02*
D03*
X625538D02*
D03*
X677538D02*
D03*
X685538D02*
D03*
X697538D02*
D03*
X701538D02*
D03*
X597538Y513274D02*
D03*
X601538D02*
D03*
X605538D02*
D03*
X609538D02*
D03*
X613538D02*
D03*
X617538D02*
D03*
X621538D02*
D03*
X629538D02*
D03*
X637538D02*
D03*
X645538D02*
D03*
X649538D02*
D03*
X653538D02*
D03*
X657538D02*
D03*
X665538D02*
D03*
X673538D02*
D03*
X681538D02*
D03*
X685538D02*
D03*
X689538D02*
D03*
X693538D02*
D03*
X697538D02*
D03*
X701538D02*
D03*
X705538D02*
D03*
X605538Y509274D02*
D03*
X609538D02*
D03*
X617538D02*
D03*
X633538D02*
D03*
X669538D02*
D03*
X685538D02*
D03*
X693538D02*
D03*
X697538D02*
D03*
X597538Y505274D02*
D03*
X601538D02*
D03*
X605538D02*
D03*
X609538D02*
D03*
X613538D02*
D03*
X617538D02*
D03*
X621538D02*
D03*
X629538D02*
D03*
X637538D02*
D03*
X645538D02*
D03*
X657538D02*
D03*
X665538D02*
D03*
X673538D02*
D03*
X681538D02*
D03*
X685538D02*
D03*
X689538D02*
D03*
X693538D02*
D03*
X697538D02*
D03*
X701538D02*
D03*
X705538D02*
D03*
X601538Y501274D02*
D03*
X605538D02*
D03*
X609538D02*
D03*
X613538D02*
D03*
X617538D02*
D03*
X621538D02*
D03*
X625538D02*
D03*
X629538D02*
D03*
X633538D02*
D03*
X637538D02*
D03*
X641538D02*
D03*
X645538D02*
D03*
X649538D02*
D03*
X653538D02*
D03*
X657538D02*
D03*
X661538D02*
D03*
X665538D02*
D03*
X669538D02*
D03*
X673538D02*
D03*
X677538D02*
D03*
X681538D02*
D03*
X685538D02*
D03*
X689538D02*
D03*
X693538D02*
D03*
X697538D02*
D03*
X701538D02*
D03*
X597538Y497274D02*
D03*
X601538D02*
D03*
X605538D02*
D03*
X613538D02*
D03*
X617538D02*
D03*
X621538D02*
D03*
X629538D02*
D03*
X637538D02*
D03*
X645538D02*
D03*
X657538D02*
D03*
X665538D02*
D03*
X673538D02*
D03*
X681538D02*
D03*
X685538D02*
D03*
X689538D02*
D03*
X697538D02*
D03*
X701538D02*
D03*
X705538D02*
D03*
X597538Y493274D02*
D03*
X601538D02*
D03*
X605538D02*
D03*
X609538D02*
D03*
X617538D02*
D03*
X621538D02*
D03*
X625538D02*
D03*
X629538D02*
D03*
X637538D02*
D03*
X641538D02*
D03*
X645538D02*
D03*
X657538D02*
D03*
X661538D02*
D03*
X665538D02*
D03*
X673538D02*
D03*
X677538D02*
D03*
X681538D02*
D03*
X685538D02*
D03*
X693538D02*
D03*
X697538D02*
D03*
X701538D02*
D03*
X705538D02*
D03*
X601538Y489274D02*
D03*
X605538D02*
D03*
X609538D02*
D03*
X613538D02*
D03*
X617538D02*
D03*
X621538D02*
D03*
X625538D02*
D03*
X629538D02*
D03*
X633538D02*
D03*
X637538D02*
D03*
X641538D02*
D03*
X645538D02*
D03*
X649538D02*
D03*
X653538D02*
D03*
X657538D02*
D03*
X661538D02*
D03*
X665538D02*
D03*
X669538D02*
D03*
X673538D02*
D03*
X677538D02*
D03*
X681538D02*
D03*
X685538D02*
D03*
X689538D02*
D03*
X693538D02*
D03*
X697538D02*
D03*
X701538D02*
D03*
X597538Y485274D02*
D03*
X601538D02*
D03*
X605538D02*
D03*
X609538D02*
D03*
X613538D02*
D03*
X617538D02*
D03*
X621538D02*
D03*
X629538D02*
D03*
X633538D02*
D03*
X637538D02*
D03*
X645538D02*
D03*
X649538D02*
D03*
X653538D02*
D03*
X657538D02*
D03*
X665538D02*
D03*
X669538D02*
D03*
X673538D02*
D03*
X681538D02*
D03*
X685538D02*
D03*
X689538D02*
D03*
X693538D02*
D03*
X697538D02*
D03*
X701538D02*
D03*
X705538D02*
D03*
X597538Y481274D02*
D03*
X601538D02*
D03*
X609538D02*
D03*
X613538D02*
D03*
X621538D02*
D03*
X629538D02*
D03*
X637538D02*
D03*
X645538D02*
D03*
X657538D02*
D03*
X665538D02*
D03*
X673538D02*
D03*
X681538D02*
D03*
X689538D02*
D03*
X693538D02*
D03*
X701538D02*
D03*
X705538D02*
D03*
D51*
X601094Y698872D02*
D03*
X609094D02*
D03*
X665094D02*
D03*
X673094D02*
D03*
X601094Y690872D02*
D03*
X665094D02*
D03*
X673094D02*
D03*
X617094Y682872D02*
D03*
X625094D02*
D03*
X633094D02*
D03*
X641094D02*
D03*
X649094D02*
D03*
X657094D02*
D03*
X617094Y674872D02*
D03*
X625094D02*
D03*
X633094D02*
D03*
X641094D02*
D03*
X649094D02*
D03*
X657094D02*
D03*
X617094Y666872D02*
D03*
X625094D02*
D03*
X633094D02*
D03*
X641094D02*
D03*
X649094D02*
D03*
X657094D02*
D03*
X617094Y658872D02*
D03*
X625094D02*
D03*
X633094D02*
D03*
X641094D02*
D03*
X649094D02*
D03*
X657094D02*
D03*
X617094Y650872D02*
D03*
X625094D02*
D03*
X633094D02*
D03*
X641094D02*
D03*
X649094D02*
D03*
X657094D02*
D03*
X617094Y642872D02*
D03*
X625094D02*
D03*
X633094D02*
D03*
X641094D02*
D03*
X649094D02*
D03*
X657094D02*
D03*
X617094Y634872D02*
D03*
X625094D02*
D03*
X633094D02*
D03*
X641094D02*
D03*
X649094D02*
D03*
X657094D02*
D03*
X617094Y626872D02*
D03*
X625094D02*
D03*
X633094D02*
D03*
X641094D02*
D03*
X649094D02*
D03*
X657094D02*
D03*
X601094Y618872D02*
D03*
X609094D02*
D03*
X665094D02*
D03*
X673094D02*
D03*
X601094Y610872D02*
D03*
X609094D02*
D03*
X665094D02*
D03*
X673094D02*
D03*
D52*
X685040Y739572D02*
D03*
Y730072D02*
D03*
D53*
X717040Y734822D02*
D03*
D77*
X830544Y456728D02*
D03*
D81*
X857975Y665983D02*
G03*
X845207Y682265I-151130J-105369D01*
G01*
X837393Y690615D02*
G03*
X823287Y703387I-130547J-130001D01*
G01*
X891081Y560614D02*
G03*
X887927Y594562I-184236J0D01*
G01*
X879424Y625109D02*
G03*
X865734Y653873I-172578J-64495D01*
G01*
X883097Y506964D02*
G03*
X891081Y560614I-176251J53650D01*
G01*
X873347Y481746D02*
G03*
X876958Y489871I-166501J78868D01*
G01*
X872567Y480121D02*
G03*
X873347Y481746I-165721J80493D01*
G01*
X856160Y452687D02*
G03*
X872567Y480121I-149314J107927D01*
G01*
X847349Y441443D02*
G03*
X848219Y442477I-140503J119171D01*
G01*
X846045Y439923D02*
G03*
X847349Y441443I-139199J120691D01*
G01*
X844795Y438497D02*
G03*
X846045Y439923I-137949J122118D01*
G01*
X807539Y406330D02*
G03*
X838151Y431379I-100694J154284D01*
G01*
X712390Y611262D02*
G03*
X713530Y611052I1250J3594D01*
G01*
X709890Y611262D02*
G03*
X712390Y611262I1250J3594D01*
G01*
X704890D02*
G03*
X707390Y611262I1250J3594D01*
G01*
X707390D02*
G03*
X709890Y611262I1250J3594D01*
G01*
X689890D02*
G03*
X692390Y611262I1250J3594D01*
G01*
X692390D02*
G03*
X694890Y611262I1250J3594D01*
G01*
X684661Y611350D02*
G03*
X687390Y611262I1480J3506D01*
G01*
X687390D02*
G03*
X689890Y611262I1250J3594D01*
G01*
X699890D02*
G03*
X702390Y611262I1250J3594D01*
G01*
X702390D02*
G03*
X704890Y611262I1250J3594D01*
G01*
X694890D02*
G03*
X697390Y611262I1250J3594D01*
G01*
X697390D02*
G03*
X699890Y611262I1250J3594D01*
G01*
X681981Y611595D02*
G03*
X684661Y611350I1664J3422D01*
G01*
X713530Y476782D02*
G03*
X711745Y476738I-801J-3720D01*
G01*
X597498Y475517D02*
G03*
X596503Y473610I2738J-2642D01*
G01*
D02*
G03*
X592570Y469851I-128J-3803D01*
G01*
Y469851D02*
G03*
X591926Y466222I2956J-2396D01*
G01*
X591921Y461205D02*
G03*
X591921Y458705I3594J-1250D01*
G01*
Y458705D02*
G03*
X591921Y456205I3594J-1250D01*
G01*
X591926Y466222D02*
G03*
X591921Y463705I3588J-1267D01*
G01*
Y463705D02*
G03*
X591921Y461205I3594J-1250D01*
G01*
Y431205D02*
G03*
X591921Y428705I3594J-1250D01*
G01*
Y428705D02*
G03*
X591921Y426205I3594J-1250D01*
G01*
Y436205D02*
G03*
X591921Y433705I3594J-1250D01*
G01*
Y433705D02*
G03*
X591921Y431205I3594J-1250D01*
G01*
Y421205D02*
G03*
X591921Y418705I3594J-1250D01*
G01*
Y418705D02*
G03*
X591779Y416731I3594J-1250D01*
G01*
X591921Y426205D02*
G03*
X591921Y423705I3594J-1250D01*
G01*
Y423705D02*
G03*
X591921Y421205I3594J-1250D01*
G01*
Y448705D02*
G03*
X591921Y446205I3594J-1250D01*
G01*
Y446205D02*
G03*
X591921Y443705I3594J-1250D01*
G01*
Y456205D02*
G03*
X591921Y453705I3594J-1250D01*
G01*
Y453705D02*
G03*
X591921Y451205I3594J-1250D01*
G01*
Y441205D02*
G03*
X591921Y438705I3594J-1250D01*
G01*
Y438705D02*
G03*
X591921Y436205I3594J-1250D01*
G01*
Y443705D02*
G03*
X591921Y441205I3594J-1250D01*
G01*
Y451205D02*
G03*
X591921Y448705I3594J-1250D01*
G01*
X591934Y704621D02*
G03*
X569237Y683115I114912J-144007D01*
G01*
X562981Y675704D02*
G03*
X545854Y650194I143865J-115090D01*
G01*
X539033Y636651D02*
G03*
X523437Y578051I167813J-76037D01*
G01*
X557557Y560446D02*
G03*
X556186Y564441I-6505J0D01*
G01*
X545918D02*
G03*
X545698Y556751I5134J-3995D01*
G01*
X556867Y557531D02*
G03*
X557557Y560446I-5815J2915D01*
G01*
X556406Y556751D02*
G03*
X556867Y557531I-5354J3695D01*
G01*
X522650Y564441D02*
G03*
X522651Y556751I184196J-3827D01*
G01*
X567410Y440197D02*
G03*
X591779Y416731I139436J120417D01*
G01*
X555707Y555902D02*
G03*
X556406Y556751I-4655J4544D01*
G01*
X523441Y543141D02*
G03*
X537215Y488725I183405J17473D01*
G01*
X544915Y472743D02*
G03*
X555441Y455642I161930J87871D01*
G01*
X781603Y392227D02*
G03*
X792446Y397472I-74757J168387D01*
G01*
X746465Y380689D02*
G03*
X770848Y387853I-39619J179925D01*
G01*
X628376Y393925D02*
G03*
X682461Y377999I78470J166689D01*
G01*
X626293Y394922D02*
G03*
X628376Y393925I80553J165693D01*
G01*
X610751Y403425D02*
G03*
X626293Y394922I96095J157189D01*
G01*
X854949Y665983D02*
X857059D01*
X854949D02*
X857059D01*
X851302D02*
X855189Y669870D01*
X854244Y665983D02*
X856428Y668168D01*
X857059Y665983D02*
X857975D01*
X857059Y653873D02*
X865734D01*
X854949D02*
X857059D01*
X854949D02*
X857059D01*
X848361Y665983D02*
X853933Y671556D01*
X845949Y653873D02*
X847033D01*
X845949Y665983D02*
X854949D01*
X845949Y665729D02*
X847033D01*
Y653873D02*
X854949D01*
X846665Y652521D02*
X848017Y653873D01*
X846583Y653619D02*
X847681Y652521D01*
X861373D02*
X862725Y653873D01*
X863978D02*
X865330Y652521D01*
X858431D02*
X859783Y653873D01*
X861037D02*
X862389Y652521D01*
X865330D02*
X865987Y651865D01*
Y640411D02*
Y652521D01*
X856987D02*
X865987D01*
X864314D02*
X865666Y653873D01*
X852212D02*
X853564Y652521D01*
X852548D02*
X853900Y653873D01*
X849270D02*
X850622Y652521D01*
X849606D02*
X850958Y653873D01*
X855490Y652521D02*
X856842Y653873D01*
X858095D02*
X859447Y652521D01*
X855154Y653873D02*
X856506Y652521D01*
X845207Y674596D02*
X848738Y678127D01*
X845207Y671654D02*
X850062Y676510D01*
X845207Y681469D02*
X849611Y677066D01*
X845207Y675586D02*
X854810Y665983D01*
X845207Y672645D02*
X851868Y665983D01*
X844707Y668213D02*
X851370Y674875D01*
X844707Y670203D02*
X848927Y665983D01*
X845207Y676130D02*
Y680240D01*
Y676130D02*
Y680240D01*
Y680479D02*
X846040Y681312D01*
X845207Y680240D02*
Y682265D01*
Y677538D02*
X847397Y679728D01*
X845207Y671130D02*
Y676130D01*
X844707Y667261D02*
X845985Y665983D01*
X845207Y678528D02*
X857751Y665983D01*
X845165Y665729D02*
X852660Y673224D01*
X844707Y665755D02*
Y671130D01*
X838033Y665729D02*
X845949D01*
X845877Y652521D02*
X854877D01*
X843641Y653619D02*
X845247Y652013D01*
X838033Y653619D02*
X847033D01*
X843215Y652013D02*
X844821Y653619D01*
X839707Y665755D02*
X844707D01*
X837332Y652013D02*
X838938Y653619D01*
X835597Y665755D02*
X839707D01*
X835597D02*
X839707D01*
X840274Y652013D02*
X841880Y653619D01*
X840700D02*
X842306Y652013D01*
X837758Y653619D02*
X839364Y652013D01*
X865987Y648310D02*
X867849Y650173D01*
X865987Y648923D02*
X871357Y643553D01*
X865987Y651252D02*
X866788Y652054D01*
X865987Y651865D02*
X868061Y649791D01*
X865987Y645369D02*
X868891Y648273D01*
X865987Y642427D02*
X869914Y646355D01*
X856987Y640411D02*
X865987D01*
X856733Y639059D02*
X865733D01*
X854877Y640411D02*
X856987D01*
X854877D02*
X856987D01*
X854877Y652521D02*
X856987D01*
X854877D02*
X856987D01*
X856849Y640411D02*
X858201Y639059D01*
X859677D02*
X861029Y640411D01*
X856736Y639059D02*
X858087Y640411D01*
X865987Y645982D02*
X874103Y637865D01*
X865987Y643040D02*
X876442Y632584D01*
X865560Y639059D02*
X870918Y644417D01*
X865733Y636290D02*
X871903Y642461D01*
X865733Y630407D02*
X873814Y638488D01*
X865733Y627466D02*
X874740Y636472D01*
X865733Y633349D02*
X872868Y640484D01*
X865674Y640411D02*
X878464Y627621D01*
X862732Y640411D02*
X864084Y639059D01*
X865733Y637411D01*
X859791Y640411D02*
X861143Y639059D01*
X862619D02*
X863971Y640411D01*
X856733Y626949D02*
X865733D01*
Y639059D01*
X854623Y626949D02*
X856733D01*
X848025Y640411D02*
X849377Y639059D01*
X850852D02*
X852204Y640411D01*
X845877D02*
X847215D01*
X847911Y639059D02*
X849263Y640411D01*
X847215D02*
X854877D01*
X850966D02*
X852318Y639059D01*
X838215Y639903D02*
X847215D01*
X845623Y639059D02*
X854623D01*
X838215Y652013D02*
X845877D01*
X847215D01*
X836105D02*
X838215D01*
X836105D02*
X838215D01*
X836105Y639903D02*
X838215D01*
X845591D02*
X846435Y639059D01*
X836105Y639903D02*
X838215D01*
X854623Y639059D02*
X856733D01*
X854623D02*
X856733D01*
X853794D02*
X855146Y640411D01*
X853908D02*
X855260Y639059D01*
X847215Y626949D02*
X854623D01*
X856733D01*
X838215Y626441D02*
X847215D01*
X841520Y638551D02*
X842872Y639903D01*
X842650D02*
X844001Y638551D01*
X838578D02*
X839930Y639903D01*
X839708D02*
X841060Y638551D01*
X838215D02*
X845623D01*
X844461D02*
X845813Y639903D01*
X836105Y626441D02*
X838215D01*
X835597Y690615D02*
X837393D01*
X835597D02*
X837393D01*
X834707D02*
X835597D01*
X834752D02*
X836068Y691932D01*
X834707Y681005D02*
X835597D01*
Y680240D02*
Y681005D01*
X830597D02*
X834707D01*
X833905D02*
X835597Y679313D01*
X830597Y690615D02*
X834707D01*
X831810D02*
X834578Y693382D01*
X829707Y690615D02*
X830597D01*
X834707D01*
X829707Y681005D02*
X830597D01*
X834707D01*
X829457Y679437D02*
X831025Y681005D01*
X835597Y676130D02*
Y680240D01*
Y676130D02*
Y680240D01*
X830964Y681005D02*
X835597Y676372D01*
X831268Y675365D02*
X835597Y679694D01*
Y675365D02*
Y676130D01*
X834707Y665755D02*
X835597D01*
X834210Y675365D02*
X835597Y676752D01*
X834707Y675365D02*
X835597D01*
X830597D02*
X834707D01*
X830597D02*
X834707D01*
X829457Y679570D02*
X833662Y675365D01*
X829707D02*
X830597D01*
Y665755D02*
X834707D01*
X830597D02*
X834707D01*
X829707D02*
X830597D01*
X823287Y693267D02*
Y694462D01*
X823297Y703379D02*
X836061Y690615D01*
X823287Y694462D02*
Y695767D01*
Y690767D02*
Y691962D01*
X825597Y690615D02*
X829707D01*
X823287Y691962D02*
Y693267D01*
Y691962D02*
Y693267D01*
Y698267D02*
Y699462D01*
Y696962D02*
Y698267D01*
Y699462D02*
Y700767D01*
Y699462D02*
Y700767D01*
Y695767D02*
Y696962D01*
Y694462D02*
Y695767D01*
Y696962D02*
Y698267D01*
X828869Y690615D02*
X833070Y694816D01*
X829457Y676495D02*
X833967Y681005D01*
X825597Y690615D02*
X829707D01*
X825927D02*
X831546Y696234D01*
X829457Y676628D02*
X830720Y675365D01*
X825597Y665755D02*
X829707D01*
X825597D02*
X829707D01*
X829457Y676130D02*
Y680240D01*
Y675365D02*
Y676130D01*
Y680240D02*
Y681005D01*
Y676130D02*
Y680240D01*
X823287Y665755D02*
X825597D01*
X825622D02*
X826923Y664455D01*
X823287Y664443D02*
X824600Y665755D01*
X835923Y665729D02*
X838033D01*
X835923D02*
X838033D01*
X826923Y653619D02*
X835923D01*
X834391Y652013D02*
X835997Y653619D01*
X835923D02*
X838033D01*
X835923D02*
X838033D01*
X827105Y652013D02*
X836105D01*
X834817Y653619D02*
X836423Y652013D01*
X826923Y665729D02*
X835923D01*
X828508Y652013D02*
X830114Y653619D01*
X826923Y665136D02*
X827516Y665729D01*
X826923Y653619D02*
Y665729D01*
X831449Y652013D02*
X833055Y653619D01*
X831875D02*
X833481Y652013D01*
X828933Y653619D02*
X830539Y652013D01*
X835637Y638551D02*
X836989Y639903D01*
X836766D02*
X838118Y638551D01*
X827105Y639903D02*
X836105D01*
X833825D02*
X835177Y638551D01*
X836105D02*
X838215D01*
X836105Y626441D02*
X838215D01*
X827105Y638551D02*
X836105D01*
X838215D01*
X827105Y640740D02*
X827942Y639903D01*
X829294Y638551D01*
X827105Y650611D02*
X828508Y652013D01*
X827105Y639903D02*
Y652013D01*
X830883Y639903D02*
X832235Y638551D01*
X832695D02*
X834047Y639903D01*
X829753Y638551D02*
X831105Y639903D01*
X823287Y655767D02*
Y656962D01*
Y654462D02*
Y655767D01*
Y661501D02*
X826923Y665136D01*
X823287Y659265D02*
X826923Y655630D01*
X823287Y651962D02*
Y653267D01*
Y650767D02*
Y651962D01*
Y654462D02*
Y655767D01*
Y653267D02*
Y654462D01*
Y663267D02*
Y664462D01*
Y661962D02*
Y663267D01*
Y664462D02*
Y665755D01*
Y664462D02*
Y665755D01*
Y656962D02*
Y658267D01*
Y656962D02*
Y658267D01*
Y660767D02*
Y661962D01*
Y639462D02*
Y640767D01*
Y638267D02*
Y639462D01*
Y640910D02*
X827105Y644727D01*
X823287Y639462D02*
Y640767D01*
Y632085D02*
X827105Y635903D01*
X823287Y626962D02*
Y628267D01*
Y636962D02*
Y638267D01*
Y644462D02*
Y645767D01*
Y643267D02*
Y644462D01*
Y649462D02*
Y650767D01*
Y644462D02*
Y645767D01*
Y641962D02*
Y643267D01*
Y640767D02*
Y641962D01*
Y643267D01*
X887927Y582003D02*
X889629Y583705D01*
X887927Y582860D02*
X889970Y580816D01*
X887927Y584945D02*
X889282Y586300D01*
X887927Y585801D02*
X889571Y584157D01*
X887927Y576120D02*
X890220Y578413D01*
X887927Y576977D02*
X890570Y574333D01*
X887927Y579062D02*
X889942Y581077D01*
X887927Y579918D02*
X890302Y577543D01*
X887927Y591684D02*
X888548Y591063D01*
X887927Y590828D02*
X888492Y591393D01*
X887927Y589027D02*
Y593082D01*
X887785Y588885D02*
X889099Y587571D01*
X887927Y584027D02*
Y588082D01*
Y579027D02*
Y583082D01*
Y587886D02*
X888903Y588862D01*
X887927Y567295D02*
X890832Y570200D01*
X887927Y564354D02*
X890957Y567384D01*
X887927Y571093D02*
X890930Y568091D01*
X887927Y562269D02*
X891075Y559120D01*
X887927Y559327D02*
X891029Y556225D01*
X887927Y565210D02*
X891076Y562061D01*
X887927Y561412D02*
X891040Y564525D01*
X887927Y574035D02*
X890778Y571184D01*
X887927Y569027D02*
Y573082D01*
Y574027D02*
Y578082D01*
X887878Y573130D02*
X890462Y575713D01*
X887927Y564027D02*
Y568082D01*
Y559027D02*
Y563082D01*
Y570237D02*
X890666Y572976D01*
X878084Y625109D02*
X879057Y626082D01*
X887489Y568589D02*
X891028Y565051D01*
X876844Y625109D02*
X879424D01*
X886929Y554532D02*
X891071Y558674D01*
X886929Y553554D02*
Y558029D01*
X887927Y559027D01*
X886929Y557473D02*
X891079Y561623D01*
X869260Y625109D02*
X876529Y632379D01*
X866109Y624900D02*
X875645Y634436D01*
X865733Y637411D02*
X878035Y625109D01*
X865733Y634469D02*
X875093Y625109D01*
X872201D02*
X877393Y630301D01*
X875143Y625109D02*
X878236Y628202D01*
X871844Y625109D02*
X875899D01*
X886929Y557383D02*
X890939Y553373D01*
X886929Y554441D02*
X890807Y550564D01*
X879321Y543981D02*
X891015Y555676D01*
X885432Y552997D02*
X890635Y547794D01*
X882491Y552997D02*
X890424Y545064D01*
X882262Y543981D02*
X890908Y552627D01*
X881897Y552997D02*
X886372D01*
X880899Y551999D02*
X881897Y552997D01*
X873437Y543981D02*
X882453Y552997D01*
X876379Y543981D02*
X885394Y552997D01*
X876844Y551999D02*
X880899D01*
X880547D02*
X890176Y542370D01*
X874664Y551999D02*
X882682Y543981D01*
X883097Y543566D02*
X889573Y537090D01*
X883097Y535991D02*
X890251Y543146D01*
X883097Y541874D02*
X890747Y549525D01*
X883097Y538933D02*
X890530Y546366D01*
X883097Y521283D02*
X887797Y525984D01*
X883097Y518342D02*
X887053Y522298D01*
X883097Y540624D02*
X889221Y534500D01*
X883097Y533050D02*
X889909Y539862D01*
X883097Y523981D02*
Y524871D01*
Y519871D02*
Y523981D01*
Y538981D02*
Y543981D01*
Y525917D02*
X886994Y522020D01*
X883097Y522975D02*
X886461Y519611D01*
X883097Y518981D02*
Y519871D01*
Y523981D01*
Y517092D02*
X885313Y514875D01*
X883097Y512459D02*
X885244Y514606D01*
X883097Y520033D02*
X885900Y517230D01*
X883097Y515400D02*
X886206Y518509D01*
X883097Y509517D02*
X884156Y510577D01*
X883097Y506964D02*
Y508981D01*
Y514150D02*
X884700Y512547D01*
X883097Y511209D02*
X884062Y510244D01*
X883097Y513981D02*
Y514871D01*
Y509871D02*
Y513981D01*
Y514871D02*
Y518981D01*
Y514871D02*
Y518981D01*
Y508981D02*
Y509871D01*
Y506964D02*
Y508981D01*
Y509871D02*
Y513981D01*
Y537683D02*
X888837Y531943D01*
X883097Y530108D02*
X889498Y536509D01*
X877605Y551999D02*
X889892Y539712D01*
X883097Y534871D02*
Y538981D01*
Y529871D02*
Y533981D01*
Y529871D02*
Y533981D01*
Y534871D01*
Y534741D02*
X888421Y529417D01*
X873347Y546832D02*
X878514Y551999D01*
X873347Y550374D02*
X879740Y543981D01*
X873347Y551999D02*
X875899D01*
X873347Y549774D02*
X875572Y551999D01*
X873347Y543981D02*
X883097D01*
Y534871D02*
Y538981D01*
X873347Y547433D02*
X876798Y543981D01*
X883097Y528981D02*
Y529871D01*
Y524225D02*
X888448Y529576D01*
X883097Y527166D02*
X889013Y533082D01*
X883097Y531800D02*
X887974Y526922D01*
X883097Y524871D02*
Y528981D01*
Y528858D02*
X887498Y524456D01*
X883097Y524871D02*
Y528981D01*
X875019Y489871D02*
X876384Y488506D01*
X873347Y489871D02*
X876958D01*
X873347Y488001D02*
X875217Y489871D01*
X873347Y485059D02*
X876078Y487790D01*
X873347Y485660D02*
X874587Y484420D01*
X873347Y488601D02*
X875496Y486452D01*
X865733Y631528D02*
X872151Y625109D01*
X865733Y628586D02*
X869210Y625109D01*
X860435D02*
X862275Y626949D01*
X861487D02*
X863327Y625109D01*
X863376D02*
X865217Y626949D01*
X866844Y625109D02*
X870899D01*
X856844D02*
X860899D01*
X861844D02*
X865899D01*
X854552D02*
X856392Y626949D01*
X855603D02*
X857443Y625109D01*
X852662Y626949D02*
X854502Y625109D01*
X849720Y626949D02*
X851702Y624967D01*
X857493Y625109D02*
X859333Y626949D01*
X858545D02*
X860385Y625109D01*
X851844D02*
X855899D01*
X873347Y543981D02*
Y551999D01*
Y481746D02*
Y489871D01*
X867119Y480121D02*
X870753Y476488D01*
X868347Y480121D02*
X872567D01*
X870061D02*
X871741Y478441D01*
X856160Y464930D02*
X871350Y480121D01*
X864428Y626949D02*
X866556Y624821D01*
X851255Y624754D02*
X853450Y626949D01*
X849237Y480121D02*
X853347D01*
X849237D02*
X853347D01*
X859237D02*
X863347D01*
X864177D02*
X869745Y474553D01*
X856160Y467872D02*
X868409Y480121D01*
X847215Y626513D02*
X848619Y625109D01*
X848669D02*
X850509Y626949D01*
X841404Y626441D02*
X842736Y625109D01*
X842785D02*
X844118Y626441D01*
X845727Y625109D02*
X847059Y626441D01*
X846844Y625109D02*
X850899D01*
X841844D02*
X845899D01*
X844345Y626441D02*
X845677Y625109D01*
X835520Y626441D02*
X836852Y625109D01*
X836902D02*
X838234Y626441D01*
X827105D02*
Y638551D01*
Y626441D02*
X836105D01*
X838462D02*
X839794Y625109D01*
X839844D02*
X841176Y626441D01*
X836844Y625109D02*
X840899D01*
X844795Y480121D02*
X848347D01*
X844795D02*
X848347D01*
X844795Y477099D02*
X847818Y480121D01*
X844795Y473533D02*
Y480121D01*
X848347D02*
X849237D01*
X847113Y473533D02*
X853701Y480121D01*
X844795Y474157D02*
X850759Y480121D01*
X829637Y626441D02*
X831967Y624112D01*
X830022D02*
X832351Y626441D01*
X824138Y624112D02*
X827105Y627078D01*
X827080Y624112D02*
X829410Y626441D01*
X832963Y624112D02*
X835293Y626441D01*
X835847Y624112D02*
X836844Y625109D01*
X832579Y626441D02*
X834909Y624112D01*
X859237Y480121D02*
X863347D01*
X864237D01*
X855180Y469834D02*
X865467Y480121D01*
X855353D02*
X866610Y468864D01*
X864237Y480121D02*
X868347D01*
X864237D02*
X868347D01*
X861236D02*
X868719Y472638D01*
X858294Y480121D02*
X867674Y470742D01*
X854237Y480121D02*
X858347D01*
X859237D01*
X853347D02*
X854237D01*
X858347D01*
X853384Y470980D02*
X862526Y480121D01*
X854034Y470980D02*
X856160Y468854D01*
X850443Y470980D02*
X859584Y480121D01*
X856160Y461989D02*
X870852Y476681D01*
X856063Y458951D02*
X867444Y470332D01*
X852411Y480121D02*
X865528Y467005D01*
X849470Y480121D02*
X864427Y465164D01*
X856160Y461665D02*
X859845Y457979D01*
X856160Y456106D02*
X863167Y463113D01*
X856160Y467548D02*
X862172Y461536D01*
X856160Y464607D02*
X861018Y459749D01*
X856160Y458723D02*
X858655Y456227D01*
X856160Y454603D02*
Y458854D01*
Y464603D02*
Y468854D01*
Y459603D02*
Y463854D01*
Y453164D02*
X857351Y454356D01*
X856160Y452687D02*
Y453854D01*
Y455782D02*
X857448Y454493D01*
X847349Y473417D02*
X849787Y470980D01*
X847501D02*
X856643Y480121D01*
X844795Y478913D02*
X852728Y470980D01*
X846528Y480121D02*
X863309Y463341D01*
X847349Y442477D02*
X848219D01*
X847349Y470980D02*
X854034D01*
X847349D02*
Y473533D01*
Y441443D02*
Y442477D01*
X844795Y475971D02*
X847233Y473533D01*
X844795D02*
X847349D01*
X845860Y439923D02*
X847170Y441233D01*
X845860Y439923D02*
X847170Y441233D01*
X844795Y439923D02*
X846045D01*
X844795Y438858D02*
X845860Y439923D01*
X844795Y438858D02*
X845860Y439923D01*
X844795Y438497D02*
Y439923D01*
X833418Y431113D02*
X837670D01*
X836705D02*
X837299Y430519D01*
X826227Y420290D02*
X837050Y431113D01*
X828418D02*
X832670D01*
X827775Y431218D02*
X832818Y426175D01*
X823418Y431113D02*
X827670D01*
X824939D02*
X831291Y424761D01*
X833764Y431113D02*
X835822Y429054D01*
X830822Y431113D02*
X834328Y427607D01*
X826227Y420290D02*
X837050Y431113D01*
X823287Y644557D02*
X827105Y640740D01*
X823287Y637968D02*
X827105Y641786D01*
X823287Y643851D02*
X827105Y647669D01*
X823287Y647499D02*
X827105Y643682D01*
X823287Y638674D02*
X827105Y634857D01*
X823287Y634462D02*
Y635767D01*
Y641616D02*
X827105Y637799D01*
X823287Y635027D02*
X828164Y639903D01*
X823287Y646962D02*
Y648267D01*
Y645767D02*
Y646962D01*
Y701962D02*
Y703267D01*
Y646962D02*
Y648267D01*
Y635767D02*
Y636962D01*
Y634462D02*
Y635767D01*
Y636962D02*
Y638267D01*
Y632791D02*
X827105Y628974D01*
X823287Y626202D02*
X827105Y630019D01*
X823287Y635733D02*
X827105Y631915D01*
X823287Y629144D02*
X827105Y632961D01*
X823287Y624462D02*
Y626962D01*
Y626908D02*
X826084Y624112D01*
X823287Y626962D02*
Y628267D01*
Y629850D02*
X829025Y624112D01*
X823287Y631962D02*
Y633267D01*
Y630767D02*
Y631962D01*
Y633267D02*
Y634462D01*
Y631962D02*
Y633267D01*
Y629462D02*
Y630767D01*
Y628267D02*
Y629462D01*
Y630767D01*
Y693858D02*
X828448Y699018D01*
X823287Y690917D02*
X830005Y697634D01*
X823287Y696800D02*
X826873Y700386D01*
X823287Y700447D02*
X833120Y690615D01*
X823287D02*
X825597D01*
X823287Y665148D02*
X826923Y661513D01*
X823287Y697506D02*
X830178Y690615D01*
X823287Y694564D02*
X827237Y690615D01*
X823287Y699741D02*
X825283Y701737D01*
X823287Y691623D02*
X824295Y690615D01*
X823287Y701962D02*
Y703267D01*
Y700767D02*
Y701962D01*
Y659462D02*
Y660767D01*
Y659462D02*
Y660767D01*
Y661962D02*
Y663267D01*
Y649735D02*
X827172Y653619D01*
X823287Y653382D02*
X827105Y649565D01*
X823287Y652676D02*
X826923Y656312D01*
X823287Y656324D02*
X827598Y652013D01*
X823287Y646793D02*
X827105Y650611D01*
X823287Y650441D02*
X827105Y646623D01*
X823238Y624112D02*
X835847D01*
X823287Y658267D02*
Y659462D01*
Y655618D02*
X826923Y659253D01*
X823287Y662207D02*
X826923Y658571D01*
X823287Y658559D02*
X826923Y662195D01*
X823287Y649462D02*
Y650767D01*
Y648267D02*
Y649462D01*
Y651962D02*
Y653267D01*
X814862Y613126D02*
Y613982D01*
X814817Y609027D02*
X815814Y608029D01*
X812505Y611216D02*
X815814Y607907D01*
X809729Y611051D02*
X815814Y604965D01*
Y604079D02*
Y608029D01*
X814817Y569027D02*
X815814Y568029D01*
X814817Y603082D02*
X815814Y604079D01*
X807539Y580883D02*
X815079Y573344D01*
X814817Y589027D02*
Y593082D01*
Y584027D02*
Y588082D01*
Y599027D02*
Y603082D01*
Y594027D02*
Y598082D01*
Y579027D02*
Y583082D01*
Y574027D02*
Y578082D01*
X807539Y577941D02*
X814817Y570664D01*
X817776Y552997D02*
X819237Y551536D01*
Y543981D02*
Y552997D01*
X815814Y553554D02*
Y568029D01*
X816372Y552997D02*
X819237D01*
X814606Y543981D02*
X819237Y548612D01*
X817547Y543981D02*
X819237Y545671D01*
X809487Y543981D02*
X819237D01*
X811664D02*
X819237Y551554D01*
X807539Y572058D02*
X815814Y563783D01*
X807539Y563389D02*
X814817Y570666D01*
X807539Y575000D02*
X815814Y566725D01*
X807539Y566330D02*
X815026Y573817D01*
X807539Y560447D02*
X815468Y568376D01*
X807539Y566175D02*
X815814Y557900D01*
X807539Y569117D02*
X815814Y560842D01*
X807539Y595591D02*
X814933Y588198D01*
X807539Y586922D02*
X814817Y594199D01*
X807539Y601629D02*
X814877Y608967D01*
X807539Y598688D02*
X815814Y606963D01*
X807539Y589708D02*
X814817Y582430D01*
X807539Y581038D02*
X815172Y588671D01*
X807539Y592649D02*
X814817Y585372D01*
X807539Y583980D02*
X814817Y591257D01*
X807539Y595746D02*
X814817Y603024D01*
X807539Y601474D02*
X814817Y594197D01*
X807539Y610299D02*
X814817Y603021D01*
X807539Y604416D02*
X814817Y597138D01*
X807539Y598532D02*
X814817Y591255D01*
X807539Y589863D02*
X814817Y597141D01*
X807539Y592805D02*
X814817Y600082D01*
X807539Y548681D02*
X815814Y556956D01*
X807539Y557350D02*
X819237Y545653D01*
X807539Y551623D02*
X815814Y559898D01*
X807539Y560292D02*
X819237Y548595D01*
X807539Y545739D02*
X815814Y554015D01*
X807539Y542798D02*
X817738Y552997D01*
X807539Y554409D02*
X817967Y543981D01*
X807539Y575155D02*
X814817Y582433D01*
X807539Y557506D02*
X815814Y565781D01*
X807539Y586766D02*
X814817Y579489D01*
X807539Y578097D02*
X814817Y585374D01*
X807539Y554564D02*
X815814Y562839D01*
X807539Y551467D02*
X815025Y543981D01*
X807539Y563234D02*
X815814Y554958D01*
X814203Y612460D02*
X814817Y611846D01*
Y609027D02*
Y613074D01*
X810630Y611216D02*
X812959D01*
X814817Y613074D01*
X807964Y611051D02*
X810464D01*
X807539Y584541D02*
Y585846D01*
Y587041D02*
Y588346D01*
Y585846D02*
Y587041D01*
Y590846D02*
Y592041D01*
Y589541D02*
Y590846D01*
Y592041D02*
Y593346D01*
Y592041D02*
Y593346D01*
Y588346D02*
Y589541D01*
Y587041D02*
Y588346D01*
Y589541D02*
Y590846D01*
Y577041D02*
Y578346D01*
Y572214D02*
X814817Y579491D01*
X807539Y578346D02*
Y579541D01*
Y583825D02*
X814817Y576547D01*
X807539Y574541D02*
Y575846D01*
Y569272D02*
X814817Y576549D01*
X807539Y577041D02*
Y578346D01*
Y575846D02*
Y577041D01*
Y582041D02*
Y583346D01*
Y582041D02*
Y583346D01*
Y584541D02*
Y585846D01*
Y583346D02*
Y584541D01*
Y579541D02*
Y580846D01*
Y579541D02*
Y580846D01*
Y582041D01*
Y610454D02*
X808136Y611051D01*
X807539Y604541D02*
Y605846D01*
Y607513D02*
X811243Y611216D01*
X807539Y604571D02*
X814817Y611848D01*
X807539Y602041D02*
Y603346D01*
Y600846D02*
Y602041D01*
Y603346D02*
Y604541D01*
Y602041D02*
Y603346D01*
Y608346D02*
Y609541D01*
Y607041D02*
Y608346D01*
Y609541D02*
Y610846D01*
Y609541D02*
Y610846D01*
Y605846D02*
Y607041D01*
Y604541D02*
Y605846D01*
Y607041D02*
Y608346D01*
Y593346D02*
Y594541D01*
Y574541D02*
Y575846D01*
Y607357D02*
X814817Y600080D01*
X807539Y594541D02*
Y595846D01*
Y572041D02*
Y573346D01*
Y572041D02*
Y573346D01*
Y574541D01*
Y598346D02*
Y599541D01*
Y597041D02*
Y598346D01*
Y599541D02*
Y600846D01*
Y599541D02*
Y600846D01*
Y595846D02*
Y597041D01*
Y594541D02*
Y595846D01*
Y597041D02*
Y598346D01*
X814817Y569027D02*
Y573082D01*
X807539Y542041D02*
Y543346D01*
Y548526D02*
X812084Y543981D01*
X807539Y545584D02*
X809487Y543637D01*
X807539Y539856D02*
X809487Y541804D01*
X807539Y539541D02*
Y540846D01*
Y542041D01*
Y542643D02*
X809487Y540695D01*
X807539Y545846D02*
Y547041D01*
Y544541D02*
Y545846D01*
Y547041D02*
Y548346D01*
Y547041D02*
Y548346D01*
Y543346D02*
Y544541D01*
Y542041D02*
Y543346D01*
Y544541D02*
Y545846D01*
X809487Y534871D02*
Y538981D01*
Y534871D02*
Y538981D01*
Y543981D01*
X807539Y539701D02*
X809487Y537753D01*
Y533981D02*
Y534871D01*
X807539Y533973D02*
X809487Y535921D01*
X807539Y536915D02*
X809487Y538862D01*
X807539Y536759D02*
X809487Y534812D01*
X807539Y537041D02*
Y538346D01*
Y537041D02*
Y538346D01*
Y539541D02*
Y540846D01*
Y538346D02*
Y539541D01*
Y534541D02*
Y535846D01*
Y534541D02*
Y535846D01*
Y537041D01*
Y563346D02*
Y564541D01*
Y562041D02*
Y563346D01*
Y564541D02*
Y565846D01*
Y564541D02*
Y565846D01*
Y559541D02*
Y560846D01*
Y559541D02*
Y560846D01*
Y562041D02*
Y563346D01*
Y560846D02*
Y562041D01*
Y569541D02*
Y570846D01*
Y568346D02*
Y569541D01*
Y570846D02*
Y572041D01*
Y569541D02*
Y570846D01*
Y567041D02*
Y568346D01*
Y565846D02*
Y567041D01*
Y568346D01*
Y550846D02*
Y552041D01*
Y549541D02*
Y550846D01*
Y552041D02*
Y553346D01*
Y552041D02*
Y553346D01*
Y548346D02*
Y549541D01*
Y533346D02*
Y534541D01*
Y549541D02*
Y550846D01*
Y557041D02*
Y558346D01*
Y555846D02*
Y557041D01*
Y558346D02*
Y559541D01*
Y557041D02*
Y558346D01*
Y554541D02*
Y555846D01*
Y553346D02*
Y554541D01*
Y555846D01*
X809487Y514871D02*
Y518981D01*
Y514871D02*
Y518981D01*
Y519871D02*
Y523981D01*
Y518981D02*
Y519871D01*
Y509871D02*
Y513981D01*
Y508981D02*
Y509871D01*
Y513981D02*
Y514871D01*
Y509871D02*
Y513981D01*
Y528981D02*
Y529871D01*
Y524871D02*
Y528981D01*
Y529871D02*
Y533981D01*
Y529871D02*
Y533981D01*
Y523981D02*
Y524871D01*
Y519871D02*
Y523981D01*
Y524871D02*
Y528981D01*
Y489871D02*
Y494871D01*
Y490688D02*
X810304Y489871D01*
X809487Y494871D02*
Y498981D01*
Y494871D02*
Y498981D01*
X816187Y489871D02*
X819237Y486822D01*
Y482344D02*
Y489871D01*
X809487D02*
X819237D01*
X807539Y486908D02*
X810503Y489871D01*
X809487Y504871D02*
Y508981D01*
Y503981D02*
Y504871D01*
X807539Y510285D02*
X809487Y508338D01*
Y504871D02*
Y508981D01*
Y499871D02*
Y503981D01*
Y498981D02*
Y499871D01*
Y503981D01*
X807539Y519265D02*
X809487Y521213D01*
X807539Y519110D02*
X809487Y517163D01*
X807539Y522207D02*
X809487Y524154D01*
X807539Y522052D02*
X809487Y520104D01*
X807539Y513382D02*
X809487Y515330D01*
X807539Y513227D02*
X809487Y511279D01*
X807539Y516324D02*
X809487Y518271D01*
X807539Y516168D02*
X809487Y514221D01*
X807539Y530876D02*
X809487Y528929D01*
X807539Y528090D02*
X809487Y530037D01*
X807539Y533818D02*
X809487Y531870D01*
X807539Y531032D02*
X809487Y532979D01*
X807539Y525148D02*
X809487Y527096D01*
X807539Y524993D02*
X809487Y523046D01*
X807539Y527935D02*
X809487Y525987D01*
X807539Y495733D02*
X809487Y497680D01*
X807539Y495577D02*
X809487Y493630D01*
X807539Y498674D02*
X809487Y500622D01*
X807539Y498519D02*
X809487Y496572D01*
X807539Y492636D02*
X809487Y490688D01*
X807539Y489850D02*
X809487Y491797D01*
X807539Y492791D02*
X809487Y494739D01*
X807539Y507344D02*
X809487Y505396D01*
X807539Y504557D02*
X809487Y506505D01*
X807539Y510440D02*
X809487Y512388D01*
X807539Y507499D02*
X809487Y509446D01*
X807539Y501616D02*
X809487Y503563D01*
X807539Y501460D02*
X809487Y499513D01*
X807539Y504402D02*
X809487Y502455D01*
X818418Y482344D02*
X819237D01*
X816292Y480218D02*
X818418Y482344D01*
X813245Y489871D02*
X819237Y483880D01*
X810304Y489871D02*
X818125Y482051D01*
X816292Y473533D02*
Y480218D01*
X813739Y439923D02*
X816292D01*
X809260Y470980D02*
X816292Y478012D01*
X810633Y442477D02*
X816292Y436818D01*
X813739Y473533D02*
X816292D01*
X814756D02*
X816292Y475070D01*
X813739Y472516D02*
X814756Y473533D01*
X813739Y470980D02*
Y473533D01*
X812202Y470980D02*
X813739Y472516D01*
Y439923D02*
Y442477D01*
X807539Y433960D02*
X813739Y440159D01*
X807539Y433804D02*
X823406Y417938D01*
X807539Y439688D02*
X826610Y420617D01*
X807539Y436746D02*
X825016Y419269D01*
X821998Y431113D02*
X829747Y423363D01*
X819056Y431113D02*
X828187Y421981D01*
X818418Y431113D02*
X822670D01*
X813104Y410109D02*
X834108Y431113D01*
X807692Y442477D02*
X816292Y433876D01*
Y433238D02*
Y439923D01*
X807539Y431018D02*
X816292Y439771D01*
X807539Y428077D02*
X816292Y436829D01*
Y433238D02*
X818418Y431113D01*
X807539Y422193D02*
X817438Y432092D01*
X807539Y425135D02*
X816292Y433888D01*
X807539Y489694D02*
X816654Y480580D01*
X807539Y475142D02*
X819237Y486839D01*
X807539Y481025D02*
X816386Y489871D01*
X807539Y478083D02*
X819237Y489781D01*
X807539Y483811D02*
X816292Y475058D01*
X807539Y480869D02*
X814876Y473533D01*
X807539Y486753D02*
X816292Y478000D01*
X807539Y472200D02*
X819237Y483898D01*
X807539Y474986D02*
X811546Y470980D01*
X807539Y472045D02*
X808605Y470980D01*
X807539Y483966D02*
X813444Y489871D01*
X807539Y477928D02*
X813739Y471729D01*
X807539Y442477D02*
X813739D01*
X807539Y439843D02*
X810173Y442477D01*
X807539Y470980D02*
X813739D01*
X807539Y416310D02*
X822342Y431113D01*
X807539Y413369D02*
X825283Y431113D01*
X807539Y419252D02*
X819400Y431113D01*
X807539Y410427D02*
X828322Y431209D01*
X807539Y430863D02*
X821778Y416624D01*
X807539Y427921D02*
X820134Y415326D01*
X807539Y407485D02*
X831166Y431113D01*
X807539Y422038D02*
X816794Y412783D01*
X807539Y419096D02*
X815099Y411537D01*
X807539Y436901D02*
X813115Y442477D01*
X807539Y424980D02*
X818473Y414046D01*
X807539Y413213D02*
X811656Y409097D01*
X807539Y410272D02*
X809909Y407903D01*
X807539Y416155D02*
X813386Y410308D01*
X807539Y500846D02*
Y502041D01*
Y499541D02*
Y500846D01*
Y502041D02*
Y503346D01*
Y502041D02*
Y503346D01*
Y497041D02*
Y498346D01*
Y497041D02*
Y498346D01*
Y499541D02*
Y500846D01*
Y498346D02*
Y499541D01*
Y507041D02*
Y508346D01*
Y505846D02*
Y507041D01*
Y508346D02*
Y509541D01*
Y507041D02*
Y508346D01*
Y504541D02*
Y505846D01*
Y503346D02*
Y504541D01*
Y505846D01*
Y488346D02*
Y489541D01*
Y487041D02*
Y488346D01*
Y489541D02*
Y490846D01*
Y489541D02*
Y490846D01*
Y484541D02*
Y485846D01*
Y484541D02*
Y485846D01*
Y487041D02*
Y488346D01*
Y485846D02*
Y487041D01*
Y494541D02*
Y495846D01*
Y493346D02*
Y494541D01*
Y495846D02*
Y497041D01*
Y494541D02*
Y495846D01*
Y492041D02*
Y493346D01*
Y490846D02*
Y492041D01*
Y493346D01*
Y524541D02*
Y525846D01*
Y524541D02*
Y525846D01*
Y527041D02*
Y528346D01*
Y525846D02*
Y527041D01*
Y522041D02*
Y523346D01*
Y520846D02*
Y522041D01*
Y523346D02*
Y524541D01*
Y522041D02*
Y523346D01*
Y530846D02*
Y532041D01*
Y529541D02*
Y530846D01*
Y532041D02*
Y533346D01*
Y532041D02*
Y533346D01*
Y528346D02*
Y529541D01*
Y527041D02*
Y528346D01*
Y529541D02*
Y530846D01*
Y512041D02*
Y513346D01*
Y512041D02*
Y513346D01*
Y514541D02*
Y515846D01*
Y513346D02*
Y514541D01*
Y509541D02*
Y510846D01*
Y509541D02*
Y510846D01*
Y512041D01*
Y518346D02*
Y519541D01*
Y517041D02*
Y518346D01*
Y519541D02*
Y520846D01*
Y519541D02*
Y520846D01*
Y515846D02*
Y517041D01*
Y514541D02*
Y515846D01*
Y517041D02*
Y518346D01*
Y422041D02*
Y423346D01*
Y422041D02*
Y423346D01*
Y424541D02*
Y425846D01*
Y423346D02*
Y424541D01*
Y419541D02*
Y420846D01*
Y418346D02*
Y419541D01*
Y420846D02*
Y422041D01*
Y419541D02*
Y420846D01*
Y428346D02*
Y429541D01*
Y427041D02*
Y428346D01*
Y429541D02*
Y430846D01*
Y429541D02*
Y430846D01*
Y425846D02*
Y427041D01*
Y424541D02*
Y425846D01*
Y427041D02*
Y428346D01*
Y409541D02*
Y410846D01*
Y409541D02*
Y410846D01*
Y412041D02*
Y413346D01*
Y410846D02*
Y412041D01*
Y407041D02*
Y408346D01*
Y407330D02*
X808143Y406726D01*
X807539Y408346D02*
Y409541D01*
Y407041D02*
Y408346D01*
Y415846D02*
Y417041D01*
Y414541D02*
Y415846D01*
Y417041D02*
Y418346D01*
Y417041D02*
Y418346D01*
Y413346D02*
Y414541D01*
Y412041D02*
Y413346D01*
Y414541D02*
Y415846D01*
Y475846D02*
Y477041D01*
Y474541D02*
Y475846D01*
Y477041D02*
Y478346D01*
Y477041D02*
Y478346D01*
Y472041D02*
Y473346D01*
Y472041D02*
Y473346D01*
Y474541D02*
Y475846D01*
Y473346D02*
Y474541D01*
Y482041D02*
Y483346D01*
Y480846D02*
Y482041D01*
Y483346D02*
Y484541D01*
Y482041D02*
Y483346D01*
Y479541D02*
Y480846D01*
Y478346D02*
Y479541D01*
Y480846D01*
Y434541D02*
Y435846D01*
Y433346D02*
Y434541D01*
Y435846D02*
Y437041D01*
Y434541D02*
Y435846D01*
Y432041D02*
Y433346D01*
Y430846D02*
Y432041D01*
Y433346D01*
Y439541D02*
Y440846D01*
Y439541D02*
Y440846D01*
Y470980D02*
Y472041D01*
Y440846D02*
Y442041D01*
Y437041D02*
Y438346D01*
Y437041D02*
Y438346D01*
Y439541D01*
X712474Y611234D02*
X713530Y610177D01*
X709594Y611172D02*
X713530Y607236D01*
X706728Y611096D02*
X713530Y604294D01*
X703828Y611055D02*
X713530Y601353D01*
X700882Y611059D02*
X713530Y598411D01*
X697871Y611129D02*
X713530Y595470D01*
X694820Y611238D02*
X709427Y596632D01*
X696645D02*
X711065Y611051D01*
X705470Y596632D02*
X713530Y604692D01*
X708411Y596632D02*
X713530Y601751D01*
X699587Y596632D02*
X713530Y610575D01*
X702528Y596632D02*
X713530Y607634D01*
X690762Y596632D02*
X705280Y611149D01*
X691974Y611143D02*
X706485Y596632D01*
X684879D02*
X699368Y611121D01*
X687820Y596632D02*
X702435Y611246D01*
X689097Y611078D02*
X703543Y596632D01*
X693704D02*
X708154Y611082D01*
X686183Y611051D02*
X700602Y596632D01*
X681981Y608442D02*
X684825Y611285D01*
X681981Y605500D02*
X687660Y611179D01*
X681981Y599782D02*
Y611595D01*
Y602559D02*
X690523Y611101D01*
X681865Y599501D02*
X693421Y611057D01*
X611339Y596632D02*
X613933Y599225D01*
X612703D02*
X615296Y596632D01*
X602515D02*
X605108Y599225D01*
X603879D02*
X606472Y596632D01*
X599573D02*
X602166Y599225D01*
X600937D02*
X603530Y596632D01*
X608398D02*
X610991Y599225D01*
X609762D02*
X612355Y596632D01*
X605456D02*
X608049Y599225D01*
X606820D02*
X609413Y596632D01*
X681981Y606428D02*
X691777Y596632D01*
X683030Y611262D02*
X697660Y596632D01*
X681937D02*
X696363Y611057D01*
X681981Y609369D02*
X694719Y596632D01*
X681981Y603486D02*
X688836Y596632D01*
X681981Y600545D02*
X685894Y596632D01*
X626047D02*
X628640Y599225D01*
X678996Y596632D02*
X681705Y599341D01*
X618586Y599225D02*
X621180Y596632D01*
X620164D02*
X622757Y599225D01*
X615645D02*
X618238Y596632D01*
X617223D02*
X619816Y599225D01*
X623106Y596632D02*
X625699Y599225D01*
X624469D02*
X627063Y596632D01*
X621528Y599225D02*
X624121Y596632D01*
X674476Y599225D02*
X677069Y596632D01*
X676054D02*
X678647Y599225D01*
X671535D02*
X674128Y596632D01*
X673112D02*
X675706Y599225D01*
X711305Y596583D02*
X713530Y598809D01*
X711305Y596583D02*
X713530Y598809D01*
X677418Y599225D02*
X680011Y596632D01*
X680359Y599225D02*
X682952Y596632D01*
X662710Y599225D02*
X665303Y596632D01*
X664288D02*
X666881Y599225D01*
X659768D02*
X662362Y596632D01*
X661346D02*
X663939Y599225D01*
X668593D02*
X671186Y596632D01*
X670171D02*
X672764Y599225D01*
X665651D02*
X668245Y596632D01*
X667229D02*
X669822Y599225D01*
X711745Y582547D02*
X713530Y580762D01*
X711745Y579375D02*
X713530Y581160D01*
X711745Y585488D02*
X713530Y583703D01*
X711745Y582316D02*
X713530Y584101D01*
X711745Y576664D02*
X713530Y574879D01*
X711745Y573491D02*
X713530Y575276D01*
X711745Y579605D02*
X713530Y577820D01*
X711745Y576433D02*
X713530Y578218D01*
X711745Y591141D02*
X713530Y592926D01*
X711745Y591371D02*
X713530Y589586D01*
X711745Y594082D02*
X713530Y595867D01*
X711745Y594313D02*
X713530Y592528D01*
X711745Y588430D02*
X713530Y586645D01*
X711745Y585258D02*
X713530Y587043D01*
X711745Y588199D02*
X713530Y589984D01*
X631931Y596632D02*
X634524Y599225D01*
X633294D02*
X635887Y596632D01*
X628989D02*
X631582Y599225D01*
X630353D02*
X632946Y596632D01*
X634872D02*
X637465Y599225D01*
X636236D02*
X638829Y596632D01*
X591424Y599225D02*
X681424D01*
X591188Y596632D02*
X711188D01*
X595054Y599225D02*
X597647Y596632D01*
X596632D02*
X599225Y599225D01*
X592112D02*
X594705Y596632D01*
X593690D02*
X596283Y599225D01*
X614281Y596632D02*
X616874Y599225D01*
X627411D02*
X630004Y596632D01*
X597995Y599225D02*
X600589Y596632D01*
X650944Y599225D02*
X653537Y596632D01*
X652522D02*
X655115Y599225D01*
X648002D02*
X650595Y596632D01*
X649580D02*
X652173Y599225D01*
X656827D02*
X659420Y596632D01*
X658405D02*
X660998Y599225D01*
X653885D02*
X656478Y596632D01*
X655463D02*
X658056Y599225D01*
X640755Y596632D02*
X643348Y599225D01*
X642119D02*
X644712Y596632D01*
X637814D02*
X640407Y599225D01*
X639177D02*
X641770Y596632D01*
X645061Y599225D02*
X647654Y596632D01*
X646638D02*
X649231Y599225D01*
X643697Y596632D02*
X646290Y599225D01*
X590680Y703612D02*
X591911Y702381D01*
X589091Y677338D02*
X591683Y679930D01*
X589091Y680280D02*
X591713Y682902D01*
X589091Y681669D02*
X591674Y679086D01*
X589091Y675786D02*
X591615Y673262D01*
X589091Y671455D02*
X591622Y673986D01*
X589091Y678727D02*
X591644Y676174D01*
X589091Y674397D02*
X591652Y676958D01*
X589091Y673005D02*
Y676615D01*
Y670115D02*
Y673005D01*
Y676615D02*
Y683115D01*
Y673005D02*
Y676615D01*
Y669902D02*
X591555Y667438D01*
X589091Y666505D02*
Y670115D01*
Y672844D02*
X591585Y670350D01*
X589091Y668513D02*
X591592Y671014D01*
X589091Y662630D02*
X591531Y665071D01*
X590866Y599788D02*
X591934Y704621D01*
X589091Y665572D02*
X591561Y668042D01*
X589091Y666961D02*
X591526Y664526D01*
X589091Y661078D02*
X591466Y658702D01*
X589091Y656747D02*
X591471Y659127D01*
X589091Y664019D02*
X591496Y661614D01*
X589091Y659689D02*
X591501Y662099D01*
X589091Y660005D02*
Y663615D01*
Y653505D02*
Y660005D01*
Y666505D02*
Y670115D01*
Y660005D02*
Y663615D01*
Y653805D02*
X591440Y656155D01*
X589091Y655194D02*
X591407Y652878D01*
X589091Y658136D02*
X591437Y655790D01*
X589066Y702285D02*
X591881Y699469D01*
X587468Y700941D02*
X591852Y696557D01*
X585887Y699581D02*
X591822Y693645D01*
X584322Y698203D02*
X591792Y690733D01*
X583102Y683115D02*
X591804Y691817D01*
X586043Y683115D02*
X591773Y688845D01*
X582775Y696809D02*
X591763Y687821D01*
X580160Y683115D02*
X591834Y694789D01*
X581244Y695399D02*
X591733Y684909D01*
X579729Y693972D02*
X591703Y681998D01*
X576751Y691067D02*
X584703Y683115D01*
X578232Y692528D02*
X587644Y683115D01*
X588985D02*
X591743Y685873D01*
X587644Y683115D02*
X589091Y681669D01*
X575286Y689590D02*
X581761Y683115D01*
X577981D02*
X589091D01*
Y663615D02*
Y666505D01*
X577981Y653505D02*
Y660005D01*
Y663615D01*
Y660005D02*
Y663615D01*
X579014Y653505D02*
X582325Y650194D01*
X587839Y653505D02*
X591377Y649966D01*
X577981Y654538D02*
X579014Y653505D01*
X576655Y650194D02*
X579966Y653505D01*
X577981Y673005D02*
Y676615D01*
Y670115D02*
Y673005D01*
Y676615D02*
Y683115D01*
Y673005D02*
Y676615D01*
Y666505D02*
Y670115D01*
Y663615D02*
Y666505D01*
Y670115D01*
X589743Y645633D02*
X591350Y647240D01*
X589743Y645717D02*
X591318Y644143D01*
X589743Y648575D02*
X591380Y650211D01*
X589743Y648659D02*
X591348Y647054D01*
X589743Y639750D02*
X591289Y641296D01*
X589743Y595626D02*
X593342Y599225D01*
X589743Y642691D02*
X591319Y644268D01*
X589743Y642776D02*
X591288Y641231D01*
X589743Y636808D02*
X591259Y638324D01*
X589743Y636893D02*
X591229Y635407D01*
X589743Y639834D02*
X591259Y638319D01*
X589743Y628834D02*
Y650194D01*
Y630925D02*
X591198Y632380D01*
X589743Y595711D02*
X590630Y594824D01*
X589743Y633867D02*
X591228Y635352D01*
X589743Y633951D02*
X591199Y632495D01*
X589743Y580918D02*
X590630Y581806D01*
X589743Y581003D02*
X590630Y580116D01*
X589743Y583860D02*
X590630Y584747D01*
X589743Y583945D02*
X590630Y583057D01*
X589743Y575035D02*
X590630Y575923D01*
X589743Y575120D02*
X590630Y574233D01*
X589743Y577977D02*
X590630Y578864D01*
X589743Y578061D02*
X590630Y577174D01*
X589743Y592769D02*
X590630Y591882D01*
X589743Y589743D02*
X590630Y590630D01*
X589743Y592685D02*
X590630Y593572D01*
X589743Y574594D02*
Y595954D01*
Y586801D02*
X590630Y587689D01*
X589743Y586886D02*
X590630Y585999D01*
X589743Y589828D02*
X590630Y588940D01*
X585479Y650194D02*
X588791Y653505D01*
X588421Y650194D02*
X591410Y653183D01*
X577981Y653505D02*
X589091D01*
X584897D02*
X588208Y650194D01*
X589743Y648659D01*
Y631010D02*
X591170Y629583D01*
X577133Y650194D02*
X589743D01*
X577133Y628834D02*
X589743D01*
X581955Y653505D02*
X585266Y650194D01*
X582538D02*
X585849Y653505D01*
X579596Y650194D02*
X582907Y653505D01*
X576442Y650194D02*
X577043Y649593D01*
Y628834D02*
Y650194D01*
X577133Y628834D02*
Y650194D01*
X575886Y628834D02*
X577043Y629991D01*
X586035Y628834D02*
X591110Y623759D01*
X583094Y628834D02*
X591081Y620847D01*
X580152Y628834D02*
X591051Y617935D01*
X577211Y628834D02*
X591021Y615023D01*
X588977Y628834D02*
X591140Y626671D01*
X581246Y595954D02*
X590926Y605634D01*
X575363Y595954D02*
X590986Y611577D01*
X578304Y595954D02*
X590956Y608606D01*
X584188Y595954D02*
X590896Y602662D01*
X587129Y595954D02*
X590893Y599718D01*
X577043Y577531D02*
Y595954D01*
X577133Y577531D02*
Y595954D01*
X589743D01*
X579317Y574594D02*
X589743D01*
X577133Y594782D02*
X578304Y595954D01*
X711745Y514660D02*
X713530Y516445D01*
X711745Y514891D02*
X713530Y513106D01*
X711745Y517601D02*
X713530Y519386D01*
X711745Y517832D02*
X713530Y516047D01*
X711745Y508777D02*
X713530Y510562D01*
X711745Y509007D02*
X713530Y507222D01*
X711745Y511718D02*
X713530Y513503D01*
X711745Y511949D02*
X713530Y510164D01*
X711745Y526426D02*
X713530Y528211D01*
X711745Y526657D02*
X713530Y524872D01*
X711745Y529368D02*
X713530Y531153D01*
X711745Y529598D02*
X713530Y527813D01*
X711745Y520543D02*
X713530Y522328D01*
X711745Y520774D02*
X713530Y518989D01*
X711745Y523485D02*
X713530Y525270D01*
X711745Y523715D02*
X713530Y521930D01*
X711745Y494300D02*
X713530Y492514D01*
Y476782D02*
Y611052D01*
X711745Y497241D02*
X713530Y495456D01*
X711745Y494069D02*
X713530Y495854D01*
X711745Y488186D02*
X713530Y489971D01*
X711745Y488416D02*
X713530Y486631D01*
X711745Y491127D02*
X713530Y492912D01*
X711745Y491358D02*
X713530Y489573D01*
X711745Y502894D02*
X713530Y504679D01*
X711745Y503124D02*
X713530Y501339D01*
X711745Y505835D02*
X713530Y507620D01*
X711745Y506066D02*
X713530Y504281D01*
X711745Y500183D02*
X713530Y498398D01*
X711745Y497010D02*
X713530Y498796D01*
X711745Y499952D02*
X713530Y501737D01*
X711745Y559014D02*
X713530Y557229D01*
X711745Y555842D02*
X713530Y557627D01*
X711745Y561956D02*
X713530Y560171D01*
X711745Y558783D02*
X713530Y560569D01*
X711745Y553131D02*
X713530Y551346D01*
X711745Y549959D02*
X713530Y551744D01*
X711745Y556073D02*
X713530Y554287D01*
X711745Y552900D02*
X713530Y554685D01*
X711745Y570780D02*
X713530Y568995D01*
X711745Y567608D02*
X713530Y569393D01*
X711745Y573722D02*
X713530Y571937D01*
X711745Y570550D02*
X713530Y572335D01*
X711745Y564897D02*
X713530Y563112D01*
X711745Y561725D02*
X713530Y563510D01*
X711745Y567839D02*
X713530Y566054D01*
X711745Y564667D02*
X713530Y566452D01*
X711745Y538423D02*
X713530Y536638D01*
X711745Y535251D02*
X713530Y537036D01*
X711745Y541365D02*
X713530Y539580D01*
X711745Y538192D02*
X713530Y539977D01*
X711745Y532540D02*
X713530Y530755D01*
X711745Y485244D02*
X713530Y487029D01*
X711745Y535482D02*
X713530Y533697D01*
X711745Y532309D02*
X713530Y534094D01*
X711745Y547017D02*
X713530Y548802D01*
X711745Y547248D02*
X713530Y545463D01*
X711745Y550190D02*
X713530Y548404D01*
X711745Y476738D02*
Y596074D01*
Y544306D02*
X713530Y542521D01*
X711745Y541134D02*
X713530Y542919D01*
X711745Y544076D02*
X713530Y545861D01*
X711745Y482533D02*
X713530Y480748D01*
X711745Y479361D02*
X713530Y481146D01*
X711745Y485475D02*
X713530Y483690D01*
X711745Y482303D02*
X713530Y484088D01*
X712149Y476823D02*
X713530Y478204D01*
X711745Y479592D02*
X713530Y477807D01*
X595216Y475517D02*
X596633Y474099D01*
X592274Y475517D02*
X594612Y473179D01*
X591188Y475517D02*
X597498D01*
X590912Y470307D02*
X596121Y475517D01*
X587425Y477425D02*
X593102Y471748D01*
X587970Y470307D02*
X593180Y475517D01*
X589236Y446197D02*
X591873Y443560D01*
X587425Y474483D02*
X592353Y469555D01*
X586295Y446197D02*
X591785Y440708D01*
X591551Y456197D02*
Y460307D01*
Y455307D02*
Y456197D01*
Y461197D02*
Y465307D01*
Y456197D02*
Y460307D01*
Y451197D02*
Y455307D01*
Y446197D02*
Y451197D01*
Y455307D01*
X580529Y440197D02*
X591872Y428853D01*
X579980Y427018D02*
X591859Y438898D01*
X578480Y428459D02*
X591774Y441754D01*
X577587Y440197D02*
X591840Y425944D01*
X589333Y418722D02*
X591894Y421283D01*
X590950Y417398D02*
X591791Y418238D01*
X581497Y425594D02*
X591837Y435934D01*
X587732Y420063D02*
X591800Y424130D01*
X585551Y444000D02*
X591727Y437823D01*
X585551Y441058D02*
X591710Y434899D01*
X583470Y440197D02*
X591747Y431920D01*
X576996Y429917D02*
X591722Y444644D01*
X584581Y422795D02*
X591710Y429923D01*
X586148Y421420D02*
X591736Y427008D01*
X583031Y424186D02*
X591734Y432889D01*
X588817Y550577D02*
X590630Y552390D01*
X588817Y549572D02*
X590630Y547758D01*
X588817Y553518D02*
X590630Y555331D01*
X588817Y552513D02*
X590630Y550700D01*
X588817Y544693D02*
X590630Y546507D01*
X588817Y543689D02*
X590630Y541875D01*
X588817Y547635D02*
X590630Y549448D01*
X588817Y546630D02*
X590630Y544817D01*
X587327Y574594D02*
X590630Y571291D01*
X586947Y557531D02*
X590630Y561215D01*
X584386Y574594D02*
X590630Y568349D01*
X584005Y557531D02*
X590630Y564156D01*
X588817Y555455D02*
X590630Y553642D01*
X588817Y542421D02*
Y557531D01*
Y556460D02*
X590630Y558273D01*
X587425Y542421D02*
X588817D01*
X587425Y528593D02*
X590630Y531799D01*
Y476074D02*
Y596074D01*
X587425Y531535D02*
X590630Y534740D01*
X587425Y533315D02*
X590630Y530109D01*
X587425Y530373D02*
X590630Y527167D01*
X587425Y527431D02*
X590630Y524226D01*
X586171Y525743D02*
X590630Y521284D01*
X583230Y525743D02*
X590630Y518343D01*
X587425Y542139D02*
X590630Y538934D01*
X587425Y537418D02*
X590630Y540624D01*
X587425Y540360D02*
X590630Y543565D01*
X587425Y525743D02*
Y542421D01*
Y534477D02*
X590630Y537682D01*
X587425Y536256D02*
X590630Y533050D01*
X587425Y539198D02*
X590630Y535992D01*
X581444Y574594D02*
X590630Y565408D01*
X579317Y573780D02*
X590630Y562466D01*
X579317Y564609D02*
X589302Y574594D01*
X575180Y557531D02*
X590630Y572981D01*
X581064Y557531D02*
X590630Y567098D01*
X579317Y567896D02*
X590630Y556583D01*
X579317Y570838D02*
X590630Y559525D01*
X578122Y557531D02*
X590630Y570039D01*
X579317Y570492D02*
X583419Y574594D01*
X579317Y567551D02*
X586360Y574594D01*
X579317Y573434D02*
X580477Y574594D01*
X579317Y562421D02*
Y574594D01*
X578909Y562421D02*
X583799Y557531D01*
X579317Y564955D02*
X586741Y557531D01*
X575968Y562421D02*
X580858Y557531D01*
X574725Y527660D02*
X575315Y528250D01*
Y525743D02*
Y542421D01*
X574725Y533543D02*
X575315Y534133D01*
X574725Y531307D02*
X575315Y530717D01*
X580288Y525743D02*
X590630Y515401D01*
X577347Y525743D02*
X590630Y512459D01*
X575315Y525743D02*
X587425D01*
X577159Y491853D02*
X590630Y505325D01*
X574725Y540131D02*
X575315Y539541D01*
X574725Y539426D02*
X575315Y540016D01*
X574725Y542421D02*
Y544853D01*
Y525743D02*
Y542421D01*
Y536484D02*
X575315Y537074D01*
X574725Y534248D02*
X575315Y533658D01*
X574725Y537190D02*
X575315Y536600D01*
X587425Y483308D02*
X590630Y480102D01*
X587425Y478587D02*
X590630Y481792D01*
X587425Y486249D02*
X590630Y483044D01*
X587425Y481528D02*
X590630Y484734D01*
X587425Y480366D02*
X590630Y477161D01*
X587425Y475645D02*
X590630Y478851D01*
X585551Y470830D02*
X590679Y475957D01*
X585551Y470830D02*
X590679Y475957D01*
X587425Y490353D02*
X590630Y493558D01*
X587425Y472743D02*
Y491853D01*
X583042D02*
X590630Y499442D01*
X585984Y491853D02*
X590630Y496500D01*
X587425Y489191D02*
X590630Y485985D01*
X587425Y484470D02*
X590630Y487675D01*
X587425Y487411D02*
X590630Y490617D01*
X585551Y472743D02*
X587425D01*
X591551Y465307D02*
Y470307D01*
Y461197D02*
Y465307D01*
X585551Y470307D02*
X591551D01*
X586223Y472743D02*
X588659Y470307D01*
X591551Y460307D02*
Y461197D01*
X590334Y446197D02*
X591551Y447414D01*
X585551Y446197D02*
X591551D01*
X585551Y441414D02*
X590334Y446197D01*
X585551Y470307D02*
Y472743D01*
X580941Y455307D02*
Y456197D01*
Y461197D02*
Y465307D01*
Y456197D02*
Y460307D01*
X585551Y444355D02*
X587393Y446197D01*
X585551Y440197D02*
Y446197D01*
X584334Y440197D02*
X585551Y441414D01*
X580100Y491853D02*
X590630Y502383D01*
X575551Y465697D02*
X576441D01*
X575315Y491853D02*
X587425D01*
X575315Y476307D02*
Y491853D01*
X578561Y465697D02*
X580941Y463318D01*
Y461197D02*
Y465307D01*
X576441Y465697D02*
X580551D01*
X576441D02*
X580551D01*
X574725Y487183D02*
X575315Y486593D01*
X574725Y484241D02*
X575315Y483651D01*
X574725Y490125D02*
X575315Y489535D01*
X574725Y489419D02*
X575315Y490009D01*
X574725Y478358D02*
X575315Y477768D01*
X574725Y477653D02*
X575315Y478243D01*
X574725Y480594D02*
X575315Y481185D01*
X580941Y451197D02*
Y455307D01*
Y451197D02*
Y455307D01*
Y460307D02*
Y461197D01*
Y456197D02*
Y460307D01*
X580236Y450807D02*
X580941Y451512D01*
X580551Y440197D02*
X585551D01*
X577295Y450807D02*
X580941Y454453D01*
X575528Y431391D02*
X584334Y440197D01*
X576441Y450807D02*
X580551D01*
X576441D02*
X580551D01*
X575620Y465697D02*
X580941Y460376D01*
X575551Y450807D02*
X576441D01*
Y440197D02*
X580551D01*
X576441D02*
X580551D01*
X575551D02*
X576441D01*
X574091Y679019D02*
X577981Y675129D01*
X574091Y674104D02*
X577981Y677994D01*
X574091Y682929D02*
X591894Y700733D01*
X574091Y679987D02*
X591864Y697761D01*
X574091Y673136D02*
X577981Y669246D01*
X574091Y668221D02*
X577981Y672111D01*
X574091Y676078D02*
X577981Y672188D01*
X574091Y671163D02*
X577981Y675053D01*
X574091Y677046D02*
X577981Y680936D01*
X574091Y673005D02*
Y676615D01*
Y681961D02*
X577981Y678071D01*
X574091Y676615D02*
Y683115D01*
Y666505D02*
Y670115D01*
Y666505D02*
Y670115D01*
Y673005D02*
Y676615D01*
Y670115D02*
Y673005D01*
Y659397D02*
X577981Y663287D01*
X574091Y661370D02*
X577981Y657480D01*
X574091Y662338D02*
X577981Y666228D01*
X574091Y664311D02*
X577981Y660421D01*
X574091Y653513D02*
X577981Y657403D01*
X574091Y655487D02*
X579383Y650194D01*
X574091Y656455D02*
X577981Y660345D01*
X574091Y658428D02*
X577981Y654538D01*
X574091Y663615D02*
Y666505D01*
Y667253D02*
X577981Y663363D01*
X574091Y670194D02*
X577981Y666304D01*
X574091Y665280D02*
X577981Y669170D01*
X574091Y660005D02*
Y663615D01*
Y653505D02*
Y660005D01*
Y663615D01*
X573838Y688096D02*
X578820Y683115D01*
X572407Y686586D02*
X577981Y681012D01*
X571335Y683115D02*
X591925Y703704D01*
X570992Y685059D02*
X572936Y683115D01*
X574091Y681961D01*
X569237Y683115D02*
X574091D01*
X562981Y653505D02*
X574091D01*
X560278Y672241D02*
X562981Y669538D01*
Y666505D02*
Y670115D01*
X559015Y670563D02*
X562981Y666597D01*
X557769Y668867D02*
X562981Y663655D01*
X556540Y667154D02*
X562981Y660714D01*
Y654830D02*
X564306Y653505D01*
X551733Y650194D02*
X564343D01*
X552958Y661912D02*
X564675Y650194D01*
X570771D02*
X574083Y653505D01*
X573713Y650194D02*
X577981Y654462D01*
X567830Y650194D02*
X571141Y653505D01*
X570189D02*
X573500Y650194D01*
X564433D02*
X577043D01*
X573131Y653505D02*
X576442Y650194D01*
X536650Y631155D02*
X571851Y595954D01*
X557714D02*
X591168Y629408D01*
X564888Y650194D02*
X568200Y653505D01*
X567248D02*
X570559Y650194D01*
X561947D02*
X565258Y653505D01*
X564306D02*
X567617Y650194D01*
X564433Y628834D02*
Y650194D01*
Y629846D02*
X565445Y628834D01*
X564343D02*
Y650194D01*
X574269Y628834D02*
X590992Y612111D01*
X571328Y628834D02*
X590962Y609199D01*
X559562Y628834D02*
X591764Y596632D01*
X560655Y595954D02*
X591138Y626437D01*
X569480Y595954D02*
X591047Y617521D01*
X572421Y595954D02*
X591017Y614549D01*
X563597Y595954D02*
X591107Y623465D01*
X566538Y595954D02*
X591077Y620493D01*
X568386Y628834D02*
X590933Y606288D01*
X565445Y628834D02*
X590903Y603376D01*
X564433Y628834D02*
X577043D01*
X562503D02*
X590873Y600464D01*
X564433Y595954D02*
X577043D01*
X564343Y574594D02*
Y595954D01*
X563026D02*
X564343Y594637D01*
X562828Y574594D02*
X564343Y576109D01*
X569297Y557531D02*
X574187Y562421D01*
X570085D02*
X574975Y557531D01*
X563414D02*
X568304Y562421D01*
X566356Y557531D02*
X571246Y562421D01*
X573026D02*
X577916Y557531D01*
X574707D02*
X588817D01*
X565207Y562421D02*
X579317D01*
X569091Y557531D02*
X569817Y556805D01*
X564433Y574594D02*
Y595954D01*
Y574594D02*
X565207D01*
X563795D02*
X565207Y573182D01*
X560853Y574594D02*
X565207Y570240D01*
Y562421D02*
Y574594D01*
X560472Y557531D02*
X565363Y562421D01*
X557912Y574594D02*
X565207Y567299D01*
X545947Y595954D02*
X578827Y628834D01*
X547795D02*
X580675Y595954D01*
X543006D02*
X575886Y628834D01*
X544854D02*
X577734Y595954D01*
X551830D02*
X584710Y628834D01*
X553678D02*
X586558Y595954D01*
X548889D02*
X581769Y628834D01*
X550737D02*
X583617Y595954D01*
X551733Y628834D02*
X564343D01*
X541912D02*
X574792Y595954D01*
X535798Y629065D02*
X568909Y595954D01*
X540064D02*
X572944Y628834D01*
X534968Y626953D02*
X565967Y595954D01*
X551733D02*
X564343D01*
X534160Y624820D02*
X563026Y595954D01*
X554772D02*
X587652Y628834D01*
X556620D02*
X589500Y595954D01*
X524390Y586163D02*
X567061Y628834D01*
X523949Y582780D02*
X570003Y628834D01*
X556867Y557531D02*
X569817D01*
X557531D02*
X565207Y565207D01*
X556607Y570015D02*
X569091Y557531D01*
X556607Y567074D02*
X566150Y557531D01*
X556607Y565432D02*
X565207Y574032D01*
X556607Y572957D02*
X565207Y564357D01*
X524908Y589623D02*
X564119Y628834D01*
X556607Y574594D02*
X564343D01*
X557059Y562942D02*
X565207Y571090D01*
X557557Y560498D02*
X565207Y568149D01*
X556298Y564441D02*
X563208Y557531D01*
X552736Y661574D02*
X562981Y671819D01*
X555328Y665424D02*
X562981Y657772D01*
X547930Y653827D02*
X562981Y668877D01*
Y660005D02*
Y663615D01*
Y653505D02*
Y660005D01*
Y663615D01*
X554134Y663677D02*
X562981Y654830D01*
Y673005D02*
Y675704D01*
Y673005D02*
Y675704D01*
X561558Y673903D02*
X562981Y672480D01*
X559705Y671484D02*
X562981Y674761D01*
Y666505D02*
Y670115D01*
Y663615D02*
Y666505D01*
Y670115D02*
Y673005D01*
X545854Y650194D02*
X551643D01*
X551799Y660129D02*
X561734Y650194D01*
X553122D02*
X562981Y660053D01*
X547239Y650194D02*
X562981Y665936D01*
X550181Y650194D02*
X562981Y662994D01*
X556064Y650194D02*
X562981Y657111D01*
X559005Y650194D02*
X562981Y654170D01*
X549535Y656510D02*
X555851Y650194D01*
X550658Y658328D02*
X558792Y650194D01*
X548430Y654673D02*
X552909Y650194D01*
X549968D02*
X551643Y648519D01*
X546275Y650945D02*
X547026Y650194D01*
X547343Y652819D02*
X549968Y650194D01*
X551733Y648805D02*
X553122Y650194D01*
X551733Y628834D02*
Y650194D01*
X551643Y628834D02*
Y650194D01*
X539033Y628834D02*
X551643D01*
X531336Y616642D02*
X543528Y628834D01*
X530039Y612403D02*
X546470Y628834D01*
X528893Y608315D02*
X549411Y628834D01*
X527879Y604360D02*
X552353Y628834D01*
X529144Y609244D02*
X542435Y595954D01*
X526985Y600524D02*
X555295Y628834D01*
X526198Y596796D02*
X558236Y628834D01*
X538415Y635272D02*
X539033Y634655D01*
Y628834D02*
Y636651D01*
X537522Y633224D02*
X539033Y631713D01*
X536387Y630517D02*
X539033Y633163D01*
X534477Y625666D02*
X539033Y630222D01*
X532806Y621053D02*
X540587Y628834D01*
X528525Y606922D02*
X539493Y595954D01*
X532610Y620486D02*
X557143Y595954D01*
X533374Y622664D02*
X560084Y595954D01*
X531869Y618286D02*
X554201Y595954D01*
X525508Y593165D02*
X561178Y628834D01*
X531152Y616062D02*
X551259Y595954D01*
X539033D02*
X551643D01*
X529789Y611541D02*
X545376Y595954D01*
X530458Y613814D02*
X548318Y595954D01*
X527932Y604574D02*
X539033Y593473D01*
X527365Y602199D02*
X539033Y590531D01*
X526825Y599797D02*
X539033Y587589D01*
Y594923D02*
X540064Y595954D01*
X539033Y578051D02*
Y595954D01*
X526313Y597368D02*
X539033Y584648D01*
X556607Y571315D02*
X559886Y574594D01*
X556607Y564441D02*
Y574594D01*
X551643Y578051D02*
Y595954D01*
X551733Y578051D02*
Y595954D01*
X556607Y568373D02*
X562828Y574594D01*
X544532Y564441D02*
X545366Y563607D01*
X537497Y564441D02*
X540607D01*
X545497D01*
X533927Y578051D02*
X539033Y583157D01*
X536869Y578051D02*
X539033Y580215D01*
X530986Y578051D02*
X539033Y586098D01*
X532607Y578051D02*
X537497D01*
X539033D01*
X537497Y564441D02*
X540607D01*
X537497Y578051D02*
X539033D01*
X532607Y564441D02*
X537497D01*
X538649D02*
X544982Y558108D01*
X539101Y556751D02*
X544895Y562544D01*
X557554Y560244D02*
X560267Y557531D01*
X540607Y556751D02*
X545497D01*
X541590Y564441D02*
X544619Y561412D01*
X535707Y564441D02*
X543397Y556751D01*
X532766Y564441D02*
X540456Y556751D01*
X533218D02*
X540908Y564441D01*
X537497Y556751D02*
X540607D01*
X537497D02*
X540607D01*
X532607D02*
X537497D01*
X525830Y594909D02*
X539033Y581706D01*
X525377Y592421D02*
X539033Y578765D01*
X523577Y579467D02*
X539033Y594923D01*
X525103Y578051D02*
X539033Y591981D01*
X528044Y578051D02*
X539033Y589040D01*
X529497Y564441D02*
X532607D01*
X524561Y587354D02*
X533863Y578051D01*
X524953Y589903D02*
X536805Y578051D01*
X523874Y582157D02*
X527980Y578051D01*
X524201Y584772D02*
X530922Y578051D01*
X523437D02*
X529497D01*
X523582Y579508D02*
X525039Y578051D01*
X529497D02*
X532607D01*
X529497D02*
X532607D01*
X522650Y564441D02*
X529497D01*
X532607D01*
X526883D02*
X534572Y556751D01*
X523941Y564441D02*
X531631Y556751D01*
X524394D02*
X532084Y564441D01*
X529497Y556751D02*
X532607D01*
X529824Y564441D02*
X537514Y556751D01*
X527335D02*
X535025Y564441D01*
X529497Y556751D02*
X532607D01*
X522638Y563820D02*
X523259Y564441D01*
X522630Y557929D02*
X529142Y564441D01*
X522610Y560851D02*
X526200Y564441D01*
X522623Y562817D02*
X528689Y556751D01*
X522651D02*
X529497D01*
X522612Y559887D02*
X525748Y556751D01*
X571327Y544853D02*
X574707Y548233D01*
Y544853D02*
Y557531D01*
X569817Y555109D02*
X577129Y562421D01*
X569817Y550922D02*
X574707Y546032D01*
Y542421D02*
Y544853D01*
X574725Y530601D02*
X575315Y531191D01*
X569817Y544853D02*
X574707D01*
X572944D02*
X574707Y543091D01*
X569817Y552168D02*
X574707Y557058D01*
X569817Y556805D02*
X574707Y551916D01*
X567143Y562421D02*
X574707Y554857D01*
X569817Y544853D02*
Y557531D01*
Y546284D02*
X574707Y551174D01*
X569817Y547981D02*
X572944Y544853D01*
X569817Y549226D02*
X574707Y554116D01*
X569817Y553864D02*
X574707Y548974D01*
X568522Y525743D02*
X590630Y503635D01*
X565580Y525743D02*
X590630Y500693D01*
X562639Y525743D02*
X590630Y497752D01*
X562025Y491427D02*
X590630Y520033D01*
X571276Y491853D02*
X590630Y511208D01*
X574217Y491853D02*
X590630Y508266D01*
X565392Y491853D02*
X590630Y517091D01*
X568334Y491853D02*
X590630Y514150D01*
X574725Y528365D02*
X575315Y527775D01*
X574405Y525743D02*
X590630Y509518D01*
X562615Y525743D02*
X574725D01*
X571464D02*
X590630Y506576D01*
X562615Y491853D02*
X574725D01*
Y476307D02*
Y491853D01*
X562615Y476307D02*
Y491853D01*
X562025Y529668D02*
X562615Y530257D01*
X525002Y531022D02*
X564171Y491853D01*
X524017Y537891D02*
X570055Y491853D01*
X524471Y534495D02*
X567113Y491853D01*
X559697Y525743D02*
X590630Y494810D01*
X556756Y525743D02*
X590630Y491869D01*
X534293Y496052D02*
X563984Y525743D01*
X535105Y493923D02*
X566925Y525743D01*
X562025Y538492D02*
X562615Y539082D01*
X562025Y538124D02*
X562615Y537533D01*
X562025Y541434D02*
X562615Y542024D01*
X562025Y541065D02*
X562615Y540475D01*
X562025Y532609D02*
X562615Y533199D01*
X562025Y532240D02*
X562615Y531650D01*
X562025Y535551D02*
X562615Y536141D01*
X562025Y535182D02*
X562615Y534592D01*
X553626Y491853D02*
X590630Y528857D01*
X556568Y491853D02*
X590630Y525916D01*
X547743Y491853D02*
X581633Y525743D01*
X547931D02*
X581821Y491853D01*
X559509D02*
X590630Y522974D01*
X553814Y525743D02*
X590630Y488927D01*
X550685Y491853D02*
X584575Y525743D01*
X550872D02*
X584762Y491853D01*
X539106Y525743D02*
X572996Y491853D01*
X541860D02*
X575750Y525743D01*
X538918Y491853D02*
X572808Y525743D01*
X535938Y491815D02*
X569867Y525743D01*
X544801Y491853D02*
X578691Y525743D01*
X544989D02*
X578879Y491853D01*
X542048Y525743D02*
X575938Y491853D01*
X571441Y465697D02*
X575551D01*
X572678D02*
X580941Y457434D01*
X569737Y465697D02*
X580941Y454493D01*
X566795Y465697D02*
X580941Y451551D01*
X571441Y450807D02*
X575551D01*
X571441D02*
X575551D01*
X568470D02*
X580941Y463278D01*
X571412Y450807D02*
X580941Y460336D01*
X574725Y483536D02*
X575315Y484126D01*
X574725Y481300D02*
X575315Y480710D01*
X572996Y491853D02*
X574725Y490125D01*
Y486478D02*
X575315Y487068D01*
X571441Y465697D02*
X575551D01*
X570551Y450807D02*
X571441D01*
X570551Y465697D02*
X571441D01*
X566441Y450807D02*
X570551D01*
X574353D02*
X580941Y457395D01*
X574078Y432882D02*
X581393Y440197D01*
X571441D02*
X575551D01*
X572644Y434390D02*
X578451Y440197D01*
X574646D02*
X591761Y423081D01*
X571704Y440197D02*
X591716Y420185D01*
X568762Y440197D02*
X591715Y417244D01*
X570551Y440197D02*
X571441D01*
X568442Y439012D02*
X569626Y440197D01*
X567410D02*
X570551D01*
X567410D02*
X570551D01*
X571441D02*
X575551D01*
X571226Y435914D02*
X575509Y440197D01*
X569826Y437455D02*
X572568Y440197D01*
X566441Y465697D02*
X570551D01*
X566441D02*
X570551D01*
X562025Y479661D02*
X562615Y480251D01*
X566051Y463096D02*
X568652Y465697D01*
X566051Y461197D02*
Y465307D01*
Y460307D02*
Y461197D01*
Y465307D01*
Y460154D02*
X571594Y465697D01*
X562025Y488117D02*
X562615Y487527D01*
X562025Y485544D02*
X562615Y486134D01*
X562025Y491058D02*
X562615Y490468D01*
X562025Y488485D02*
X562615Y489076D01*
X562025Y482602D02*
X562615Y483192D01*
X562025Y482234D02*
X562615Y481644D01*
X562025Y485175D02*
X562615Y484585D01*
X566051Y451329D02*
X580419Y465697D01*
X566051Y451329D02*
X580419Y465697D01*
X566051Y457213D02*
X574535Y465697D01*
X566051Y454271D02*
X577477Y465697D01*
X566051Y457617D02*
X572860Y450807D01*
X566441D02*
X570551D01*
X566051Y463500D02*
X578743Y450807D01*
X566051Y460558D02*
X575802Y450807D01*
X566051Y455307D02*
Y456197D01*
Y451197D02*
Y455307D01*
Y456197D02*
Y460307D01*
Y456197D02*
Y460307D01*
Y454675D02*
X569919Y450807D01*
X566051Y451733D02*
X566977Y450807D01*
X566051Y451197D02*
Y455307D01*
X549325Y533174D02*
X549915Y532584D01*
X549325Y536116D02*
X549915Y535526D01*
X549325Y534617D02*
X549915Y535207D01*
X549325Y528734D02*
X549915Y529324D01*
X562025Y529299D02*
X562615Y528709D01*
X549325Y531675D02*
X549915Y532265D01*
X549325Y530232D02*
X549915Y529642D01*
X542043Y556751D02*
X544640Y559348D01*
X536416Y543141D02*
X537215Y542342D01*
X536160Y556751D02*
X543850Y564441D01*
X533475Y543141D02*
X537215Y539401D01*
X549325Y539057D02*
X549915Y538467D01*
X549325Y537559D02*
X549915Y538149D01*
X549325Y541999D02*
X549915Y541409D01*
X549325Y540500D02*
X549915Y541090D01*
X562025Y526726D02*
X562615Y527316D01*
Y525743D02*
Y542421D01*
X561042Y525743D02*
X562025Y526726D01*
Y525743D02*
Y542421D01*
Y526357D02*
X562615Y525767D01*
X549915Y525743D02*
X562025D01*
X532735Y500378D02*
X558100Y525743D01*
X533503Y498204D02*
X561042Y525743D01*
X549325Y527291D02*
X549915Y526701D01*
Y525743D02*
Y543141D01*
X537215Y525743D02*
Y543141D01*
X549325Y525743D02*
Y543141D01*
Y525792D02*
X549915Y526382D01*
Y526701D02*
X550872Y525743D01*
X537215D02*
X549325D01*
X532607Y543141D02*
X537215D01*
X530533D02*
X537215Y536459D01*
X530277Y556751D02*
X537967Y564441D01*
X527592Y543141D02*
X537215Y533518D01*
X525022Y530905D02*
X537215Y543098D01*
X525450Y528392D02*
X537215Y540156D01*
X524650Y543141D02*
X537215Y530576D01*
X523634Y541215D02*
X537215Y527635D01*
X523926Y538634D02*
X528433Y543141D01*
X524258Y536025D02*
X531375Y543141D01*
X523441D02*
X529497D01*
X523628Y541277D02*
X525491Y543141D01*
X529497D02*
X532607D01*
X529497D02*
X532607D01*
X524624Y533449D02*
X534316Y543141D01*
X529898Y509308D02*
X546334Y525743D01*
X530572Y507039D02*
X549276Y525743D01*
X529250Y511600D02*
X543393Y525743D01*
X525617Y527466D02*
X561230Y491853D01*
X531269Y504795D02*
X552217Y525743D01*
X531991Y502575D02*
X555159Y525743D01*
X526322Y523820D02*
X558288Y491853D01*
X527126Y520074D02*
X555347Y491853D01*
X526396Y523455D02*
X537215Y534273D01*
X526913Y521030D02*
X537215Y531332D01*
X525909Y525909D02*
X537215Y537215D01*
X528028Y516262D02*
X537509Y525743D01*
X528626Y513918D02*
X540451Y525743D01*
X527457Y518633D02*
X537215Y528390D01*
X562025Y479292D02*
X562615Y478702D01*
X562025Y476307D02*
Y491853D01*
X549915D02*
X562025D01*
X561230D02*
X562025Y491058D01*
Y476719D02*
X562615Y477309D01*
X559749Y472743D02*
X561441Y471051D01*
X549915Y472743D02*
X561441D01*
X555441Y470307D02*
X561441D01*
X549915Y491083D02*
X550685Y491853D01*
X549915Y473753D02*
X550924Y472743D01*
X549325D02*
Y491853D01*
X549915Y472743D02*
Y491853D01*
X555613Y470307D02*
X558049Y472743D01*
X556807D02*
X559243Y470307D01*
X549325Y472844D02*
X549915Y473434D01*
X553866Y472743D02*
X556302Y470307D01*
X558554D02*
X560990Y472743D01*
X561441Y470307D02*
Y472743D01*
X555441Y460307D02*
Y461197D01*
X553152Y459022D02*
X555441Y461311D01*
Y456197D02*
Y460307D01*
Y456197D02*
Y460307D01*
X554332Y457260D02*
X555441Y458369D01*
X553693Y458208D02*
X555441Y456460D01*
X550924Y472743D02*
X555441Y468227D01*
Y465307D02*
Y470307D01*
X549720Y464415D02*
X555441Y470135D01*
X550846Y462599D02*
X555441Y467194D01*
Y461197D02*
Y465307D01*
Y461197D02*
Y465307D01*
X551990Y460802D02*
X555441Y464252D01*
X549325Y490493D02*
X549915Y491083D01*
X549325Y489050D02*
X549915Y488460D01*
X528039Y516219D02*
X552405Y491853D01*
X529073Y512243D02*
X549915Y491402D01*
X549325Y484610D02*
X549915Y485200D01*
X549325Y483167D02*
X549915Y482577D01*
X549325Y487552D02*
X549915Y488142D01*
X549325Y486109D02*
X549915Y485519D01*
X533069Y499423D02*
X540639Y491853D01*
X534777Y494774D02*
X537697Y491853D01*
X530244Y508132D02*
X546522Y491853D01*
X531568Y503866D02*
X543580Y491853D01*
X537215D02*
X549325D01*
X537215Y490150D02*
X538918Y491853D01*
X537215Y488725D02*
Y491853D01*
X549325Y475785D02*
X549915Y476376D01*
X549325Y474342D02*
X549915Y473753D01*
X547523Y468100D02*
X552166Y472743D01*
X548612Y466248D02*
X555107Y472743D01*
X547983D02*
X555441Y465285D01*
X548639Y466204D02*
X555441Y459402D01*
X545041Y472743D02*
X555441Y462343D01*
X549325Y478727D02*
X549915Y479317D01*
X549325Y477284D02*
X549915Y476694D01*
X549325Y481669D02*
X549915Y482259D01*
X549325Y480226D02*
X549915Y479636D01*
X545398Y471859D02*
X546283Y472743D01*
X546451Y469970D02*
X549224Y472743D01*
X544915D02*
X549325D01*
X786919Y460901D02*
X788224D01*
X789419D01*
X785724D02*
X786919D01*
X788224D01*
X789419D02*
X790724D01*
X791572D01*
X789419D02*
X790724D01*
X781919D02*
X783224D01*
X781919D02*
X783224D01*
X746919D02*
X748224D01*
X784419D02*
X785724D01*
X784419D02*
X785724D01*
X783224D02*
X784419D01*
X789268D02*
X791572Y458596D01*
X786326Y460901D02*
X791572Y455655D01*
X783385Y460901D02*
X791572Y452713D01*
X781603Y459741D02*
X791572Y449771D01*
Y458346D02*
Y459651D01*
Y458346D02*
Y459651D01*
X781603Y449205D02*
X791572Y459174D01*
X781603Y458030D02*
X784474Y460901D01*
X781603Y447437D02*
Y460901D01*
X748493Y447437D02*
Y460901D01*
X791572Y459651D02*
Y460846D01*
X781603Y452147D02*
X790357Y460901D01*
X781603Y455088D02*
X787415Y460901D01*
X741919D02*
X743224D01*
X744419D01*
X740724D02*
X741919D01*
X743224D01*
X744419D02*
X745724D01*
X746919D01*
X744419D02*
X745724D01*
X736919D02*
X738224D01*
X736919D02*
X738224D01*
X735724D02*
X736919D01*
X739419D02*
X740724D01*
X739419D02*
X740724D01*
X738224D02*
X739419D01*
X746919D02*
X748224D01*
X745144D02*
X748493Y457552D01*
X742203Y460901D02*
X748493Y454610D01*
X736089Y450756D02*
X746233Y460901D01*
X739261D02*
X748493Y451669D01*
X736320Y460901D02*
X748493Y448727D01*
X736089Y447815D02*
X748493Y460219D01*
X736089Y456640D02*
X740350Y460901D01*
X736089Y453698D02*
X743292Y460901D01*
X736089Y459581D02*
X737408Y460901D01*
X734480Y459799D02*
X736089Y458190D01*
Y447799D02*
Y459799D01*
X731089D02*
X736089D01*
X791572Y450846D02*
Y452151D01*
Y450846D02*
Y452151D01*
Y453346D02*
Y454651D01*
Y452151D02*
Y453346D01*
Y448346D02*
Y449651D01*
Y448346D02*
Y449651D01*
Y450846D01*
Y455846D02*
Y457151D01*
Y455846D02*
Y457151D01*
Y458346D01*
Y454651D02*
Y455846D01*
Y453346D02*
Y454651D01*
X779835Y447437D02*
X781603Y449205D01*
X791572Y444651D02*
Y445846D01*
X781603Y453858D02*
X791572Y443888D01*
X776886Y441547D02*
X791572Y456233D01*
X779828Y441547D02*
X791572Y453291D01*
Y443346D02*
Y444651D01*
Y442151D02*
Y443346D01*
Y444651D01*
Y447151D02*
Y448346D01*
X781603Y456799D02*
X791572Y446830D01*
X773316Y447437D02*
X779206Y441547D01*
X791572Y445846D02*
Y447151D01*
Y445846D02*
Y447151D01*
X773945Y441547D02*
X779835Y447437D01*
X744898Y447799D02*
X748493Y451394D01*
Y448727D02*
X749783Y447437D01*
X739015Y447799D02*
X748493Y457277D01*
X741956Y447799D02*
X748493Y454336D01*
Y447437D02*
X781603D01*
X748089Y445107D02*
X750419Y447437D01*
X747839Y447799D02*
X748493Y448452D01*
X736089Y455248D02*
X743538Y447799D01*
X736089Y452306D02*
X740596Y447799D01*
X736089Y458190D02*
X746479Y447799D01*
X736089D02*
X748089D01*
X746479D02*
X748089Y446189D01*
X736089Y449365D02*
X737655Y447799D01*
X759237Y441547D02*
X765127Y447437D01*
X764491D02*
X770381Y441547D01*
X756295D02*
X762185Y447437D01*
X758608D02*
X764498Y441547D01*
X770374Y447437D02*
X776264Y441547D01*
X771003D02*
X776893Y447437D01*
X768062Y441547D02*
X773952Y447437D01*
X748089Y442165D02*
X753361Y447437D01*
X752725D02*
X758615Y441547D01*
X748089Y442799D02*
Y447799D01*
X753354Y441547D02*
X759244Y447437D01*
X755666D02*
X761556Y441547D01*
X748089Y443248D02*
X749790Y441547D01*
X713224Y460901D02*
X714419D01*
X729419D02*
X730724D01*
X711919D02*
X713224D01*
X711919D02*
X713224D01*
X731919D02*
X733224D01*
X731919D02*
X733224D01*
X730724D02*
X731919D01*
X706919D02*
X708224D01*
X709419D01*
X706919D02*
X708224D01*
X709419D02*
X710724D01*
X711919D01*
X709419D02*
X710724D01*
X733224D02*
X734419D01*
X733365Y459799D02*
X734467Y460901D01*
X730424Y459799D02*
X731525Y460901D01*
X730436D02*
X731538Y459799D01*
X734419Y460901D02*
X735724D01*
X734419D02*
X735724D01*
X733378D02*
X734480Y459799D01*
X706904Y460901D02*
X708005Y459799D01*
X709833D02*
X710934Y460901D01*
X706891Y459799D02*
X707993Y460901D01*
X712774Y459799D02*
X713876Y460901D01*
X712787D02*
X713888Y459799D01*
X709845Y460901D02*
X710947Y459799D01*
X698225Y460901D02*
X699419D01*
X700725D01*
X696919D02*
X698225D01*
X696919D02*
X698225D01*
X700725D02*
X701919D01*
X703225D01*
X699419D02*
X700725D01*
X691919D02*
X693225D01*
X694419D01*
X691919D02*
X693225D01*
X694419D02*
X695725D01*
X696919D01*
X694419D02*
X695725D01*
X703950Y459799D02*
X705051Y460901D01*
X703962D02*
X705064Y459799D01*
X701919Y460901D02*
X703225D01*
X704419D01*
X705724D01*
X706919D01*
X704419D02*
X705724D01*
X698066Y459799D02*
X699168Y460901D01*
X695138D02*
X696979Y459059D01*
X692196Y460901D02*
X696979Y456118D01*
X701008Y459799D02*
X702110Y460901D01*
X701021D02*
X702122Y459799D01*
X698079Y460901D02*
X699181Y459799D01*
X725724Y460901D02*
X726919D01*
X728224D01*
X724419D02*
X725724D01*
X724419D02*
X725724D01*
X728224D02*
X729419D01*
X730724D01*
X726919D02*
X728224D01*
X719419D02*
X720724D01*
X721919D01*
X719419D02*
X720724D01*
X721919D02*
X723224D01*
X724419D01*
X721919D02*
X723224D01*
X727482Y459799D02*
X728584Y460901D01*
X727495D02*
X728596Y459799D01*
X721979D02*
X726089D01*
X721979D02*
X726089D01*
X726979D02*
X731089D01*
X726979D02*
X731089D01*
X726089D02*
X726979D01*
X721599D02*
X722701Y460901D01*
X721612D02*
X722713Y459799D01*
X718670Y460901D02*
X719772Y459799D01*
X724541D02*
X725642Y460901D01*
X724553D02*
X725655Y459799D01*
X721089D02*
X721979D01*
X715724Y460901D02*
X716919D01*
X718224D01*
X714419D02*
X715724D01*
X714419D02*
X715724D01*
X716919D02*
X718224D01*
X719419D01*
X711089Y459799D02*
X711979D01*
X701979D02*
X706089D01*
X701979D02*
X706089D01*
X696979D02*
X701979D01*
X706979D02*
X711089D01*
X706979D02*
X711089D01*
X706089D02*
X706979D01*
X715729Y460901D02*
X716830Y459799D01*
X718657D02*
X719759Y460901D01*
X715716Y459799D02*
X716817Y460901D01*
X716979Y459799D02*
X721089D01*
X716979D02*
X721089D01*
X716089D02*
X716979D01*
X711979D02*
X716089D01*
X696979Y458712D02*
X698066Y459799D01*
X696979Y447799D02*
Y459799D01*
X711979D02*
X716089D01*
X694891Y447799D02*
X696979Y449887D01*
X691949Y447799D02*
X696979Y452828D01*
X791572Y433346D02*
Y434651D01*
Y433346D02*
Y434651D01*
Y435846D02*
Y437151D01*
Y434651D02*
Y435846D01*
Y430846D02*
Y432151D01*
Y430846D02*
Y432151D01*
Y433346D01*
Y439651D02*
Y440846D01*
Y438346D02*
Y439651D01*
Y440846D02*
Y442151D01*
Y437151D02*
Y438346D01*
Y435846D02*
Y437151D01*
Y438346D02*
Y439651D01*
Y423346D02*
Y424651D01*
Y422151D02*
Y423346D01*
Y424651D02*
Y425846D01*
Y423346D02*
Y424651D01*
Y420846D02*
Y422151D01*
Y419651D02*
Y420846D01*
Y422151D01*
Y428346D02*
Y429651D01*
Y428346D02*
Y429651D01*
Y430846D01*
Y425846D02*
Y427151D01*
Y425846D02*
Y427151D01*
Y428346D01*
X781603Y434497D02*
X791572Y444467D01*
X781603Y431556D02*
X791572Y441525D01*
X779199Y447437D02*
X791572Y435064D01*
X776257Y447437D02*
X791572Y432122D01*
X781603Y428614D02*
X791572Y438583D01*
X781603Y436208D02*
X791572Y426239D01*
X781603Y439150D02*
X791572Y429180D01*
X781603Y440381D02*
X791572Y450350D01*
X781603Y447974D02*
X791572Y438005D01*
X781603Y450916D02*
X791572Y440947D01*
Y440846D02*
Y442151D01*
X781603Y437439D02*
X791572Y447408D01*
X748493Y441547D02*
X781603D01*
Y416848D02*
X791572Y426817D01*
X781603Y424442D02*
X791572Y414473D01*
X781603Y419790D02*
X791572Y429759D01*
X781603Y427383D02*
X791572Y417414D01*
X781603Y421500D02*
X791572Y411531D01*
X781603Y410965D02*
X791572Y420934D01*
X781603Y413906D02*
X791572Y423876D01*
X781603Y425673D02*
X791572Y435642D01*
X781603Y433266D02*
X791572Y423297D01*
X781603Y425963D02*
Y441547D01*
Y430325D02*
X791572Y420356D01*
X781603Y409853D02*
Y425437D01*
Y422731D02*
X791572Y432700D01*
Y412151D02*
Y413346D01*
Y410846D02*
Y412151D01*
Y413346D02*
Y414651D01*
Y413346D02*
Y414651D01*
Y409651D02*
Y410846D01*
Y408346D02*
Y409651D01*
Y410846D02*
Y412151D01*
Y418346D02*
Y419651D01*
Y417151D02*
Y418346D01*
Y419651D01*
Y415846D02*
Y417151D01*
Y414651D02*
Y415846D01*
Y417151D01*
Y400846D02*
Y402151D01*
Y400846D02*
Y402151D01*
Y403346D02*
Y404651D01*
Y402151D02*
Y403346D01*
Y398346D02*
Y400846D01*
Y398346D02*
X792446Y397472D01*
X790779Y396608D02*
X792045Y397874D01*
X791572Y407151D02*
Y408346D01*
Y405846D02*
Y407151D01*
Y408346D02*
Y409651D01*
Y404651D02*
Y405846D01*
Y403346D02*
Y404651D01*
Y405846D02*
Y407151D01*
X781603Y418559D02*
X791572Y408589D01*
X781603Y415617D02*
X791572Y405648D01*
X777543Y403963D02*
X791572Y417993D01*
X780484Y403963D02*
X791572Y415051D01*
X781603Y412676D02*
X791572Y402706D01*
X781603Y402140D02*
X791572Y412109D01*
X748493Y403963D02*
X781603D01*
X780491Y409853D02*
X781603Y410965D01*
X772659Y409853D02*
X778549Y403963D01*
X771660D02*
X777550Y409853D01*
X774601Y403963D02*
X780491Y409853D01*
X775601D02*
X781491Y403963D01*
X748493Y409853D02*
X781603D01*
Y399198D02*
X791572Y409168D01*
X781603Y396257D02*
X791572Y406226D01*
X781484Y409853D02*
X791572Y399765D01*
X785012Y393782D02*
X791572Y400343D01*
X781603Y393315D02*
X791572Y403285D01*
X781603Y403851D02*
X789496Y395958D01*
X781603Y392227D02*
Y403963D01*
X778542Y409853D02*
X791445Y396951D01*
X781603Y397968D02*
X785540Y394031D01*
X781603Y395026D02*
X783532Y393097D01*
X781603Y400909D02*
X787528Y394985D01*
X761549Y447437D02*
X767439Y441547D01*
X762178D02*
X768068Y447437D01*
X749783D02*
X755673Y441547D01*
X750412D02*
X756302Y447437D01*
X765120Y441547D02*
X771010Y447437D01*
X767433D02*
X773323Y441547D01*
X751069Y403963D02*
X756959Y409853D01*
X748493Y425963D02*
Y441547D01*
Y409853D02*
Y425437D01*
X748089Y433689D02*
Y437799D01*
X748493Y410487D02*
X749127Y409853D01*
X755017Y403963D01*
X748089Y408689D02*
Y413689D01*
X763835Y409853D02*
X769725Y403963D01*
X765777D02*
X771666Y409853D01*
X760893D02*
X766783Y403963D01*
X762835D02*
X768725Y409853D01*
X768718Y403963D02*
X774608Y409853D01*
X769718D02*
X775608Y403963D01*
X766776Y409853D02*
X772666Y403963D01*
X754010D02*
X759900Y409853D01*
X755010D02*
X760900Y403963D01*
X752068Y409853D02*
X757958Y403963D01*
X757952Y409853D02*
X763841Y403963D01*
X759893D02*
X765783Y409853D01*
X756952Y403963D02*
X762842Y409853D01*
X748089Y427799D02*
Y428689D01*
Y423689D02*
Y427799D01*
Y446189D02*
X752731Y441547D01*
X748089Y428689D02*
Y432799D01*
Y422799D02*
Y423689D01*
Y418689D02*
Y422799D01*
Y423689D02*
Y427799D01*
Y438689D02*
Y442799D01*
Y437799D02*
Y438689D01*
Y442799D01*
Y432799D02*
Y433689D01*
Y428689D02*
Y432799D01*
Y433689D02*
Y437799D01*
Y413689D02*
Y417799D01*
Y413689D02*
Y417799D01*
Y418689D01*
X739136Y397913D02*
X751076Y409853D01*
X746970Y408689D02*
X748089Y409808D01*
X742077Y397913D02*
X754017Y409853D01*
X736089Y408689D02*
X748089D01*
Y418689D02*
Y422799D01*
X736089Y406633D02*
X738145Y408689D01*
X691459D02*
X696979Y403169D01*
X736089Y400750D02*
X744028Y408689D01*
X736194Y397913D02*
X746970Y408689D01*
X736089Y403691D02*
X741087Y408689D01*
X765244Y387853D02*
X766718Y386379D01*
X762302Y387853D02*
X764517Y385638D01*
X747349Y408689D02*
X752075Y403963D01*
X759361Y387853D02*
X762293Y384920D01*
X768185Y387853D02*
X768896Y387142D01*
X765391Y385928D02*
X767316Y387853D01*
X748493D02*
X770848D01*
X748493D02*
Y403963D01*
X746465Y387593D02*
X748493Y389621D01*
X746465Y391924D02*
X748493Y389896D01*
X746465Y386803D02*
Y388913D01*
Y384651D02*
X749667Y387853D01*
X746465Y386803D02*
Y388913D01*
X756419Y387853D02*
X760045Y384227D01*
X753477Y387853D02*
X757773Y383557D01*
X752854Y382216D02*
X758491Y387853D01*
X748951Y381255D02*
X755550Y387853D01*
X761056Y384535D02*
X764374Y387853D01*
X756884Y383304D02*
X761433Y387853D01*
X750536D02*
X755476Y382913D01*
X746465Y381710D02*
X752608Y387853D01*
X746465Y388982D02*
X753154Y382293D01*
X746465Y386041D02*
X750806Y381700D01*
X746465Y383099D02*
X748431Y381133D01*
X746465Y380689D02*
Y386803D01*
X744408Y408689D02*
X749134Y403963D01*
X741466Y408689D02*
X748493Y401662D01*
X738524Y408689D02*
X748493Y398721D01*
X736089Y408183D02*
X746359Y397913D01*
X736089Y402300D02*
X740476Y397913D01*
X736089Y399358D02*
X737534Y397913D01*
X736089Y405241D02*
X743417Y397913D01*
X696979Y398143D02*
Y408689D01*
X736089Y397913D02*
Y408689D01*
X694401D02*
X696979Y406111D01*
X695571Y398472D02*
X696979Y399880D01*
X695571Y398143D02*
X696979D01*
X692800Y398643D02*
X696979Y402822D01*
X746465Y396418D02*
X748493Y398446D01*
X746465Y397807D02*
X748493Y395779D01*
X745019Y397913D02*
X748493Y401387D01*
X746465Y394865D02*
X748493Y392837D01*
X746465Y390535D02*
X748493Y392563D01*
X746465Y393476D02*
X748493Y395504D01*
X736089Y397913D02*
X746465D01*
Y388913D02*
Y397913D01*
X734185Y391647D02*
Y396689D01*
X734355Y391647D02*
Y396689D01*
Y378444D02*
Y382037D01*
X734185Y378418D02*
Y382037D01*
X688225Y460901D02*
X689420D01*
X690725D01*
X686920D02*
X688225D01*
X684321Y454878D02*
X690343Y460901D01*
X689420D02*
X690725D01*
X691919D01*
X689255D02*
X696979Y453176D01*
X684420Y460901D02*
X685725D01*
X686920D01*
X684420D02*
X685725D01*
X686920D02*
X688225D01*
X684321Y457820D02*
X687402Y460901D01*
X684321Y457820D02*
X687402Y460901D01*
X686313D02*
X696979Y450234D01*
X686066Y447799D02*
X696979Y458712D01*
X684321Y451937D02*
X693285Y460901D01*
X684321Y448995D02*
X696226Y460901D01*
X684979Y447799D02*
X696979D01*
X689008D02*
X696979Y455770D01*
X684321Y457009D02*
X693531Y447799D01*
X684321Y454068D02*
X690590Y447799D01*
X684321Y451126D02*
X687648Y447799D01*
X684321Y447437D02*
Y460901D01*
X684979Y446712D02*
X686066Y447799D01*
X684979Y442799D02*
Y447799D01*
X684321Y448185D02*
X684979Y447527D01*
X646657Y456433D02*
X651211Y451879D01*
X684321Y459951D02*
X696473Y447799D01*
X646657Y459374D02*
X651211Y454820D01*
X646657Y452513D02*
X651211Y457067D01*
X646657Y453491D02*
X651211Y448937D01*
X652711Y447437D01*
X646657Y449572D02*
X651211Y454126D01*
X648225Y460901D02*
X649420D01*
X650725D01*
X646657Y458396D02*
X649161Y460901D01*
X649420D02*
X650725D01*
X648072D02*
X651211Y457762D01*
X646657Y455455D02*
X651211Y460009D01*
X682763Y447437D02*
X684321Y448995D01*
X670361Y447437D02*
X676251Y441547D01*
X668048D02*
X673938Y447437D01*
X668048Y441547D02*
X673938Y447437D01*
X670990Y441547D02*
X676880Y447437D01*
X673302D02*
X679192Y441547D01*
X651211Y447437D02*
X684321D01*
X651211D02*
Y460901D01*
X646657Y450550D02*
X655660Y441547D01*
X644098Y444071D02*
X651211Y451184D01*
X646657Y447608D02*
X652718Y441547D01*
X667419Y447437D02*
X673309Y441547D01*
X646657Y443689D02*
X651211Y448242D01*
X684979Y438689D02*
Y442799D01*
Y437799D02*
Y438689D01*
X684321Y439360D02*
X684979Y438702D01*
Y438689D02*
Y442799D01*
X684321Y436418D02*
X684979Y435760D01*
X684321Y434287D02*
X684979Y434945D01*
X684321Y437229D02*
X684979Y437887D01*
X682127Y447437D02*
X684979Y444585D01*
X679185Y447437D02*
X684979Y441643D01*
X676873Y441547D02*
X682763Y447437D01*
X682756Y441547D02*
X684979Y443770D01*
X684321Y440171D02*
X684979Y440828D01*
X679814Y441547D02*
X684979Y446712D01*
Y428689D02*
Y432799D01*
Y428689D02*
Y432799D01*
X684321Y430535D02*
X684979Y429877D01*
X684321Y428404D02*
X684979Y429062D01*
Y427799D02*
Y428689D01*
X684321Y425463D02*
X684979Y426121D01*
X684321Y427594D02*
X684979Y426936D01*
Y433689D02*
Y437799D01*
Y433689D02*
Y437799D01*
X684321Y425709D02*
Y441547D01*
X684979Y432799D02*
Y433689D01*
X684321Y431346D02*
X684979Y432004D01*
X684321Y433477D02*
X684979Y432819D01*
X664478Y447437D02*
X670368Y441547D01*
X665107D02*
X670996Y447437D01*
X661536D02*
X667426Y441547D01*
X662165D02*
X668055Y447437D01*
X673931Y441547D02*
X679821Y447437D01*
X676244D02*
X682134Y441547D01*
X651211D02*
X684321D01*
X653340D02*
X659230Y447437D01*
X655653D02*
X661543Y441547D01*
X652711Y447437D02*
X658601Y441547D01*
X658594Y447437D02*
X664484Y441547D01*
X659223D02*
X665113Y447437D01*
X656282Y441547D02*
X662172Y447437D01*
X646657Y428981D02*
X651211Y433535D01*
Y425709D02*
Y441547D01*
X646657Y440747D02*
X653347Y447437D01*
X646657Y437805D02*
X656289Y447437D01*
X646657Y432900D02*
X651211Y428346D01*
X646657Y429959D02*
X651211Y425405D01*
X646403Y425785D02*
X651211Y430593D01*
X646657Y441725D02*
X651211Y437171D01*
X646657Y434864D02*
X651211Y439418D01*
X644363Y446961D02*
X651211Y440113D01*
X646657Y431922D02*
X651211Y436476D01*
X646657Y435842D02*
X651211Y431288D01*
X646657Y438783D02*
X651211Y434229D01*
X621920Y460901D02*
X623225D01*
X621920D02*
X623225D01*
X619420D02*
X620725D01*
X621920D01*
X624420D02*
X625725D01*
X624420D02*
X625725D01*
X623225D02*
X624420D01*
X615725D02*
X616920D01*
X618225D01*
X614420D02*
X615725D01*
X618225D02*
X619420D01*
X620725D01*
X616920D02*
X618225D01*
X646920D02*
X648225D01*
X646657Y446961D02*
Y460901D01*
X618657D02*
X626547Y453010D01*
Y446961D02*
Y460901D01*
X646920D02*
X648225D01*
X624182Y453571D02*
X626547Y455936D01*
X621241Y453571D02*
X626547Y458877D01*
X615715Y460901D02*
X623045Y453571D01*
X618299D02*
X625629Y460901D01*
X615358Y453571D02*
X622687Y460901D01*
X625725D02*
X626547D01*
X624540D02*
X626547Y458893D01*
X621598Y460901D02*
X626547Y455952D01*
X610725Y460901D02*
X611920D01*
X613225D01*
X609420D02*
X610725D01*
X607676Y457656D02*
X610921Y460901D01*
X613225D02*
X614420D01*
X615725D01*
X611920D02*
X613225D01*
X608225D02*
X609420D01*
X607676Y459810D02*
Y460901D01*
Y459810D02*
Y460901D01*
X609420D02*
X610725D01*
X607676Y457310D02*
Y458615D01*
Y459810D01*
X609832Y460901D02*
X617161Y453571D01*
X612416D02*
X619745Y460901D01*
X607676Y454715D02*
X613862Y460901D01*
X609474Y453571D02*
X616804Y460901D01*
X607676Y457173D02*
X611278Y453571D01*
X612774Y460901D02*
X620103Y453571D01*
X607676Y460115D02*
X614220Y453571D01*
X607676Y456115D02*
Y457310D01*
Y454810D02*
Y456115D01*
Y457310D02*
Y458615D01*
Y453615D02*
Y454810D01*
Y454231D02*
X608337Y453571D01*
X607676Y454810D02*
Y456115D01*
X632596Y446961D02*
X635486Y444071D01*
X635273D02*
X638163Y446961D01*
X629655D02*
X632545Y444071D01*
X632332D02*
X635222Y446961D01*
X626547Y444071D02*
X646657D01*
X635538Y446961D02*
X638428Y444071D01*
X626547Y446961D02*
X646657D01*
X624657Y451959D02*
X626547Y450069D01*
X624657Y448163D02*
X626547Y450053D01*
X624657Y451104D02*
X626547Y452994D01*
X626713Y446961D02*
X629603Y444071D01*
X629390D02*
X632280Y446961D01*
X624657Y449017D02*
X626547Y447127D01*
X638479Y446961D02*
X641369Y444071D01*
X641156D02*
X644046Y446961D01*
X638215Y444071D02*
X641105Y446961D01*
X624657Y442280D02*
X629338Y446961D01*
X646403Y427961D02*
Y429035D01*
X646657Y427961D02*
Y444071D01*
X641421Y446961D02*
X644311Y444071D01*
X624657Y443134D02*
X626547Y441244D01*
Y429035D02*
Y444071D01*
X624657Y437461D02*
Y453571D01*
Y440192D02*
X626547Y438302D01*
Y427961D02*
Y429035D01*
X624657Y439338D02*
X626547Y441228D01*
X624657Y445221D02*
X626547Y447111D01*
X624657Y446076D02*
X626661Y444071D01*
X607676Y453571D02*
X624657D01*
X623045D02*
X624657Y451959D01*
X624447Y437461D02*
X626547Y435361D01*
X621505Y437461D02*
X626547Y432419D01*
X607676Y437461D02*
X624657D01*
X607676Y436115D02*
Y437310D01*
Y434810D02*
Y436115D01*
Y434124D02*
X611014Y437461D01*
X607676Y433615D02*
Y434810D01*
Y432310D02*
Y433615D01*
Y434810D02*
Y436115D01*
Y428241D02*
X616897Y437461D01*
X615622D02*
X626293Y426790D01*
X607676Y431182D02*
X613955Y437461D01*
X618564D02*
X626547Y429478D01*
X607676Y426115D02*
Y427310D01*
Y428615D01*
Y431115D02*
Y432310D01*
Y429810D02*
Y431115D01*
Y432310D02*
Y433615D01*
Y428615D02*
Y429810D01*
Y427310D02*
Y428615D01*
Y429810D02*
Y431115D01*
X684979Y418689D02*
Y422799D01*
Y418689D02*
Y422799D01*
X684321Y419580D02*
X684979Y420237D01*
X684321Y418769D02*
X684979Y418111D01*
Y417799D02*
Y418689D01*
X684321Y415827D02*
X684979Y415169D01*
X684321Y416638D02*
X684979Y417296D01*
Y423689D02*
Y427799D01*
Y423689D02*
Y427799D01*
X684321Y424652D02*
X684979Y423994D01*
Y422799D02*
Y423689D01*
X684321Y421710D02*
X684979Y421052D01*
X684321Y422521D02*
X684979Y423179D01*
X684321Y409944D02*
X684979Y409286D01*
Y408689D02*
Y413689D01*
X684321Y410755D02*
X684979Y411413D01*
X678783Y409599D02*
X689739Y398643D01*
X684979Y409286D02*
X685576Y408689D01*
X683158Y403709D02*
X688138Y408689D01*
X681725Y409599D02*
X692681Y398643D01*
X684979Y413689D02*
Y417799D01*
Y413689D02*
Y417799D01*
X684321Y409599D02*
Y425437D01*
Y413696D02*
X684979Y414354D01*
X684321Y412886D02*
X684979Y412228D01*
X683165Y409599D02*
X684321Y410755D01*
X656684Y403709D02*
X662574Y409599D01*
X658192D02*
X664082Y403709D01*
X653743D02*
X659633Y409599D01*
X655250D02*
X661140Y403709D01*
X659626D02*
X665516Y409599D01*
X661134D02*
X667023Y403709D01*
X651211Y409599D02*
X684321D01*
X646403Y424329D02*
X651211Y419521D01*
X646041Y412925D02*
X655257Y403709D01*
X645361Y410035D02*
X651211Y415885D01*
Y410697D02*
X652309Y409599D01*
X658199Y403709D01*
X646403Y409622D02*
X652316Y403709D01*
X671392D02*
X677282Y409599D01*
X672900D02*
X678790Y403709D01*
X668451D02*
X674341Y409599D01*
X669958D02*
X675848Y403709D01*
X675841Y409599D02*
X681731Y403709D01*
X677275D02*
X683165Y409599D01*
X674334Y403709D02*
X680224Y409599D01*
X662567Y403709D02*
X668457Y409599D01*
X646403Y399311D02*
X656691Y409599D01*
X646403Y402253D02*
X653749Y409599D01*
X665509Y403709D02*
X671399Y409599D01*
X667017D02*
X672907Y403709D01*
X664075Y409599D02*
X669965Y403709D01*
X686917Y398643D02*
X696963Y408689D01*
X685576D02*
X696122Y398143D01*
X684979Y408689D02*
X696979D01*
X684321Y398988D02*
X694022Y408689D01*
X688518D02*
X696979Y400228D01*
X689859Y398643D02*
X696979Y405763D01*
X684321Y398643D02*
X695571D01*
X684321Y401930D02*
X691080Y408689D01*
X684321Y398643D02*
Y403709D01*
X680217D02*
X685197Y408689D01*
X684321Y401119D02*
X686797Y398643D01*
X682461Y384533D02*
Y387599D01*
X680192D02*
X682461Y385330D01*
Y379533D02*
Y383643D01*
Y379533D02*
Y383643D01*
X674309Y387599D02*
X682461Y379447D01*
X676067Y378968D02*
X682461Y385362D01*
X681160Y378178D02*
X682461Y379479D01*
Y377999D02*
Y379533D01*
X678597Y378557D02*
X682461Y382421D01*
X673567Y379409D02*
X681756Y387599D01*
X671367D02*
X680727Y378239D01*
X671096Y379880D02*
X678815Y387599D01*
X682461Y384533D02*
Y387599D01*
Y383643D02*
Y384533D01*
X677250Y387599D02*
X682461Y382388D01*
X651211Y403709D02*
X684321D01*
X652316Y384633D02*
X655282Y387599D01*
X650083Y385341D02*
X652340Y387599D01*
X644450Y393925D02*
X654363Y384012D01*
X654574Y383949D02*
X658224Y387599D01*
X656856Y383290D02*
X661165Y387599D01*
X651211D02*
X682461D01*
X643521Y387604D02*
X651211Y395294D01*
Y387599D02*
Y403709D01*
X641378Y388403D02*
X651211Y398236D01*
X646403Y394914D02*
X651211Y390106D01*
X647872Y386072D02*
X651211Y389411D01*
X645685Y386827D02*
X651211Y392353D01*
X666241Y380909D02*
X672932Y387599D01*
X662542D02*
X670051Y380090D01*
X668655Y380381D02*
X675873Y387599D01*
X668426D02*
X677254Y378771D01*
X665484Y387599D02*
X673698Y379385D01*
X659164Y382656D02*
X664107Y387599D01*
X656659D02*
X662451Y381808D01*
X653718Y387599D02*
X658475Y382842D01*
X661497Y382047D02*
X667048Y387599D01*
X663856Y381465D02*
X669990Y387599D01*
X659601D02*
X666306Y380894D01*
X646403Y419902D02*
X651211Y424710D01*
X646403Y416960D02*
X651211Y421768D01*
X646403Y427271D02*
X651211Y422463D01*
X646403Y419902D02*
X651211Y424710D01*
X646403Y414019D02*
X651211Y418827D01*
X646403Y418446D02*
X651211Y413638D01*
X646403Y421388D02*
X651211Y416580D01*
X646403Y422844D02*
X651211Y427651D01*
X646403Y412925D02*
Y427961D01*
X626293Y412925D02*
Y429035D01*
X624403Y416914D02*
X626293Y415024D01*
X645309Y412925D02*
X646403Y414019D01*
X624403Y415551D02*
X626293Y417441D01*
X651211Y409599D02*
Y425437D01*
X646403Y408136D02*
X651211Y412944D01*
X646403Y415505D02*
X651211Y410697D01*
X631333Y412925D02*
X634223Y410035D01*
X634275Y412925D02*
X637165Y410035D01*
X636536D02*
X639426Y412925D01*
X633595Y410035D02*
X636484Y412925D01*
X624403Y412610D02*
X626293Y414500D01*
X624403Y413972D02*
X628340Y410035D01*
X624403Y403425D02*
Y419535D01*
X628392Y412925D02*
X631282Y410035D01*
X630653D02*
X633543Y412925D01*
X627711Y410035D02*
X630601Y412925D01*
X612681Y437461D02*
X626293Y423848D01*
X609739Y437461D02*
X626293Y420907D01*
X607676Y425299D02*
X619838Y437461D01*
X607676Y422357D02*
X622780Y437461D01*
X607676Y419810D02*
Y421115D01*
Y419810D02*
Y421115D01*
Y433640D02*
X621782Y419535D01*
X607676Y424810D02*
Y426115D01*
Y423615D02*
Y424810D01*
Y426115D01*
Y422310D02*
Y423615D01*
Y421115D02*
Y422310D01*
Y423615D01*
X610737Y419535D02*
X626547Y435345D01*
X613679Y419535D02*
X626547Y432403D01*
X607796Y419535D02*
X626547Y438286D01*
X607676Y436582D02*
X626293Y417965D01*
X622504Y419535D02*
X626293Y423325D01*
X624403Y418493D02*
X626293Y420383D01*
X616620Y419535D02*
X626547Y429462D01*
X607676Y427757D02*
X615899Y419535D01*
X619562D02*
X626293Y426266D01*
X607676Y430699D02*
X618840Y419535D01*
X607676Y421874D02*
X610015Y419535D01*
X607676D02*
X624403D01*
X607676Y424816D02*
X612957Y419535D01*
X646403Y405194D02*
X651211Y410002D01*
X646403Y406680D02*
X651211Y401872D01*
X642419Y410035D02*
X645309Y412925D01*
X643100D02*
X645990Y410035D01*
X646403Y396369D02*
X651211Y401177D01*
X646403Y400797D02*
X651211Y395989D01*
X646403Y403739D02*
X651211Y398931D01*
X637217Y412925D02*
X640107Y410035D01*
X639478D02*
X642368Y412925D01*
X636536Y410035D02*
X639426Y412925D01*
X640158D02*
X643048Y410035D01*
X626293Y394922D02*
Y410035D01*
X646403Y393925D02*
Y410035D01*
Y397855D02*
X651211Y393047D01*
X637159Y390067D02*
X641017Y393925D01*
X639258Y389224D02*
X643959Y393925D01*
X638567D02*
X645655Y386837D01*
X641509Y393925D02*
X650098Y385336D01*
X628376Y393925D02*
X646403D01*
X630988Y392720D02*
X632192Y393925D01*
X633024Y391815D02*
X635134Y393925D01*
X629742D02*
X630913Y392754D01*
X635081Y390930D02*
X638075Y393925D01*
X635625D02*
X641005Y388545D01*
X632684Y393925D02*
X636110Y390499D01*
X626293Y410035D02*
X646403D01*
X626293Y408617D02*
X627711Y410035D01*
X626293Y412925D02*
X646403D01*
X624403Y409668D02*
X627660Y412925D01*
X624403Y403785D02*
X626293Y405675D01*
X624403Y405148D02*
X626293Y403257D01*
X624403Y408089D02*
X626293Y406199D01*
X624403Y411031D02*
X626293Y409141D01*
X624403Y406727D02*
X626293Y408617D01*
X611700Y402848D02*
X612277Y403425D01*
X611418D02*
X612435Y402407D01*
X613544Y401751D02*
X615218Y403425D01*
X610751D02*
X624403D01*
X621105Y397546D02*
X626293Y402733D01*
X620242Y403425D02*
X626293Y397374D01*
X623043Y396542D02*
X626293Y399792D01*
X625000Y395557D02*
X626293Y396850D01*
X623043Y396542D02*
X626293Y399792D01*
X615406Y400672D02*
X618160Y403425D01*
X617287Y399611D02*
X621101Y403425D01*
X614359D02*
X619249Y398535D01*
X623184Y403425D02*
X626293Y400316D01*
X619187Y398569D02*
X624043Y403425D01*
X617301D02*
X625335Y395391D01*
D82*
X600437Y468140D02*
D03*
X682226Y714302D02*
D03*
D83*
X897882Y560614D02*
G03*
X897882Y560614I-191291J0D01*
G01*
D84*
X898188Y565772D02*
D03*
X825145Y711101D02*
D03*
X816133Y717751D02*
D03*
X710286Y369211D02*
D03*
X673420Y749078D02*
D03*
X644259Y379717D02*
D03*
X796276Y391335D02*
D03*
X732612Y370877D02*
D03*
X896226Y532264D02*
D03*
X559592Y682926D02*
D03*
X888565Y620731D02*
D03*
X897502Y543391D02*
D03*
X891781Y610003D02*
D03*
X548224Y453465D02*
D03*
X676802Y371540D02*
D03*
X542243Y462934D02*
D03*
X594737Y405437D02*
D03*
X526492Y624832D02*
D03*
X875355Y651584D02*
D03*
X841320Y424295D02*
D03*
X898156Y554572D02*
D03*
X849624Y688151D02*
D03*
X884417Y489145D02*
D03*
X540489Y655340D02*
D03*
X833123Y416664D02*
D03*
X603968Y399095D02*
D03*
X610643Y726094D02*
D03*
X894395Y599112D02*
D03*
X797069Y729496D02*
D03*
X531904Y482796D02*
D03*
X897596Y576956D02*
D03*
X880368Y641568D02*
D03*
X601109Y720216D02*
D03*
X546262Y664937D02*
D03*
X583196Y706789D02*
D03*
X524042Y503757D02*
D03*
X863004Y449917D02*
D03*
X569354Y427399D02*
D03*
X766174Y742596D02*
D03*
X879970Y478866D02*
D03*
X633791Y383700D02*
D03*
X765334Y378353D02*
D03*
X554724Y444344D02*
D03*
X662450Y746823D02*
D03*
X744524Y748311D02*
D03*
X518077Y592350D02*
D03*
X754571Y375255D02*
D03*
X743653Y372760D02*
D03*
X651622Y743961D02*
D03*
X620489Y731432D02*
D03*
X518687Y525499D02*
D03*
X699087Y369365D02*
D03*
X722359Y751454D02*
D03*
X695653Y751741D02*
D03*
X516557Y581254D02*
D03*
X552650Y674137D02*
D03*
X585872Y412282D02*
D03*
X535259Y645436D02*
D03*
X561751Y435623D02*
D03*
X527618Y493143D02*
D03*
X623561Y388259D02*
D03*
X530589Y635256D02*
D03*
X684500Y750719D02*
D03*
X824455Y409571D02*
D03*
X863508Y670584D02*
D03*
X787054Y734510D02*
D03*
X776727Y738843D02*
D03*
X888285Y499656D02*
D03*
X833773Y703960D02*
D03*
X515658Y570090D02*
D03*
X577403Y419611D02*
D03*
X567013Y691315D02*
D03*
X884756Y631264D02*
D03*
X896383Y588090D02*
D03*
X515381Y558893D02*
D03*
X687914Y370142D02*
D03*
X640995Y740425D02*
D03*
X806450Y724154D02*
D03*
X874957Y468851D02*
D03*
X536956Y472694D02*
D03*
X522981Y614197D02*
D03*
X591917Y713817D02*
D03*
X806003Y396887D02*
D03*
X894237Y521242D02*
D03*
X815406Y402972D02*
D03*
X613600Y393380D02*
D03*
X516925Y536559D02*
D03*
X520211Y603345D02*
D03*
X775908Y382046D02*
D03*
X786255Y386332D02*
D03*
X856811Y679561D02*
D03*
X869244Y459217D02*
D03*
X755429Y745755D02*
D03*
X891561Y510366D02*
D03*
X574889Y699277D02*
D03*
X654932Y376324D02*
D03*
X856255Y440978D02*
D03*
X521062Y514553D02*
D03*
X630617Y736214D02*
D03*
X849020Y432429D02*
D03*
X515781Y547700D02*
D03*
X869696Y661249D02*
D03*
X665785Y373554D02*
D03*
X721477Y369680D02*
D03*
X733494Y750257D02*
D03*
X841970Y696328D02*
D03*
D85*
X844892Y582764D02*
D03*
X855892D02*
D03*
X833892D02*
D03*
Y571764D02*
D03*
X855892D02*
D03*
X844892D02*
D03*
Y593764D02*
D03*
X833892D02*
D03*
X855892D02*
D03*
X866892D02*
D03*
Y571764D02*
D03*
Y582764D02*
D03*
X833892Y604764D02*
D03*
X855892D02*
D03*
X844892D02*
D03*
X866892D02*
D03*
D86*
X598170Y471424D02*
D03*
X680974Y616204D02*
D03*
X689575Y623213D02*
D03*
X692115D02*
D03*
X694401D02*
D03*
X696941D02*
D03*
X699227D02*
D03*
X701513D02*
D03*
X704307D02*
D03*
X707101D02*
D03*
X709641D02*
D03*
X812800Y615950D02*
D03*
X803621Y623213D02*
D03*
X800573D02*
D03*
X797560Y623316D02*
D03*
X794766D02*
D03*
X809463Y625499D02*
D03*
X792191Y623213D02*
D03*
X789651D02*
D03*
X787111D02*
D03*
X784571D02*
D03*
X803734Y518944D02*
D03*
X637729Y473063D02*
D03*
X819482Y646365D02*
D03*
X679727Y617998D02*
D03*
X819482Y681365D02*
D03*
X595514Y449955D02*
D03*
X750229Y473063D02*
D03*
X795377Y510558D02*
D03*
X807031Y623213D02*
D03*
X712729Y473063D02*
D03*
X803734Y541444D02*
D03*
X819482Y643865D02*
D03*
X742031Y623213D02*
D03*
X803734Y443944D02*
D03*
X678791Y665331D02*
D03*
X803734Y513944D02*
D03*
X603871Y416712D02*
D03*
X803734Y438944D02*
D03*
X716322Y464706D02*
D03*
X811125Y698372D02*
D03*
X682729Y473063D02*
D03*
X687148Y651470D02*
D03*
X795377Y523058D02*
D03*
X819433Y623865D02*
D03*
X748640Y614856D02*
D03*
X712031Y623213D02*
D03*
X806062Y614856D02*
D03*
X771322Y464706D02*
D03*
X636322D02*
D03*
X662730Y719225D02*
D03*
X678791Y670331D02*
D03*
X703822Y464706D02*
D03*
X603871Y439212D02*
D03*
X795377Y407748D02*
D03*
X625229Y473063D02*
D03*
X655229D02*
D03*
X785229D02*
D03*
X795377Y402748D02*
D03*
X711140Y614856D02*
D03*
X671350Y710868D02*
D03*
X795377Y495558D02*
D03*
X628850Y710868D02*
D03*
X811125Y665872D02*
D03*
X729531Y623213D02*
D03*
X739531D02*
D03*
X777031D02*
D03*
X735229Y473063D02*
D03*
X795377Y485558D02*
D03*
X726140Y614856D02*
D03*
X803734Y448944D02*
D03*
X701140Y614856D02*
D03*
X767729Y473063D02*
D03*
X678791Y645331D02*
D03*
X667729Y473063D02*
D03*
X795377Y563058D02*
D03*
Y480558D02*
D03*
Y500558D02*
D03*
X678791Y682831D02*
D03*
X795377Y400248D02*
D03*
X595514Y434955D02*
D03*
X803734Y608943D02*
D03*
X595514Y444955D02*
D03*
X603871Y431712D02*
D03*
X760229Y473063D02*
D03*
X803734Y598943D02*
D03*
X643850Y710868D02*
D03*
X678791Y627831D02*
D03*
X803734Y538944D02*
D03*
Y453944D02*
D03*
X603871Y446712D02*
D03*
X687148Y623970D02*
D03*
Y626470D02*
D03*
X775229Y473063D02*
D03*
X819482Y636365D02*
D03*
X696322Y464706D02*
D03*
X595514Y452455D02*
D03*
X795377Y595558D02*
D03*
X761322Y464706D02*
D03*
X645230Y719225D02*
D03*
X678791Y700331D02*
D03*
X792729Y473063D02*
D03*
X795377Y450248D02*
D03*
X678791Y632831D02*
D03*
X759531Y623213D02*
D03*
X678791Y710331D02*
D03*
X603871Y426712D02*
D03*
X793822Y464706D02*
D03*
X690229Y473063D02*
D03*
X611322Y464706D02*
D03*
X758822D02*
D03*
X728640Y614856D02*
D03*
X811125Y670872D02*
D03*
X687148Y633970D02*
D03*
X795377Y540558D02*
D03*
X819482Y688865D02*
D03*
X803734Y411444D02*
D03*
X795377Y437748D02*
D03*
X676350Y710868D02*
D03*
X687148Y711470D02*
D03*
X793640Y614856D02*
D03*
X795377Y425248D02*
D03*
X732031Y623213D02*
D03*
X742729Y473063D02*
D03*
X811125Y685872D02*
D03*
X603850Y710868D02*
D03*
X795377Y462748D02*
D03*
X819482Y683865D02*
D03*
X623850Y710868D02*
D03*
X595526Y467455D02*
D03*
X818513Y621541D02*
D03*
X607729Y473063D02*
D03*
X744531Y623213D02*
D03*
X764531D02*
D03*
X723822Y464706D02*
D03*
X687148Y671470D02*
D03*
X746140Y614856D02*
D03*
X687148Y703970D02*
D03*
X795377Y412748D02*
D03*
X811125Y693372D02*
D03*
X687148Y663970D02*
D03*
X803734Y451444D02*
D03*
X671322Y464706D02*
D03*
X751322D02*
D03*
X803734Y533944D02*
D03*
X630230Y719225D02*
D03*
X627729Y473063D02*
D03*
X693822Y464706D02*
D03*
X737729Y473063D02*
D03*
X655230Y719225D02*
D03*
X673822Y464706D02*
D03*
X803734Y588944D02*
D03*
X795377Y478058D02*
D03*
X803734Y496444D02*
D03*
X658822Y464706D02*
D03*
X668850Y710868D02*
D03*
X781322Y464706D02*
D03*
X778640Y614856D02*
D03*
X776322Y464706D02*
D03*
X653850Y710868D02*
D03*
X803734Y558944D02*
D03*
X819482Y663865D02*
D03*
X736140Y614856D02*
D03*
X687148Y653970D02*
D03*
Y708970D02*
D03*
X603871Y459212D02*
D03*
X757729Y473063D02*
D03*
X788640Y614856D02*
D03*
X631350Y710868D02*
D03*
X676322Y464706D02*
D03*
X803734Y458944D02*
D03*
X752031Y623213D02*
D03*
X770229Y473063D02*
D03*
X811056Y615021D02*
D03*
X678791Y707831D02*
D03*
X803734Y431444D02*
D03*
Y488944D02*
D03*
Y566444D02*
D03*
X603871Y429212D02*
D03*
X678829Y620331D02*
D03*
X819482Y671365D02*
D03*
Y648865D02*
D03*
X803734Y456444D02*
D03*
X795377Y417748D02*
D03*
X682074Y719107D02*
D03*
X769531Y623213D02*
D03*
X803734Y556444D02*
D03*
X595514Y459955D02*
D03*
X803734Y586444D02*
D03*
X678791Y667831D02*
D03*
X731322Y464706D02*
D03*
X678791Y650331D02*
D03*
X795377Y488058D02*
D03*
X780229Y473063D02*
D03*
X776140Y614856D02*
D03*
X678791Y642831D02*
D03*
X687148Y656470D02*
D03*
X811125Y688372D02*
D03*
Y658372D02*
D03*
X603871Y434212D02*
D03*
X595514Y414955D02*
D03*
X603871Y464212D02*
D03*
X795377Y535558D02*
D03*
X803734Y548944D02*
D03*
X795377Y600558D02*
D03*
X803734Y423944D02*
D03*
X678791Y635331D02*
D03*
X783822Y464706D02*
D03*
X635230Y719225D02*
D03*
X795377Y427748D02*
D03*
X642730Y719225D02*
D03*
X721322Y464706D02*
D03*
X772031Y623213D02*
D03*
X795377Y518058D02*
D03*
X596375Y469807D02*
D03*
X771140Y614856D02*
D03*
X687148Y681470D02*
D03*
X657729Y473063D02*
D03*
X803734Y571444D02*
D03*
X733822Y464706D02*
D03*
X765229Y473063D02*
D03*
X687148Y668970D02*
D03*
X803734Y591443D02*
D03*
X652730Y719225D02*
D03*
X698640Y614856D02*
D03*
X803734Y413944D02*
D03*
X687148Y678970D02*
D03*
X623822Y464706D02*
D03*
X603871Y451712D02*
D03*
X795377Y588058D02*
D03*
X787729Y473063D02*
D03*
X795377Y550558D02*
D03*
X803734Y508944D02*
D03*
Y506444D02*
D03*
X795377Y440248D02*
D03*
X595514Y429955D02*
D03*
X678791Y660331D02*
D03*
X731140Y614856D02*
D03*
X733640D02*
D03*
X763640D02*
D03*
X715229Y473063D02*
D03*
X691140Y614856D02*
D03*
X621350Y710868D02*
D03*
X687148Y631470D02*
D03*
X803734Y601443D02*
D03*
X736322Y464706D02*
D03*
X737031Y623213D02*
D03*
X811125Y638372D02*
D03*
X803734Y526444D02*
D03*
X600236Y472875D02*
D03*
X803734Y473944D02*
D03*
X595514Y442455D02*
D03*
X687148Y666470D02*
D03*
X752729Y473063D02*
D03*
X803734Y603943D02*
D03*
Y491444D02*
D03*
X688640Y614856D02*
D03*
X795377Y580558D02*
D03*
X743822Y464706D02*
D03*
X685229Y473063D02*
D03*
X795377Y583058D02*
D03*
X632729Y473063D02*
D03*
X618822Y464706D02*
D03*
X686088Y716269D02*
D03*
X708822Y464706D02*
D03*
X648822D02*
D03*
X606350Y710868D02*
D03*
X811125Y708372D02*
D03*
X795377Y452748D02*
D03*
X803734Y613943D02*
D03*
X603871Y449212D02*
D03*
X753822Y464706D02*
D03*
X768822D02*
D03*
X761140Y614856D02*
D03*
X678791Y687831D02*
D03*
X641350Y710868D02*
D03*
X687148Y646470D02*
D03*
X595514Y454955D02*
D03*
X720229Y473063D02*
D03*
X717031Y623213D02*
D03*
X754531D02*
D03*
X662729Y473063D02*
D03*
X795377Y590558D02*
D03*
X774531Y623213D02*
D03*
X603871Y456712D02*
D03*
X713640Y614856D02*
D03*
X803734Y611443D02*
D03*
X616322Y464706D02*
D03*
X665229Y473063D02*
D03*
X811125Y710872D02*
D03*
X763822Y464706D02*
D03*
X766140Y614856D02*
D03*
X616350Y710868D02*
D03*
X692729Y473063D02*
D03*
X595514Y422455D02*
D03*
X617730Y719225D02*
D03*
X651350Y710868D02*
D03*
X603871Y424212D02*
D03*
X718640Y614856D02*
D03*
X641322Y464706D02*
D03*
X603871Y441712D02*
D03*
X698822Y464706D02*
D03*
X803734Y428944D02*
D03*
X637730Y719225D02*
D03*
X753640Y614856D02*
D03*
X605229Y473063D02*
D03*
X687148Y701470D02*
D03*
X708640Y614856D02*
D03*
X811125Y653372D02*
D03*
X702729Y473063D02*
D03*
X678791Y662831D02*
D03*
X803734Y478944D02*
D03*
Y436444D02*
D03*
X795377Y410248D02*
D03*
Y490558D02*
D03*
X678791Y677831D02*
D03*
X695229Y473063D02*
D03*
X795377Y610558D02*
D03*
X678791Y705331D02*
D03*
X727729Y473063D02*
D03*
X803734Y578944D02*
D03*
X670229Y473063D02*
D03*
X663822Y464706D02*
D03*
X803734Y553944D02*
D03*
X766322Y464706D02*
D03*
X795377Y520558D02*
D03*
X647729Y473063D02*
D03*
X606322Y464706D02*
D03*
X795377Y483058D02*
D03*
X803734Y528944D02*
D03*
X795377Y575558D02*
D03*
X595514Y462455D02*
D03*
X687148Y673970D02*
D03*
X795377Y543058D02*
D03*
X819482Y638865D02*
D03*
X741322Y464706D02*
D03*
X665230Y719225D02*
D03*
X703640Y614856D02*
D03*
X714531Y623213D02*
D03*
X667730Y719225D02*
D03*
X678791Y702831D02*
D03*
X803734Y501444D02*
D03*
X795377Y460248D02*
D03*
X677729Y473063D02*
D03*
X650230Y719225D02*
D03*
X631322Y464706D02*
D03*
X795377Y585558D02*
D03*
X811125Y675872D02*
D03*
X795377Y613058D02*
D03*
X811125Y648372D02*
D03*
X678791Y680331D02*
D03*
X656350Y710868D02*
D03*
X687148Y688970D02*
D03*
X803734Y408944D02*
D03*
X726322Y464706D02*
D03*
X795377Y415248D02*
D03*
X790229Y473063D02*
D03*
X803734Y471444D02*
D03*
X660230Y719225D02*
D03*
X642729Y473063D02*
D03*
X685800Y614934D02*
D03*
X803734Y531444D02*
D03*
X779531Y623213D02*
D03*
X612729Y473063D02*
D03*
X795377Y545558D02*
D03*
X819482Y633865D02*
D03*
X747729Y473063D02*
D03*
X728822Y464706D02*
D03*
X595514Y447455D02*
D03*
X677730Y719225D02*
D03*
X595514Y439955D02*
D03*
X603871Y419212D02*
D03*
Y421712D02*
D03*
X811125Y643372D02*
D03*
Y660872D02*
D03*
X819482Y651365D02*
D03*
X746322Y464706D02*
D03*
X706322D02*
D03*
X687148Y696470D02*
D03*
X711322Y464706D02*
D03*
X803734Y561444D02*
D03*
X795377Y530558D02*
D03*
X700229Y473063D02*
D03*
X687148Y648970D02*
D03*
X741140Y614856D02*
D03*
X678791Y652831D02*
D03*
X725229Y473063D02*
D03*
X626350Y710868D02*
D03*
X803734Y546444D02*
D03*
X595514Y437455D02*
D03*
Y417455D02*
D03*
X666350Y710868D02*
D03*
X795377Y528058D02*
D03*
X803734Y498944D02*
D03*
X811125Y683372D02*
D03*
X803734Y441444D02*
D03*
Y576444D02*
D03*
X795377Y435248D02*
D03*
X819482Y631365D02*
D03*
X791322Y464706D02*
D03*
X811125Y630872D02*
D03*
X658850Y710868D02*
D03*
X795377Y430248D02*
D03*
X722729Y473063D02*
D03*
X773822Y464706D02*
D03*
X603871Y454212D02*
D03*
X615229Y473063D02*
D03*
X687148Y636470D02*
D03*
X717729Y473063D02*
D03*
X678791Y630331D02*
D03*
X782729Y473063D02*
D03*
X608822Y464706D02*
D03*
X645229Y473063D02*
D03*
X795377Y570558D02*
D03*
Y498058D02*
D03*
Y455248D02*
D03*
X803734Y446444D02*
D03*
X595514Y427455D02*
D03*
X795377Y578058D02*
D03*
X608850Y710868D02*
D03*
X603871Y409212D02*
D03*
X661322Y464706D02*
D03*
X795377Y608058D02*
D03*
X618850Y710868D02*
D03*
X687148Y676470D02*
D03*
X803734Y516444D02*
D03*
X678791Y695331D02*
D03*
X696140Y614856D02*
D03*
X678791Y647831D02*
D03*
X724531Y623213D02*
D03*
X819482Y698865D02*
D03*
X693640Y614856D02*
D03*
X795377Y603058D02*
D03*
X643822Y464706D02*
D03*
X719531Y623213D02*
D03*
X819482Y653865D02*
D03*
X795377Y457748D02*
D03*
X788822Y464706D02*
D03*
X734531Y623213D02*
D03*
X803734Y581444D02*
D03*
X661350Y710868D02*
D03*
X626322Y464706D02*
D03*
X811125Y705872D02*
D03*
Y700872D02*
D03*
X602729Y473063D02*
D03*
X811125Y690872D02*
D03*
X687148Y691470D02*
D03*
X795377Y565558D02*
D03*
X722031Y623213D02*
D03*
X795377Y405248D02*
D03*
X803734Y461444D02*
D03*
X755229Y473063D02*
D03*
X650229D02*
D03*
X681322Y464706D02*
D03*
X819482Y691365D02*
D03*
X718822Y464706D02*
D03*
X803734Y511444D02*
D03*
X636350Y710868D02*
D03*
X803734Y503944D02*
D03*
X795377Y447748D02*
D03*
X640229Y473063D02*
D03*
X819482Y658865D02*
D03*
X610229Y473063D02*
D03*
X811125Y655872D02*
D03*
X635229Y473063D02*
D03*
X687148Y693970D02*
D03*
X756140Y614856D02*
D03*
X795377Y573058D02*
D03*
X678791Y657831D02*
D03*
X819482Y661365D02*
D03*
X803734Y563944D02*
D03*
X811125Y663372D02*
D03*
X795377Y420248D02*
D03*
X663850Y710868D02*
D03*
X713822Y464706D02*
D03*
X687148Y683970D02*
D03*
X811125Y703372D02*
D03*
X819482Y656365D02*
D03*
X687729Y473063D02*
D03*
X678822Y464706D02*
D03*
X687067Y713969D02*
D03*
X613822Y464706D02*
D03*
X811125Y650872D02*
D03*
X678791Y690331D02*
D03*
X819482Y703865D02*
D03*
X747031Y623213D02*
D03*
X657730Y719225D02*
D03*
X716140Y614856D02*
D03*
X811125Y673372D02*
D03*
X620229Y473063D02*
D03*
X620230Y719225D02*
D03*
X791140Y614856D02*
D03*
X803734Y606443D02*
D03*
Y493944D02*
D03*
X651322Y464706D02*
D03*
X603871Y411712D02*
D03*
X762729Y473063D02*
D03*
X795377Y515558D02*
D03*
X687148Y661470D02*
D03*
X595514Y432455D02*
D03*
X678791Y672831D02*
D03*
X811125Y645872D02*
D03*
X678791Y640331D02*
D03*
X738822Y464706D02*
D03*
X640230Y719225D02*
D03*
X687148Y706470D02*
D03*
X803734Y573944D02*
D03*
X672729Y473063D02*
D03*
X795377Y432748D02*
D03*
X603871Y461712D02*
D03*
X648850Y710868D02*
D03*
X795377Y508058D02*
D03*
X745229Y473063D02*
D03*
X678791Y685331D02*
D03*
X803734Y466444D02*
D03*
X611350Y710868D02*
D03*
X819482Y666365D02*
D03*
X675229Y473063D02*
D03*
X795377Y503058D02*
D03*
Y568058D02*
D03*
X811125Y635872D02*
D03*
X803734Y481444D02*
D03*
X707729Y473063D02*
D03*
X687148Y643970D02*
D03*
X678791Y692831D02*
D03*
X795377Y513058D02*
D03*
X595514Y424955D02*
D03*
X748822Y464706D02*
D03*
X757031Y623213D02*
D03*
X595514Y464955D02*
D03*
X795229Y473063D02*
D03*
X678791Y655331D02*
D03*
X613850Y710868D02*
D03*
X819482Y628865D02*
D03*
X701322Y464706D02*
D03*
X670230Y719225D02*
D03*
X656322Y464706D02*
D03*
X808562Y614856D02*
D03*
X803734Y551444D02*
D03*
X710229Y473063D02*
D03*
X756322Y464706D02*
D03*
X743640Y614856D02*
D03*
X803734Y583944D02*
D03*
X819482Y701365D02*
D03*
X738640Y614856D02*
D03*
X803734Y523944D02*
D03*
X811125Y695872D02*
D03*
X687148Y641470D02*
D03*
X803734Y596443D02*
D03*
X819482Y641365D02*
D03*
X603871Y414212D02*
D03*
X660229Y473063D02*
D03*
X622730Y719225D02*
D03*
X668822Y464706D02*
D03*
X633850Y710868D02*
D03*
X723640Y614856D02*
D03*
X795377Y475558D02*
D03*
X811125Y640872D02*
D03*
X678791Y697831D02*
D03*
X687148Y686470D02*
D03*
Y658970D02*
D03*
X795377Y553058D02*
D03*
X786140Y614856D02*
D03*
X803734Y476444D02*
D03*
X795377Y593058D02*
D03*
X778822Y464706D02*
D03*
X819482Y696365D02*
D03*
X603871Y444212D02*
D03*
X732729Y473063D02*
D03*
X772729D02*
D03*
X819482Y626365D02*
D03*
X652729Y473063D02*
D03*
X803734Y486444D02*
D03*
X686322Y464706D02*
D03*
X638850Y710868D02*
D03*
X795377Y548058D02*
D03*
X615230Y719225D02*
D03*
X601350Y710868D02*
D03*
X782031Y623213D02*
D03*
X777729Y473063D02*
D03*
X675230Y719225D02*
D03*
X795377Y598058D02*
D03*
X803734Y536444D02*
D03*
Y483944D02*
D03*
X653822Y464706D02*
D03*
X678791Y622831D02*
D03*
X740229Y473063D02*
D03*
X625230Y719225D02*
D03*
X819482Y668865D02*
D03*
X687148Y628970D02*
D03*
X795377Y445248D02*
D03*
X617729Y473063D02*
D03*
X678791Y675331D02*
D03*
X727031Y623213D02*
D03*
X687148Y638970D02*
D03*
X819482Y686365D02*
D03*
X803734Y568944D02*
D03*
X680229Y473063D02*
D03*
X795377Y558058D02*
D03*
X811125Y668372D02*
D03*
X795377Y555558D02*
D03*
Y560558D02*
D03*
X786322Y464706D02*
D03*
X811125Y678372D02*
D03*
X595514Y457455D02*
D03*
X795377Y505558D02*
D03*
X705229Y473063D02*
D03*
X781140Y614856D02*
D03*
X795377Y493058D02*
D03*
X683822Y464706D02*
D03*
X595514Y419955D02*
D03*
X749531Y623213D02*
D03*
X706140Y614856D02*
D03*
X803734Y543944D02*
D03*
X646322Y464706D02*
D03*
X795377Y605558D02*
D03*
X628822Y464706D02*
D03*
X673850Y710868D02*
D03*
X751140Y614856D02*
D03*
X647730Y719225D02*
D03*
X632730D02*
D03*
X603871Y436712D02*
D03*
X773640Y614856D02*
D03*
X630229Y473063D02*
D03*
X803734Y426444D02*
D03*
X633822Y464706D02*
D03*
X795377Y538058D02*
D03*
X622729Y473063D02*
D03*
X819482Y673865D02*
D03*
X762031Y623213D02*
D03*
X688822Y464706D02*
D03*
X638822D02*
D03*
X730229Y473063D02*
D03*
X672730Y719225D02*
D03*
X811125Y628372D02*
D03*
Y680872D02*
D03*
X621322Y464706D02*
D03*
X795377Y533058D02*
D03*
X803734Y406444D02*
D03*
X666322Y464706D02*
D03*
X627730Y719225D02*
D03*
X691322Y464706D02*
D03*
X683260Y615188D02*
D03*
X811125Y633372D02*
D03*
X819482Y678865D02*
D03*
X767031Y623213D02*
D03*
X803734Y593943D02*
D03*
X687148Y698970D02*
D03*
X646350Y710868D02*
D03*
X819482Y693865D02*
D03*
X803734Y421444D02*
D03*
X678791Y637831D02*
D03*
X795377Y442748D02*
D03*
X803734Y468944D02*
D03*
Y433944D02*
D03*
X795377Y422748D02*
D03*
X697729Y473063D02*
D03*
X803734Y416444D02*
D03*
X721140Y614856D02*
D03*
X783640D02*
D03*
X795377Y525558D02*
D03*
X819482Y676365D02*
D03*
X803734Y418944D02*
D03*
X768640Y614856D02*
D03*
X758640D02*
D03*
X678791Y625331D02*
D03*
X803734Y521444D02*
D03*
Y463944D02*
D03*
M02*
