G04*
G04 #@! TF.GenerationSoftware,Altium Limited,Altium Designer,22.6.1 (34)*
G04*
G04 Layer_Color=65535*
%FSLAX44Y44*%
%MOMM*%
G71*
G04*
G04 #@! TF.SameCoordinates,74DF644D-C5CC-47E8-8FD8-F3D1935BC2B4*
G04*
G04*
G04 #@! TF.FilePolarity,Positive*
G04*
G01*
G75*
%ADD10C,0.2500*%
%ADD11C,0.1000*%
%ADD12C,0.2000*%
%ADD13C,0.2540*%
D10*
X676540Y730072D02*
G03*
X676540Y730072I-1250J0D01*
G01*
X813792Y546926D02*
G03*
X813792Y546926I-1250J0D01*
G01*
X812652Y616264D02*
G03*
X812652Y616264I-1250J0D01*
G01*
X785552Y417908D02*
G03*
X785552Y417908I-1250J0D01*
G01*
X747044Y433500D02*
G03*
X747044Y433500I-1250J0D01*
G01*
X688016Y417654D02*
G03*
X688016Y417654I-1250J0D01*
G01*
X650016Y433422D02*
G03*
X650016Y433422I-1250J0D01*
G01*
X714766Y372588D02*
G03*
X714766Y372588I-1250J0D01*
G01*
X689284Y450744D02*
G03*
X689284Y450744I-1250J0D01*
G01*
X741660Y400608D02*
G03*
X741660Y400608I-1250J0D01*
G01*
X707588Y604934D02*
G03*
X707588Y604934I-1250J0D01*
G01*
X637852Y425516D02*
G03*
X637852Y425516I-1250J0D01*
G01*
X637598Y391480D02*
G03*
X637598Y391480I-1250J0D01*
G01*
X844178Y633004D02*
G03*
X844178Y633004I-1250J0D01*
G01*
X825660Y632496D02*
G03*
X825660Y632496I-1250J0D01*
G01*
Y645958D02*
G03*
X825660Y645958I-1250J0D01*
G01*
X844504Y659928D02*
G03*
X844504Y659928I-1250J0D01*
G01*
X825478Y659674D02*
G03*
X825478Y659674I-1250J0D01*
G01*
X844432Y646466D02*
G03*
X844432Y646466I-1250J0D01*
G01*
X544520Y469298D02*
G03*
X544520Y469298I-1250J0D01*
G01*
X841794Y483289D02*
G03*
X841794Y483289I-1250J0D01*
G01*
X566746Y435002D02*
G03*
X566746Y435002I-1250J0D01*
G01*
X588288Y589024D02*
G03*
X588288Y589024I-1250J0D01*
G01*
X588094Y699372D02*
G03*
X588094Y699372I-1250J0D01*
G01*
D11*
X806506Y629354D02*
G03*
X807506Y629354I500J0D01*
G01*
D02*
G03*
X806506Y629354I-500J0D01*
G01*
D12*
X594036Y678060D02*
G03*
X595036Y678060I500J0D01*
G01*
D02*
G03*
X594036Y678060I-500J0D01*
G01*
D02*
G03*
X595036Y678060I500J0D01*
G01*
X825142Y664745D02*
G03*
X825142Y664745I-560J0D01*
G01*
X729630Y400842D02*
G03*
X729630Y401842I0J500D01*
G01*
D02*
G03*
X729630Y400842I0J-500D01*
G01*
X692790Y743822D02*
X709290D01*
X692790Y725822D02*
X709290D01*
X698506Y622854D02*
X794506D01*
X698506Y723854D02*
X794506D01*
X815392Y620094D02*
Y623264D01*
X815392Y623264D02*
X833562D01*
X885392Y620094D02*
Y623264D01*
X882222Y623264D02*
X885392D01*
X815392Y553264D02*
X818562D01*
X815392Y553264D02*
Y566434D01*
X882222Y553264D02*
X885392D01*
X885392Y553264D02*
Y556434D01*
X750302Y408908D02*
X780302D01*
X750302Y404908D02*
X780302D01*
X750302D02*
Y408908D01*
X780302Y404908D02*
Y408908D01*
X749794Y442500D02*
X779794D01*
X749794Y446500D02*
X779794D01*
Y442500D02*
Y446500D01*
X749794Y442500D02*
Y446500D01*
X652766Y408654D02*
X682766D01*
X652766Y404654D02*
X682766D01*
X652766D02*
Y408654D01*
X682766Y404654D02*
Y408654D01*
X652766Y442422D02*
X682766D01*
X652766Y446422D02*
X682766D01*
Y442422D02*
Y446422D01*
X652766Y442422D02*
Y446422D01*
X729630Y400842D02*
Y401842D01*
X733660Y382608D02*
Y393108D01*
X747160Y382608D02*
Y393108D01*
X713588Y474934D02*
Y615934D01*
Y474934D02*
X794588D01*
Y615934D01*
X713588D02*
X794588D01*
X618102Y430016D02*
X625732D01*
X618102D02*
Y436516D01*
Y461016D02*
X625732D01*
X618102Y454516D02*
Y461016D01*
X617848Y395980D02*
X625848D01*
X617848D02*
Y402480D01*
Y426980D02*
X625848D01*
X617848Y420480D02*
Y426980D01*
X850428Y639754D02*
X860928D01*
X850428Y626254D02*
X860928D01*
X831910Y639246D02*
X842410D01*
X831910Y625746D02*
X842410D01*
X831910Y652708D02*
X842410D01*
X831910Y639208D02*
X842410D01*
X539888Y596394D02*
Y628394D01*
X588888D01*
Y596394D02*
Y628394D01*
X539888Y596394D02*
X588888D01*
X538588Y577644D02*
Y592894D01*
X557262Y558226D02*
Y566976D01*
X580012D02*
X587262D01*
X557262D02*
X564512D01*
X587262Y558226D02*
Y566976D01*
X850754Y666678D02*
X861254D01*
X850754Y653178D02*
X861254D01*
X831728Y666424D02*
X842228D01*
X831728Y652924D02*
X842228D01*
X850682Y653216D02*
X861182D01*
X850682Y639716D02*
X861182D01*
X537320Y492548D02*
Y525048D01*
X587320Y492548D02*
Y525048D01*
X810544Y436728D02*
Y441728D01*
Y436728D02*
X815544D01*
X850544D02*
Y441728D01*
X845544Y436728D02*
X850544D01*
X810544Y471728D02*
Y476728D01*
X815544D01*
X850544Y471728D02*
Y476728D01*
X845544D02*
X850544D01*
X558496Y443252D02*
Y445252D01*
Y471252D02*
Y473252D01*
X560496D01*
X586496D02*
X588496D01*
Y471252D02*
Y473252D01*
Y443252D02*
Y445252D01*
X586496Y443252D02*
X588496D01*
X558496D02*
X560496D01*
X591538Y595274D02*
X711538D01*
Y475274D02*
Y595274D01*
X591538Y475274D02*
X711538D01*
X591538D02*
Y595274D01*
X592094Y709872D02*
X682094D01*
Y599872D02*
Y709872D01*
X592094Y599872D02*
X682094D01*
X592094D02*
Y709872D01*
X903478Y560832D02*
G03*
X903478Y560832I-196596J0D01*
G01*
D13*
X654050Y446781D02*
Y431546D01*
X664207D01*
X676903D02*
Y446781D01*
X669285Y439164D01*
X679442D01*
X648716Y484627D02*
Y469392D01*
X658873D01*
X663951Y482088D02*
X666490Y484627D01*
X671569D01*
X674108Y482088D01*
Y479549D01*
X671569Y477010D01*
X669029D01*
X671569D01*
X674108Y474470D01*
Y471931D01*
X671569Y469392D01*
X666490D01*
X663951Y471931D01*
X745744Y484627D02*
Y469392D01*
X755901D01*
X771136D02*
X760979D01*
X771136Y479549D01*
Y482088D01*
X768597Y484627D01*
X763518D01*
X760979Y482088D01*
X751586Y447035D02*
Y431800D01*
X761743D01*
X766821D02*
X771899D01*
X769360D01*
Y447035D01*
X766821Y444496D01*
M02*
