G04*
G04 #@! TF.GenerationSoftware,Altium Limited,Altium Designer,22.6.1 (34)*
G04*
G04 Layer_Color=32896*
%FSLAX44Y44*%
%MOMM*%
G71*
G04*
G04 #@! TF.SameCoordinates,74DF644D-C5CC-47E8-8FD8-F3D1935BC2B4*
G04*
G04*
G04 #@! TF.FilePolarity,Positive*
G04*
G01*
G75*
%ADD10C,0.2500*%
%ADD11C,0.1000*%
%ADD12C,0.2000*%
%ADD13C,0.2540*%
%ADD103C,0.3000*%
%ADD104C,0.1500*%
G36*
X635592Y601942D02*
X635279Y601930D01*
X635245Y601919D01*
X635173Y601902D01*
X635038Y601869D01*
X634971Y601858D01*
X634826Y601835D01*
X634770Y601824D01*
X634714Y601802D01*
X634653Y601774D01*
X634597Y601752D01*
X634457Y601724D01*
X634401Y601701D01*
X634373Y601673D01*
X634317Y601651D01*
X634239Y601628D01*
X634166Y601600D01*
X634138Y601573D01*
X634116Y601561D01*
X634038Y601528D01*
X633965Y601500D01*
X633926Y601461D01*
X633904Y601450D01*
X633758Y601371D01*
X633713Y601327D01*
X633591Y601260D01*
X633546Y601215D01*
X633467Y601170D01*
X633400Y601103D01*
X633378Y601092D01*
X633345Y601058D01*
X633328Y601053D01*
X633317Y601030D01*
X633300Y601014D01*
X633278Y601002D01*
X633054Y600779D01*
X633032Y600768D01*
X633015Y600751D01*
X633004Y600728D01*
X632914Y600639D01*
X632903Y600617D01*
X632875Y600578D01*
X632853Y600566D01*
X632825Y600538D01*
X632780Y600460D01*
X632763Y600443D01*
X632741Y600432D01*
X632724Y600415D01*
X632657Y600292D01*
X632612Y600248D01*
X632590Y600192D01*
X632556Y600136D01*
X632512Y600091D01*
X632472Y599985D01*
X632444Y599946D01*
X632422Y599924D01*
X632411Y599901D01*
X632377Y599823D01*
X632322Y599722D01*
X632299Y599700D01*
X632277Y599644D01*
X632266Y599599D01*
X632210Y599521D01*
X632165Y599420D01*
X632120Y599342D01*
X632098Y599320D01*
X632064Y599241D01*
X632037Y599169D01*
X632020Y599152D01*
X632009Y599130D01*
X631975Y599096D01*
X631930Y598973D01*
X631880Y598912D01*
X631852Y598850D01*
X631824Y598778D01*
X631796Y598738D01*
X631774Y598716D01*
X631740Y598638D01*
X631712Y598565D01*
X631696Y598548D01*
X631684Y598526D01*
X631651Y598492D01*
X631606Y598369D01*
X631556Y598308D01*
X631528Y598246D01*
X631500Y598174D01*
X631472Y598135D01*
X631427Y598068D01*
X631410Y598006D01*
X631354Y597917D01*
X631338Y597900D01*
X631315Y597844D01*
X631287Y597771D01*
X631259Y597732D01*
X631237Y597710D01*
X631226Y597687D01*
X631203Y597631D01*
X631176Y597559D01*
X631136Y597520D01*
X631125Y597497D01*
X631092Y597419D01*
X631036Y597318D01*
X631013Y597296D01*
X630991Y597240D01*
X630963Y597168D01*
X630935Y597128D01*
X630913Y597106D01*
X630879Y597028D01*
X630851Y596955D01*
X630812Y596916D01*
X630801Y596894D01*
X630768Y596815D01*
X630745Y596759D01*
X630723Y596737D01*
X630712Y596715D01*
X630689Y596692D01*
X630650Y596586D01*
X630611Y596525D01*
X630589Y596502D01*
X630566Y596446D01*
X630538Y596374D01*
X630510Y596335D01*
X630488Y596312D01*
X630454Y596234D01*
X630426Y596161D01*
X630410Y596145D01*
X630398Y596122D01*
X630365Y596089D01*
X630320Y595966D01*
X630270Y595904D01*
X630242Y595843D01*
X630214Y595770D01*
X630186Y595731D01*
X630164Y595709D01*
X630130Y595630D01*
X630102Y595558D01*
X630085Y595541D01*
X630074Y595518D01*
X630041Y595485D01*
X630030Y595440D01*
X630007Y595384D01*
X629996Y595362D01*
X629946Y595300D01*
X629918Y595239D01*
X629907Y595194D01*
X629834Y595088D01*
X629806Y595027D01*
X629795Y594982D01*
X629716Y594870D01*
X629677Y594764D01*
X629650Y594725D01*
X629627Y594702D01*
X629616Y594680D01*
X629594Y594624D01*
X629566Y594551D01*
X629526Y594512D01*
X629515Y594490D01*
X629482Y594412D01*
X629426Y594311D01*
X629403Y594289D01*
X629381Y594233D01*
X629353Y594160D01*
X629325Y594121D01*
X629303Y594099D01*
X629269Y594020D01*
X629241Y593948D01*
X629202Y593909D01*
X629191Y593886D01*
X629157Y593808D01*
X629135Y593752D01*
X629085Y593690D01*
X629057Y593629D01*
X629046Y593584D01*
X628990Y593506D01*
X628945Y593405D01*
X628900Y593327D01*
X628856Y593260D01*
X628816Y593154D01*
X628800Y593137D01*
X628789Y593115D01*
X628755Y593081D01*
X628710Y592958D01*
X628660Y592897D01*
X628632Y592835D01*
X628604Y592762D01*
X628576Y592723D01*
X628554Y592701D01*
X628520Y592623D01*
X628492Y592550D01*
X628475Y592533D01*
X628464Y592511D01*
X628431Y592477D01*
X628420Y592433D01*
X628397Y592377D01*
X628386Y592354D01*
X628336Y592293D01*
X628308Y592231D01*
X628297Y592187D01*
X628224Y592080D01*
X628196Y592008D01*
X628140Y591907D01*
X628118Y591885D01*
X628095Y591829D01*
X628068Y591756D01*
X628040Y591717D01*
X628017Y591695D01*
X628006Y591672D01*
X627984Y591617D01*
X627956Y591544D01*
X627916Y591505D01*
X627905Y591482D01*
X627872Y591404D01*
X627849Y591348D01*
X627799Y591287D01*
X627771Y591225D01*
X627743Y591152D01*
X627715Y591113D01*
X627693Y591091D01*
X627659Y591013D01*
X627631Y590940D01*
X627592Y590901D01*
X627581Y590879D01*
X627548Y590800D01*
X627525Y590745D01*
X627475Y590683D01*
X627447Y590610D01*
X627391Y590510D01*
X627369Y590487D01*
X627346Y590431D01*
X627318Y590359D01*
X627290Y590320D01*
X627246Y590252D01*
X627207Y590146D01*
X627190Y590130D01*
X627179Y590107D01*
X627145Y590074D01*
X627095Y589934D01*
X627044Y589884D01*
X627022Y589828D01*
X626994Y589755D01*
X626966Y589716D01*
X626922Y589649D01*
X626882Y589543D01*
X626866Y589526D01*
X626854Y589503D01*
X626821Y589470D01*
X626810Y589425D01*
X626787Y589369D01*
X626776Y589347D01*
X626726Y589285D01*
X626698Y589213D01*
X626642Y589112D01*
X626597Y589045D01*
X626581Y588984D01*
X626525Y588894D01*
X626508Y588877D01*
X626485Y588821D01*
X626457Y588749D01*
X626429Y588710D01*
X626407Y588687D01*
X626396Y588665D01*
X626374Y588609D01*
X626346Y588536D01*
X626306Y588497D01*
X626295Y588475D01*
X626262Y588397D01*
X626240Y588341D01*
X626189Y588279D01*
X626161Y588218D01*
X626133Y588145D01*
X626105Y588106D01*
X626083Y588083D01*
X626049Y588005D01*
X626021Y587933D01*
X625982Y587893D01*
X625971Y587871D01*
X625926Y587759D01*
X625915Y587737D01*
X625865Y587676D01*
X625837Y587603D01*
X625781Y587502D01*
X625759Y587480D01*
X625736Y587424D01*
X625708Y587351D01*
X625680Y587312D01*
X625636Y587245D01*
X625597Y587139D01*
X625580Y587122D01*
X625569Y587100D01*
X625535Y587066D01*
X625485Y586926D01*
X625434Y586876D01*
X625412Y586820D01*
X625384Y586748D01*
X625339Y586680D01*
X625323Y586664D01*
X625300Y586608D01*
X625272Y586535D01*
X625256Y586518D01*
X625244Y586496D01*
X625222Y586474D01*
X625188Y586395D01*
X625166Y586339D01*
X625116Y586278D01*
X625088Y586205D01*
X625032Y586105D01*
X624987Y586037D01*
X624971Y585976D01*
X624915Y585887D01*
X624898Y585870D01*
X624875Y585814D01*
X624847Y585741D01*
X624775Y585646D01*
X624758Y585585D01*
X624736Y585529D01*
X624697Y585490D01*
X624685Y585467D01*
X624652Y585389D01*
X624630Y585333D01*
X624579Y585272D01*
X624551Y585210D01*
X624523Y585137D01*
X624495Y585098D01*
X624473Y585076D01*
X624439Y584998D01*
X624412Y584925D01*
X624372Y584886D01*
X624361Y584864D01*
X624316Y584752D01*
X624305Y584729D01*
X624255Y584668D01*
X624227Y584595D01*
X624171Y584495D01*
X624149Y584472D01*
X624126Y584416D01*
X624098Y584344D01*
X624071Y584305D01*
X624026Y584238D01*
X623987Y584131D01*
X623970Y584114D01*
X623959Y584092D01*
X623925Y584059D01*
X623875Y583919D01*
X623825Y583869D01*
X623802Y583813D01*
X623774Y583740D01*
X623746Y583701D01*
X623702Y583634D01*
X623662Y583528D01*
X623634Y583488D01*
X623601Y583455D01*
X623590Y583410D01*
X623567Y583354D01*
X623534Y583298D01*
X623500Y583265D01*
X623461Y583159D01*
X623422Y583097D01*
X623377Y583030D01*
X623360Y582968D01*
X623305Y582879D01*
X623288Y582862D01*
X623265Y582806D01*
X623237Y582734D01*
X623210Y582695D01*
X623187Y582672D01*
X623176Y582650D01*
X623154Y582594D01*
X623126Y582521D01*
X623087Y582482D01*
X623075Y582460D01*
X623042Y582382D01*
X623019Y582326D01*
X622969Y582264D01*
X622941Y582203D01*
X622913Y582130D01*
X622885Y582091D01*
X622863Y582068D01*
X622830Y581990D01*
X622802Y581918D01*
X622774Y581890D01*
X622762Y581867D01*
X622740Y581845D01*
X622723Y581783D01*
X622690Y581716D01*
X622628Y581632D01*
X622611Y581571D01*
X622556Y581482D01*
X622539Y581465D01*
X622516Y581409D01*
X622489Y581336D01*
X622461Y581297D01*
X622438Y581275D01*
X622405Y581196D01*
X622377Y581124D01*
X622360Y581107D01*
X622349Y581085D01*
X622315Y581051D01*
X622265Y580911D01*
X622215Y580861D01*
X622192Y580805D01*
X622164Y580732D01*
X622136Y580693D01*
X622092Y580626D01*
X622052Y580520D01*
X622024Y580481D01*
X621991Y580447D01*
X621980Y580403D01*
X621957Y580347D01*
X621946Y580324D01*
X621896Y580263D01*
X621840Y580118D01*
X621801Y580078D01*
X621790Y580056D01*
X621756Y579978D01*
X621700Y579877D01*
X621678Y579855D01*
X621656Y579799D01*
X621628Y579726D01*
X621600Y579687D01*
X621577Y579665D01*
X621544Y579586D01*
X621516Y579514D01*
X621488Y579486D01*
X621477Y579464D01*
X621454Y579441D01*
X621410Y579318D01*
X621359Y579257D01*
X621331Y579195D01*
X621303Y579123D01*
X621275Y579083D01*
X621253Y579061D01*
X621219Y578983D01*
X621191Y578910D01*
X621164Y578882D01*
X621152Y578860D01*
X621130Y578837D01*
X621113Y578776D01*
X621080Y578709D01*
X621052Y578670D01*
X621029Y578647D01*
X620990Y578541D01*
X620951Y578480D01*
X620929Y578457D01*
X620906Y578401D01*
X620878Y578329D01*
X620850Y578290D01*
X620828Y578267D01*
X620795Y578189D01*
X620767Y578116D01*
X620750Y578100D01*
X620739Y578077D01*
X620705Y578044D01*
X620655Y577904D01*
X620605Y577854D01*
X620582Y577798D01*
X620549Y577708D01*
X620526Y577686D01*
X620515Y577663D01*
X620493Y577641D01*
X620470Y577585D01*
X620442Y577513D01*
X620415Y577473D01*
X620381Y577440D01*
X620370Y577395D01*
X620347Y577339D01*
X620314Y577283D01*
X620291Y577261D01*
X620280Y577239D01*
X620236Y577127D01*
X620224Y577104D01*
X620191Y577071D01*
X620180Y577049D01*
X620146Y576970D01*
X620090Y576870D01*
X620068Y576847D01*
X620046Y576791D01*
X620018Y576719D01*
X619990Y576680D01*
X619967Y576657D01*
X619956Y576635D01*
X619934Y576579D01*
X619906Y576506D01*
X619878Y576478D01*
X619867Y576456D01*
X619844Y576434D01*
X619800Y576311D01*
X619749Y576249D01*
X619721Y576188D01*
X619693Y576115D01*
X619665Y576076D01*
X619643Y576054D01*
X619609Y575975D01*
X619582Y575903D01*
X619554Y575875D01*
X619542Y575852D01*
X619520Y575830D01*
X619503Y575768D01*
X619481Y575713D01*
X619464Y575696D01*
X619453Y575673D01*
X619420Y575640D01*
X619380Y575534D01*
X619341Y575472D01*
X619319Y575450D01*
X619296Y575394D01*
X619268Y575321D01*
X619229Y575271D01*
X619218Y575248D01*
X619174Y575148D01*
X619129Y575070D01*
X619095Y575036D01*
X619045Y574896D01*
X619006Y574857D01*
X618995Y574835D01*
X618961Y574757D01*
X618939Y574701D01*
X618916Y574678D01*
X618905Y574656D01*
X618883Y574634D01*
X618860Y574578D01*
X618849Y574533D01*
X618793Y574455D01*
X618737Y574332D01*
X618704Y574276D01*
X618682Y574254D01*
X618670Y574231D01*
X618626Y574119D01*
X618615Y574097D01*
X618581Y574063D01*
X618570Y574041D01*
X618536Y573963D01*
X618480Y573862D01*
X618458Y573840D01*
X618436Y573784D01*
X618408Y573711D01*
X618380Y573672D01*
X618357Y573650D01*
X618346Y573627D01*
X618324Y573572D01*
X618296Y573499D01*
X618268Y573471D01*
X618257Y573448D01*
X618234Y573426D01*
X618190Y573303D01*
X618139Y573242D01*
X618111Y573180D01*
X618083Y573107D01*
X618055Y573068D01*
X618033Y573046D01*
X618000Y572968D01*
X617988Y572923D01*
X617910Y572811D01*
X617882Y572738D01*
X617865Y572699D01*
X617815Y572638D01*
X617787Y572565D01*
X617731Y572465D01*
X617709Y572442D01*
X617687Y572386D01*
X617659Y572314D01*
X617597Y572230D01*
X617575Y572174D01*
X617547Y572101D01*
X617530Y572085D01*
X617519Y572062D01*
X617496Y572040D01*
X617485Y572017D01*
X617463Y571962D01*
X617435Y571889D01*
X617396Y571850D01*
X617385Y571827D01*
X617351Y571749D01*
X617329Y571693D01*
X617306Y571671D01*
X617295Y571648D01*
X617273Y571626D01*
X617251Y571570D01*
X617223Y571497D01*
X617195Y571458D01*
X617172Y571436D01*
X617127Y571324D01*
X617094Y571268D01*
X617072Y571246D01*
X617060Y571224D01*
X617016Y571112D01*
X617005Y571089D01*
X616971Y571056D01*
X616960Y571034D01*
X616926Y570955D01*
X616870Y570855D01*
X616848Y570832D01*
X616826Y570776D01*
X616798Y570704D01*
X616770Y570665D01*
X616747Y570642D01*
X616714Y570564D01*
X616686Y570491D01*
X616658Y570463D01*
X616647Y570441D01*
X616624Y570419D01*
X616580Y570296D01*
X616529Y570234D01*
X616501Y570173D01*
X616473Y570100D01*
X616412Y570016D01*
X616390Y569960D01*
X616362Y569888D01*
X616334Y569860D01*
X616323Y569837D01*
X616300Y569815D01*
X616283Y569753D01*
X616261Y569697D01*
X616205Y569630D01*
X616177Y569558D01*
X616121Y569457D01*
X616099Y569435D01*
X616077Y569379D01*
X616049Y569306D01*
X616004Y569239D01*
X615987Y569222D01*
X615965Y569166D01*
X615937Y569094D01*
X615920Y569077D01*
X615909Y569055D01*
X615875Y569021D01*
X615825Y568881D01*
X615786Y568842D01*
X615775Y568820D01*
X615741Y568742D01*
X615719Y568686D01*
X615668Y568624D01*
X615640Y568563D01*
X615613Y568490D01*
X615585Y568451D01*
X615562Y568428D01*
X615529Y568350D01*
X615501Y568278D01*
X615462Y568238D01*
X615450Y568216D01*
X615406Y568104D01*
X615395Y568082D01*
X615372Y568060D01*
X615361Y568037D01*
X615339Y568015D01*
X615299Y567909D01*
X615260Y567847D01*
X615238Y567825D01*
X615216Y567769D01*
X615188Y567696D01*
X615126Y567612D01*
X615104Y567556D01*
X615076Y567484D01*
X615048Y567456D01*
X615037Y567434D01*
X615014Y567411D01*
X614970Y567288D01*
X614919Y567227D01*
X614891Y567165D01*
X614864Y567093D01*
X614836Y567053D01*
X614813Y567031D01*
X614780Y566953D01*
X614768Y566908D01*
X614690Y566796D01*
X614651Y566690D01*
X614623Y566651D01*
X614590Y566617D01*
X614550Y566511D01*
X614511Y566450D01*
X614489Y566427D01*
X614467Y566371D01*
X614439Y566299D01*
X614394Y566232D01*
X614377Y566215D01*
X614355Y566159D01*
X614327Y566086D01*
X614299Y566047D01*
X614277Y566025D01*
X614243Y565947D01*
X614215Y565874D01*
X614176Y565835D01*
X614165Y565812D01*
X614131Y565734D01*
X614109Y565678D01*
X614086Y565656D01*
X614075Y565633D01*
X614053Y565611D01*
X614030Y565555D01*
X614003Y565482D01*
X613975Y565443D01*
X613952Y565421D01*
X613930Y565365D01*
X613902Y565292D01*
X613829Y565197D01*
X613812Y565136D01*
X613779Y565069D01*
X613762Y565052D01*
X613751Y565030D01*
X613729Y565007D01*
X613690Y564901D01*
X613650Y564840D01*
X613628Y564817D01*
X613606Y564761D01*
X613578Y564689D01*
X613550Y564650D01*
X613527Y564627D01*
X613516Y564605D01*
X613494Y564549D01*
X613466Y564476D01*
X613449Y564459D01*
X613438Y564437D01*
X613404Y564404D01*
X613360Y564281D01*
X613309Y564219D01*
X613270Y564124D01*
X613226Y564046D01*
X613203Y564024D01*
X613181Y563968D01*
X613153Y563895D01*
X613108Y563828D01*
X613091Y563811D01*
X613069Y563755D01*
X613041Y563683D01*
X613013Y563643D01*
X612980Y563610D01*
X612940Y563504D01*
X612901Y563442D01*
X612857Y563375D01*
X612840Y563313D01*
X612784Y563224D01*
X612767Y563207D01*
X612745Y563151D01*
X612717Y563079D01*
X612700Y563062D01*
X612689Y563040D01*
X612667Y563017D01*
X612633Y562939D01*
X612605Y562866D01*
X612566Y562827D01*
X612555Y562805D01*
X612521Y562727D01*
X612499Y562671D01*
X612477Y562648D01*
X612465Y562626D01*
X612443Y562604D01*
X612421Y562548D01*
X612409Y562503D01*
X612354Y562425D01*
X612309Y562324D01*
X612264Y562246D01*
X612242Y562223D01*
X612230Y562201D01*
X612191Y562151D01*
X612102Y562128D01*
X612024Y562140D01*
X601123Y562128D01*
X601089Y562117D01*
X600966Y562106D01*
X600933Y562095D01*
X600860Y562078D01*
X600815Y562067D01*
X600704Y562045D01*
X600491Y562011D01*
X600402Y561978D01*
X600340Y561950D01*
X600262Y561927D01*
X600161Y561905D01*
X600083Y561860D01*
X600005Y561827D01*
X599899Y561787D01*
X599832Y561743D01*
X599770Y561715D01*
X599681Y561681D01*
X599619Y561631D01*
X599602Y561614D01*
X599558Y561603D01*
X599479Y561558D01*
X599446Y561525D01*
X599423Y561513D01*
X599345Y561469D01*
X599284Y561418D01*
X599256Y561390D01*
X599178Y561346D01*
X599133Y561301D01*
X599110Y561290D01*
X599010Y561212D01*
X598954Y561156D01*
X598932Y561144D01*
X598904Y561117D01*
X598892Y561094D01*
X598876Y561077D01*
X598853Y561066D01*
X598831Y561044D01*
X598814Y561038D01*
X598803Y561016D01*
X598680Y560893D01*
X598669Y560871D01*
X598591Y560792D01*
X598579Y560770D01*
X598523Y560692D01*
X598490Y560658D01*
X598479Y560636D01*
X598434Y560558D01*
X598367Y560490D01*
X598311Y560390D01*
X598278Y560356D01*
X598244Y560278D01*
X598210Y560222D01*
X598188Y560200D01*
X598177Y560177D01*
X598143Y560099D01*
X598115Y560027D01*
X598087Y559987D01*
X598032Y559864D01*
X598015Y559803D01*
X597970Y559736D01*
X597942Y559663D01*
X597931Y559618D01*
X597920Y559551D01*
X597909Y559518D01*
X597864Y559417D01*
X597830Y559305D01*
X597813Y559177D01*
X597791Y559065D01*
X597746Y558886D01*
X597730Y558735D01*
X597718Y558422D01*
X597730Y557852D01*
X597741Y557818D01*
X597752Y557729D01*
X597763Y557695D01*
X597780Y557634D01*
X597791Y557589D01*
X597813Y557477D01*
X597847Y557276D01*
X597903Y557153D01*
X597925Y557064D01*
X597936Y557008D01*
X597970Y556918D01*
X597987Y556902D01*
X597998Y556879D01*
X598020Y556823D01*
X598071Y556684D01*
X598110Y556645D01*
X598132Y556589D01*
X598171Y556482D01*
X598199Y556443D01*
X598233Y556410D01*
X598261Y556337D01*
X598278Y556298D01*
X598300Y556275D01*
X598311Y556253D01*
X598344Y556220D01*
X598400Y556119D01*
X598445Y556074D01*
X598501Y555974D01*
X598568Y555907D01*
X598579Y555884D01*
X598630Y555823D01*
X598680Y555772D01*
X598691Y555750D01*
X598803Y555638D01*
X598814Y555616D01*
X598881Y555560D01*
X598954Y555487D01*
X598976Y555476D01*
X599066Y555387D01*
X599122Y555353D01*
X599183Y555303D01*
X599200Y555286D01*
X599222Y555275D01*
X599300Y555219D01*
X599345Y555174D01*
X599446Y555118D01*
X599479Y555085D01*
X599580Y555040D01*
X599602Y555029D01*
X599664Y554979D01*
X599725Y554951D01*
X599832Y554911D01*
X599848Y554895D01*
X599871Y554883D01*
X599893Y554861D01*
X599938Y554850D01*
X599971Y554839D01*
X600078Y554800D01*
X600094Y554783D01*
X600195Y554738D01*
X600323Y554710D01*
X600379Y554688D01*
X600441Y554660D01*
X600519Y554638D01*
X600564Y554626D01*
X600692Y554610D01*
X600804Y554587D01*
X600849Y554576D01*
X600905Y554565D01*
X600950Y554554D01*
X601006Y554543D01*
X601095Y554531D01*
X601363Y554520D01*
X608060Y554509D01*
X608099Y554481D01*
X608105Y554442D01*
X608055Y554380D01*
X608027Y554352D01*
X607988Y554246D01*
X607971Y554230D01*
X607960Y554207D01*
X607937Y554185D01*
X607915Y554129D01*
X607887Y554056D01*
X607859Y554017D01*
X607837Y553995D01*
X607803Y553917D01*
X607775Y553844D01*
X607736Y553805D01*
X607725Y553782D01*
X607691Y553704D01*
X607680Y553659D01*
X607658Y553637D01*
X607647Y553615D01*
X607613Y553581D01*
X607591Y553525D01*
X607579Y553480D01*
X607524Y553402D01*
X607479Y553302D01*
X607434Y553223D01*
X607412Y553201D01*
X607378Y553123D01*
X607350Y553050D01*
X607333Y553033D01*
X607322Y553011D01*
X607289Y552977D01*
X607244Y552854D01*
X607194Y552793D01*
X607166Y552731D01*
X607138Y552659D01*
X607099Y552608D01*
X607088Y552586D01*
X607043Y552485D01*
X606998Y552407D01*
X606965Y552374D01*
X606914Y552234D01*
X606864Y552183D01*
X606808Y552038D01*
X606774Y552005D01*
X606763Y551982D01*
X606730Y551904D01*
X606674Y551803D01*
X606651Y551781D01*
X606629Y551725D01*
X606601Y551652D01*
X606573Y551613D01*
X606551Y551591D01*
X606540Y551569D01*
X606517Y551513D01*
X606489Y551440D01*
X606450Y551401D01*
X606439Y551379D01*
X606405Y551300D01*
X606350Y551200D01*
X606327Y551177D01*
X606305Y551121D01*
X606277Y551049D01*
X606249Y551010D01*
X606227Y550987D01*
X606193Y550909D01*
X606182Y550864D01*
X606132Y550803D01*
X606104Y550752D01*
X606081Y550696D01*
X606070Y550652D01*
X606037Y550618D01*
X606025Y550596D01*
X606003Y550574D01*
X605964Y550467D01*
X605925Y550406D01*
X605902Y550383D01*
X605880Y550328D01*
X605852Y550255D01*
X605813Y550205D01*
X605802Y550182D01*
X605757Y550082D01*
X605712Y550003D01*
X605679Y549970D01*
X605640Y549864D01*
X605601Y549802D01*
X605578Y549780D01*
X605556Y549724D01*
X605528Y549651D01*
X605500Y549612D01*
X605478Y549590D01*
X605444Y549511D01*
X605416Y549439D01*
X605399Y549422D01*
X605388Y549400D01*
X605355Y549366D01*
X605338Y549305D01*
X605304Y549238D01*
X605276Y549198D01*
X605254Y549176D01*
X605215Y549070D01*
X605198Y549031D01*
X605165Y548997D01*
X605153Y548975D01*
X605120Y548896D01*
X605064Y548796D01*
X605042Y548773D01*
X605019Y548718D01*
X604991Y548645D01*
X604963Y548606D01*
X604941Y548583D01*
X604930Y548561D01*
X604907Y548505D01*
X604879Y548433D01*
X604840Y548393D01*
X604829Y548371D01*
X604796Y548293D01*
X604740Y548192D01*
X604717Y548170D01*
X604695Y548114D01*
X604667Y548041D01*
X604605Y547957D01*
X604583Y547901D01*
X604555Y547829D01*
X604516Y547790D01*
X604505Y547767D01*
X604471Y547689D01*
X604460Y547644D01*
X604438Y547622D01*
X604427Y547600D01*
X604393Y547566D01*
X604354Y547460D01*
X604315Y547398D01*
X604292Y547376D01*
X604270Y547320D01*
X604242Y547247D01*
X604214Y547208D01*
X604192Y547186D01*
X604158Y547108D01*
X604130Y547035D01*
X604114Y547018D01*
X604102Y546996D01*
X604069Y546962D01*
X604024Y546839D01*
X603974Y546778D01*
X603946Y546716D01*
X603918Y546644D01*
X603890Y546604D01*
X603845Y546537D01*
X603806Y546431D01*
X603789Y546414D01*
X603778Y546392D01*
X603745Y546358D01*
X603733Y546314D01*
X603722Y546280D01*
X603678Y546202D01*
X603644Y546169D01*
X603594Y546029D01*
X603555Y545990D01*
X603543Y545967D01*
X603510Y545889D01*
X603454Y545788D01*
X603432Y545766D01*
X603409Y545710D01*
X603381Y545637D01*
X603309Y545542D01*
X603292Y545481D01*
X603270Y545425D01*
X603230Y545386D01*
X603219Y545364D01*
X603186Y545285D01*
X603130Y545185D01*
X603107Y545162D01*
X603085Y545106D01*
X603057Y545034D01*
X603029Y544995D01*
X603007Y544972D01*
X602973Y544894D01*
X602945Y544821D01*
X602906Y544782D01*
X602895Y544760D01*
X602861Y544682D01*
X602850Y544637D01*
X602828Y544614D01*
X602817Y544592D01*
X602783Y544558D01*
X602761Y544503D01*
X602750Y544458D01*
X602694Y544380D01*
X602649Y544279D01*
X602604Y544201D01*
X602560Y544134D01*
X602520Y544027D01*
X602504Y544011D01*
X602492Y543988D01*
X602459Y543955D01*
X602414Y543832D01*
X602364Y543770D01*
X602336Y543709D01*
X602308Y543636D01*
X602280Y543597D01*
X602235Y543530D01*
X602196Y543424D01*
X602179Y543407D01*
X602168Y543385D01*
X602135Y543351D01*
X602123Y543306D01*
X602095Y543234D01*
X602040Y543167D01*
X602012Y543094D01*
X601989Y543038D01*
X601978Y543016D01*
X601945Y542982D01*
X601933Y542960D01*
X601900Y542882D01*
X601844Y542781D01*
X601822Y542758D01*
X601799Y542703D01*
X601771Y542630D01*
X601743Y542591D01*
X601721Y542568D01*
X601710Y542546D01*
X601688Y542490D01*
X601660Y542417D01*
X601620Y542378D01*
X601609Y542356D01*
X601576Y542278D01*
X601520Y542177D01*
X601497Y542155D01*
X601475Y542099D01*
X601447Y542026D01*
X601419Y541987D01*
X601397Y541965D01*
X601363Y541886D01*
X601335Y541814D01*
X601296Y541775D01*
X601285Y541752D01*
X601263Y541696D01*
X601235Y541624D01*
X601218Y541607D01*
X601207Y541585D01*
X601173Y541551D01*
X601134Y541445D01*
X601095Y541383D01*
X601073Y541361D01*
X601050Y541305D01*
X601022Y541232D01*
X600994Y541193D01*
X600972Y541171D01*
X600938Y541093D01*
X600910Y541020D01*
X600894Y541003D01*
X600882Y540981D01*
X600849Y540947D01*
X600804Y540824D01*
X600754Y540763D01*
X600726Y540701D01*
X600698Y540629D01*
X600659Y540578D01*
X600648Y540556D01*
X600603Y540455D01*
X600558Y540377D01*
X600536Y540355D01*
X600513Y540299D01*
X600486Y540226D01*
X600469Y540209D01*
X600458Y540187D01*
X600435Y540165D01*
X600424Y540142D01*
X600402Y540086D01*
X600374Y540014D01*
X600335Y539975D01*
X600323Y539952D01*
X600290Y539874D01*
X600234Y539773D01*
X600212Y539751D01*
X600189Y539695D01*
X600161Y539622D01*
X600133Y539583D01*
X600111Y539561D01*
X600100Y539539D01*
X600078Y539483D01*
X600050Y539410D01*
X600022Y539382D01*
X600010Y539360D01*
X599988Y539337D01*
X599949Y539231D01*
X599910Y539170D01*
X599887Y539147D01*
X599865Y539091D01*
X599837Y539019D01*
X599809Y538979D01*
X599787Y538957D01*
X599753Y538879D01*
X599742Y538834D01*
X599692Y538773D01*
X599664Y538722D01*
X599625Y538616D01*
X599608Y538599D01*
X599597Y538577D01*
X599563Y538544D01*
X599524Y538437D01*
X599485Y538376D01*
X599463Y538353D01*
X599440Y538298D01*
X599412Y538225D01*
X599373Y538175D01*
X599362Y538152D01*
X599317Y538052D01*
X599272Y537973D01*
X599239Y537940D01*
X599189Y537800D01*
X599138Y537750D01*
X599116Y537694D01*
X599088Y537621D01*
X599049Y537571D01*
X599038Y537548D01*
X598993Y537448D01*
X598948Y537370D01*
X598915Y537336D01*
X598898Y537275D01*
X598876Y537219D01*
X598848Y537179D01*
X598825Y537157D01*
X598814Y537135D01*
X598792Y537079D01*
X598764Y537006D01*
X598725Y536967D01*
X598713Y536945D01*
X598680Y536866D01*
X598624Y536766D01*
X598602Y536744D01*
X598579Y536688D01*
X598551Y536615D01*
X598523Y536576D01*
X598501Y536553D01*
X598467Y536475D01*
X598440Y536403D01*
X598412Y536375D01*
X598400Y536352D01*
X598378Y536330D01*
X598339Y536224D01*
X598300Y536162D01*
X598278Y536140D01*
X598255Y536084D01*
X598227Y536011D01*
X598199Y535972D01*
X598177Y535950D01*
X598132Y535838D01*
X598099Y535782D01*
X598076Y535760D01*
X598065Y535737D01*
X598043Y535681D01*
X598015Y535609D01*
X597998Y535592D01*
X597987Y535569D01*
X597953Y535536D01*
X597914Y535430D01*
X597875Y535368D01*
X597853Y535346D01*
X597830Y535290D01*
X597802Y535217D01*
X597763Y535167D01*
X597752Y535145D01*
X597707Y535044D01*
X597663Y534966D01*
X597629Y534932D01*
X597618Y534888D01*
X597595Y534832D01*
X597584Y534809D01*
X597534Y534748D01*
X597506Y534686D01*
X597478Y534614D01*
X597450Y534575D01*
X597405Y534507D01*
X597366Y534401D01*
X597350Y534384D01*
X597338Y534362D01*
X597305Y534328D01*
X597288Y534267D01*
X597266Y534211D01*
X597238Y534172D01*
X597215Y534150D01*
X597204Y534127D01*
X597182Y534071D01*
X597154Y533999D01*
X597115Y533960D01*
X597104Y533937D01*
X597070Y533859D01*
X597048Y533803D01*
X596997Y533742D01*
X596969Y533680D01*
X596941Y533607D01*
X596913Y533568D01*
X596891Y533546D01*
X596858Y533468D01*
X596830Y533395D01*
X596802Y533367D01*
X596791Y533345D01*
X596768Y533322D01*
X596729Y533216D01*
X596690Y533155D01*
X596668Y533132D01*
X596645Y533076D01*
X596634Y533032D01*
X596578Y532953D01*
X596533Y532853D01*
X596489Y532774D01*
X596466Y532752D01*
X596455Y532730D01*
X596433Y532674D01*
X596405Y532601D01*
X596388Y532584D01*
X596377Y532562D01*
X596343Y532528D01*
X596304Y532422D01*
X596265Y532361D01*
X596243Y532338D01*
X596220Y532282D01*
X596192Y532210D01*
X596164Y532171D01*
X596142Y532148D01*
X596109Y532070D01*
X596081Y531997D01*
X596064Y531981D01*
X596053Y531958D01*
X596019Y531925D01*
X595969Y531785D01*
X595918Y531735D01*
X595891Y531662D01*
X595868Y531606D01*
X595840Y531567D01*
X595795Y531500D01*
X595756Y531394D01*
X595728Y531355D01*
X595706Y531332D01*
X595684Y531276D01*
X595656Y531204D01*
X595628Y531165D01*
X595605Y531142D01*
X595594Y531120D01*
X595572Y531064D01*
X595544Y530991D01*
X595516Y530963D01*
X595505Y530941D01*
X595482Y530919D01*
X595443Y530812D01*
X595404Y530751D01*
X595382Y530728D01*
X595359Y530672D01*
X595331Y530600D01*
X595270Y530516D01*
X595248Y530460D01*
X595220Y530387D01*
X595192Y530359D01*
X595181Y530337D01*
X595158Y530315D01*
X595147Y530270D01*
X595125Y530214D01*
X595113Y530192D01*
X595063Y530130D01*
X595035Y530069D01*
X595024Y530024D01*
X594968Y529946D01*
X594923Y529845D01*
X594879Y529767D01*
X594856Y529745D01*
X594845Y529722D01*
X594823Y529666D01*
X594795Y529594D01*
X594778Y529577D01*
X594767Y529554D01*
X594733Y529521D01*
X594683Y529381D01*
X594633Y529331D01*
X594610Y529275D01*
X594582Y529202D01*
X594554Y529163D01*
X594510Y529096D01*
X594471Y528990D01*
X594443Y528951D01*
X594420Y528928D01*
X594387Y528850D01*
X594375Y528805D01*
X594297Y528683D01*
X594275Y528604D01*
X594264Y528559D01*
X594197Y528448D01*
X594174Y528358D01*
X594157Y528286D01*
X594124Y528196D01*
X594096Y528135D01*
X594074Y528056D01*
X594057Y527928D01*
X594046Y527872D01*
X594001Y527693D01*
X593990Y527637D01*
X593979Y527570D01*
X593967Y527436D01*
X593962Y526782D01*
X593973Y526748D01*
X593984Y526592D01*
X593995Y526558D01*
X594012Y526474D01*
X594046Y526340D01*
X594057Y526284D01*
X594068Y526195D01*
X594079Y526139D01*
X594090Y526094D01*
X594113Y526038D01*
X594152Y525943D01*
X594174Y525854D01*
X594191Y525781D01*
X594247Y525692D01*
X594269Y525636D01*
X594281Y525580D01*
X594308Y525507D01*
X594375Y525407D01*
X594415Y525300D01*
X594443Y525261D01*
X594465Y525239D01*
X594476Y525217D01*
X594543Y525094D01*
X594577Y525060D01*
X594644Y524937D01*
X594689Y524892D01*
X594733Y524814D01*
X594800Y524747D01*
X594812Y524725D01*
X594862Y524663D01*
X594912Y524613D01*
X594923Y524590D01*
X594946Y524568D01*
X594957Y524546D01*
X595253Y524249D01*
X595275Y524238D01*
X595354Y524160D01*
X595376Y524149D01*
X595438Y524099D01*
X595488Y524048D01*
X595566Y524003D01*
X595622Y523948D01*
X595745Y523881D01*
X595779Y523847D01*
X595857Y523813D01*
X595913Y523780D01*
X595935Y523758D01*
X595957Y523746D01*
X596036Y523713D01*
X596092Y523690D01*
X596170Y523634D01*
X596226Y523612D01*
X596298Y523595D01*
X596366Y523562D01*
X596382Y523545D01*
X596461Y523512D01*
X596589Y523484D01*
X596634Y523472D01*
X596774Y523411D01*
X596869Y523394D01*
X596958Y523383D01*
X597014Y523372D01*
X597148Y523338D01*
X597260Y523316D01*
X597327Y523305D01*
X597551Y523293D01*
X597981Y523288D01*
X598015Y523299D01*
X598261Y523310D01*
X598294Y523321D01*
X598378Y523338D01*
X598512Y523372D01*
X598568Y523383D01*
X598658Y523394D01*
X598725Y523405D01*
X598769Y523416D01*
X598825Y523439D01*
X598887Y523467D01*
X598965Y523489D01*
X599010Y523500D01*
X599082Y523517D01*
X599138Y523540D01*
X599155Y523556D01*
X599178Y523568D01*
X599256Y523601D01*
X599317Y523618D01*
X599373Y523640D01*
X599401Y523668D01*
X599423Y523679D01*
X599502Y523713D01*
X599574Y523741D01*
X599625Y523791D01*
X599703Y523825D01*
X599781Y523869D01*
X599815Y523903D01*
X599837Y523914D01*
X599938Y523970D01*
X599994Y524026D01*
X600072Y524071D01*
X600089Y524087D01*
X600100Y524110D01*
X600167Y524154D01*
X600240Y524227D01*
X600262Y524238D01*
X600295Y524272D01*
X600318Y524283D01*
X600513Y524479D01*
X600525Y524501D01*
X600614Y524590D01*
X600625Y524613D01*
X600664Y524663D01*
X600687Y524674D01*
X600771Y524792D01*
X600815Y524836D01*
X600871Y524937D01*
X600916Y524982D01*
X600983Y525105D01*
X601017Y525138D01*
X601061Y525250D01*
X601140Y525362D01*
X601156Y525423D01*
X601212Y525513D01*
X601229Y525530D01*
X601251Y525586D01*
X601279Y525658D01*
X601352Y525764D01*
X601391Y525871D01*
X601419Y525899D01*
X601430Y525921D01*
X601453Y525943D01*
X601497Y526066D01*
X601548Y526128D01*
X601576Y526189D01*
X601604Y526262D01*
X601632Y526301D01*
X601654Y526323D01*
X601688Y526402D01*
X601715Y526474D01*
X601754Y526513D01*
X601766Y526536D01*
X601810Y526648D01*
X601822Y526670D01*
X601872Y526731D01*
X601900Y526804D01*
X601956Y526905D01*
X601978Y526927D01*
X602001Y526983D01*
X602029Y527056D01*
X602056Y527095D01*
X602101Y527162D01*
X602140Y527268D01*
X602157Y527285D01*
X602168Y527307D01*
X602202Y527341D01*
X602247Y527464D01*
X602297Y527525D01*
X602325Y527587D01*
X602353Y527659D01*
X602381Y527699D01*
X602425Y527766D01*
X602464Y527872D01*
X602526Y527956D01*
X602548Y528012D01*
X602576Y528084D01*
X602627Y528135D01*
X602666Y528241D01*
X602682Y528280D01*
X602716Y528313D01*
X602727Y528336D01*
X602761Y528414D01*
X602817Y528515D01*
X602839Y528537D01*
X602861Y528593D01*
X602889Y528666D01*
X602917Y528705D01*
X602940Y528727D01*
X602951Y528750D01*
X602973Y528805D01*
X603001Y528878D01*
X603029Y528906D01*
X603040Y528928D01*
X603063Y528951D01*
X603107Y529074D01*
X603158Y529135D01*
X603186Y529197D01*
X603214Y529269D01*
X603242Y529309D01*
X603264Y529331D01*
X603297Y529409D01*
X603325Y529482D01*
X603353Y529510D01*
X603364Y529532D01*
X603387Y529554D01*
X603404Y529616D01*
X603437Y529683D01*
X603465Y529722D01*
X603488Y529745D01*
X603527Y529851D01*
X603566Y529912D01*
X603588Y529935D01*
X603610Y529991D01*
X603638Y530063D01*
X603666Y530102D01*
X603711Y530169D01*
X603750Y530276D01*
X603767Y530292D01*
X603778Y530315D01*
X603812Y530348D01*
X603857Y530471D01*
X603935Y530583D01*
X603951Y530645D01*
X603991Y530706D01*
X604035Y530773D01*
X604075Y530879D01*
X604102Y530919D01*
X604125Y530941D01*
X604158Y531019D01*
X604186Y531092D01*
X604237Y531142D01*
X604276Y531248D01*
X604292Y531287D01*
X604326Y531321D01*
X604337Y531343D01*
X604371Y531422D01*
X604427Y531522D01*
X604449Y531545D01*
X604471Y531600D01*
X604499Y531673D01*
X604527Y531712D01*
X604550Y531735D01*
X604561Y531757D01*
X604583Y531813D01*
X604611Y531886D01*
X604639Y531914D01*
X604650Y531936D01*
X604673Y531958D01*
X604717Y532081D01*
X604768Y532143D01*
X604796Y532204D01*
X604823Y532277D01*
X604851Y532316D01*
X604874Y532338D01*
X604907Y532417D01*
X604935Y532489D01*
X604963Y532517D01*
X604975Y532540D01*
X604997Y532562D01*
X605014Y532623D01*
X605047Y532691D01*
X605075Y532730D01*
X605098Y532752D01*
X605137Y532858D01*
X605176Y532920D01*
X605198Y532942D01*
X605220Y532998D01*
X605248Y533071D01*
X605288Y533121D01*
X605299Y533143D01*
X605343Y533244D01*
X605388Y533322D01*
X605422Y533356D01*
X605466Y533479D01*
X605545Y533591D01*
X605561Y533652D01*
X605617Y533742D01*
X605634Y533758D01*
X605657Y533814D01*
X605684Y533887D01*
X605712Y533926D01*
X605735Y533948D01*
X605768Y534027D01*
X605796Y534099D01*
X605846Y534150D01*
X605886Y534256D01*
X605902Y534295D01*
X605936Y534328D01*
X605947Y534351D01*
X605981Y534429D01*
X606037Y534530D01*
X606059Y534552D01*
X606081Y534608D01*
X606109Y534681D01*
X606137Y534720D01*
X606160Y534742D01*
X606171Y534765D01*
X606193Y534821D01*
X606221Y534893D01*
X606249Y534921D01*
X606260Y534943D01*
X606283Y534966D01*
X606327Y535089D01*
X606378Y535150D01*
X606405Y535212D01*
X606433Y535285D01*
X606495Y535368D01*
X606517Y535424D01*
X606545Y535497D01*
X606573Y535525D01*
X606584Y535547D01*
X606607Y535569D01*
X606624Y535631D01*
X606657Y535698D01*
X606719Y535782D01*
X606735Y535844D01*
X606791Y535933D01*
X606808Y535950D01*
X606830Y536006D01*
X606858Y536078D01*
X606886Y536117D01*
X606931Y536184D01*
X606970Y536291D01*
X606987Y536307D01*
X606998Y536330D01*
X607020Y536352D01*
X607032Y536375D01*
X607076Y536486D01*
X607155Y536598D01*
X607171Y536660D01*
X607227Y536749D01*
X607244Y536766D01*
X607267Y536822D01*
X607294Y536894D01*
X607322Y536934D01*
X607345Y536956D01*
X607378Y537034D01*
X607406Y537107D01*
X607445Y537146D01*
X607457Y537168D01*
X607501Y537280D01*
X607512Y537303D01*
X607546Y537336D01*
X607557Y537358D01*
X607591Y537437D01*
X607647Y537537D01*
X607669Y537560D01*
X607691Y537616D01*
X607719Y537688D01*
X607792Y537783D01*
X607809Y537845D01*
X607831Y537901D01*
X607859Y537929D01*
X607870Y537951D01*
X607892Y537973D01*
X607937Y538096D01*
X607988Y538158D01*
X608016Y538219D01*
X608044Y538292D01*
X608105Y538376D01*
X608127Y538432D01*
X608139Y538476D01*
X608217Y538588D01*
X608245Y538661D01*
X608261Y538700D01*
X608312Y538761D01*
X608340Y538834D01*
X608396Y538935D01*
X608418Y538957D01*
X608440Y539013D01*
X608468Y539086D01*
X608513Y539153D01*
X608530Y539170D01*
X608552Y539226D01*
X608580Y539298D01*
X608597Y539315D01*
X608608Y539337D01*
X608630Y539360D01*
X608642Y539382D01*
X608664Y539438D01*
X608692Y539511D01*
X608731Y539550D01*
X608742Y539572D01*
X608776Y539650D01*
X608798Y539706D01*
X608820Y539729D01*
X608832Y539751D01*
X608854Y539773D01*
X608876Y539829D01*
X608904Y539902D01*
X608932Y539941D01*
X608955Y539963D01*
X608988Y540042D01*
X609016Y540114D01*
X609055Y540154D01*
X609067Y540176D01*
X609111Y540288D01*
X609122Y540310D01*
X609156Y540344D01*
X609167Y540366D01*
X609201Y540444D01*
X609257Y540545D01*
X609279Y540567D01*
X609301Y540623D01*
X609329Y540696D01*
X609402Y540802D01*
X609441Y540908D01*
X609469Y540936D01*
X609480Y540959D01*
X609502Y540981D01*
X609547Y541104D01*
X609598Y541165D01*
X609626Y541227D01*
X609653Y541300D01*
X609681Y541339D01*
X609704Y541361D01*
X609737Y541439D01*
X609748Y541484D01*
X609827Y541596D01*
X609866Y541702D01*
X609894Y541741D01*
X609927Y541775D01*
X609967Y541881D01*
X610006Y541942D01*
X610028Y541965D01*
X610050Y542021D01*
X610078Y542093D01*
X610106Y542132D01*
X610151Y542200D01*
X610190Y542306D01*
X610207Y542323D01*
X610218Y542345D01*
X610240Y542367D01*
X610252Y542389D01*
X610274Y542445D01*
X610302Y542518D01*
X610341Y542557D01*
X610352Y542580D01*
X610386Y542658D01*
X610442Y542758D01*
X610464Y542781D01*
X610486Y542837D01*
X610514Y542909D01*
X610576Y542993D01*
X610598Y543049D01*
X610626Y543122D01*
X610665Y543161D01*
X610676Y543183D01*
X610721Y543295D01*
X610732Y543317D01*
X610755Y543340D01*
X610766Y543362D01*
X610788Y543385D01*
X610827Y543491D01*
X610872Y543558D01*
X610889Y543575D01*
X610911Y543631D01*
X610939Y543703D01*
X610967Y543742D01*
X610989Y543765D01*
X611001Y543787D01*
X611023Y543843D01*
X611051Y543916D01*
X611079Y543944D01*
X611090Y543966D01*
X611113Y543988D01*
X611157Y544111D01*
X611208Y544173D01*
X611236Y544234D01*
X611263Y544307D01*
X611291Y544346D01*
X611314Y544369D01*
X611347Y544447D01*
X611358Y544491D01*
X611437Y544603D01*
X611476Y544710D01*
X611504Y544749D01*
X611537Y544782D01*
X611576Y544888D01*
X611616Y544950D01*
X611638Y544972D01*
X611660Y545028D01*
X611688Y545101D01*
X611733Y545168D01*
X611750Y545185D01*
X611772Y545241D01*
X611800Y545313D01*
X611817Y545330D01*
X611828Y545352D01*
X611850Y545375D01*
X611862Y545397D01*
X611884Y545453D01*
X611912Y545526D01*
X611951Y545565D01*
X611962Y545587D01*
X611996Y545665D01*
X612018Y545721D01*
X612040Y545744D01*
X612052Y545766D01*
X612074Y545788D01*
X612096Y545844D01*
X612124Y545917D01*
X612152Y545956D01*
X612175Y545978D01*
X612208Y546057D01*
X612236Y546129D01*
X612275Y546169D01*
X612286Y546191D01*
X612331Y546303D01*
X612342Y546325D01*
X612365Y546347D01*
X612376Y546370D01*
X612398Y546392D01*
X612437Y546498D01*
X612477Y546560D01*
X612499Y546582D01*
X612521Y546638D01*
X612549Y546711D01*
X612577Y546750D01*
X612599Y546772D01*
X612611Y546795D01*
X612633Y546851D01*
X612661Y546923D01*
X612689Y546951D01*
X612700Y546973D01*
X612722Y546996D01*
X612767Y547119D01*
X612817Y547180D01*
X612845Y547242D01*
X612873Y547314D01*
X612901Y547354D01*
X612924Y547376D01*
X612957Y547454D01*
X612968Y547499D01*
X613047Y547611D01*
X613086Y547717D01*
X613142Y547784D01*
X613170Y547857D01*
X613226Y547957D01*
X613248Y547980D01*
X613270Y548036D01*
X613298Y548108D01*
X613343Y548175D01*
X613360Y548192D01*
X613382Y548248D01*
X613410Y548321D01*
X613427Y548338D01*
X613438Y548360D01*
X613460Y548382D01*
X613471Y548405D01*
X613494Y548460D01*
X613522Y548533D01*
X613561Y548572D01*
X613572Y548595D01*
X613606Y548673D01*
X613628Y548729D01*
X613650Y548751D01*
X613662Y548773D01*
X613684Y548796D01*
X613706Y548852D01*
X613717Y548896D01*
X613773Y548975D01*
X613818Y549075D01*
X613863Y549154D01*
X613885Y549176D01*
X613919Y549254D01*
X613947Y549327D01*
X613975Y549355D01*
X613986Y549377D01*
X614008Y549400D01*
X614047Y549506D01*
X614086Y549567D01*
X614109Y549590D01*
X614131Y549646D01*
X614159Y549718D01*
X614187Y549757D01*
X614209Y549780D01*
X614221Y549802D01*
X614243Y549858D01*
X614271Y549931D01*
X614288Y549947D01*
X614299Y549970D01*
X614332Y550003D01*
X614377Y550126D01*
X614427Y550188D01*
X614455Y550249D01*
X614483Y550322D01*
X614545Y550406D01*
X614567Y550462D01*
X614578Y550507D01*
X614657Y550618D01*
X614696Y550724D01*
X614724Y550764D01*
X614746Y550786D01*
X614757Y550808D01*
X614802Y550920D01*
X614813Y550942D01*
X614858Y550987D01*
X614880Y551043D01*
X614908Y551116D01*
X614936Y551155D01*
X614981Y551222D01*
X615020Y551328D01*
X615037Y551345D01*
X615048Y551367D01*
X615070Y551390D01*
X615081Y551412D01*
X615104Y551468D01*
X615132Y551541D01*
X615171Y551580D01*
X615182Y551602D01*
X615216Y551680D01*
X615238Y551736D01*
X615260Y551759D01*
X615272Y551781D01*
X615294Y551803D01*
X615316Y551859D01*
X615327Y551904D01*
X615383Y551982D01*
X615428Y552083D01*
X615473Y552161D01*
X615495Y552183D01*
X615506Y552206D01*
X615529Y552262D01*
X615557Y552335D01*
X615573Y552351D01*
X615585Y552374D01*
X615618Y552407D01*
X615657Y552513D01*
X615696Y552575D01*
X615719Y552597D01*
X615741Y552653D01*
X615769Y552726D01*
X615842Y552832D01*
X615881Y552938D01*
X615898Y552955D01*
X615909Y552977D01*
X615942Y553011D01*
X615987Y553134D01*
X616037Y553195D01*
X616065Y553257D01*
X616093Y553330D01*
X616121Y553369D01*
X616166Y553436D01*
X616177Y553480D01*
X616233Y553581D01*
X616255Y553603D01*
X616278Y553659D01*
X616306Y553732D01*
X616334Y553771D01*
X616356Y553793D01*
X616367Y553816D01*
X616390Y553872D01*
X616418Y553944D01*
X616457Y553984D01*
X616468Y554006D01*
X616501Y554084D01*
X616546Y554162D01*
X616591Y554230D01*
X616630Y554336D01*
X616658Y554375D01*
X616680Y554397D01*
X616736Y554498D01*
X616786Y554515D01*
X623551D01*
X631874Y554520D01*
X631919Y554509D01*
X631953Y554476D01*
X631958Y554403D01*
X631953Y527028D01*
X631964Y526994D01*
X631975Y526771D01*
X631986Y526737D01*
X632014Y526609D01*
X632031Y526547D01*
X632042Y526502D01*
X632053Y526424D01*
X632064Y526379D01*
X632076Y526290D01*
X632087Y526256D01*
X632115Y526184D01*
X632143Y526122D01*
X632165Y526033D01*
X632182Y525960D01*
X632204Y525904D01*
X632254Y525820D01*
X632271Y525759D01*
X632310Y525653D01*
X632344Y525619D01*
X632377Y525541D01*
X632405Y525468D01*
X632433Y525429D01*
X632456Y525407D01*
X632467Y525384D01*
X632500Y525306D01*
X632512Y525284D01*
X632562Y525222D01*
X632579Y525205D01*
X632635Y525105D01*
X632691Y525049D01*
X632735Y524971D01*
X632758Y524948D01*
X632769Y524926D01*
X632802Y524892D01*
X632813Y524870D01*
X632864Y524809D01*
X632925Y524747D01*
X632937Y524725D01*
X633037Y524624D01*
X633048Y524602D01*
X633065Y524585D01*
X633087Y524574D01*
X633188Y524473D01*
X633210Y524462D01*
X633300Y524372D01*
X633322Y524361D01*
X633384Y524311D01*
X633412Y524283D01*
X633434Y524272D01*
X633512Y524227D01*
X633579Y524160D01*
X633680Y524104D01*
X633702Y524082D01*
X633725Y524071D01*
X633747Y524048D01*
X633792Y524037D01*
X633870Y523992D01*
X633915Y523948D01*
X634054Y523897D01*
X634082Y523869D01*
X634105Y523858D01*
X634183Y523825D01*
X634245Y523808D01*
X634300Y523786D01*
X634317Y523769D01*
X634418Y523724D01*
X634546Y523696D01*
X634658Y523651D01*
X634709Y523634D01*
X634798Y523612D01*
X634915Y523595D01*
X634971Y523584D01*
X635061Y523562D01*
X635122Y523545D01*
X635256Y523523D01*
X635301Y523512D01*
X635681Y523500D01*
X676065Y523512D01*
X676098Y523523D01*
X676188Y523534D01*
X676221Y523545D01*
X676283Y523562D01*
X676372Y523584D01*
X676506Y523607D01*
X676629Y523629D01*
X676719Y523662D01*
X676814Y523702D01*
X676942Y523730D01*
X676998Y523752D01*
X677015Y523769D01*
X677037Y523780D01*
X677115Y523813D01*
X677177Y523830D01*
X677233Y523853D01*
X677317Y523914D01*
X677378Y523931D01*
X677434Y523953D01*
X677485Y524003D01*
X677585Y524048D01*
X677607Y524059D01*
X677669Y524110D01*
X677719Y524138D01*
X677742Y524149D01*
X677803Y524199D01*
X677831Y524227D01*
X677853Y524238D01*
X677932Y524283D01*
X677988Y524339D01*
X678010Y524350D01*
X678094Y524412D01*
X678105Y524434D01*
X678122Y524451D01*
X678144Y524462D01*
X678206Y524512D01*
X678217Y524535D01*
X678256Y524574D01*
X678278Y524585D01*
X678317Y524624D01*
X678329Y524646D01*
X678418Y524736D01*
X678429Y524758D01*
X678480Y524809D01*
X678502Y524820D01*
X678563Y524915D01*
X678608Y524959D01*
X678619Y524982D01*
X678664Y525060D01*
X678731Y525127D01*
X678787Y525228D01*
X678832Y525272D01*
X678854Y525328D01*
X678910Y525429D01*
X678943Y525462D01*
X678994Y525602D01*
X679022Y525630D01*
X679033Y525653D01*
X679066Y525731D01*
X679078Y525776D01*
X679106Y525848D01*
X679156Y525943D01*
X679178Y526033D01*
X679195Y526094D01*
X679229Y526184D01*
X679257Y526245D01*
X679273Y526307D01*
X679285Y526396D01*
X679296Y526463D01*
X679307Y526508D01*
X679340Y526575D01*
X679380Y526670D01*
X679391Y526715D01*
X679408Y526810D01*
X679424Y526849D01*
X679469Y526916D01*
X679491Y526972D01*
X679508Y527067D01*
X679519Y527112D01*
X679575Y527235D01*
X679592Y527296D01*
X679603Y527374D01*
X679614Y527419D01*
X679631Y527525D01*
X679642Y527581D01*
X679659Y527643D01*
X679681Y527721D01*
X679693Y527833D01*
X679704Y527911D01*
X679715Y528224D01*
X679704Y528705D01*
X679693Y528738D01*
X679676Y528856D01*
X679659Y528917D01*
X679637Y529007D01*
X679620Y529079D01*
X679586Y529292D01*
X679530Y529415D01*
X679514Y529476D01*
X679502Y529521D01*
X679486Y529594D01*
X679463Y529650D01*
X679419Y529717D01*
X679402Y529778D01*
X679363Y529884D01*
X679346Y529901D01*
X679335Y529924D01*
X679313Y529946D01*
X679262Y530086D01*
X679245Y530102D01*
X679234Y530125D01*
X679201Y530158D01*
X679178Y530214D01*
X679150Y530287D01*
X679100Y530337D01*
X679078Y530393D01*
X679022Y530494D01*
X678999Y530516D01*
X678988Y530538D01*
X678955Y530617D01*
X678921Y530672D01*
X678899Y530695D01*
X678888Y530717D01*
X678798Y530885D01*
X678776Y530907D01*
X678742Y530986D01*
X678698Y531064D01*
X678664Y531097D01*
X678636Y531170D01*
X678614Y531226D01*
X678563Y531276D01*
X678530Y531355D01*
X678485Y531433D01*
X678463Y531455D01*
X678452Y531478D01*
X678418Y531556D01*
X678384Y531612D01*
X678362Y531634D01*
X678351Y531656D01*
X678261Y531824D01*
X678239Y531847D01*
X678206Y531925D01*
X678161Y532003D01*
X678127Y532037D01*
X678105Y532093D01*
X678077Y532165D01*
X678027Y532215D01*
X677993Y532294D01*
X677949Y532372D01*
X677915Y532406D01*
X677893Y532461D01*
X677865Y532534D01*
X677825Y532573D01*
X677814Y532596D01*
X677736Y532741D01*
X677714Y532763D01*
X677702Y532786D01*
X677669Y532864D01*
X677624Y532942D01*
X677591Y532976D01*
X677546Y533088D01*
X677496Y533149D01*
X677417Y533306D01*
X677378Y533345D01*
X677356Y533401D01*
X677328Y533473D01*
X677278Y533523D01*
X677244Y533602D01*
X677199Y533680D01*
X677143Y533758D01*
X677127Y533820D01*
X677082Y533887D01*
X677054Y533915D01*
X677032Y533971D01*
X676976Y534071D01*
X676953Y534094D01*
X676942Y534116D01*
X676920Y534172D01*
X676875Y534250D01*
X676842Y534284D01*
X676819Y534340D01*
X676791Y534412D01*
X676741Y534463D01*
X676708Y534541D01*
X676663Y534619D01*
X676640Y534642D01*
X676629Y534664D01*
X676596Y534742D01*
X676562Y534798D01*
X676540Y534821D01*
X676529Y534843D01*
X676439Y535010D01*
X676406Y535044D01*
X676367Y535150D01*
X676339Y535189D01*
X676305Y535223D01*
X676283Y535279D01*
X676227Y535379D01*
X676204Y535402D01*
X676171Y535480D01*
X676126Y535558D01*
X676104Y535581D01*
X676093Y535603D01*
X676059Y535681D01*
X676025Y535737D01*
X676003Y535760D01*
X675992Y535782D01*
X675902Y535950D01*
X675869Y535983D01*
X675830Y536089D01*
X675813Y536106D01*
X675802Y536129D01*
X675768Y536162D01*
X675746Y536218D01*
X675690Y536319D01*
X675668Y536341D01*
X675634Y536419D01*
X675589Y536497D01*
X675556Y536531D01*
X675534Y536587D01*
X675506Y536660D01*
X675455Y536710D01*
X675444Y536732D01*
X675422Y536788D01*
X675366Y536889D01*
X675332Y536922D01*
X675293Y537029D01*
X675276Y537045D01*
X675265Y537068D01*
X675232Y537101D01*
X675209Y537157D01*
X675153Y537258D01*
X675131Y537280D01*
X675120Y537303D01*
X675098Y537358D01*
X675053Y537437D01*
X675019Y537470D01*
X674997Y537526D01*
X674941Y537627D01*
X674919Y537649D01*
X674907Y537671D01*
X674885Y537727D01*
X674840Y537806D01*
X674784Y537884D01*
X674768Y537945D01*
X674723Y538012D01*
X674695Y538040D01*
X674673Y538096D01*
X674617Y538197D01*
X674583Y538231D01*
X674544Y538337D01*
X674488Y538404D01*
X674460Y538465D01*
X674404Y538566D01*
X674382Y538588D01*
X674348Y538666D01*
X674304Y538745D01*
X674281Y538767D01*
X674270Y538789D01*
X674237Y538868D01*
X674203Y538924D01*
X674181Y538946D01*
X674169Y538968D01*
X674147Y538991D01*
X674130Y539052D01*
X674074Y539142D01*
X674046Y539170D01*
X674007Y539276D01*
X673991Y539293D01*
X673979Y539315D01*
X673946Y539348D01*
X673923Y539404D01*
X673868Y539505D01*
X673845Y539527D01*
X673834Y539550D01*
X673801Y539628D01*
X673767Y539684D01*
X673734Y539717D01*
X673711Y539773D01*
X673655Y539874D01*
X673611Y539941D01*
X673583Y540014D01*
X673538Y540081D01*
X673510Y540109D01*
X673482Y540181D01*
X673465Y540221D01*
X673415Y540282D01*
X673387Y540344D01*
X673331Y540444D01*
X673298Y540478D01*
X673270Y540550D01*
X673247Y540606D01*
X673197Y540657D01*
X673175Y540713D01*
X673119Y540813D01*
X673096Y540835D01*
X673085Y540858D01*
X673063Y540914D01*
X673018Y540992D01*
X672962Y541070D01*
X672951Y541115D01*
X672906Y541193D01*
X672873Y541227D01*
X672839Y541305D01*
X672794Y541383D01*
X672761Y541417D01*
X672716Y541529D01*
X672666Y541590D01*
X672638Y541652D01*
X672582Y541752D01*
X672560Y541775D01*
X672548Y541797D01*
X672515Y541875D01*
X672481Y541931D01*
X672459Y541954D01*
X672448Y541976D01*
X672358Y542144D01*
X672336Y542166D01*
X672302Y542244D01*
X672258Y542323D01*
X672224Y542356D01*
X672202Y542412D01*
X672174Y542485D01*
X672123Y542535D01*
X672090Y542613D01*
X672045Y542691D01*
X672023Y542714D01*
X672012Y542736D01*
X671978Y542814D01*
X671945Y542870D01*
X671922Y542893D01*
X671911Y542915D01*
X671822Y543083D01*
X671799Y543105D01*
X671766Y543183D01*
X671721Y543262D01*
X671687Y543295D01*
X671665Y543351D01*
X671637Y543424D01*
X671587Y543474D01*
X671576Y543496D01*
X671553Y543552D01*
X671509Y543631D01*
X671486Y543653D01*
X671475Y543675D01*
X671441Y543754D01*
X671408Y543810D01*
X671386Y543832D01*
X671375Y543854D01*
X671296Y543999D01*
X671274Y544022D01*
X671263Y544044D01*
X671229Y544123D01*
X671184Y544201D01*
X671151Y544234D01*
X671128Y544290D01*
X671073Y544391D01*
X671050Y544413D01*
X671039Y544436D01*
X671017Y544491D01*
X670972Y544570D01*
X670938Y544603D01*
X670916Y544659D01*
X670888Y544732D01*
X670838Y544782D01*
X670804Y544860D01*
X670760Y544939D01*
X670737Y544961D01*
X670726Y544983D01*
X670692Y545062D01*
X670659Y545118D01*
X670603Y545196D01*
X670575Y545269D01*
X670530Y545336D01*
X670502Y545364D01*
X670491Y545408D01*
X670435Y545509D01*
X670402Y545542D01*
X670379Y545598D01*
X670351Y545671D01*
X670301Y545721D01*
X670268Y545799D01*
X670223Y545878D01*
X670201Y545900D01*
X670189Y545923D01*
X670156Y546001D01*
X670122Y546057D01*
X670100Y546079D01*
X670089Y546101D01*
X669999Y546269D01*
X669966Y546303D01*
X669927Y546409D01*
X669899Y546448D01*
X669865Y546482D01*
X669843Y546537D01*
X669787Y546638D01*
X669764Y546660D01*
X669731Y546739D01*
X669686Y546817D01*
X669664Y546839D01*
X669653Y546862D01*
X669619Y546940D01*
X669586Y546996D01*
X669552Y547029D01*
X669519Y547108D01*
X669463Y547208D01*
X669429Y547242D01*
X669390Y547348D01*
X669373Y547365D01*
X669362Y547387D01*
X669328Y547421D01*
X669306Y547477D01*
X669250Y547577D01*
X669228Y547600D01*
X669217Y547622D01*
X669194Y547678D01*
X669150Y547756D01*
X669116Y547790D01*
X669094Y547845D01*
X669038Y547946D01*
X669015Y547968D01*
X669004Y547991D01*
X668982Y548047D01*
X668937Y548125D01*
X668881Y548203D01*
X668864Y548265D01*
X668825Y548315D01*
X668814Y548338D01*
X668792Y548360D01*
X668769Y548416D01*
X668714Y548516D01*
X668680Y548550D01*
X668641Y548656D01*
X668585Y548723D01*
X668557Y548785D01*
X668501Y548885D01*
X668479Y548908D01*
X668467Y548930D01*
X668445Y548986D01*
X668400Y549064D01*
X668378Y549087D01*
X668367Y549109D01*
X668333Y549187D01*
X668300Y549243D01*
X668278Y549265D01*
X668266Y549288D01*
X668177Y549455D01*
X668143Y549489D01*
X668104Y549595D01*
X668087Y549612D01*
X668076Y549634D01*
X668043Y549668D01*
X668020Y549724D01*
X667964Y549824D01*
X667942Y549847D01*
X667931Y549869D01*
X667908Y549925D01*
X667864Y550003D01*
X667841Y550026D01*
X667830Y550048D01*
X667786Y550149D01*
X667774Y550171D01*
X667741Y550205D01*
X667730Y550227D01*
X667707Y550249D01*
X667691Y550311D01*
X667635Y550400D01*
X667607Y550428D01*
X667568Y550534D01*
X667551Y550551D01*
X667540Y550574D01*
X667506Y550607D01*
X667484Y550663D01*
X667428Y550764D01*
X667405Y550786D01*
X667394Y550808D01*
X667361Y550887D01*
X667327Y550942D01*
X667294Y550976D01*
X667271Y551032D01*
X667215Y551133D01*
X667171Y551200D01*
X667143Y551272D01*
X667098Y551339D01*
X667070Y551367D01*
X667042Y551440D01*
X667025Y551479D01*
X666975Y551541D01*
X666897Y551697D01*
X666858Y551736D01*
X666830Y551809D01*
X666807Y551865D01*
X666757Y551915D01*
X666735Y551971D01*
X666679Y552072D01*
X666656Y552094D01*
X666645Y552116D01*
X666612Y552195D01*
X666578Y552251D01*
X666522Y552329D01*
X666511Y552374D01*
X666466Y552452D01*
X666433Y552485D01*
X666399Y552564D01*
X666355Y552642D01*
X666321Y552676D01*
X666293Y552748D01*
X666271Y552804D01*
X666220Y552854D01*
X666187Y552933D01*
X666142Y553011D01*
X666120Y553033D01*
X666108Y553056D01*
X666075Y553134D01*
X666041Y553190D01*
X666019Y553212D01*
X666008Y553234D01*
X665918Y553402D01*
X665896Y553424D01*
X665863Y553503D01*
X665818Y553581D01*
X665784Y553615D01*
X665762Y553671D01*
X665734Y553743D01*
X665684Y553793D01*
X665650Y553872D01*
X665605Y553950D01*
X665583Y553972D01*
X665572Y553995D01*
X665538Y554073D01*
X665505Y554129D01*
X665482Y554151D01*
X665471Y554174D01*
X665382Y554341D01*
X665359Y554364D01*
X665326Y554442D01*
X665281Y554520D01*
X665248Y554554D01*
X665203Y554665D01*
X665153Y554727D01*
X665074Y554883D01*
X665046Y554911D01*
X665035Y554934D01*
X665002Y555012D01*
X664968Y555068D01*
X664935Y555102D01*
X664901Y555180D01*
X664856Y555258D01*
X664834Y555280D01*
X664823Y555303D01*
X664789Y555381D01*
X664744Y555459D01*
X664711Y555493D01*
X664666Y555605D01*
X664616Y555666D01*
X664538Y555823D01*
X664499Y555862D01*
X664476Y555918D01*
X664448Y555990D01*
X664398Y556041D01*
X664364Y556119D01*
X664320Y556197D01*
X664297Y556220D01*
X664286Y556242D01*
X664253Y556320D01*
X664219Y556376D01*
X664163Y556454D01*
X664135Y556527D01*
X664090Y556594D01*
X664062Y556622D01*
X664051Y556667D01*
X663995Y556767D01*
X663962Y556801D01*
X663940Y556857D01*
X663884Y556958D01*
X663861Y556980D01*
X663828Y557058D01*
X663783Y557136D01*
X663761Y557159D01*
X663749Y557181D01*
X663716Y557259D01*
X663682Y557315D01*
X663660Y557338D01*
X663649Y557360D01*
X663559Y557528D01*
X663526Y557561D01*
X663487Y557668D01*
X663470Y557684D01*
X663459Y557707D01*
X663425Y557740D01*
X663403Y557796D01*
X663347Y557897D01*
X663325Y557919D01*
X663291Y557997D01*
X663246Y558075D01*
X663213Y558109D01*
X663190Y558165D01*
X663163Y558238D01*
X663112Y558288D01*
X663079Y558366D01*
X663034Y558445D01*
X663012Y558467D01*
X663000Y558489D01*
X662967Y558568D01*
X662922Y558646D01*
X662889Y558679D01*
X662866Y558735D01*
X662810Y558836D01*
X662777Y558869D01*
X662738Y558976D01*
X662710Y559015D01*
X662676Y559048D01*
X662631Y559160D01*
X662620Y559182D01*
X662576Y559227D01*
X662542Y559305D01*
X662497Y559384D01*
X662441Y559462D01*
X662425Y559523D01*
X662341Y559641D01*
X662313Y559714D01*
X662274Y559775D01*
X662240Y559809D01*
X662201Y559915D01*
X662173Y559954D01*
X662140Y559987D01*
X662117Y560043D01*
X662061Y560144D01*
X662039Y560166D01*
X662005Y560244D01*
X661961Y560323D01*
X661927Y560356D01*
X661905Y560412D01*
X661877Y560485D01*
X661849Y560513D01*
X661838Y560535D01*
X661815Y560558D01*
X661793Y560614D01*
X661737Y560714D01*
X661703Y560748D01*
X661664Y560854D01*
X661647Y560871D01*
X661636Y560893D01*
X661603Y560927D01*
X661581Y560982D01*
X661525Y561083D01*
X661502Y561105D01*
X661491Y561128D01*
X661458Y561206D01*
X661424Y561262D01*
X661390Y561296D01*
X661368Y561351D01*
X661312Y561452D01*
X661267Y561519D01*
X661239Y561592D01*
X661195Y561659D01*
X661167Y561687D01*
X661128Y561793D01*
X661111Y561810D01*
X661100Y561832D01*
X661066Y561866D01*
X661044Y561922D01*
X660988Y562022D01*
X660954Y562056D01*
X660926Y562128D01*
X660904Y562184D01*
X660854Y562235D01*
X660831Y562290D01*
X660776Y562391D01*
X660731Y562458D01*
X660703Y562531D01*
X660658Y562598D01*
X660630Y562626D01*
X660602Y562699D01*
X660585Y562738D01*
X660535Y562799D01*
X660457Y562956D01*
X660418Y562995D01*
X660390Y563068D01*
X660367Y563124D01*
X660317Y563174D01*
X660295Y563230D01*
X660239Y563330D01*
X660217Y563353D01*
X660205Y563375D01*
X660172Y563453D01*
X660138Y563509D01*
X660116Y563531D01*
X660105Y563554D01*
X660060Y563655D01*
X660049Y563677D01*
X659998Y563738D01*
X659970Y563800D01*
X659915Y563900D01*
X659881Y563934D01*
X659859Y563990D01*
X659831Y564063D01*
X659780Y564113D01*
X659747Y564191D01*
X659702Y564269D01*
X659680Y564292D01*
X659669Y564314D01*
X659635Y564392D01*
X659602Y564448D01*
X659579Y564471D01*
X659568Y564493D01*
X659490Y564638D01*
X659445Y564706D01*
X659423Y564761D01*
X659378Y564840D01*
X659344Y564873D01*
X659300Y564985D01*
X659249Y565047D01*
X659171Y565203D01*
X659143Y565231D01*
X659132Y565253D01*
X659099Y565332D01*
X659065Y565387D01*
X659043Y565410D01*
X659031Y565432D01*
X658953Y565578D01*
X658908Y565645D01*
X658886Y565700D01*
X658841Y565779D01*
X658808Y565812D01*
X658763Y565924D01*
X658713Y565986D01*
X658634Y566142D01*
X658606Y566170D01*
X658595Y566193D01*
X658562Y566271D01*
X658528Y566327D01*
X658495Y566360D01*
X658461Y566438D01*
X658416Y566517D01*
X658394Y566539D01*
X658383Y566561D01*
X658349Y566640D01*
X658305Y566718D01*
X658271Y566752D01*
X658249Y566807D01*
X658193Y566908D01*
X658170Y566930D01*
X658137Y567009D01*
X658092Y567087D01*
X658059Y567120D01*
X658036Y567176D01*
X658008Y567249D01*
X657958Y567299D01*
X657947Y567322D01*
X657924Y567378D01*
X657880Y567456D01*
X657857Y567478D01*
X657846Y567501D01*
X657813Y567579D01*
X657779Y567635D01*
X657757Y567657D01*
X657746Y567679D01*
X657656Y567847D01*
X657623Y567881D01*
X657583Y567987D01*
X657528Y568054D01*
X657500Y568116D01*
X657444Y568216D01*
X657421Y568238D01*
X657410Y568261D01*
X657388Y568317D01*
X657343Y568395D01*
X657321Y568417D01*
X657310Y568440D01*
X657276Y568518D01*
X657243Y568574D01*
X657209Y568607D01*
X657175Y568686D01*
X657120Y568786D01*
X657086Y568820D01*
X657047Y568926D01*
X657030Y568943D01*
X657019Y568965D01*
X656985Y568999D01*
X656963Y569055D01*
X656907Y569155D01*
X656885Y569178D01*
X656874Y569200D01*
X656851Y569256D01*
X656806Y569334D01*
X656773Y569368D01*
X656751Y569424D01*
X656723Y569496D01*
X656672Y569547D01*
X656639Y569625D01*
X656594Y569703D01*
X656538Y569781D01*
X656521Y569843D01*
X656477Y569910D01*
X656449Y569938D01*
X656426Y569994D01*
X656370Y570094D01*
X656337Y570128D01*
X656298Y570234D01*
X656270Y570273D01*
X656236Y570307D01*
X656214Y570363D01*
X656158Y570463D01*
X656136Y570486D01*
X656124Y570508D01*
X656102Y570564D01*
X656057Y570642D01*
X656035Y570665D01*
X656024Y570687D01*
X655990Y570765D01*
X655957Y570821D01*
X655934Y570844D01*
X655923Y570866D01*
X655834Y571034D01*
X655800Y571067D01*
X655761Y571173D01*
X655705Y571240D01*
X655677Y571302D01*
X655621Y571403D01*
X655599Y571425D01*
X655565Y571503D01*
X655521Y571581D01*
X655487Y571615D01*
X655443Y571727D01*
X655431Y571749D01*
X655409Y571771D01*
X655398Y571794D01*
X655364Y571827D01*
X655347Y571889D01*
X655292Y571978D01*
X655264Y572006D01*
X655225Y572112D01*
X655208Y572129D01*
X655197Y572152D01*
X655163Y572185D01*
X655141Y572241D01*
X655085Y572342D01*
X655062Y572364D01*
X655051Y572386D01*
X655029Y572442D01*
X654984Y572520D01*
X654950Y572554D01*
X654928Y572610D01*
X654872Y572711D01*
X654827Y572778D01*
X654800Y572850D01*
X654755Y572917D01*
X654727Y572945D01*
X654688Y573052D01*
X654671Y573068D01*
X654660Y573091D01*
X654626Y573124D01*
X654604Y573180D01*
X654548Y573281D01*
X654514Y573314D01*
X654486Y573387D01*
X654464Y573443D01*
X654414Y573493D01*
X654391Y573549D01*
X654336Y573650D01*
X654313Y573672D01*
X654302Y573694D01*
X654280Y573750D01*
X654235Y573829D01*
X654213Y573851D01*
X654202Y573873D01*
X654157Y573974D01*
X654146Y573996D01*
X654095Y574058D01*
X654028Y574192D01*
X653967Y574276D01*
X653956Y574321D01*
X653911Y574399D01*
X653877Y574432D01*
X653855Y574488D01*
X653799Y574589D01*
X653777Y574611D01*
X653765Y574634D01*
X653732Y574712D01*
X653698Y574768D01*
X653676Y574790D01*
X653665Y574813D01*
X653575Y574980D01*
X653553Y575003D01*
X653520Y575081D01*
X653475Y575159D01*
X653441Y575193D01*
X653419Y575248D01*
X653391Y575321D01*
X653341Y575372D01*
X653307Y575450D01*
X653262Y575528D01*
X653240Y575550D01*
X653229Y575573D01*
X653195Y575651D01*
X653162Y575707D01*
X653139Y575729D01*
X653128Y575752D01*
X653050Y575897D01*
X653005Y575964D01*
X652983Y576020D01*
X652938Y576098D01*
X652905Y576132D01*
X652860Y576244D01*
X652810Y576305D01*
X652731Y576462D01*
X652703Y576490D01*
X652692Y576512D01*
X652659Y576590D01*
X652625Y576646D01*
X652591Y576680D01*
X652558Y576758D01*
X652513Y576836D01*
X652491Y576858D01*
X652480Y576881D01*
X652446Y576959D01*
X652401Y577037D01*
X652368Y577071D01*
X652346Y577127D01*
X652290Y577227D01*
X652267Y577250D01*
X652234Y577328D01*
X652189Y577406D01*
X652167Y577429D01*
X652156Y577451D01*
X652122Y577529D01*
X652088Y577585D01*
X652055Y577619D01*
X652021Y577697D01*
X651977Y577775D01*
X651954Y577798D01*
X651943Y577820D01*
X651909Y577898D01*
X651876Y577954D01*
X651820Y578032D01*
X651792Y578105D01*
X651747Y578172D01*
X651731Y578189D01*
X651697Y578267D01*
X651652Y578345D01*
X651619Y578379D01*
X651596Y578435D01*
X651569Y578508D01*
X651518Y578558D01*
X651507Y578580D01*
X651485Y578636D01*
X651440Y578714D01*
X651417Y578737D01*
X651406Y578759D01*
X651373Y578837D01*
X651339Y578893D01*
X651317Y578916D01*
X651306Y578938D01*
X651227Y579083D01*
X651172Y579162D01*
X651155Y579223D01*
X651110Y579290D01*
X651082Y579318D01*
X651060Y579374D01*
X651004Y579475D01*
X650982Y579497D01*
X650948Y579575D01*
X650903Y579654D01*
X650881Y579676D01*
X650870Y579698D01*
X650836Y579777D01*
X650803Y579832D01*
X650769Y579866D01*
X650736Y579944D01*
X650680Y580045D01*
X650646Y580078D01*
X650607Y580185D01*
X650590Y580201D01*
X650579Y580224D01*
X650546Y580257D01*
X650523Y580313D01*
X650467Y580414D01*
X650434Y580447D01*
X650395Y580554D01*
X650339Y580621D01*
X650311Y580682D01*
X650283Y580755D01*
X650232Y580805D01*
X650199Y580883D01*
X650154Y580962D01*
X650132Y580984D01*
X650121Y581006D01*
X650087Y581085D01*
X650042Y581163D01*
X650009Y581196D01*
X649986Y581252D01*
X649931Y581353D01*
X649897Y581386D01*
X649858Y581493D01*
X649830Y581532D01*
X649796Y581565D01*
X649774Y581621D01*
X649718Y581722D01*
X649696Y581744D01*
X649662Y581823D01*
X649617Y581901D01*
X649595Y581923D01*
X649584Y581945D01*
X649550Y582024D01*
X649517Y582080D01*
X649461Y582158D01*
X649433Y582231D01*
X649394Y582292D01*
X649360Y582326D01*
X649321Y582432D01*
X649305Y582449D01*
X649293Y582471D01*
X649260Y582505D01*
X649237Y582561D01*
X649182Y582661D01*
X649159Y582683D01*
X649126Y582762D01*
X649081Y582840D01*
X649047Y582873D01*
X649003Y582985D01*
X648991Y583008D01*
X648958Y583041D01*
X648947Y583064D01*
X648924Y583086D01*
X648908Y583147D01*
X648852Y583237D01*
X648824Y583265D01*
X648785Y583371D01*
X648768Y583388D01*
X648757Y583410D01*
X648723Y583444D01*
X648701Y583500D01*
X648645Y583600D01*
X648611Y583634D01*
X648583Y583707D01*
X648561Y583762D01*
X648511Y583813D01*
X648488Y583869D01*
X648432Y583969D01*
X648410Y583992D01*
X648399Y584014D01*
X648376Y584070D01*
X648332Y584148D01*
X648276Y584226D01*
X648265Y584271D01*
X648220Y584349D01*
X648175Y584394D01*
X648158Y584455D01*
X648103Y584545D01*
X648075Y584573D01*
X648047Y584646D01*
X648030Y584685D01*
X647980Y584746D01*
X647952Y584808D01*
X647896Y584908D01*
X647873Y584931D01*
X647862Y584953D01*
X647840Y585009D01*
X647795Y585087D01*
X647739Y585165D01*
X647728Y585210D01*
X647683Y585289D01*
X647650Y585322D01*
X647627Y585378D01*
X647571Y585479D01*
X647538Y585512D01*
X647493Y585624D01*
X647443Y585685D01*
X647365Y585842D01*
X647326Y585881D01*
X647298Y585954D01*
X647275Y586010D01*
X647236Y586049D01*
X647225Y586071D01*
X647135Y586239D01*
X647113Y586261D01*
X647091Y586317D01*
X647035Y586418D01*
X647001Y586451D01*
X646957Y586563D01*
X646906Y586624D01*
X646828Y586781D01*
X646789Y586820D01*
X646767Y586876D01*
X646739Y586949D01*
X646700Y586988D01*
X646688Y587010D01*
X646610Y587156D01*
X646588Y587178D01*
X646577Y587200D01*
X646543Y587279D01*
X646498Y587357D01*
X646465Y587390D01*
X646420Y587502D01*
X646370Y587564D01*
X646291Y587720D01*
X646263Y587748D01*
X646252Y587771D01*
X646219Y587849D01*
X646185Y587905D01*
X646152Y587938D01*
X646118Y588017D01*
X646073Y588095D01*
X646051Y588117D01*
X646040Y588139D01*
X646006Y588218D01*
X645962Y588296D01*
X645928Y588330D01*
X645906Y588385D01*
X645850Y588486D01*
X645827Y588508D01*
X645794Y588587D01*
X645749Y588665D01*
X645716Y588699D01*
X645693Y588754D01*
X645665Y588827D01*
X645615Y588877D01*
X645581Y588956D01*
X645537Y589034D01*
X645514Y589056D01*
X645503Y589079D01*
X645470Y589157D01*
X645436Y589213D01*
X645414Y589235D01*
X645403Y589258D01*
X645358Y589358D01*
X645347Y589380D01*
X645296Y589442D01*
X645280Y589459D01*
X645268Y589503D01*
X645212Y589604D01*
X645179Y589638D01*
X645157Y589693D01*
X645101Y589794D01*
X645078Y589817D01*
X645067Y589839D01*
X645045Y589895D01*
X645000Y589973D01*
X644978Y589995D01*
X644967Y590018D01*
X644933Y590096D01*
X644899Y590152D01*
X644877Y590174D01*
X644866Y590197D01*
X644776Y590364D01*
X644743Y590398D01*
X644704Y590504D01*
X644687Y590521D01*
X644676Y590543D01*
X644642Y590577D01*
X644620Y590633D01*
X644564Y590733D01*
X644542Y590756D01*
X644508Y590834D01*
X644463Y590912D01*
X644430Y590946D01*
X644408Y591002D01*
X644380Y591074D01*
X644329Y591125D01*
X644296Y591203D01*
X644251Y591281D01*
X644195Y591359D01*
X644178Y591421D01*
X644134Y591488D01*
X644106Y591516D01*
X644083Y591572D01*
X644027Y591672D01*
X643994Y591706D01*
X643955Y591812D01*
X643927Y591851D01*
X643893Y591885D01*
X643848Y591997D01*
X643837Y592019D01*
X643793Y592064D01*
X643781Y592086D01*
X643759Y592142D01*
X643714Y592220D01*
X643692Y592243D01*
X643681Y592265D01*
X643647Y592343D01*
X643614Y592399D01*
X643558Y592477D01*
X643530Y592550D01*
X643491Y592612D01*
X643457Y592645D01*
X643418Y592751D01*
X643390Y592790D01*
X643356Y592824D01*
X643334Y592880D01*
X643278Y592980D01*
X643256Y593003D01*
X643222Y593081D01*
X643178Y593159D01*
X643155Y593182D01*
X643144Y593204D01*
X643111Y593282D01*
X643077Y593338D01*
X643055Y593361D01*
X643044Y593383D01*
X643021Y593405D01*
X643004Y593467D01*
X642948Y593556D01*
X642921Y593584D01*
X642881Y593690D01*
X642865Y593707D01*
X642853Y593730D01*
X642820Y593763D01*
X642797Y593819D01*
X642742Y593920D01*
X642719Y593942D01*
X642708Y593964D01*
X642686Y594020D01*
X642641Y594099D01*
X642607Y594132D01*
X642585Y594188D01*
X642529Y594289D01*
X642507Y594311D01*
X642496Y594333D01*
X642473Y594389D01*
X642417Y594490D01*
X642384Y594523D01*
X642345Y594630D01*
X642328Y594646D01*
X642317Y594669D01*
X642283Y594702D01*
X642261Y594758D01*
X642205Y594859D01*
X642171Y594892D01*
X642143Y594965D01*
X642127Y595004D01*
X642076Y595066D01*
X642048Y595127D01*
X641992Y595228D01*
X641948Y595295D01*
X641920Y595368D01*
X641892Y595407D01*
X641870Y595429D01*
X641858Y595451D01*
X641814Y595552D01*
X641803Y595574D01*
X641752Y595636D01*
X641724Y595697D01*
X641668Y595798D01*
X641635Y595831D01*
X641607Y595904D01*
X641590Y595943D01*
X641540Y596005D01*
X641461Y596161D01*
X641433Y596189D01*
X641422Y596212D01*
X641389Y596290D01*
X641355Y596346D01*
X641333Y596368D01*
X641322Y596390D01*
X641232Y596558D01*
X641210Y596581D01*
X641188Y596637D01*
X641132Y596737D01*
X641098Y596771D01*
X641070Y596843D01*
X641053Y596882D01*
X641003Y596944D01*
X640925Y597100D01*
X640897Y597128D01*
X640886Y597151D01*
X640852Y597229D01*
X640819Y597285D01*
X640796Y597307D01*
X640785Y597330D01*
X640707Y597475D01*
X640662Y597542D01*
X640640Y597598D01*
X640595Y597676D01*
X640562Y597710D01*
X640517Y597822D01*
X640466Y597883D01*
X640388Y598040D01*
X640349Y598079D01*
X640327Y598135D01*
X640299Y598207D01*
X640260Y598246D01*
X640248Y598269D01*
X640170Y598414D01*
X640148Y598437D01*
X640137Y598459D01*
X640103Y598537D01*
X640058Y598615D01*
X640025Y598649D01*
X640003Y598705D01*
X639947Y598806D01*
X639924Y598828D01*
X639891Y598906D01*
X639846Y598984D01*
X639812Y599018D01*
X639790Y599074D01*
X639762Y599146D01*
X639712Y599197D01*
X639678Y599275D01*
X639633Y599353D01*
X639611Y599376D01*
X639600Y599398D01*
X639566Y599476D01*
X639533Y599532D01*
X639510Y599555D01*
X639499Y599577D01*
X639432Y599700D01*
X639376Y599756D01*
X639309Y599879D01*
X639264Y599924D01*
X639220Y600002D01*
X639164Y600047D01*
X639153Y600069D01*
X639102Y600130D01*
X639041Y600192D01*
X639030Y600214D01*
X638991Y600253D01*
X638968Y600265D01*
X638951Y600281D01*
X638940Y600304D01*
X638829Y600415D01*
X638817Y600438D01*
X638627Y600628D01*
X638616Y600650D01*
X638504Y600762D01*
X638499Y600779D01*
X638482Y600784D01*
X638471Y600807D01*
X638409Y600868D01*
X638387Y600879D01*
X638264Y601002D01*
X638242Y601014D01*
X638175Y601081D01*
X638152Y601092D01*
X638091Y601142D01*
X638040Y601193D01*
X637962Y601237D01*
X637906Y601293D01*
X637783Y601360D01*
X637750Y601394D01*
X637671Y601427D01*
X637615Y601461D01*
X637582Y601494D01*
X637526Y601517D01*
X637436Y601550D01*
X637358Y601606D01*
X637302Y601628D01*
X637230Y601645D01*
X637191Y601662D01*
X637123Y601707D01*
X637045Y601729D01*
X637001Y601740D01*
X636928Y601757D01*
X636872Y601779D01*
X636810Y601807D01*
X636732Y601830D01*
X636654Y601841D01*
X636609Y601852D01*
X636503Y601869D01*
X636324Y601914D01*
X636257Y601925D01*
X636168Y601936D01*
X635910Y601947D01*
X635625Y601953D01*
X635592Y601942D01*
D02*
G37*
%LPC*%
G36*
X635961Y590448D02*
X636006Y590437D01*
X636033Y590409D01*
X636078Y590331D01*
X636123Y590264D01*
X636145Y590208D01*
X636190Y590130D01*
X636223Y590096D01*
X636246Y590040D01*
X636302Y589939D01*
X636335Y589906D01*
X636374Y589800D01*
X636402Y589761D01*
X636436Y589727D01*
X636458Y589671D01*
X636486Y589599D01*
X636536Y589548D01*
X636570Y589470D01*
X636615Y589392D01*
X636637Y589369D01*
X636648Y589347D01*
X636682Y589269D01*
X636715Y589213D01*
X636771Y589134D01*
X636799Y589062D01*
X636844Y588995D01*
X636872Y588967D01*
X636911Y588861D01*
X636967Y588793D01*
X636995Y588732D01*
X637017Y588676D01*
X637068Y588615D01*
X637146Y588458D01*
X637174Y588430D01*
X637185Y588408D01*
X637219Y588330D01*
X637252Y588274D01*
X637274Y588251D01*
X637286Y588229D01*
X637375Y588061D01*
X637409Y588028D01*
X637448Y587921D01*
X637476Y587882D01*
X637509Y587849D01*
X637532Y587793D01*
X637588Y587692D01*
X637610Y587670D01*
X637621Y587648D01*
X637643Y587592D01*
X637688Y587513D01*
X637722Y587480D01*
X637744Y587424D01*
X637772Y587351D01*
X637822Y587301D01*
X637856Y587223D01*
X637912Y587122D01*
X637945Y587089D01*
X637984Y586982D01*
X638001Y586965D01*
X638012Y586943D01*
X638046Y586910D01*
X638068Y586854D01*
X638124Y586753D01*
X638158Y586720D01*
X638197Y586613D01*
X638225Y586574D01*
X638247Y586552D01*
X638258Y586530D01*
X638303Y586429D01*
X638314Y586407D01*
X638359Y586362D01*
X638370Y586339D01*
X638392Y586283D01*
X638437Y586205D01*
X638460Y586183D01*
X638471Y586161D01*
X638504Y586082D01*
X638549Y586004D01*
X638582Y585970D01*
X638605Y585915D01*
X638661Y585814D01*
X638694Y585780D01*
X638733Y585674D01*
X638761Y585635D01*
X638795Y585602D01*
X638817Y585546D01*
X638873Y585445D01*
X638896Y585423D01*
X638907Y585400D01*
X638929Y585344D01*
X638974Y585266D01*
X638996Y585244D01*
X639007Y585221D01*
X639052Y585121D01*
X639063Y585098D01*
X639086Y585076D01*
X639097Y585054D01*
X639119Y585031D01*
X639142Y584975D01*
X639198Y584875D01*
X639231Y584841D01*
X639259Y584769D01*
X639276Y584729D01*
X639326Y584668D01*
X639354Y584607D01*
X639410Y584506D01*
X639432Y584483D01*
X639443Y584461D01*
X639466Y584405D01*
X639510Y584327D01*
X639533Y584305D01*
X639544Y584282D01*
X639589Y584182D01*
X639600Y584159D01*
X639633Y584126D01*
X639645Y584103D01*
X639734Y583936D01*
X639768Y583902D01*
X639796Y583829D01*
X639812Y583790D01*
X639863Y583729D01*
X639891Y583667D01*
X639947Y583567D01*
X639969Y583544D01*
X639980Y583522D01*
X640014Y583444D01*
X640047Y583388D01*
X640081Y583354D01*
X640114Y583276D01*
X640159Y583198D01*
X640181Y583175D01*
X640192Y583153D01*
X640226Y583075D01*
X640260Y583019D01*
X640315Y582941D01*
X640349Y582851D01*
X640399Y582790D01*
X640427Y582728D01*
X640483Y582627D01*
X640517Y582594D01*
X640545Y582521D01*
X640567Y582465D01*
X640617Y582415D01*
X640651Y582337D01*
X640696Y582259D01*
X640718Y582236D01*
X640729Y582214D01*
X640763Y582136D01*
X640796Y582080D01*
X640819Y582057D01*
X640830Y582035D01*
X640874Y581934D01*
X640886Y581912D01*
X640936Y581851D01*
X640953Y581834D01*
X640964Y581789D01*
X641020Y581688D01*
X641053Y581655D01*
X641081Y581582D01*
X641098Y581543D01*
X641148Y581482D01*
X641227Y581325D01*
X641255Y581297D01*
X641266Y581275D01*
X641299Y581196D01*
X641333Y581141D01*
X641355Y581118D01*
X641366Y581096D01*
X641411Y580995D01*
X641422Y580973D01*
X641473Y580911D01*
X641489Y580895D01*
X641529Y580788D01*
X641545Y580772D01*
X641556Y580749D01*
X641590Y580716D01*
X641635Y580604D01*
X641685Y580542D01*
X641763Y580386D01*
X641803Y580347D01*
X641825Y580291D01*
X641853Y580218D01*
X641892Y580179D01*
X641903Y580157D01*
X641981Y580011D01*
X642026Y579944D01*
X642048Y579888D01*
X642093Y579810D01*
X642127Y579777D01*
X642171Y579665D01*
X642222Y579603D01*
X642238Y579586D01*
X642250Y579542D01*
X642306Y579441D01*
X642339Y579408D01*
X642362Y579352D01*
X642389Y579279D01*
X642440Y579229D01*
X642473Y579151D01*
X642518Y579072D01*
X642540Y579050D01*
X642551Y579027D01*
X642585Y578949D01*
X642630Y578871D01*
X642663Y578837D01*
X642686Y578782D01*
X642742Y578681D01*
X642775Y578647D01*
X642814Y578541D01*
X642842Y578502D01*
X642876Y578469D01*
X642898Y578413D01*
X642926Y578340D01*
X642976Y578290D01*
X643010Y578211D01*
X643055Y578133D01*
X643088Y578100D01*
X643111Y578044D01*
X643139Y577971D01*
X643167Y577943D01*
X643178Y577921D01*
X643200Y577898D01*
X643222Y577842D01*
X643278Y577742D01*
X643312Y577708D01*
X643351Y577602D01*
X643379Y577563D01*
X643412Y577529D01*
X643457Y577417D01*
X643508Y577356D01*
X643535Y577306D01*
X643563Y577233D01*
X643591Y577194D01*
X643614Y577172D01*
X643625Y577149D01*
X643658Y577071D01*
X643692Y577015D01*
X643714Y576993D01*
X643726Y576970D01*
X643815Y576803D01*
X643848Y576769D01*
X643888Y576663D01*
X643904Y576646D01*
X643916Y576624D01*
X643949Y576590D01*
X643971Y576534D01*
X644027Y576434D01*
X644050Y576411D01*
X644061Y576389D01*
X644083Y576333D01*
X644128Y576255D01*
X644162Y576221D01*
X644184Y576165D01*
X644212Y576093D01*
X644262Y576042D01*
X644296Y575964D01*
X644340Y575886D01*
X644396Y575807D01*
X644413Y575746D01*
X644458Y575679D01*
X644486Y575651D01*
X644508Y575595D01*
X644564Y575494D01*
X644586Y575472D01*
X644598Y575450D01*
X644620Y575394D01*
X644665Y575316D01*
X644698Y575282D01*
X644721Y575226D01*
X644749Y575154D01*
X644799Y575103D01*
X644810Y575081D01*
X644832Y575025D01*
X644877Y574947D01*
X644933Y574868D01*
X644950Y574807D01*
X645034Y574689D01*
X645061Y574617D01*
X645101Y574555D01*
X645134Y574522D01*
X645173Y574416D01*
X645201Y574376D01*
X645235Y574343D01*
X645257Y574287D01*
X645313Y574186D01*
X645335Y574164D01*
X645347Y574142D01*
X645369Y574086D01*
X645414Y574007D01*
X645436Y573985D01*
X645447Y573963D01*
X645481Y573885D01*
X645514Y573829D01*
X645570Y573750D01*
X645598Y573678D01*
X645637Y573616D01*
X645671Y573583D01*
X645710Y573476D01*
X645727Y573460D01*
X645738Y573437D01*
X645771Y573404D01*
X645794Y573348D01*
X645850Y573247D01*
X645872Y573225D01*
X645883Y573203D01*
X645906Y573147D01*
X645950Y573068D01*
X645984Y573035D01*
X646029Y572923D01*
X646040Y572901D01*
X646073Y572867D01*
X646085Y572845D01*
X646107Y572822D01*
X646118Y572778D01*
X646174Y572677D01*
X646208Y572644D01*
X646236Y572571D01*
X646252Y572532D01*
X646303Y572470D01*
X646381Y572314D01*
X646409Y572286D01*
X646420Y572263D01*
X646453Y572185D01*
X646487Y572129D01*
X646521Y572096D01*
X646554Y572017D01*
X646599Y571939D01*
X646621Y571917D01*
X646632Y571894D01*
X646666Y571816D01*
X646700Y571760D01*
X646755Y571682D01*
X646789Y571593D01*
X646839Y571531D01*
X646917Y571375D01*
X646957Y571335D01*
X646985Y571263D01*
X647001Y571224D01*
X647052Y571162D01*
X647130Y571006D01*
X647158Y570978D01*
X647169Y570955D01*
X647203Y570877D01*
X647236Y570821D01*
X647259Y570799D01*
X647270Y570776D01*
X647314Y570676D01*
X647326Y570653D01*
X647376Y570592D01*
X647393Y570575D01*
X647404Y570530D01*
X647460Y570430D01*
X647493Y570396D01*
X647538Y570285D01*
X647588Y570223D01*
X647666Y570066D01*
X647694Y570038D01*
X647706Y570016D01*
X647739Y569938D01*
X647773Y569882D01*
X647795Y569860D01*
X647806Y569837D01*
X647896Y569669D01*
X647929Y569636D01*
X647941Y569591D01*
X647996Y569491D01*
X648030Y569457D01*
X648075Y569345D01*
X648125Y569284D01*
X648203Y569127D01*
X648242Y569088D01*
X648265Y569032D01*
X648293Y568960D01*
X648332Y568921D01*
X648343Y568898D01*
X648421Y568753D01*
X648477Y568675D01*
X648494Y568613D01*
X648539Y568546D01*
X648567Y568518D01*
X648611Y568406D01*
X648662Y568345D01*
X648678Y568328D01*
X648690Y568283D01*
X648745Y568183D01*
X648779Y568149D01*
X648801Y568093D01*
X648829Y568021D01*
X648880Y567970D01*
X648913Y567892D01*
X648958Y567814D01*
X648980Y567791D01*
X648991Y567769D01*
X649025Y567691D01*
X649070Y567612D01*
X649103Y567579D01*
X649126Y567523D01*
X649182Y567422D01*
X649215Y567389D01*
X649254Y567282D01*
X649271Y567266D01*
X649282Y567243D01*
X649316Y567210D01*
X649338Y567154D01*
X649366Y567081D01*
X649416Y567031D01*
X649450Y566953D01*
X649494Y566875D01*
X649517Y566852D01*
X649528Y566830D01*
X649562Y566752D01*
X649595Y566696D01*
X649617Y566673D01*
X649629Y566651D01*
X649718Y566483D01*
X649752Y566450D01*
X649791Y566343D01*
X649819Y566304D01*
X649852Y566271D01*
X649875Y566215D01*
X649931Y566114D01*
X649953Y566092D01*
X649964Y566069D01*
X649986Y566014D01*
X650031Y565935D01*
X650054Y565913D01*
X650065Y565891D01*
X650098Y565812D01*
X650132Y565756D01*
X650154Y565734D01*
X650165Y565712D01*
X650255Y565544D01*
X650288Y565510D01*
X650328Y565404D01*
X650344Y565387D01*
X650355Y565365D01*
X650389Y565332D01*
X650411Y565276D01*
X650467Y565175D01*
X650490Y565153D01*
X650501Y565130D01*
X650523Y565074D01*
X650568Y564996D01*
X650601Y564963D01*
X650624Y564907D01*
X650652Y564834D01*
X650702Y564784D01*
X650713Y564761D01*
X650736Y564706D01*
X650780Y564627D01*
X650836Y564549D01*
X650853Y564487D01*
X650898Y564420D01*
X650926Y564392D01*
X650948Y564337D01*
X651004Y564236D01*
X651037Y564202D01*
X651077Y564096D01*
X651105Y564057D01*
X651138Y564024D01*
X651160Y563968D01*
X651188Y563895D01*
X651239Y563845D01*
X651250Y563822D01*
X651272Y563766D01*
X651317Y563688D01*
X651339Y563666D01*
X651350Y563643D01*
X651384Y563565D01*
X651417Y563509D01*
X651473Y563431D01*
X651501Y563358D01*
X651541Y563297D01*
X651574Y563263D01*
X651613Y563157D01*
X651641Y563118D01*
X651675Y563084D01*
X651697Y563028D01*
X651753Y562928D01*
X651775Y562906D01*
X651786Y562883D01*
X651809Y562827D01*
X651854Y562749D01*
X651876Y562727D01*
X651887Y562704D01*
X651921Y562626D01*
X651954Y562570D01*
X652010Y562492D01*
X652038Y562419D01*
X652083Y562352D01*
X652111Y562324D01*
X652139Y562251D01*
X652156Y562212D01*
X652206Y562151D01*
X652234Y562089D01*
X652290Y561989D01*
X652312Y561966D01*
X652323Y561944D01*
X652357Y561866D01*
X652390Y561810D01*
X652424Y561776D01*
X652446Y561720D01*
X652502Y561620D01*
X652524Y561597D01*
X652536Y561575D01*
X652569Y561497D01*
X652614Y561418D01*
X652647Y561385D01*
X652675Y561312D01*
X652692Y561273D01*
X652742Y561212D01*
X652770Y561150D01*
X652826Y561049D01*
X652860Y561016D01*
X652888Y560943D01*
X652910Y560887D01*
X652960Y560837D01*
X652983Y560781D01*
X653039Y560681D01*
X653061Y560658D01*
X653072Y560636D01*
X653106Y560558D01*
X653139Y560502D01*
X653162Y560479D01*
X653173Y560457D01*
X653218Y560356D01*
X653229Y560334D01*
X653279Y560272D01*
X653357Y560116D01*
X653397Y560077D01*
X653424Y560004D01*
X653441Y559965D01*
X653492Y559903D01*
X653570Y559747D01*
X653598Y559719D01*
X653609Y559697D01*
X653642Y559618D01*
X653676Y559562D01*
X653698Y559540D01*
X653709Y559518D01*
X653754Y559417D01*
X653765Y559395D01*
X653816Y559333D01*
X653832Y559317D01*
X653844Y559272D01*
X653900Y559171D01*
X653933Y559138D01*
X653978Y559026D01*
X654028Y558964D01*
X654106Y558808D01*
X654146Y558769D01*
X654168Y558713D01*
X654196Y558640D01*
X654246Y558590D01*
X654280Y558512D01*
X654336Y558411D01*
X654369Y558377D01*
X654408Y558271D01*
X654425Y558254D01*
X654436Y558232D01*
X654470Y558199D01*
X654514Y558087D01*
X654565Y558025D01*
X654582Y558008D01*
X654593Y557964D01*
X654649Y557863D01*
X654682Y557830D01*
X654705Y557774D01*
X654733Y557701D01*
X654783Y557651D01*
X654816Y557572D01*
X654861Y557494D01*
X654906Y557427D01*
X654928Y557371D01*
X654973Y557293D01*
X655006Y557259D01*
X655029Y557203D01*
X655085Y557103D01*
X655107Y557080D01*
X655118Y557058D01*
X655141Y557002D01*
X655185Y556924D01*
X655219Y556890D01*
X655241Y556834D01*
X655269Y556762D01*
X655320Y556712D01*
X655353Y556633D01*
X655398Y556555D01*
X655420Y556533D01*
X655431Y556510D01*
X655465Y556432D01*
X655510Y556354D01*
X655543Y556320D01*
X655565Y556264D01*
X655621Y556164D01*
X655655Y556130D01*
X655694Y556024D01*
X655722Y555985D01*
X655755Y555951D01*
X655778Y555895D01*
X655806Y555823D01*
X655856Y555772D01*
X655890Y555694D01*
X655934Y555616D01*
X655957Y555593D01*
X655968Y555571D01*
X656002Y555493D01*
X656035Y555437D01*
X656057Y555415D01*
X656069Y555392D01*
X656158Y555225D01*
X656192Y555191D01*
X656231Y555085D01*
X656259Y555046D01*
X656292Y555012D01*
X656314Y554956D01*
X656370Y554856D01*
X656393Y554833D01*
X656404Y554811D01*
X656426Y554755D01*
X656471Y554677D01*
X656493Y554654D01*
X656505Y554632D01*
X656538Y554554D01*
X656572Y554498D01*
X656605Y554464D01*
X656639Y554386D01*
X656695Y554285D01*
X656728Y554252D01*
X656767Y554146D01*
X656784Y554129D01*
X656795Y554106D01*
X656829Y554073D01*
X656851Y554017D01*
X656907Y553917D01*
X656929Y553894D01*
X656941Y553872D01*
X656963Y553816D01*
X657008Y553738D01*
X657041Y553704D01*
X657064Y553648D01*
X657092Y553575D01*
X657142Y553525D01*
X657153Y553503D01*
X657175Y553447D01*
X657220Y553369D01*
X657276Y553290D01*
X657293Y553229D01*
X657337Y553162D01*
X657365Y553134D01*
X657388Y553078D01*
X657444Y552977D01*
X657477Y552944D01*
X657516Y552838D01*
X657544Y552798D01*
X657578Y552765D01*
X657600Y552709D01*
X657656Y552608D01*
X657679Y552586D01*
X657690Y552564D01*
X657712Y552508D01*
X657757Y552430D01*
X657779Y552407D01*
X657790Y552385D01*
X657835Y552284D01*
X657846Y552262D01*
X657880Y552228D01*
X657891Y552206D01*
X657980Y552038D01*
X658014Y552005D01*
X658053Y551898D01*
X658070Y551882D01*
X658081Y551859D01*
X658115Y551826D01*
X658137Y551770D01*
X658193Y551669D01*
X658215Y551647D01*
X658226Y551624D01*
X658249Y551569D01*
X658294Y551490D01*
X658316Y551468D01*
X658327Y551446D01*
X658372Y551345D01*
X658383Y551323D01*
X658416Y551289D01*
X658428Y551267D01*
X658450Y551244D01*
X658467Y551183D01*
X658523Y551093D01*
X658551Y551065D01*
X658595Y550954D01*
X658646Y550892D01*
X658674Y550831D01*
X658729Y550730D01*
X658752Y550708D01*
X658763Y550685D01*
X658785Y550630D01*
X658830Y550551D01*
X658864Y550518D01*
X658886Y550462D01*
X658942Y550361D01*
X658964Y550339D01*
X658976Y550316D01*
X659009Y550238D01*
X659043Y550182D01*
X659099Y550104D01*
X659132Y550014D01*
X659182Y549953D01*
X659261Y549796D01*
X659300Y549757D01*
X659328Y549685D01*
X659350Y549629D01*
X659400Y549579D01*
X659423Y549523D01*
X659479Y549422D01*
X659501Y549400D01*
X659512Y549377D01*
X659546Y549299D01*
X659579Y549243D01*
X659602Y549221D01*
X659613Y549198D01*
X659658Y549098D01*
X659669Y549075D01*
X659719Y549014D01*
X659736Y548997D01*
X659747Y548952D01*
X659803Y548852D01*
X659836Y548818D01*
X659864Y548746D01*
X659881Y548706D01*
X659931Y548645D01*
X660010Y548488D01*
X660038Y548460D01*
X660049Y548438D01*
X660082Y548360D01*
X660116Y548304D01*
X660138Y548282D01*
X660149Y548259D01*
X660239Y548092D01*
X660272Y548058D01*
X660312Y547952D01*
X660328Y547935D01*
X660339Y547913D01*
X660373Y547879D01*
X660418Y547767D01*
X660468Y547706D01*
X660546Y547549D01*
X660585Y547510D01*
X660608Y547454D01*
X660636Y547382D01*
X660675Y547342D01*
X660686Y547320D01*
X660764Y547175D01*
X660820Y547096D01*
X660837Y547035D01*
X660882Y546968D01*
X660910Y546940D01*
X660938Y546867D01*
X660954Y546828D01*
X661005Y546767D01*
X661021Y546750D01*
X661061Y546644D01*
X661088Y546604D01*
X661122Y546571D01*
X661144Y546515D01*
X661172Y546442D01*
X661223Y546392D01*
X661256Y546314D01*
X661301Y546236D01*
X661323Y546213D01*
X661335Y546191D01*
X661368Y546113D01*
X661413Y546034D01*
X661446Y546001D01*
X661469Y545945D01*
X661525Y545844D01*
X661558Y545811D01*
X661597Y545704D01*
X661625Y545665D01*
X661659Y545632D01*
X661681Y545576D01*
X661709Y545503D01*
X661759Y545453D01*
X661793Y545375D01*
X661838Y545296D01*
X661860Y545274D01*
X661871Y545252D01*
X661905Y545173D01*
X661938Y545118D01*
X661994Y545039D01*
X662022Y544967D01*
X662067Y544899D01*
X662095Y544872D01*
X662134Y544765D01*
X662162Y544726D01*
X662195Y544693D01*
X662218Y544637D01*
X662246Y544564D01*
X662296Y544514D01*
X662330Y544436D01*
X662374Y544357D01*
X662397Y544335D01*
X662408Y544313D01*
X662441Y544234D01*
X662475Y544178D01*
X662497Y544156D01*
X662508Y544134D01*
X662598Y543966D01*
X662631Y543932D01*
X662671Y543826D01*
X662699Y543787D01*
X662732Y543754D01*
X662754Y543698D01*
X662810Y543597D01*
X662833Y543575D01*
X662844Y543552D01*
X662866Y543496D01*
X662911Y543418D01*
X662944Y543385D01*
X662967Y543329D01*
X662995Y543256D01*
X663045Y543206D01*
X663079Y543127D01*
X663135Y543027D01*
X663168Y542993D01*
X663196Y542921D01*
X663213Y542882D01*
X663263Y542820D01*
X663291Y542758D01*
X663347Y542658D01*
X663369Y542635D01*
X663381Y542613D01*
X663403Y542557D01*
X663448Y542479D01*
X663481Y542445D01*
X663503Y542389D01*
X663531Y542317D01*
X663582Y542267D01*
X663593Y542244D01*
X663615Y542188D01*
X663660Y542110D01*
X663682Y542088D01*
X663694Y542065D01*
X663738Y541965D01*
X663749Y541942D01*
X663800Y541881D01*
X663828Y541819D01*
X663884Y541719D01*
X663917Y541685D01*
X663956Y541579D01*
X664012Y541512D01*
X664040Y541450D01*
X664096Y541350D01*
X664118Y541327D01*
X664130Y541305D01*
X664152Y541249D01*
X664197Y541171D01*
X664219Y541148D01*
X664230Y541126D01*
X664275Y541026D01*
X664286Y541003D01*
X664320Y540970D01*
X664331Y540947D01*
X664420Y540780D01*
X664454Y540746D01*
X664493Y540640D01*
X664510Y540623D01*
X664521Y540601D01*
X664554Y540567D01*
X664577Y540511D01*
X664633Y540411D01*
X664655Y540388D01*
X664666Y540366D01*
X664689Y540310D01*
X664733Y540232D01*
X664756Y540209D01*
X664767Y540187D01*
X664812Y540086D01*
X664823Y540064D01*
X664856Y540031D01*
X664867Y540008D01*
X664890Y539986D01*
X664907Y539924D01*
X664962Y539835D01*
X664990Y539807D01*
X665018Y539734D01*
X665035Y539695D01*
X665086Y539634D01*
X665114Y539572D01*
X665169Y539472D01*
X665203Y539438D01*
X665231Y539365D01*
X665253Y539309D01*
X665303Y539259D01*
X665326Y539203D01*
X665382Y539103D01*
X665404Y539080D01*
X665415Y539058D01*
X665449Y538979D01*
X665482Y538924D01*
X665538Y538845D01*
X665549Y538801D01*
X665594Y538722D01*
X665628Y538689D01*
X665661Y538611D01*
X665706Y538532D01*
X665740Y538499D01*
X665768Y538426D01*
X665784Y538387D01*
X665835Y538326D01*
X665863Y538264D01*
X665918Y538163D01*
X665941Y538141D01*
X665952Y538119D01*
X665985Y538040D01*
X666019Y537985D01*
X666041Y537962D01*
X666053Y537940D01*
X666142Y537772D01*
X666176Y537738D01*
X666187Y537694D01*
X666243Y537593D01*
X666276Y537560D01*
X666304Y537487D01*
X666321Y537448D01*
X666371Y537386D01*
X666450Y537230D01*
X666478Y537202D01*
X666489Y537179D01*
X666522Y537101D01*
X666556Y537045D01*
X666578Y537023D01*
X666589Y537001D01*
X666679Y536833D01*
X666712Y536799D01*
X666723Y536755D01*
X666779Y536654D01*
X666813Y536620D01*
X666858Y536509D01*
X666908Y536447D01*
X666986Y536291D01*
X667025Y536251D01*
X667048Y536196D01*
X667076Y536123D01*
X667126Y536073D01*
X667159Y535994D01*
X667204Y535916D01*
X667249Y535849D01*
X667271Y535793D01*
X667316Y535715D01*
X667349Y535681D01*
X667394Y535569D01*
X667445Y535508D01*
X667523Y535351D01*
X667562Y535312D01*
X667607Y535201D01*
X667657Y535139D01*
X667735Y534983D01*
X667763Y534955D01*
X667774Y534932D01*
X667808Y534854D01*
X667853Y534776D01*
X667886Y534742D01*
X667908Y534686D01*
X667964Y534586D01*
X667987Y534563D01*
X668020Y534485D01*
X668065Y534407D01*
X668099Y534373D01*
X668143Y534261D01*
X668194Y534200D01*
X668272Y534043D01*
X668300Y534016D01*
X668311Y533993D01*
X668345Y533915D01*
X668378Y533859D01*
X668400Y533837D01*
X668412Y533814D01*
X668501Y533647D01*
X668523Y533624D01*
X668557Y533546D01*
X668602Y533468D01*
X668635Y533434D01*
X668658Y533378D01*
X668714Y533278D01*
X668736Y533255D01*
X668747Y533233D01*
X668769Y533177D01*
X668814Y533099D01*
X668837Y533076D01*
X668848Y533054D01*
X668881Y532976D01*
X668915Y532920D01*
X668937Y532897D01*
X668948Y532875D01*
X669027Y532730D01*
X669082Y532651D01*
X669099Y532590D01*
X669144Y532523D01*
X669172Y532495D01*
X669194Y532439D01*
X669250Y532338D01*
X669273Y532316D01*
X669284Y532294D01*
X669306Y532238D01*
X669351Y532160D01*
X669384Y532126D01*
X669407Y532070D01*
X669435Y531997D01*
X669485Y531947D01*
X669519Y531869D01*
X669574Y531768D01*
X669608Y531735D01*
X669647Y531628D01*
X669675Y531600D01*
X669686Y531578D01*
X669709Y531556D01*
X669731Y531500D01*
X669787Y531399D01*
X669809Y531377D01*
X669832Y531321D01*
X669871Y531248D01*
X669893Y531237D01*
X669910Y531220D01*
X669921Y531176D01*
X669910Y531142D01*
X669893Y531125D01*
X639633Y531120D01*
X639594Y531137D01*
X639578Y531153D01*
X639566Y531232D01*
X639578Y531310D01*
X639566Y558858D01*
X639555Y558892D01*
X639544Y559003D01*
X639533Y559037D01*
X639516Y559110D01*
X639505Y559154D01*
X639494Y559210D01*
X639483Y559255D01*
X639449Y559456D01*
X639438Y559501D01*
X639416Y559557D01*
X639388Y559618D01*
X639365Y559697D01*
X639337Y559814D01*
X639281Y559903D01*
X639220Y560077D01*
X639164Y560155D01*
X639142Y560233D01*
X639097Y560312D01*
X639063Y560345D01*
X639030Y560423D01*
X638996Y560479D01*
X638963Y560513D01*
X638896Y560636D01*
X638840Y560692D01*
X638829Y560714D01*
X638773Y560792D01*
X638750Y560815D01*
X638739Y560837D01*
X638717Y560859D01*
X638683Y560915D01*
X638594Y561005D01*
X638582Y561027D01*
X638543Y561066D01*
X638527Y561072D01*
X638516Y561094D01*
X638482Y561128D01*
X638471Y561150D01*
X638392Y561206D01*
X638381Y561228D01*
X638342Y561268D01*
X638320Y561279D01*
X638281Y561307D01*
X638270Y561329D01*
X638230Y561368D01*
X638152Y561413D01*
X638085Y561480D01*
X637984Y561536D01*
X637929Y561592D01*
X637828Y561648D01*
X637783Y561692D01*
X637738Y561704D01*
X637660Y561748D01*
X637638Y561771D01*
X637615Y561782D01*
X637537Y561815D01*
X637436Y561871D01*
X637336Y561916D01*
X637258Y561938D01*
X637179Y561983D01*
X637101Y562017D01*
X637056Y562028D01*
X636984Y562045D01*
X636894Y562078D01*
X636822Y562106D01*
X636732Y562128D01*
X636604Y562145D01*
X636548Y562156D01*
X636486Y562173D01*
X636408Y562196D01*
X636335Y562212D01*
X636184Y562229D01*
X635938Y562240D01*
X635279Y562229D01*
X635245Y562218D01*
X635150Y562201D01*
X635094Y562190D01*
X635033Y562173D01*
X634899Y562140D01*
X624154D01*
X620867Y562151D01*
X620839Y562179D01*
X620850Y562223D01*
X620906Y562302D01*
X620918Y562346D01*
X620996Y562458D01*
X621007Y562503D01*
X621063Y562604D01*
X621085Y562626D01*
X621108Y562682D01*
X621136Y562755D01*
X621208Y562861D01*
X621247Y562967D01*
X621287Y563006D01*
X621298Y563028D01*
X621331Y563107D01*
X621387Y563207D01*
X621410Y563230D01*
X621432Y563286D01*
X621460Y563358D01*
X621488Y563397D01*
X621510Y563420D01*
X621544Y563498D01*
X621572Y563571D01*
X621611Y563610D01*
X621622Y563632D01*
X621667Y563744D01*
X621678Y563766D01*
X621728Y563828D01*
X621756Y563889D01*
X621767Y563934D01*
X621823Y564012D01*
X621868Y564113D01*
X621913Y564191D01*
X621957Y564258D01*
X621996Y564365D01*
X622013Y564381D01*
X622024Y564404D01*
X622058Y564437D01*
X622103Y564560D01*
X622153Y564622D01*
X622181Y564683D01*
X622209Y564756D01*
X622237Y564795D01*
X622259Y564817D01*
X622293Y564896D01*
X622321Y564968D01*
X622337Y564985D01*
X622349Y565007D01*
X622382Y565041D01*
X622393Y565086D01*
X622416Y565141D01*
X622427Y565164D01*
X622494Y565265D01*
X622522Y565337D01*
X622561Y565399D01*
X622606Y565466D01*
X622617Y565510D01*
X622673Y565611D01*
X622695Y565633D01*
X622718Y565689D01*
X622746Y565762D01*
X622774Y565801D01*
X622796Y565824D01*
X622807Y565846D01*
X622830Y565902D01*
X622857Y565974D01*
X622896Y566014D01*
X622908Y566036D01*
X622941Y566114D01*
X622964Y566170D01*
X623014Y566232D01*
X623042Y566293D01*
X623070Y566366D01*
X623098Y566405D01*
X623120Y566427D01*
X623131Y566450D01*
X623154Y566506D01*
X623182Y566578D01*
X623221Y566617D01*
X623232Y566640D01*
X623254Y566696D01*
X623282Y566768D01*
X623299Y566785D01*
X623310Y566807D01*
X623344Y566841D01*
X623383Y566947D01*
X623422Y567009D01*
X623467Y567076D01*
X623484Y567137D01*
X623523Y567199D01*
X623567Y567266D01*
X623606Y567372D01*
X623623Y567389D01*
X623634Y567411D01*
X623668Y567445D01*
X623713Y567568D01*
X623763Y567629D01*
X623791Y567691D01*
X623819Y567763D01*
X623880Y567847D01*
X623903Y567903D01*
X623931Y567976D01*
X623947Y567993D01*
X623959Y568015D01*
X623992Y568048D01*
X624003Y568093D01*
X624026Y568149D01*
X624037Y568171D01*
X624087Y568233D01*
X624115Y568306D01*
X624138Y568361D01*
X624149Y568384D01*
X624182Y568417D01*
X624193Y568440D01*
X624227Y568518D01*
X624283Y568619D01*
X624305Y568641D01*
X624328Y568697D01*
X624356Y568769D01*
X624384Y568809D01*
X624406Y568831D01*
X624439Y568909D01*
X624467Y568982D01*
X624495Y569010D01*
X624506Y569032D01*
X624529Y569055D01*
X624574Y569178D01*
X624624Y569239D01*
X624652Y569301D01*
X624680Y569373D01*
X624708Y569412D01*
X624730Y569435D01*
X624764Y569513D01*
X624792Y569586D01*
X624831Y569625D01*
X624842Y569647D01*
X624864Y569703D01*
X624892Y569776D01*
X624909Y569793D01*
X624920Y569815D01*
X624954Y569848D01*
X624993Y569955D01*
X625032Y570016D01*
X625054Y570038D01*
X625077Y570094D01*
X625105Y570167D01*
X625144Y570217D01*
X625155Y570240D01*
X625200Y570340D01*
X625244Y570419D01*
X625278Y570452D01*
X625328Y570592D01*
X625379Y570642D01*
X625401Y570698D01*
X625429Y570771D01*
X625457Y570810D01*
X625479Y570832D01*
X625513Y570911D01*
X625541Y570983D01*
X625557Y571000D01*
X625569Y571022D01*
X625602Y571056D01*
X625613Y571101D01*
X625636Y571157D01*
X625647Y571179D01*
X625697Y571240D01*
X625725Y571302D01*
X625736Y571347D01*
X625770Y571403D01*
X625792Y571425D01*
X625803Y571447D01*
X625837Y571525D01*
X625893Y571626D01*
X625915Y571648D01*
X625938Y571704D01*
X625966Y571777D01*
X625993Y571816D01*
X626016Y571838D01*
X626027Y571861D01*
X626049Y571917D01*
X626077Y571990D01*
X626105Y572017D01*
X626116Y572040D01*
X626139Y572062D01*
X626184Y572185D01*
X626234Y572247D01*
X626262Y572308D01*
X626290Y572381D01*
X626318Y572420D01*
X626340Y572442D01*
X626374Y572520D01*
X626402Y572593D01*
X626441Y572632D01*
X626452Y572655D01*
X626474Y572711D01*
X626502Y572783D01*
X626519Y572800D01*
X626530Y572822D01*
X626564Y572856D01*
X626603Y572962D01*
X626642Y573024D01*
X626664Y573046D01*
X626687Y573102D01*
X626715Y573175D01*
X626743Y573214D01*
X626787Y573281D01*
X626826Y573387D01*
X626843Y573404D01*
X626854Y573426D01*
X626888Y573460D01*
X626933Y573583D01*
X626983Y573644D01*
X627011Y573706D01*
X627039Y573778D01*
X627067Y573817D01*
X627089Y573840D01*
X627123Y573918D01*
X627151Y573991D01*
X627167Y574007D01*
X627179Y574030D01*
X627212Y574063D01*
X627229Y574125D01*
X627268Y574209D01*
X627302Y574242D01*
X627313Y574265D01*
X627357Y574376D01*
X627369Y574399D01*
X627402Y574432D01*
X627413Y574455D01*
X627447Y574533D01*
X627503Y574634D01*
X627525Y574656D01*
X627548Y574712D01*
X627575Y574785D01*
X627603Y574824D01*
X627626Y574846D01*
X627659Y574924D01*
X627687Y574997D01*
X627715Y575025D01*
X627726Y575047D01*
X627749Y575070D01*
X627788Y575176D01*
X627827Y575237D01*
X627849Y575260D01*
X627872Y575316D01*
X627900Y575388D01*
X627928Y575427D01*
X627950Y575450D01*
X627995Y575562D01*
X628028Y575617D01*
X628051Y575640D01*
X628062Y575662D01*
X628084Y575718D01*
X628112Y575791D01*
X628129Y575807D01*
X628140Y575830D01*
X628174Y575863D01*
X628213Y575970D01*
X628252Y576031D01*
X628274Y576054D01*
X628297Y576109D01*
X628325Y576182D01*
X628353Y576221D01*
X628397Y576288D01*
X628436Y576395D01*
X628453Y576411D01*
X628464Y576434D01*
X628487Y576456D01*
X628520Y576534D01*
X628548Y576607D01*
X628599Y576657D01*
X628621Y576713D01*
X628649Y576786D01*
X628677Y576825D01*
X628722Y576892D01*
X628761Y576998D01*
X628789Y577037D01*
X628822Y577071D01*
X628839Y577132D01*
X628861Y577188D01*
X628889Y577227D01*
X628923Y577261D01*
X628962Y577367D01*
X628979Y577406D01*
X629001Y577429D01*
X629012Y577451D01*
X629035Y577473D01*
X629074Y577580D01*
X629113Y577641D01*
X629135Y577663D01*
X629157Y577719D01*
X629185Y577792D01*
X629213Y577831D01*
X629236Y577854D01*
X629269Y577932D01*
X629297Y578004D01*
X629325Y578032D01*
X629336Y578055D01*
X629359Y578077D01*
X629370Y578122D01*
X629392Y578178D01*
X629403Y578200D01*
X629454Y578262D01*
X629482Y578323D01*
X629510Y578396D01*
X629538Y578435D01*
X629560Y578457D01*
X629594Y578535D01*
X629622Y578608D01*
X629661Y578647D01*
X629672Y578670D01*
X629694Y578726D01*
X629722Y578798D01*
X629739Y578815D01*
X629750Y578837D01*
X629784Y578871D01*
X629823Y578977D01*
X629862Y579039D01*
X629907Y579106D01*
X629923Y579167D01*
X629979Y579257D01*
X629996Y579273D01*
X630018Y579329D01*
X630046Y579402D01*
X630074Y579441D01*
X630097Y579464D01*
X630130Y579542D01*
X630158Y579614D01*
X630197Y579654D01*
X630209Y579676D01*
X630242Y579754D01*
X630287Y579832D01*
X630331Y579900D01*
X630371Y580006D01*
X630387Y580023D01*
X630398Y580045D01*
X630421Y580067D01*
X630443Y580123D01*
X630471Y580196D01*
X630499Y580235D01*
X630522Y580257D01*
X630533Y580280D01*
X630577Y580392D01*
X630589Y580414D01*
X630611Y580436D01*
X630622Y580459D01*
X630644Y580481D01*
X630684Y580587D01*
X630723Y580649D01*
X630745Y580671D01*
X630768Y580727D01*
X630795Y580799D01*
X630823Y580839D01*
X630846Y580861D01*
X630879Y580939D01*
X630907Y581012D01*
X630935Y581040D01*
X630946Y581062D01*
X630969Y581085D01*
X631013Y581208D01*
X631064Y581269D01*
X631092Y581331D01*
X631120Y581403D01*
X631148Y581442D01*
X631170Y581465D01*
X631203Y581543D01*
X631231Y581616D01*
X631271Y581655D01*
X631282Y581677D01*
X631304Y581733D01*
X631332Y581806D01*
X631349Y581823D01*
X631360Y581845D01*
X631394Y581879D01*
X631433Y581985D01*
X631472Y582046D01*
X631494Y582068D01*
X631517Y582124D01*
X631544Y582197D01*
X631589Y582264D01*
X631606Y582281D01*
X631628Y582337D01*
X631656Y582410D01*
X631684Y582449D01*
X631707Y582471D01*
X631740Y582549D01*
X631768Y582622D01*
X631807Y582661D01*
X631818Y582683D01*
X631852Y582762D01*
X631897Y582840D01*
X631941Y582907D01*
X631981Y583013D01*
X631997Y583030D01*
X632009Y583052D01*
X632031Y583075D01*
X632053Y583131D01*
X632081Y583203D01*
X632109Y583242D01*
X632132Y583265D01*
X632143Y583287D01*
X632165Y583343D01*
X632193Y583416D01*
X632221Y583444D01*
X632232Y583466D01*
X632254Y583488D01*
X632294Y583595D01*
X632333Y583656D01*
X632355Y583679D01*
X632377Y583734D01*
X632405Y583807D01*
X632433Y583846D01*
X632456Y583869D01*
X632489Y583947D01*
X632517Y584020D01*
X632545Y584047D01*
X632556Y584070D01*
X632579Y584092D01*
X632623Y584215D01*
X632674Y584277D01*
X632702Y584338D01*
X632730Y584411D01*
X632758Y584450D01*
X632780Y584472D01*
X632813Y584551D01*
X632825Y584595D01*
X632875Y584657D01*
X632903Y584707D01*
X632942Y584813D01*
X632959Y584830D01*
X632970Y584852D01*
X633004Y584886D01*
X633048Y585009D01*
X633126Y585121D01*
X633143Y585182D01*
X633182Y585244D01*
X633227Y585311D01*
X633266Y585417D01*
X633294Y585456D01*
X633317Y585479D01*
X633350Y585557D01*
X633378Y585630D01*
X633417Y585669D01*
X633428Y585691D01*
X633462Y585769D01*
X633484Y585825D01*
X633518Y585859D01*
X633529Y585881D01*
X633574Y585982D01*
X633619Y586060D01*
X633641Y586082D01*
X633663Y586138D01*
X633691Y586211D01*
X633719Y586250D01*
X633741Y586272D01*
X633753Y586295D01*
X633775Y586351D01*
X633803Y586423D01*
X633842Y586462D01*
X633853Y586485D01*
X633887Y586563D01*
X633943Y586664D01*
X633965Y586686D01*
X633987Y586742D01*
X634015Y586815D01*
X634043Y586854D01*
X634066Y586876D01*
X634099Y586954D01*
X634127Y587027D01*
X634155Y587055D01*
X634166Y587077D01*
X634189Y587100D01*
X634233Y587223D01*
X634284Y587284D01*
X634312Y587346D01*
X634340Y587418D01*
X634368Y587457D01*
X634390Y587480D01*
X634423Y587558D01*
X634435Y587603D01*
X634485Y587664D01*
X634513Y587715D01*
X634552Y587821D01*
X634569Y587838D01*
X634580Y587860D01*
X634613Y587893D01*
X634658Y588017D01*
X634737Y588128D01*
X634753Y588190D01*
X634809Y588279D01*
X634826Y588296D01*
X634848Y588352D01*
X634876Y588425D01*
X634938Y588508D01*
X634960Y588564D01*
X634988Y588637D01*
X635027Y588676D01*
X635038Y588699D01*
X635072Y588777D01*
X635094Y588833D01*
X635128Y588866D01*
X635139Y588889D01*
X635184Y588989D01*
X635228Y589067D01*
X635251Y589090D01*
X635273Y589146D01*
X635301Y589218D01*
X635329Y589258D01*
X635351Y589280D01*
X635363Y589302D01*
X635385Y589358D01*
X635413Y589431D01*
X635441Y589459D01*
X635452Y589481D01*
X635474Y589503D01*
X635513Y589610D01*
X635553Y589671D01*
X635575Y589693D01*
X635597Y589749D01*
X635625Y589822D01*
X635653Y589861D01*
X635676Y589884D01*
X635709Y589962D01*
X635737Y590034D01*
X635754Y590051D01*
X635765Y590074D01*
X635799Y590107D01*
X635810Y590152D01*
X635832Y590208D01*
X635843Y590230D01*
X635899Y590308D01*
X635944Y590431D01*
X635961Y590448D01*
D02*
G37*
%LPD*%
D10*
X732604Y584324D02*
G03*
X732604Y584324I-1250J0D01*
G01*
X699530Y410280D02*
G03*
X699530Y410280I-1250J0D01*
G01*
X696402Y450840D02*
G03*
X696402Y450840I-1250J0D01*
G01*
D11*
X610896Y405236D02*
X613396D01*
X610896D02*
Y407736D01*
X643396Y405236D02*
X645896D01*
Y407736D01*
X610896Y447736D02*
Y450236D01*
X613396D01*
X645896Y447736D02*
Y450236D01*
X643396D02*
X645896D01*
D12*
X634396Y456736D02*
G03*
X636396Y456736I1000J0D01*
G01*
D02*
G03*
X634396Y456736I-1000J0D01*
G01*
X850730Y653176D02*
X861230D01*
X850730Y639176D02*
X861230D01*
X832442Y648066D02*
X842942D01*
X832442Y662066D02*
X842942D01*
X850476D02*
X860976D01*
X850476Y648066D02*
X860976D01*
X700604Y531824D02*
X709604D01*
X700604Y588824D02*
X709604D01*
X723280Y391780D02*
X731280D01*
Y400780D01*
X701280Y391780D02*
X709280D01*
X701280D02*
Y400780D01*
X903478Y560832D02*
G03*
X903478Y560832I-196596J0D01*
G01*
D13*
X782066Y518171D02*
X772576D01*
X777321D01*
Y503936D01*
X758340Y518171D02*
X767831D01*
Y503936D01*
X758340D01*
X767831Y511054D02*
X763085D01*
X753595Y518171D02*
Y503936D01*
X744105D01*
X739360Y518171D02*
X734615D01*
X736987D01*
Y503936D01*
X739360D01*
X734615D01*
X718007Y515799D02*
X720379Y518171D01*
X725124D01*
X727497Y515799D01*
Y506309D01*
X725124Y503936D01*
X720379D01*
X718007Y506309D01*
X699026Y503936D02*
Y513426D01*
X694281Y518171D01*
X689536Y513426D01*
Y503936D01*
Y511054D01*
X699026D01*
X684791Y518171D02*
X680046D01*
X682418D01*
Y503936D01*
X684791D01*
X680046D01*
X672928D02*
Y518171D01*
X665810D01*
X663438Y515799D01*
Y511054D01*
X665810Y508681D01*
X672928D01*
X668183D02*
X663438Y503936D01*
X649202Y518171D02*
X658692D01*
Y511054D01*
X653947D01*
X658692D01*
Y503936D01*
X644457D02*
Y518171D01*
X637339D01*
X634967Y515799D01*
Y511054D01*
X637339Y508681D01*
X644457D01*
X639712D02*
X634967Y503936D01*
X630222D02*
Y513426D01*
X625476Y518171D01*
X620731Y513426D01*
Y503936D01*
Y511054D01*
X630222D01*
X615986Y503936D02*
Y518171D01*
X611241Y513426D01*
X606496Y518171D01*
Y503936D01*
X592261Y518171D02*
X601751D01*
Y503936D01*
X592261D01*
X601751Y511054D02*
X597006D01*
X570788Y453340D02*
X565017Y450008D01*
X713489Y428497D02*
Y438654D01*
X716029Y441193D01*
X721107D01*
X723646Y438654D01*
Y428497D01*
X721107Y425958D01*
X716029D01*
X718568Y431036D02*
X713489Y425958D01*
X716029D02*
X713489Y428497D01*
X700793Y425958D02*
Y441193D01*
X708411Y433576D01*
X698254D01*
X709930Y617723D02*
Y605027D01*
X707391Y602488D01*
X702312D01*
X699773Y605027D01*
Y617723D01*
X687077Y602488D02*
Y617723D01*
X694695Y610106D01*
X684538D01*
D103*
X740707Y529542D02*
X734042D01*
X730710Y532874D01*
X734042Y536207D01*
X740707D01*
X739041Y549536D02*
X740707Y551202D01*
Y554534D01*
X739041Y556200D01*
X732376D01*
X730710Y554534D01*
Y551202D01*
X732376Y549536D01*
X739041D01*
X730710Y559532D02*
X732376D01*
Y561199D01*
X730710D01*
Y559532D01*
Y574528D02*
Y567863D01*
X737374Y574528D01*
X739041D01*
X740707Y572861D01*
Y569529D01*
X739041Y567863D01*
X730710Y577860D02*
Y581192D01*
Y579526D01*
X740707D01*
X739041Y577860D01*
X730710Y592855D02*
Y586190D01*
X737374Y592855D01*
X739041D01*
X740707Y591189D01*
Y587856D01*
X739041Y586190D01*
D104*
X552508Y494270D02*
X552813Y495408D01*
X554256Y496241D01*
X555394Y495937D01*
X557060Y493051D01*
X556755Y491913D01*
X555312Y491080D01*
X554174Y491385D01*
X552427Y489413D02*
X550984Y488581D01*
X549846Y488885D01*
X549013Y490328D01*
X549318Y491466D01*
X550760Y492299D01*
X551898Y491994D01*
X552732Y490551D01*
X552427Y489413D01*
X548819Y487331D02*
X547377Y486498D01*
X548098Y486914D01*
X546432Y489800D01*
X547153Y490217D01*
X545212Y485248D02*
X543769Y484415D01*
X544491Y484832D01*
X541991Y489160D01*
X542713Y489577D01*
X540355Y485330D02*
X537469Y483664D01*
X538079Y485940D02*
X539745Y483054D01*
M02*
