M48
;Layer_Color=9474304
;FILE_FORMAT=4:4
METRIC,LZ
;TYPE=PLATED
T1F00S00C0.1000
T2F00S00C0.2000
T3F00S00C0.3000
%
T01
X00795377Y00400248
Y00402748
Y00405248
Y00407748
Y00410248
Y00412748
Y00415248
Y00417748
Y00420248
Y00422748
Y00425248
Y00427748
Y00430248
Y00432748
Y00435248
Y00437748
Y00440248
Y00442748
Y00445248
Y00447748
Y00450248
Y00452748
Y00455248
Y00457748
Y00460248
Y00462748
X00793822Y00464706
X00795229Y00473063
X00795377Y00475558
Y00478058
Y00480558
Y00483058
Y00485558
Y00488058
Y00490558
Y00493058
Y00495558
Y00498058
Y00500558
Y00503058
Y00505558
Y00508058
Y00510558
Y00513058
Y00515558
Y00518058
Y00520558
Y00523058
Y00525558
Y00528058
Y00530558
Y00533058
Y00535558
Y00538058
Y00540558
Y00543058
Y00545558
Y00548058
Y00550558
Y00553058
Y00555558
Y00558058
Y00560558
Y00563058
Y00565558
Y00568058
Y00570558
Y00573058
Y00575558
Y00578058
Y00580558
Y00583058
Y00585558
Y00588058
Y00590558
Y00593058
Y00595558
Y00598058
Y00600558
Y00603058
Y00605558
Y00608058
Y00610558
Y00613058
X00803734Y00613943
Y00611443
Y00608943
Y00606443
Y00603943
Y00601443
Y00598943
Y00596443
Y00593943
Y00591443
Y00588944
Y00586444
Y00583944
Y00581444
Y00578944
Y00576444
Y00573944
Y00571444
Y00568944
Y00566444
Y00563944
Y00561444
Y00558944
Y00556444
Y00553944
Y00551444
Y00548944
Y00546444
Y00543944
Y00541444
Y00538944
Y00536444
Y00533944
Y00531444
Y00528944
Y00526444
Y00523944
Y00521444
Y00518944
Y00516444
Y00513944
Y00511444
Y00508944
Y00506444
Y00503944
Y00501444
Y00498944
Y00496444
Y00493944
Y00491444
Y00488944
Y00486444
Y00483944
Y00481444
Y00478944
Y00476444
Y00473944
Y00471444
Y00468944
Y00466444
Y00463944
Y00461444
Y00458944
Y00456444
Y00453944
Y00451444
Y00448944
Y00446444
Y00443944
Y00441444
Y00438944
Y00436444
Y00433944
Y00431444
Y00428944
Y00426444
Y00423944
Y00421444
Y00418944
Y00416444
Y00413944
Y00411444
Y00408944
Y00406444
X00806062Y00614856
X00808562
X00811056Y00615021
X008128Y0061595
X00818513Y00621541
X00819433Y00623865
X00819482Y00626365
Y00628865
Y00631365
Y00633865
Y00636365
Y00638865
Y00641365
Y00643865
Y00646365
Y00648865
Y00651365
Y00653865
Y00656365
Y00658865
Y00661365
Y00663865
Y00666365
Y00668865
Y00671365
Y00673865
Y00676365
Y00678865
Y00681365
Y00683865
Y00686365
Y00688865
Y00691365
Y00693865
Y00696365
Y00698865
Y00701365
Y00703865
X00811125Y00703372
Y00705872
Y00708372
Y00710872
Y00700872
Y00698372
Y00695872
Y00693372
Y00690872
Y00688372
Y00685872
Y00683372
Y00680872
Y00678372
Y00675872
Y00673372
Y00670872
Y00668372
Y00665872
Y00663372
Y00660872
Y00658372
Y00655872
Y00653372
Y00650872
Y00648372
Y00645872
Y00643372
Y00640872
Y00638372
Y00635872
Y00633372
Y00630872
Y00628372
X00809463Y00625499
X00807031Y00623213
X00803621
X00800573
X0079756Y00623316
X00794766
X00792191Y00623213
X00789651
X00787111
X00784571
X00782031
X00779531
X00777031
X00774531
X00772031
X00769531
X00767031
X00764531
X00762031
X00759531
X00757031
X00754531
X00752031
X00749531
X00747031
X00744531
X00742031
X00739531
X00737031
X00734531
X00732031
X00729531
X00727031
X00724531
X00722031
X00719531
X00717031
X00714531
X00712031
X00709641
X00707101
X00704307
X00701513
X00699227
X00696941
X00694401
X00692115
X00689575
X00687148Y0062397
Y0062647
Y0062897
Y0063147
Y0063397
Y0063647
Y0063897
Y0064147
Y0064397
Y0064647
Y0064897
Y0065147
Y0065397
Y0065647
Y0065897
Y0066147
Y0066397
Y0066647
Y0066897
Y0067147
Y0067397
Y0067647
Y0067897
Y0068147
Y0068397
Y0068647
Y0068897
Y0069147
Y0069397
Y0069647
Y0069897
Y0070147
Y0070397
Y0070647
Y0070897
Y0071147
X00687067Y00713969
X00686088Y00716269
X00682074Y00719107
X0067773Y00719225
X0067523
X0067273
X0067023
X0066773
X0066523
X0066273
X0066023
X0065773
X0065523
X0065273
X0065023
X0064773
X0064523
X0064273
X0064023
X0063773
X0063523
X0063273
X0063023
X0062773
X0062523
X0062273
X0062023
X0061773
X0061523
X0061635Y00710868
X0061885
X0062135
X0062385
X0062635
X0062885
X0063135
X0063385
X0063635
X0063885
X0064135
X0064385
X0064635
X0064885
X0065135
X0065385
X0065635
X0065885
X0066135
X0066385
X0066635
X0066885
X0067135
X0067385
X0067635
X00678791Y00710331
Y00707831
Y00705331
Y00702831
Y00700331
Y00697831
Y00695331
Y00692831
Y00690331
Y00687831
Y00685331
Y00682831
Y00680331
Y00677831
Y00675331
Y00672831
Y00670331
Y00667831
Y00665331
Y00662831
Y00660331
Y00657831
Y00655331
Y00652831
Y00650331
Y00647831
Y00645331
Y00642831
Y00640331
Y00637831
Y00635331
Y00632831
Y00630331
Y00627831
Y00625331
Y00622831
X00678829Y00620331
X00679727Y00617998
X00680974Y00616204
X0068326Y00615188
X006858Y00614934
X0068864Y00614856
X0069114
X0069364
X0069614
X0069864
X0070114
X0070364
X0070614
X0070864
X0071114
X0071364
X0071614
X0071864
X0072114
X0072364
X0072614
X0072864
X0073114
X0073364
X0073614
X0073864
X0074114
X0074364
X0074614
X0074864
X0075114
X0075364
X0075614
X0075864
X0076114
X0076364
X0076614
X0076864
X0077114
X0077364
X0077614
X0077864
X0078114
X0078364
X0078614
X0078864
X0079114
X0079364
X00792729Y00473063
X00790229
X00787729
X00785229
X00782729
X00780229
X00777729
X00775229
X00772729
X00770229
X00767729
X00765229
X00762729
X00760229
X00757729
X00755229
X00752729
X00750229
X00747729
X00745229
X00742729
X00740229
X00737729
X00735229
X00732729
X00730229
X00727729
X00725229
X00722729
X00720229
X00717729
X00715229
X00712729
X00710229
X00707729
X00705229
X00702729
X00700229
X00697729
X00695229
X00692729
X00690229
X00687729
X00685229
X00682729
X00680229
X00677729
X00675229
X00672729
X00670229
X00667729
X00665229
X00662729
X00660229
X00657729
X00655229
X00652729
X00650229
X00647729
X00645229
X00642729
X00640229
X00637729
X00635229
X00632729
X00630229
X00627729
X00625229
X00622729
X00620229
X00617729
X00615229
X00612729
X00610229
X00607729
X00605229
X00602729
X00600236Y00472875
X0059817Y00471424
X00596375Y00469807
X00595526Y00467455
X00595514Y00464955
Y00462455
Y00459955
Y00457455
Y00454955
Y00452455
Y00449955
Y00447455
Y00444955
Y00442455
Y00439955
Y00437455
Y00434955
Y00432455
Y00429955
Y00427455
Y00424955
Y00422455
Y00419955
Y00417455
Y00414955
X00603871Y00414212
Y00416712
Y00419212
Y00421712
Y00424212
Y00426712
Y00429212
Y00431712
Y00434212
Y00436712
Y00439212
Y00441712
Y00444212
Y00446712
Y00449212
Y00451712
Y00454212
Y00456712
Y00459212
Y00461712
Y00464212
X00606322Y00464706
X00608822
X00611322
X00613822
X00616322
X00618822
X00621322
X00623822
X00626322
X00628822
X00631322
X00633822
X00636322
X00638822
X00641322
X00643822
X00646322
X00648822
X00651322
X00653822
X00656322
X00658822
X00661322
X00663822
X00666322
X00668822
X00671322
X00673822
X00676322
X00678822
X00681322
X00683822
X00686322
X00688822
X00691322
X00693822
X00696322
X00698822
X00701322
X00703822
X00706322
X00708822
X00711322
X00713822
X00716322
X00718822
X00721322
X00723822
X00726322
X00728822
X00731322
X00733822
X00736322
X00738822
X00741322
X00743822
X00746322
X00748822
X00751322
X00753822
X00756322
X00758822
X00761322
X00763822
X00766322
X00768822
X00771322
X00773822
X00776322
X00778822
X00781322
X00783822
X00786322
X00788822
X00791322
X00603871Y00411712
Y00409212
X0060385Y00710868
X0060635
X0060885
X0061135
X0061385
X0060135
T02
X00833892Y00571764
Y00582764
X00844892
X00855892
Y00571764
X00844892
Y00593764
X00833892
Y00604764
X00844892
X00855892
Y00593764
X00866892
Y00582764
Y00571764
Y00604764
T03
X006136Y0039338
X00623561Y00388259
X00633791Y003837
X00644259Y00379717
X00654932Y00376324
X00665785Y00373554
X00676802Y0037154
X00687914Y00370142
X00699087Y00369365
X00710286Y00369211
X00721477Y0036968
X00732612Y00370877
X00743653Y0037276
X00754571Y00375255
X00765334Y00378353
X00775908Y00382046
X00786255Y00386332
X00796276Y00391335
X00806003Y00396887
X00815406Y00402972
X00824455Y00409571
X00833123Y00416664
X0084132Y00424295
X0084902Y00432429
X00856255Y00440978
X00863004Y00449917
X00869244Y00459217
X00874957Y00468851
X0087997Y00478866
X00884417Y00489145
X00888285Y00499656
X00891561Y00510366
X00894237Y00521242
X00896226Y00532264
X00897502Y00543391
X00898156Y00554572
X00898188Y00565772
X00897596Y00576956
X00896383Y0058809
X00894395Y00599112
X00891781Y00610003
X00888565Y00620731
X00884756Y00631264
X00880368Y00641568
X00875355Y00651584
X00869696Y00661249
X00863508Y00670584
X00856811Y00679561
X00849624Y00688151
X0084197Y00696328
X00833773Y0070396
X00825145Y00711101
X00816133Y00717751
X0080645Y00724154
X00797069Y00729496
X00787054Y0073451
X00776727Y00738843
X00766174Y00742596
X00755429Y00745755
X00744524Y00748311
X00733494Y00750257
X00722359Y00751454
X00695653Y00751741
X006845Y00750719
X0067342Y00749078
X0066245Y00746823
X00651622Y00743961
X00640995Y00740425
X00630617Y00736214
X00620489Y00731432
X00610643Y00726094
X00601109Y00720216
X00591917Y00713817
X00583196Y00706789
X00574889Y00699277
X00567013Y00691315
X00559592Y00682926
X0055265Y00674137
X00546262Y00664937
X00540489Y0065534
X00535259Y00645436
X00530589Y00635256
X00526492Y00624832
X00522981Y00614197
X00520211Y00603345
X00518077Y0059235
X00516557Y00581254
X00515658Y0057009
X00515381Y00558893
X00515781Y005477
X00516925Y00536559
X00518687Y00525499
X00521062Y00514553
X00524042Y00503757
X00527618Y00493143
X00531904Y00482796
X00536956Y00472694
X00542243Y00462934
X00548224Y00453465
X00554724Y00444344
X00561751Y00435623
X00569354Y00427399
X00577403Y00419611
X00585872Y00412282
X00594737Y00405437
X00603968Y00399095
M30
