G04*
G04 #@! TF.GenerationSoftware,Altium Limited,Altium Designer,22.6.1 (34)*
G04*
G04 Layer_Physical_Order=2*
G04 Layer_Color=16711680*
%FSLAX44Y44*%
%MOMM*%
G71*
G04*
G04 #@! TF.SameCoordinates,74DF644D-C5CC-47E8-8FD8-F3D1935BC2B4*
G04*
G04*
G04 #@! TF.FilePolarity,Positive*
G04*
G01*
G75*
%ADD11C,0.1000*%
%ADD12C,0.2000*%
%ADD83C,0.8000*%
%ADD84C,0.6000*%
%ADD85C,0.5000*%
%ADD86C,0.1500*%
%ADD87R,0.6500X0.6500*%
%ADD88R,0.6000X0.6000*%
%ADD89R,0.7500X0.3500*%
%ADD90R,0.6000X1.0500*%
%ADD91R,0.7500X0.3000*%
%ADD92R,1.9000X2.6000*%
%ADD93R,2.0500X3.0500*%
%ADD94R,0.2400X0.6000*%
%ADD95R,0.6000X0.2400*%
D11*
X823272Y688865D02*
G03*
X823060Y690115I-3790J0D01*
G01*
D02*
G03*
X823272Y691365I-3578J1250D01*
G01*
X846253Y681088D02*
G03*
X823248Y703438I-139407J-120474D01*
G01*
X823060Y687615D02*
G03*
X823272Y688865I-3578J1250D01*
G01*
Y693865D02*
G03*
X823060Y695115I-3790J0D01*
G01*
D02*
G03*
X823272Y696365I-3578J1250D01*
G01*
Y691365D02*
G03*
X823060Y692615I-3790J0D01*
G01*
D02*
G03*
X823272Y693865I-3578J1250D01*
G01*
Y681365D02*
G03*
X823060Y682615I-3790J0D01*
G01*
D02*
G03*
X823272Y683865I-3578J1250D01*
G01*
X823060Y680115D02*
G03*
X823272Y681365I-3578J1250D01*
G01*
X823060Y685115D02*
G03*
X823272Y686365I-3578J1250D01*
G01*
D02*
G03*
X823060Y687615I-3790J0D01*
G01*
X823272Y683865D02*
G03*
X823060Y685115I-3790J0D01*
G01*
Y700115D02*
G03*
X823272Y701365I-3578J1250D01*
G01*
D02*
G03*
X823060Y702615I-3790J0D01*
G01*
Y697615D02*
G03*
X823272Y698865I-3578J1250D01*
G01*
D02*
G03*
X823060Y700115I-3790J0D01*
G01*
Y702615D02*
G03*
X823248Y703438I-3578J1250D01*
G01*
X815904Y702615D02*
G03*
X815904Y700115I3578J-1250D01*
G01*
D02*
G03*
X815904Y697615I3578J-1250D01*
G01*
X823272Y696365D02*
G03*
X823060Y697615I-3790J0D01*
G01*
X815904Y690115D02*
G03*
X815904Y687615I3578J-1250D01*
G01*
Y685115D02*
G03*
X815904Y682615I3578J-1250D01*
G01*
Y687615D02*
G03*
X815904Y685115I3578J-1250D01*
G01*
Y695115D02*
G03*
X815904Y692615I3578J-1250D01*
G01*
Y697615D02*
G03*
X815904Y695115I3578J-1250D01*
G01*
Y692615D02*
G03*
X815904Y690115I3578J-1250D01*
G01*
X861279Y661106D02*
G03*
X854142Y671303I-154433J-100492D01*
G01*
X823060Y670115D02*
G03*
X823272Y671365I-3578J1250D01*
G01*
X823060Y667615D02*
G03*
X823272Y668865I-3578J1250D01*
G01*
D02*
G03*
X823060Y670115I-3790J0D01*
G01*
X823272Y666365D02*
G03*
X823060Y667615I-3790J0D01*
G01*
Y677615D02*
G03*
X823272Y678865I-3578J1250D01*
G01*
D02*
G03*
X823060Y680115I-3790J0D01*
G01*
Y675115D02*
G03*
X823272Y676365I-3578J1250D01*
G01*
D02*
G03*
X823060Y677615I-3790J0D01*
G01*
X815904Y680115D02*
G03*
X815904Y677615I3578J-1250D01*
G01*
Y682615D02*
G03*
X815904Y680115I3578J-1250D01*
G01*
Y677615D02*
G03*
X815904Y675115I3578J-1250D01*
G01*
X823060Y672615D02*
G03*
X823272Y673865I-3578J1250D01*
G01*
D02*
G03*
X823060Y675115I-3790J0D01*
G01*
X823272Y671365D02*
G03*
X823060Y672615I-3790J0D01*
G01*
X815904Y667615D02*
G03*
X815904Y665115I3578J-1250D01*
G01*
Y672615D02*
G03*
X815904Y670115I3578J-1250D01*
G01*
Y675115D02*
G03*
X815904Y672615I3578J-1250D01*
G01*
Y670115D02*
G03*
X815904Y667615I3578J-1250D01*
G01*
X818180Y707424D02*
G03*
X815904Y702615I1303J-3559D01*
G01*
X818180Y707424D02*
G03*
X814796Y709929I-111334J-146810D01*
G01*
X814703Y697122D02*
G03*
X814915Y698372I-3578J1250D01*
G01*
D02*
G03*
X814703Y699622I-3790J0D01*
G01*
X814915Y700872D02*
G03*
X814703Y702122I-3790J0D01*
G01*
D02*
G03*
X814915Y703372I-3578J1250D01*
G01*
X814703Y699622D02*
G03*
X814915Y700872I-3578J1250D01*
G01*
Y690872D02*
G03*
X814703Y692122I-3790J0D01*
G01*
D02*
G03*
X814915Y693372I-3578J1250D01*
G01*
Y688372D02*
G03*
X814703Y689622I-3790J0D01*
G01*
D02*
G03*
X814915Y690872I-3578J1250D01*
G01*
X814703Y694622D02*
G03*
X814915Y695872I-3578J1250D01*
G01*
D02*
G03*
X814703Y697122I-3790J0D01*
G01*
X814915Y693372D02*
G03*
X814703Y694622I-3790J0D01*
G01*
Y707122D02*
G03*
X814915Y708372I-3578J1250D01*
G01*
D02*
G03*
X814703Y709622I-3790J0D01*
G01*
Y704622D02*
G03*
X814915Y705872I-3578J1250D01*
G01*
D02*
G03*
X814703Y707122I-3790J0D01*
G01*
X808958Y713981D02*
G03*
X807547Y709622I2167J-3109D01*
G01*
D02*
G03*
X807547Y707122I3578J-1250D01*
G01*
D02*
G03*
X807547Y704622I3578J-1250D01*
G01*
X814915Y703372D02*
G03*
X814703Y704622I-3790J0D01*
G01*
X807547Y697122D02*
G03*
X807547Y694622I3578J-1250D01*
G01*
Y692122D02*
G03*
X807547Y689622I3578J-1250D01*
G01*
Y694622D02*
G03*
X807547Y692122I3578J-1250D01*
G01*
Y702122D02*
G03*
X807547Y699622I3578J-1250D01*
G01*
Y704622D02*
G03*
X807547Y702122I3578J-1250D01*
G01*
Y699622D02*
G03*
X807547Y697122I3578J-1250D01*
G01*
X814703Y677122D02*
G03*
X814915Y678372I-3578J1250D01*
G01*
D02*
G03*
X814703Y679622I-3790J0D01*
G01*
Y674622D02*
G03*
X814915Y675872I-3578J1250D01*
G01*
D02*
G03*
X814703Y677122I-3790J0D01*
G01*
X814915Y680872D02*
G03*
X814703Y682122I-3790J0D01*
G01*
D02*
G03*
X814915Y683372I-3578J1250D01*
G01*
X814703Y679622D02*
G03*
X814915Y680872I-3578J1250D01*
G01*
Y668372D02*
G03*
X814703Y669622I-3790J0D01*
G01*
D02*
G03*
X814915Y670872I-3578J1250D01*
G01*
Y665872D02*
G03*
X814703Y667122I-3790J0D01*
G01*
D02*
G03*
X814915Y668372I-3578J1250D01*
G01*
X814703Y672122D02*
G03*
X814915Y673372I-3578J1250D01*
G01*
D02*
G03*
X814703Y674622I-3790J0D01*
G01*
X814915Y670872D02*
G03*
X814703Y672122I-3790J0D01*
G01*
X814915Y685872D02*
G03*
X814703Y687122I-3790J0D01*
G01*
D02*
G03*
X814915Y688372I-3578J1250D01*
G01*
Y683372D02*
G03*
X814703Y684622I-3790J0D01*
G01*
D02*
G03*
X814915Y685872I-3578J1250D01*
G01*
X807547Y687122D02*
G03*
X807547Y684622I3578J-1250D01*
G01*
Y689622D02*
G03*
X807547Y687122I3578J-1250D01*
G01*
Y684622D02*
G03*
X807547Y682122I3578J-1250D01*
G01*
Y672122D02*
G03*
X807547Y669622I3578J-1250D01*
G01*
Y674622D02*
G03*
X807547Y672122I3578J-1250D01*
G01*
Y667122D02*
G03*
X807547Y664622I3578J-1250D01*
G01*
Y669622D02*
G03*
X807547Y667122I3578J-1250D01*
G01*
Y679622D02*
G03*
X807547Y677122I3578J-1250D01*
G01*
Y682122D02*
G03*
X807547Y679622I3578J-1250D01*
G01*
Y677122D02*
G03*
X807547Y674622I3578J-1250D01*
G01*
X815904Y657615D02*
G03*
X815904Y655115I3578J-1250D01*
G01*
Y652615D02*
G03*
X815904Y650115I3578J-1250D01*
G01*
Y655115D02*
G03*
X815904Y652615I3578J-1250D01*
G01*
Y662615D02*
G03*
X815904Y660115I3578J-1250D01*
G01*
Y665115D02*
G03*
X815904Y662615I3578J-1250D01*
G01*
Y660115D02*
G03*
X815904Y657615I3578J-1250D01*
G01*
X823272Y641365D02*
G03*
X823060Y642615I-3790J0D01*
G01*
D02*
G03*
X823257Y643522I-3578J1250D01*
G01*
X815904Y647615D02*
G03*
X815904Y645115I3578J-1250D01*
G01*
Y650115D02*
G03*
X815904Y647615I3578J-1250D01*
G01*
Y645115D02*
G03*
X815904Y642615I3578J-1250D01*
G01*
X879809Y624111D02*
G03*
X867270Y651236I-172964J-63497D01*
G01*
X823272Y631365D02*
G03*
X823060Y632615I-3790J0D01*
G01*
X823272Y633865D02*
G03*
X823060Y635115I-3790J0D01*
G01*
D02*
G03*
X823272Y636365I-3578J1250D01*
G01*
X823060Y632615D02*
G03*
X823272Y633865I-3578J1250D01*
G01*
Y626365D02*
G03*
X823060Y627615I-3790J0D01*
G01*
D02*
G03*
X823272Y628865I-3578J1250D01*
G01*
X891096Y560614D02*
G03*
X886441Y601770I-184251J0D01*
G01*
X823272Y628865D02*
G03*
X823060Y630115I-3790J0D01*
G01*
D02*
G03*
X823272Y631365I-3578J1250D01*
G01*
X823035Y625044D02*
G03*
X823272Y626365I-3553J1321D01*
G01*
Y638865D02*
G03*
X823060Y640115I-3790J0D01*
G01*
D02*
G03*
X823272Y641365I-3578J1250D01*
G01*
Y636365D02*
G03*
X823060Y637615I-3790J0D01*
G01*
D02*
G03*
X823272Y638865I-3578J1250D01*
G01*
X815904Y640115D02*
G03*
X815904Y637615I3578J-1250D01*
G01*
Y642615D02*
G03*
X815904Y640115I3578J-1250D01*
G01*
Y637615D02*
G03*
X815904Y635115I3578J-1250D01*
G01*
Y630115D02*
G03*
X815904Y627615I3578J-1250D01*
G01*
Y632615D02*
G03*
X815904Y630115I3578J-1250D01*
G01*
X823215Y624111D02*
G03*
X823035Y625044I-3782J-246D01*
G01*
X815904Y627615D02*
G03*
X815880Y625186I3578J-1250D01*
G01*
X815904Y635115D02*
G03*
X815904Y632615I3578J-1250D01*
G01*
X815880Y625186D02*
G03*
X815646Y624019I3553J-1321D01*
G01*
X815433Y623749D02*
G03*
X815359Y619440I3080J-2208D01*
G01*
X814915Y653372D02*
G03*
X814703Y654622I-3790J0D01*
G01*
D02*
G03*
X814915Y655872I-3578J1250D01*
G01*
Y650872D02*
G03*
X814703Y652122I-3790J0D01*
G01*
D02*
G03*
X814915Y653372I-3578J1250D01*
G01*
X814703Y657122D02*
G03*
X814915Y658372I-3578J1250D01*
G01*
D02*
G03*
X814703Y659622I-3790J0D01*
G01*
X814915Y655872D02*
G03*
X814703Y657122I-3790J0D01*
G01*
Y644622D02*
G03*
X814915Y645872I-3578J1250D01*
G01*
D02*
G03*
X814703Y647122I-3790J0D01*
G01*
Y642122D02*
G03*
X814915Y643372I-3578J1250D01*
G01*
D02*
G03*
X814703Y644622I-3790J0D01*
G01*
X814915Y648372D02*
G03*
X814703Y649622I-3790J0D01*
G01*
D02*
G03*
X814915Y650872I-3578J1250D01*
G01*
X814703Y647122D02*
G03*
X814915Y648372I-3578J1250D01*
G01*
X814703Y662122D02*
G03*
X814915Y663372I-3578J1250D01*
G01*
D02*
G03*
X814703Y664622I-3790J0D01*
G01*
Y659622D02*
G03*
X814915Y660872I-3578J1250D01*
G01*
D02*
G03*
X814703Y662122I-3790J0D01*
G01*
Y664622D02*
G03*
X814915Y665872I-3578J1250D01*
G01*
X807547Y664622D02*
G03*
X807547Y662122I3578J-1250D01*
G01*
D02*
G03*
X807547Y659622I3578J-1250D01*
G01*
Y649622D02*
G03*
X807547Y647122I3578J-1250D01*
G01*
Y652122D02*
G03*
X807547Y649622I3578J-1250D01*
G01*
Y644622D02*
G03*
X807547Y642122I3578J-1250D01*
G01*
Y647122D02*
G03*
X807547Y644622I3578J-1250D01*
G01*
Y657122D02*
G03*
X807547Y654622I3578J-1250D01*
G01*
Y659622D02*
G03*
X807547Y657122I3578J-1250D01*
G01*
Y654622D02*
G03*
X807547Y652122I3578J-1250D01*
G01*
X814915Y635872D02*
G03*
X814703Y637122I-3790J0D01*
G01*
D02*
G03*
X814915Y638372I-3578J1250D01*
G01*
Y633372D02*
G03*
X814703Y634622I-3790J0D01*
G01*
D02*
G03*
X814915Y635872I-3578J1250D01*
G01*
X814703Y639622D02*
G03*
X814915Y640872I-3578J1250D01*
G01*
D02*
G03*
X814703Y642122I-3790J0D01*
G01*
X814915Y638372D02*
G03*
X814703Y639622I-3790J0D01*
G01*
X814915Y630872D02*
G03*
X814703Y632122I-3790J0D01*
G01*
D02*
G03*
X814915Y633372I-3578J1250D01*
G01*
Y628372D02*
G03*
X814703Y629622I-3790J0D01*
G01*
D02*
G03*
X814915Y630872I-3578J1250D01*
G01*
X815359Y618746D02*
G03*
X810208Y618715I-2559J-2796D01*
G01*
X813243Y625229D02*
G03*
X814915Y628372I-2118J3143D01*
G01*
X813648Y612256D02*
G03*
X815359Y613154I-848J3694D01*
G01*
X807547Y632122D02*
G03*
X807547Y629622I3578J-1250D01*
G01*
Y634622D02*
G03*
X807547Y632122I3578J-1250D01*
G01*
X810577Y621876D02*
G03*
X813243Y625229I-1115J3622D01*
G01*
X807547Y629622D02*
G03*
X807345Y628642I3578J-1250D01*
G01*
X807547Y639622D02*
G03*
X807547Y637122I3578J-1250D01*
G01*
Y642122D02*
G03*
X807547Y639622I3578J-1250D01*
G01*
Y637122D02*
G03*
X807547Y634622I3578J-1250D01*
G01*
X810046Y611368D02*
G03*
X813648Y612256I1010J3653D01*
G01*
X807517Y611213D02*
G03*
X810046Y611368I1045J3643D01*
G01*
X807524Y603943D02*
G03*
X807312Y605193I-3790J0D01*
G01*
Y607693D02*
G03*
X807524Y608943I-3578J1250D01*
G01*
X805326Y619828D02*
G03*
X810577Y621876I1705J3385D01*
G01*
X809572Y618509D02*
G03*
X807312Y618434I-1010J-3653D01*
G01*
X807524Y608943D02*
G03*
X807312Y610193I-3790J0D01*
G01*
X807345Y628642D02*
G03*
X805916Y626835I2118J-3143D01*
G01*
X802097Y626683D02*
G03*
X799185Y626740I-1524J-3470D01*
G01*
X802097Y619743D02*
G03*
X805326Y619828I1524J3470D01*
G01*
Y626598D02*
G03*
X802097Y626683I-1705J-3385D01*
G01*
X796163Y626839D02*
G03*
X793335Y626826I-1397J-3523D01*
G01*
X790921Y626784D02*
G03*
X788381Y626784I-1270J-3571D01*
G01*
X799185Y626740D02*
G03*
X796163Y626839I-1626J-3424D01*
G01*
X793335Y626826D02*
G03*
X790921Y626784I-1145J-3613D01*
G01*
X796163Y619793D02*
G03*
X798947Y619789I1397J3523D01*
G01*
X793621Y619703D02*
G03*
X796163Y619793I1145J3613D01*
G01*
X798947Y619789D02*
G03*
X802097Y619743I1626J3424D01*
G01*
X790921Y619642D02*
G03*
X793621Y619703I1270J3571D01*
G01*
X788381Y619642D02*
G03*
X790921Y619642I1270J3571D01*
G01*
X789890Y618434D02*
G03*
X787390Y618434I-1250J-3578D01*
G01*
X792390D02*
G03*
X789890Y618434I-1250J-3578D01*
G01*
X785841Y626784D02*
G03*
X783301Y626784I-1270J-3571D01*
G01*
D02*
G03*
X780781Y626791I-1270J-3571D01*
G01*
X788381Y626784D02*
G03*
X785841Y626784I-1270J-3571D01*
G01*
X780781Y619635D02*
G03*
X783301Y619642I1250J3578D01*
G01*
X778281Y626791D02*
G03*
X775781Y626791I-1250J-3578D01*
G01*
D02*
G03*
X773281Y626791I-1250J-3578D01*
G01*
X780781D02*
G03*
X778281Y626791I-1250J-3578D01*
G01*
X783301Y619642D02*
G03*
X785841Y619642I1270J3571D01*
G01*
X778281Y619635D02*
G03*
X780781Y619635I1250J3578D01*
G01*
X785841Y619642D02*
G03*
X788381Y619642I1270J3571D01*
G01*
X787390Y618434D02*
G03*
X784890Y618434I-1250J-3578D01*
G01*
X775781Y619635D02*
G03*
X778281Y619635I1250J3578D01*
G01*
X773281D02*
G03*
X775781Y619635I1250J3578D01*
G01*
X779890Y618434D02*
G03*
X777390Y618434I-1250J-3578D01*
G01*
X807312D02*
G03*
X803593Y617731I-1250J-3578D01*
G01*
X803593D02*
G03*
X800156Y612693I142J-3787D01*
G01*
X807312Y610193D02*
G03*
X807517Y611213I-3578J1250D01*
G01*
X800156Y612693D02*
G03*
X800156Y610193I3578J-1250D01*
G01*
X798955Y611808D02*
G03*
X799167Y613058I-3578J1250D01*
G01*
D02*
G03*
X797082Y616443I-3790J0D01*
G01*
X799167Y610558D02*
G03*
X798955Y611808I-3790J0D01*
G01*
X807524Y606443D02*
G03*
X807312Y607693I-3790J0D01*
G01*
X800156Y610193D02*
G03*
X800156Y607693I3578J-1250D01*
G01*
D02*
G03*
X800156Y605193I3578J-1250D01*
G01*
X799167Y605558D02*
G03*
X798955Y606808I-3790J0D01*
G01*
X799167Y608058D02*
G03*
X798955Y609308I-3790J0D01*
G01*
D02*
G03*
X799167Y610558I-3578J1250D01*
G01*
X798955Y606808D02*
G03*
X799167Y608058I-3578J1250D01*
G01*
X784890Y618434D02*
G03*
X782390Y618434I-1250J-3578D01*
G01*
D02*
G03*
X779890Y618434I-1250J-3578D01*
G01*
X797082Y616443D02*
G03*
X792390Y618434I-3442J-1587D01*
G01*
X779890Y611278D02*
G03*
X782390Y611278I1250J3578D01*
G01*
X777390Y618434D02*
G03*
X774890Y618434I-1250J-3578D01*
G01*
X774890Y611278D02*
G03*
X777390Y611278I1250J3578D01*
G01*
D02*
G03*
X779890Y611278I1250J3578D01*
G01*
X791626Y611097D02*
G03*
X791799Y609308I3751J-539D01*
G01*
X789890Y611278D02*
G03*
X791626Y611097I1250J3578D01*
G01*
X791799Y606808D02*
G03*
X791799Y604308I3578J-1250D01*
G01*
Y609308D02*
G03*
X791799Y606808I3578J-1250D01*
G01*
X784890Y611278D02*
G03*
X787390Y611278I1250J3578D01*
G01*
X782390D02*
G03*
X784890Y611278I1250J3578D01*
G01*
X787390D02*
G03*
X789890Y611278I1250J3578D01*
G01*
X768281Y626791D02*
G03*
X765781Y626791I-1250J-3578D01*
G01*
D02*
G03*
X763281Y626791I-1250J-3578D01*
G01*
X773281D02*
G03*
X770781Y626791I-1250J-3578D01*
G01*
D02*
G03*
X768281Y626791I-1250J-3578D01*
G01*
X760781D02*
G03*
X758281Y626791I-1250J-3578D01*
G01*
D02*
G03*
X755781Y626791I-1250J-3578D01*
G01*
X763281D02*
G03*
X760781Y626791I-1250J-3578D01*
G01*
X765781Y619635D02*
G03*
X768281Y619635I1250J3578D01*
G01*
X763281D02*
G03*
X765781Y619635I1250J3578D01*
G01*
X770781D02*
G03*
X773281Y619635I1250J3578D01*
G01*
X768281D02*
G03*
X770781Y619635I1250J3578D01*
G01*
X758281D02*
G03*
X760781Y619635I1250J3578D01*
G01*
X755781D02*
G03*
X758281Y619635I1250J3578D01*
G01*
X760781D02*
G03*
X763281Y619635I1250J3578D01*
G01*
X750781Y626791D02*
G03*
X748281Y626791I-1250J-3578D01*
G01*
D02*
G03*
X745781Y626791I-1250J-3578D01*
G01*
X755781D02*
G03*
X753281Y626791I-1250J-3578D01*
G01*
D02*
G03*
X750781Y626791I-1250J-3578D01*
G01*
X743281D02*
G03*
X740781Y626791I-1250J-3578D01*
G01*
D02*
G03*
X738281Y626791I-1250J-3578D01*
G01*
X745781D02*
G03*
X743281Y626791I-1250J-3578D01*
G01*
X748281Y619635D02*
G03*
X750781Y619635I1250J3578D01*
G01*
X745781D02*
G03*
X748281Y619635I1250J3578D01*
G01*
X753281D02*
G03*
X755781Y619635I1250J3578D01*
G01*
X750781D02*
G03*
X753281Y619635I1250J3578D01*
G01*
X740781D02*
G03*
X743281Y619635I1250J3578D01*
G01*
X738281D02*
G03*
X740781Y619635I1250J3578D01*
G01*
X743281D02*
G03*
X745781Y619635I1250J3578D01*
G01*
X769890Y618434D02*
G03*
X767390Y618434I-1250J-3578D01*
G01*
D02*
G03*
X764890Y618434I-1250J-3578D01*
G01*
X774890D02*
G03*
X772390Y618434I-1250J-3578D01*
G01*
D02*
G03*
X769890Y618434I-1250J-3578D01*
G01*
X762390D02*
G03*
X759890Y618434I-1250J-3578D01*
G01*
D02*
G03*
X757390Y618434I-1250J-3578D01*
G01*
X764890D02*
G03*
X762390Y618434I-1250J-3578D01*
G01*
X767390Y611278D02*
G03*
X769890Y611278I1250J3578D01*
G01*
X764890D02*
G03*
X767390Y611278I1250J3578D01*
G01*
X772390D02*
G03*
X774890Y611278I1250J3578D01*
G01*
X769890D02*
G03*
X772390Y611278I1250J3578D01*
G01*
X759890D02*
G03*
X762390Y611278I1250J3578D01*
G01*
X757390D02*
G03*
X759890Y611278I1250J3578D01*
G01*
X762390D02*
G03*
X764890Y611278I1250J3578D01*
G01*
X752390Y618434D02*
G03*
X749890Y618434I-1250J-3578D01*
G01*
D02*
G03*
X747390Y618434I-1250J-3578D01*
G01*
X757390D02*
G03*
X754890Y618434I-1250J-3578D01*
G01*
D02*
G03*
X752390Y618434I-1250J-3578D01*
G01*
X744890D02*
G03*
X742390Y618434I-1250J-3578D01*
G01*
D02*
G03*
X739890Y618434I-1250J-3578D01*
G01*
X747390D02*
G03*
X744890Y618434I-1250J-3578D01*
G01*
X749890Y611278D02*
G03*
X752390Y611278I1250J3578D01*
G01*
X747390D02*
G03*
X749890Y611278I1250J3578D01*
G01*
X754890D02*
G03*
X757390Y611278I1250J3578D01*
G01*
X752390D02*
G03*
X754890Y611278I1250J3578D01*
G01*
X742390D02*
G03*
X744890Y611278I1250J3578D01*
G01*
X739890D02*
G03*
X742390Y611278I1250J3578D01*
G01*
X744890D02*
G03*
X747390Y611278I1250J3578D01*
G01*
X807312Y592693D02*
G03*
X807524Y593943I-3578J1250D01*
G01*
D02*
G03*
X807312Y595193I-3790J0D01*
G01*
Y590193D02*
G03*
X807524Y591443I-3578J1250D01*
G01*
D02*
G03*
X807312Y592693I-3790J0D01*
G01*
Y597693D02*
G03*
X807524Y598943I-3578J1250D01*
G01*
D02*
G03*
X807312Y600193I-3790J0D01*
G01*
Y595193D02*
G03*
X807524Y596443I-3578J1250D01*
G01*
D02*
G03*
X807312Y597693I-3790J0D01*
G01*
X807524Y583944D02*
G03*
X807312Y585193I-3790J0D01*
G01*
D02*
G03*
X807524Y586444I-3578J1250D01*
G01*
Y581444D02*
G03*
X807312Y582694I-3790J0D01*
G01*
D02*
G03*
X807524Y583944I-3578J1250D01*
G01*
X807312Y587693D02*
G03*
X807524Y588944I-3578J1250D01*
G01*
D02*
G03*
X807312Y590193I-3790J0D01*
G01*
X807524Y586444D02*
G03*
X807312Y587693I-3790J0D01*
G01*
Y602693D02*
G03*
X807524Y603943I-3578J1250D01*
G01*
X807312Y605193D02*
G03*
X807524Y606443I-3578J1250D01*
G01*
X807312Y600193D02*
G03*
X807524Y601443I-3578J1250D01*
G01*
D02*
G03*
X807312Y602693I-3790J0D01*
G01*
X800156D02*
G03*
X800156Y600193I3578J-1250D01*
G01*
Y605193D02*
G03*
X800156Y602693I3578J-1250D01*
G01*
Y600193D02*
G03*
X800156Y597693I3578J-1250D01*
G01*
Y587693D02*
G03*
X800156Y585193I3578J-1250D01*
G01*
Y590193D02*
G03*
X800156Y587693I3578J-1250D01*
G01*
Y582694D02*
G03*
X800156Y580194I3578J-1250D01*
G01*
Y585193D02*
G03*
X800156Y582694I3578J-1250D01*
G01*
Y595193D02*
G03*
X800156Y592693I3578J-1250D01*
G01*
Y597693D02*
G03*
X800156Y595193I3578J-1250D01*
G01*
Y592693D02*
G03*
X800156Y590193I3578J-1250D01*
G01*
X807524Y568944D02*
G03*
X807312Y570194I-3790J0D01*
G01*
D02*
G03*
X807524Y571444I-3578J1250D01*
G01*
Y566444D02*
G03*
X807312Y567694I-3790J0D01*
G01*
D02*
G03*
X807524Y568944I-3578J1250D01*
G01*
X807312Y572694D02*
G03*
X807524Y573944I-3578J1250D01*
G01*
D02*
G03*
X807312Y575194I-3790J0D01*
G01*
X807524Y571444D02*
G03*
X807312Y572694I-3790J0D01*
G01*
Y560194D02*
G03*
X807524Y561444I-3578J1250D01*
G01*
D02*
G03*
X807312Y562694I-3790J0D01*
G01*
Y557694D02*
G03*
X807524Y558944I-3578J1250D01*
G01*
D02*
G03*
X807312Y560194I-3790J0D01*
G01*
X807524Y563944D02*
G03*
X807312Y565194I-3790J0D01*
G01*
D02*
G03*
X807524Y566444I-3578J1250D01*
G01*
X807312Y562694D02*
G03*
X807524Y563944I-3578J1250D01*
G01*
X807312Y577694D02*
G03*
X807524Y578944I-3578J1250D01*
G01*
D02*
G03*
X807312Y580194I-3790J0D01*
G01*
Y575194D02*
G03*
X807524Y576444I-3578J1250D01*
G01*
D02*
G03*
X807312Y577694I-3790J0D01*
G01*
Y580194D02*
G03*
X807524Y581444I-3578J1250D01*
G01*
X800156Y580194D02*
G03*
X800156Y577694I3578J-1250D01*
G01*
D02*
G03*
X800156Y575194I3578J-1250D01*
G01*
Y565194D02*
G03*
X800156Y562694I3578J-1250D01*
G01*
Y567694D02*
G03*
X800156Y565194I3578J-1250D01*
G01*
Y560194D02*
G03*
X800156Y557694I3578J-1250D01*
G01*
Y562694D02*
G03*
X800156Y560194I3578J-1250D01*
G01*
Y572694D02*
G03*
X800156Y570194I3578J-1250D01*
G01*
Y575194D02*
G03*
X800156Y572694I3578J-1250D01*
G01*
Y570194D02*
G03*
X800156Y567694I3578J-1250D01*
G01*
X799167Y593058D02*
G03*
X798955Y594308I-3790J0D01*
G01*
D02*
G03*
X799167Y595558I-3578J1250D01*
G01*
Y590558D02*
G03*
X798955Y591808I-3790J0D01*
G01*
D02*
G03*
X799167Y593058I-3578J1250D01*
G01*
X798955Y596808D02*
G03*
X799167Y598058I-3578J1250D01*
G01*
D02*
G03*
X798955Y599308I-3790J0D01*
G01*
X799167Y595558D02*
G03*
X798955Y596808I-3790J0D01*
G01*
Y584308D02*
G03*
X799167Y585558I-3578J1250D01*
G01*
D02*
G03*
X798955Y586808I-3790J0D01*
G01*
Y581808D02*
G03*
X799167Y583058I-3578J1250D01*
G01*
D02*
G03*
X798955Y584308I-3790J0D01*
G01*
X799167Y588058D02*
G03*
X798955Y589308I-3790J0D01*
G01*
D02*
G03*
X799167Y590558I-3578J1250D01*
G01*
X798955Y586808D02*
G03*
X799167Y588058I-3578J1250D01*
G01*
X798955Y601808D02*
G03*
X799167Y603058I-3578J1250D01*
G01*
D02*
G03*
X798955Y604308I-3790J0D01*
G01*
Y599308D02*
G03*
X799167Y600558I-3578J1250D01*
G01*
D02*
G03*
X798955Y601808I-3790J0D01*
G01*
Y604308D02*
G03*
X799167Y605558I-3578J1250D01*
G01*
X791799Y604308D02*
G03*
X791799Y601808I3578J-1250D01*
G01*
D02*
G03*
X791799Y599308I3578J-1250D01*
G01*
Y589308D02*
G03*
X791799Y586808I3578J-1250D01*
G01*
Y591808D02*
G03*
X791799Y589308I3578J-1250D01*
G01*
Y584308D02*
G03*
X791799Y581808I3578J-1250D01*
G01*
Y586808D02*
G03*
X791799Y584308I3578J-1250D01*
G01*
Y596808D02*
G03*
X791799Y594308I3578J-1250D01*
G01*
Y599308D02*
G03*
X791799Y596808I3578J-1250D01*
G01*
Y594308D02*
G03*
X791799Y591808I3578J-1250D01*
G01*
X798955Y569308D02*
G03*
X799167Y570558I-3578J1250D01*
G01*
D02*
G03*
X798955Y571808I-3790J0D01*
G01*
Y566808D02*
G03*
X799167Y568058I-3578J1250D01*
G01*
D02*
G03*
X798955Y569308I-3790J0D01*
G01*
X799167Y573058D02*
G03*
X798955Y574308I-3790J0D01*
G01*
D02*
G03*
X799167Y575558I-3578J1250D01*
G01*
X798955Y571808D02*
G03*
X799167Y573058I-3578J1250D01*
G01*
Y560558D02*
G03*
X798955Y561808I-3790J0D01*
G01*
D02*
G03*
X799167Y563058I-3578J1250D01*
G01*
Y558058D02*
G03*
X798955Y559308I-3790J0D01*
G01*
D02*
G03*
X799167Y560558I-3578J1250D01*
G01*
X798955Y564308D02*
G03*
X799167Y565558I-3578J1250D01*
G01*
D02*
G03*
X798955Y566808I-3790J0D01*
G01*
X799167Y563058D02*
G03*
X798955Y564308I-3790J0D01*
G01*
X799167Y578058D02*
G03*
X798955Y579308I-3790J0D01*
G01*
D02*
G03*
X799167Y580558I-3578J1250D01*
G01*
Y575558D02*
G03*
X798955Y576808I-3790J0D01*
G01*
D02*
G03*
X799167Y578058I-3578J1250D01*
G01*
Y580558D02*
G03*
X798955Y581808I-3790J0D01*
G01*
X791799D02*
G03*
X791799Y579308I3578J-1250D01*
G01*
D02*
G03*
X791799Y576808I3578J-1250D01*
G01*
Y566808D02*
G03*
X791799Y564308I3578J-1250D01*
G01*
Y569308D02*
G03*
X791799Y566808I3578J-1250D01*
G01*
Y561808D02*
G03*
X791799Y559308I3578J-1250D01*
G01*
Y564308D02*
G03*
X791799Y561808I3578J-1250D01*
G01*
Y574308D02*
G03*
X791799Y571808I3578J-1250D01*
G01*
Y576808D02*
G03*
X791799Y574308I3578J-1250D01*
G01*
Y571808D02*
G03*
X791799Y569308I3578J-1250D01*
G01*
X807524Y533944D02*
G03*
X807312Y535194I-3790J0D01*
G01*
Y537694D02*
G03*
X807524Y538944I-3578J1250D01*
G01*
D02*
G03*
X807312Y540194I-3790J0D01*
G01*
Y535194D02*
G03*
X807524Y536444I-3578J1250D01*
G01*
D02*
G03*
X807312Y537694I-3790J0D01*
G01*
X807524Y511444D02*
G03*
X807312Y512694I-3790J0D01*
G01*
D02*
G03*
X807524Y513944I-3578J1250D01*
G01*
Y508944D02*
G03*
X807312Y510194I-3790J0D01*
G01*
D02*
G03*
X807524Y511444I-3578J1250D01*
G01*
X807312Y515194D02*
G03*
X807524Y516444I-3578J1250D01*
G01*
Y526444D02*
G03*
X807312Y527694I-3790J0D01*
G01*
X807524Y513944D02*
G03*
X807312Y515194I-3790J0D01*
G01*
X807524Y551444D02*
G03*
X807312Y552694I-3790J0D01*
G01*
D02*
G03*
X807524Y553944I-3578J1250D01*
G01*
Y548944D02*
G03*
X807312Y550194I-3790J0D01*
G01*
D02*
G03*
X807524Y551444I-3578J1250D01*
G01*
X807312Y555194D02*
G03*
X807524Y556444I-3578J1250D01*
G01*
D02*
G03*
X807312Y557694I-3790J0D01*
G01*
X807524Y553944D02*
G03*
X807312Y555194I-3790J0D01*
G01*
Y542694D02*
G03*
X807524Y543944I-3578J1250D01*
G01*
D02*
G03*
X807312Y545194I-3790J0D01*
G01*
Y540194D02*
G03*
X807524Y541444I-3578J1250D01*
G01*
D02*
G03*
X807312Y542694I-3790J0D01*
G01*
X807524Y546444D02*
G03*
X807312Y547694I-3790J0D01*
G01*
D02*
G03*
X807524Y548944I-3578J1250D01*
G01*
X807312Y545194D02*
G03*
X807524Y546444I-3578J1250D01*
G01*
X807312Y485194D02*
G03*
X807524Y486444I-3578J1250D01*
G01*
D02*
G03*
X807312Y487694I-3790J0D01*
G01*
X807522Y406301D02*
G03*
X891096Y560614I-100676J154313D01*
G01*
X807524Y483944D02*
G03*
X807312Y485194I-3790J0D01*
G01*
X807524Y488944D02*
G03*
X807312Y490194I-3790J0D01*
G01*
D02*
G03*
X807524Y491444I-3578J1250D01*
G01*
X807312Y487694D02*
G03*
X807524Y488944I-3578J1250D01*
G01*
X807312Y477694D02*
G03*
X807524Y478944I-3578J1250D01*
G01*
D02*
G03*
X807312Y480194I-3790J0D01*
G01*
Y475194D02*
G03*
X807524Y476444I-3578J1250D01*
G01*
D02*
G03*
X807312Y477694I-3790J0D01*
G01*
X807524Y481444D02*
G03*
X807312Y482694I-3790J0D01*
G01*
D02*
G03*
X807524Y483944I-3578J1250D01*
G01*
X807312Y480194D02*
G03*
X807524Y481444I-3578J1250D01*
G01*
X807312Y502694D02*
G03*
X807524Y503944I-3578J1250D01*
G01*
D02*
G03*
X807312Y505194I-3790J0D01*
G01*
Y500194D02*
G03*
X807524Y501444I-3578J1250D01*
G01*
D02*
G03*
X807312Y502694I-3790J0D01*
G01*
X807524Y506444D02*
G03*
X807312Y507694I-3790J0D01*
G01*
D02*
G03*
X807524Y508944I-3578J1250D01*
G01*
X807312Y505194D02*
G03*
X807524Y506444I-3578J1250D01*
G01*
Y493944D02*
G03*
X807312Y495194I-3790J0D01*
G01*
D02*
G03*
X807524Y496444I-3578J1250D01*
G01*
Y491444D02*
G03*
X807312Y492694I-3790J0D01*
G01*
D02*
G03*
X807524Y493944I-3578J1250D01*
G01*
X807312Y497694D02*
G03*
X807524Y498944I-3578J1250D01*
G01*
D02*
G03*
X807312Y500194I-3790J0D01*
G01*
X807524Y496444D02*
G03*
X807312Y497694I-3790J0D01*
G01*
Y530194D02*
G03*
X807524Y531444I-3578J1250D01*
G01*
D02*
G03*
X807312Y532694I-3790J0D01*
G01*
Y527694D02*
G03*
X807524Y528944I-3578J1250D01*
G01*
D02*
G03*
X807312Y530194I-3790J0D01*
G01*
Y532694D02*
G03*
X807524Y533944I-3578J1250D01*
G01*
X800156Y530194D02*
G03*
X800156Y527694I3578J-1250D01*
G01*
D02*
G03*
X800156Y525194I3578J-1250D01*
G01*
X807312Y522694D02*
G03*
X807524Y523944I-3578J1250D01*
G01*
D02*
G03*
X807312Y525194I-3790J0D01*
G01*
Y520194D02*
G03*
X807524Y521444I-3578J1250D01*
G01*
D02*
G03*
X807312Y522694I-3790J0D01*
G01*
Y525194D02*
G03*
X807524Y526444I-3578J1250D01*
G01*
X800156Y525194D02*
G03*
X800156Y522694I3578J-1250D01*
G01*
D02*
G03*
X800156Y520194I3578J-1250D01*
G01*
Y547694D02*
G03*
X800156Y545194I3578J-1250D01*
G01*
Y550194D02*
G03*
X800156Y547694I3578J-1250D01*
G01*
Y542694D02*
G03*
X800156Y540194I3578J-1250D01*
G01*
Y545194D02*
G03*
X800156Y542694I3578J-1250D01*
G01*
Y555194D02*
G03*
X800156Y552694I3578J-1250D01*
G01*
Y557694D02*
G03*
X800156Y555194I3578J-1250D01*
G01*
Y552694D02*
G03*
X800156Y550194I3578J-1250D01*
G01*
Y537694D02*
G03*
X800156Y535194I3578J-1250D01*
G01*
Y540194D02*
G03*
X800156Y537694I3578J-1250D01*
G01*
Y532694D02*
G03*
X800156Y530194I3578J-1250D01*
G01*
Y535194D02*
G03*
X800156Y532694I3578J-1250D01*
G01*
X798955Y526808D02*
G03*
X799167Y528058I-3578J1250D01*
G01*
D02*
G03*
X798955Y529308I-3790J0D01*
G01*
X799167Y525558D02*
G03*
X798955Y526808I-3790J0D01*
G01*
X807312Y517694D02*
G03*
X807524Y518944I-3578J1250D01*
G01*
D02*
G03*
X807312Y520194I-3790J0D01*
G01*
X807524Y516444D02*
G03*
X807312Y517694I-3790J0D01*
G01*
X800156Y495194D02*
G03*
X800156Y492694I3578J-1250D01*
G01*
Y500194D02*
G03*
X800156Y497694I3578J-1250D01*
G01*
Y502694D02*
G03*
X800156Y500194I3578J-1250D01*
G01*
Y497694D02*
G03*
X800156Y495194I3578J-1250D01*
G01*
Y482694D02*
G03*
X800156Y480194I3578J-1250D01*
G01*
Y485194D02*
G03*
X800156Y482694I3578J-1250D01*
G01*
Y477694D02*
G03*
X800156Y475194I3578J-1250D01*
G01*
Y480194D02*
G03*
X800156Y477694I3578J-1250D01*
G01*
Y490194D02*
G03*
X800156Y487694I3578J-1250D01*
G01*
Y492694D02*
G03*
X800156Y490194I3578J-1250D01*
G01*
Y487694D02*
G03*
X800156Y485194I3578J-1250D01*
G01*
Y510194D02*
G03*
X800156Y507694I3578J-1250D01*
G01*
Y512694D02*
G03*
X800156Y510194I3578J-1250D01*
G01*
Y505194D02*
G03*
X800156Y502694I3578J-1250D01*
G01*
Y507694D02*
G03*
X800156Y505194I3578J-1250D01*
G01*
Y517694D02*
G03*
X800156Y515194I3578J-1250D01*
G01*
Y520194D02*
G03*
X800156Y517694I3578J-1250D01*
G01*
Y515194D02*
G03*
X800156Y512694I3578J-1250D01*
G01*
X798955Y494308D02*
G03*
X799167Y495558I-3578J1250D01*
G01*
D02*
G03*
X798955Y496808I-3790J0D01*
G01*
Y481808D02*
G03*
X799167Y483058I-3578J1250D01*
G01*
Y493058D02*
G03*
X798955Y494308I-3790J0D01*
G01*
X799167Y498058D02*
G03*
X798955Y499308I-3790J0D01*
G01*
D02*
G03*
X799167Y500558I-3578J1250D01*
G01*
X798955Y496808D02*
G03*
X799167Y498058I-3578J1250D01*
G01*
X807312Y450194D02*
G03*
X807524Y451444I-3578J1250D01*
G01*
D02*
G03*
X807312Y452694I-3790J0D01*
G01*
Y447694D02*
G03*
X807524Y448944I-3578J1250D01*
G01*
D02*
G03*
X807312Y450194I-3790J0D01*
G01*
Y455194D02*
G03*
X807524Y456444I-3578J1250D01*
G01*
D02*
G03*
X807312Y457694I-3790J0D01*
G01*
Y452694D02*
G03*
X807524Y453944I-3578J1250D01*
G01*
D02*
G03*
X807312Y455194I-3790J0D01*
G01*
X807524Y441444D02*
G03*
X807312Y442694I-3790J0D01*
G01*
D02*
G03*
X807524Y443944I-3578J1250D01*
G01*
Y438944D02*
G03*
X807312Y440194I-3790J0D01*
G01*
D02*
G03*
X807524Y441444I-3578J1250D01*
G01*
X807312Y445194D02*
G03*
X807524Y446444I-3578J1250D01*
G01*
D02*
G03*
X807312Y447694I-3790J0D01*
G01*
X807524Y443944D02*
G03*
X807312Y445194I-3790J0D01*
G01*
X807524Y468944D02*
G03*
X807312Y470194I-3790J0D01*
G01*
D02*
G03*
X807524Y471444I-3578J1250D01*
G01*
Y466444D02*
G03*
X807312Y467694I-3790J0D01*
G01*
D02*
G03*
X807524Y468944I-3578J1250D01*
G01*
X807312Y472694D02*
G03*
X807524Y473944I-3578J1250D01*
G01*
D02*
G03*
X807312Y475194I-3790J0D01*
G01*
X807524Y471444D02*
G03*
X807312Y472694I-3790J0D01*
G01*
Y460194D02*
G03*
X807524Y461444I-3578J1250D01*
G01*
D02*
G03*
X807312Y462694I-3790J0D01*
G01*
Y457694D02*
G03*
X807524Y458944I-3578J1250D01*
G01*
D02*
G03*
X807312Y460194I-3790J0D01*
G01*
X807524Y463944D02*
G03*
X807312Y465194I-3790J0D01*
G01*
D02*
G03*
X807524Y466444I-3578J1250D01*
G01*
X807312Y462694D02*
G03*
X807524Y463944I-3578J1250D01*
G01*
X807312Y417694D02*
G03*
X807524Y418944I-3578J1250D01*
G01*
D02*
G03*
X807312Y420194I-3790J0D01*
G01*
Y415194D02*
G03*
X807524Y416444I-3578J1250D01*
G01*
D02*
G03*
X807312Y417694I-3790J0D01*
G01*
X807524Y421444D02*
G03*
X807312Y422694I-3790J0D01*
G01*
D02*
G03*
X807524Y423944I-3578J1250D01*
G01*
X807312Y420194D02*
G03*
X807524Y421444I-3578J1250D01*
G01*
Y408944D02*
G03*
X807312Y410194I-3790J0D01*
G01*
D02*
G03*
X807524Y411444I-3578J1250D01*
G01*
Y406444D02*
G03*
X807312Y407694I-3790J0D01*
G01*
D02*
G03*
X807524Y408944I-3578J1250D01*
G01*
X807312Y412694D02*
G03*
X807524Y413944I-3578J1250D01*
G01*
D02*
G03*
X807312Y415194I-3790J0D01*
G01*
X807524Y411444D02*
G03*
X807312Y412694I-3790J0D01*
G01*
X807524Y433944D02*
G03*
X807312Y435194I-3790J0D01*
G01*
D02*
G03*
X807524Y436444I-3578J1250D01*
G01*
Y431444D02*
G03*
X807312Y432694I-3790J0D01*
G01*
D02*
G03*
X807524Y433944I-3578J1250D01*
G01*
X807312Y437694D02*
G03*
X807524Y438944I-3578J1250D01*
G01*
X800156Y440194D02*
G03*
X800156Y437694I3578J-1250D01*
G01*
X807524Y436444D02*
G03*
X807312Y437694I-3790J0D01*
G01*
X807524Y426444D02*
G03*
X807312Y427694I-3790J0D01*
G01*
D02*
G03*
X807524Y428944I-3578J1250D01*
G01*
Y423944D02*
G03*
X807312Y425194I-3790J0D01*
G01*
D02*
G03*
X807524Y426444I-3578J1250D01*
G01*
Y428944D02*
G03*
X807312Y430194I-3790J0D01*
G01*
D02*
G03*
X807524Y431444I-3578J1250D01*
G01*
X800156Y427694D02*
G03*
X800156Y425194I3578J-1250D01*
G01*
Y465194D02*
G03*
X800156Y462694I3578J-1250D01*
G01*
Y467694D02*
G03*
X800156Y465194I3578J-1250D01*
G01*
Y460194D02*
G03*
X800156Y457694I3578J-1250D01*
G01*
Y462694D02*
G03*
X800156Y460194I3578J-1250D01*
G01*
Y472694D02*
G03*
X800156Y470194I3578J-1250D01*
G01*
Y475194D02*
G03*
X800156Y472694I3578J-1250D01*
G01*
Y470194D02*
G03*
X800156Y467694I3578J-1250D01*
G01*
Y450194D02*
G03*
X800156Y447694I3578J-1250D01*
G01*
Y452694D02*
G03*
X800156Y450194I3578J-1250D01*
G01*
Y445194D02*
G03*
X800156Y442694I3578J-1250D01*
G01*
Y447694D02*
G03*
X800156Y445194I3578J-1250D01*
G01*
Y455194D02*
G03*
X800156Y452694I3578J-1250D01*
G01*
Y457694D02*
G03*
X800156Y455194I3578J-1250D01*
G01*
X799167Y442748D02*
G03*
X798955Y443998I-3790J0D01*
G01*
X799167Y455248D02*
G03*
X798955Y456498I-3790J0D01*
G01*
D02*
G03*
X799167Y457748I-3578J1250D01*
G01*
Y452748D02*
G03*
X798955Y453998I-3790J0D01*
G01*
D02*
G03*
X799167Y455248I-3578J1250D01*
G01*
X798955Y458998D02*
G03*
X799167Y460248I-3578J1250D01*
G01*
D02*
G03*
X798955Y461498I-3790J0D01*
G01*
X799167Y457748D02*
G03*
X798955Y458998I-3790J0D01*
G01*
Y446498D02*
G03*
X799167Y447748I-3578J1250D01*
G01*
D02*
G03*
X798955Y448998I-3790J0D01*
G01*
Y443998D02*
G03*
X799167Y445248I-3578J1250D01*
G01*
D02*
G03*
X798955Y446498I-3790J0D01*
G01*
X799167Y450248D02*
G03*
X798955Y451498I-3790J0D01*
G01*
D02*
G03*
X799167Y452748I-3578J1250D01*
G01*
X798955Y448998D02*
G03*
X799167Y450248I-3578J1250D01*
G01*
X800156Y430194D02*
G03*
X800156Y427694I3578J-1250D01*
G01*
Y432694D02*
G03*
X800156Y430194I3578J-1250D01*
G01*
Y422694D02*
G03*
X800156Y420194I3578J-1250D01*
G01*
Y425194D02*
G03*
X800156Y422694I3578J-1250D01*
G01*
Y437694D02*
G03*
X800156Y435194I3578J-1250D01*
G01*
Y442694D02*
G03*
X800156Y440194I3578J-1250D01*
G01*
Y435194D02*
G03*
X800156Y432694I3578J-1250D01*
G01*
Y412694D02*
G03*
X800156Y410194I3578J-1250D01*
G01*
Y415194D02*
G03*
X800156Y412694I3578J-1250D01*
G01*
Y407694D02*
G03*
X802221Y402969I3578J-1250D01*
G01*
X800156Y410194D02*
G03*
X800156Y407694I3578J-1250D01*
G01*
Y417694D02*
G03*
X800156Y415194I3578J-1250D01*
G01*
Y420194D02*
G03*
X800156Y417694I3578J-1250D01*
G01*
X799069Y401105D02*
G03*
X802221Y402969I-92223J159509D01*
G01*
X798955Y436498D02*
G03*
X799167Y437748I-3578J1250D01*
G01*
D02*
G03*
X798955Y438998I-3790J0D01*
G01*
Y433998D02*
G03*
X799167Y435248I-3578J1250D01*
G01*
D02*
G03*
X798955Y436498I-3790J0D01*
G01*
X799167Y440248D02*
G03*
X798955Y441498I-3790J0D01*
G01*
D02*
G03*
X799167Y442748I-3578J1250D01*
G01*
X798955Y438998D02*
G03*
X799167Y440248I-3578J1250D01*
G01*
Y415248D02*
G03*
X798955Y416498I-3790J0D01*
G01*
Y428998D02*
G03*
X799167Y430248I-3578J1250D01*
G01*
X798955Y401498D02*
G03*
X799167Y402748I-3578J1250D01*
G01*
D02*
G03*
X798955Y403998I-3790J0D01*
G01*
Y431498D02*
G03*
X799167Y432748I-3578J1250D01*
G01*
D02*
G03*
X798955Y433998I-3790J0D01*
G01*
X799167Y430248D02*
G03*
X798955Y431498I-3790J0D01*
G01*
X799167Y533058D02*
G03*
X798955Y534308I-3790J0D01*
G01*
D02*
G03*
X799167Y535558I-3578J1250D01*
G01*
Y530558D02*
G03*
X798955Y531808I-3790J0D01*
G01*
D02*
G03*
X799167Y533058I-3578J1250D01*
G01*
Y538058D02*
G03*
X798955Y539308I-3790J0D01*
G01*
D02*
G03*
X799167Y540558I-3578J1250D01*
G01*
Y535558D02*
G03*
X798955Y536808I-3790J0D01*
G01*
D02*
G03*
X799167Y538058I-3578J1250D01*
G01*
Y520558D02*
G03*
X798955Y521808I-3790J0D01*
G01*
D02*
G03*
X799167Y523058I-3578J1250D01*
G01*
Y518058D02*
G03*
X798955Y519308I-3790J0D01*
G01*
D02*
G03*
X799167Y520558I-3578J1250D01*
G01*
X798955Y524308D02*
G03*
X799167Y525558I-3578J1250D01*
G01*
X798955Y529308D02*
G03*
X799167Y530558I-3578J1250D01*
G01*
Y523058D02*
G03*
X798955Y524308I-3790J0D01*
G01*
Y551808D02*
G03*
X799167Y553058I-3578J1250D01*
G01*
D02*
G03*
X798955Y554308I-3790J0D01*
G01*
Y549308D02*
G03*
X799167Y550558I-3578J1250D01*
G01*
D02*
G03*
X798955Y551808I-3790J0D01*
G01*
X799167Y555558D02*
G03*
X798955Y556808I-3790J0D01*
G01*
D02*
G03*
X799167Y558058I-3578J1250D01*
G01*
X798955Y554308D02*
G03*
X799167Y555558I-3578J1250D01*
G01*
Y543058D02*
G03*
X798955Y544308I-3790J0D01*
G01*
D02*
G03*
X799167Y545558I-3578J1250D01*
G01*
Y540558D02*
G03*
X798955Y541808I-3790J0D01*
G01*
D02*
G03*
X799167Y543058I-3578J1250D01*
G01*
X798955Y546808D02*
G03*
X799167Y548058I-3578J1250D01*
G01*
D02*
G03*
X798955Y549308I-3790J0D01*
G01*
X799167Y545558D02*
G03*
X798955Y546808I-3790J0D01*
G01*
X799167Y488058D02*
G03*
X798955Y489308I-3790J0D01*
G01*
D02*
G03*
X799167Y490558I-3578J1250D01*
G01*
Y485558D02*
G03*
X798955Y486808I-3790J0D01*
G01*
D02*
G03*
X799167Y488058I-3578J1250D01*
G01*
X798955Y491808D02*
G03*
X799167Y493058I-3578J1250D01*
G01*
Y500558D02*
G03*
X798955Y501808I-3790J0D01*
G01*
X799167Y490558D02*
G03*
X798955Y491808I-3790J0D01*
G01*
X799167Y478058D02*
G03*
X798955Y479308I-3790J0D01*
G01*
D02*
G03*
X799167Y480558I-3578J1250D01*
G01*
Y475558D02*
G03*
X798955Y476808I-3790J0D01*
G01*
D02*
G03*
X799167Y478058I-3578J1250D01*
G01*
Y483058D02*
G03*
X798955Y484308I-3790J0D01*
G01*
D02*
G03*
X799167Y485558I-3578J1250D01*
G01*
Y480558D02*
G03*
X798955Y481808I-3790J0D01*
G01*
Y511808D02*
G03*
X799167Y513058I-3578J1250D01*
G01*
D02*
G03*
X798955Y514308I-3790J0D01*
G01*
Y509308D02*
G03*
X799167Y510558I-3578J1250D01*
G01*
D02*
G03*
X798955Y511808I-3790J0D01*
G01*
X799167Y515558D02*
G03*
X798955Y516808I-3790J0D01*
G01*
D02*
G03*
X799167Y518058I-3578J1250D01*
G01*
X798955Y514308D02*
G03*
X799167Y515558I-3578J1250D01*
G01*
X798955Y504308D02*
G03*
X799167Y505558I-3578J1250D01*
G01*
D02*
G03*
X798955Y506808I-3790J0D01*
G01*
Y501808D02*
G03*
X799167Y503058I-3578J1250D01*
G01*
D02*
G03*
X798955Y504308I-3790J0D01*
G01*
Y506808D02*
G03*
X799167Y508058I-3578J1250D01*
G01*
D02*
G03*
X798955Y509308I-3790J0D01*
G01*
X799019Y473063D02*
G03*
X798875Y474098I-3790J0D01*
G01*
X791799Y514308D02*
G03*
X791799Y511808I3578J-1250D01*
G01*
Y516808D02*
G03*
X791799Y514308I3578J-1250D01*
G01*
Y509308D02*
G03*
X791799Y506808I3578J-1250D01*
G01*
Y511808D02*
G03*
X791799Y509308I3578J-1250D01*
G01*
Y521808D02*
G03*
X791799Y519308I3578J-1250D01*
G01*
Y524308D02*
G03*
X791799Y521808I3578J-1250D01*
G01*
Y519308D02*
G03*
X791799Y516808I3578J-1250D01*
G01*
Y496808D02*
G03*
X791799Y494308I3578J-1250D01*
G01*
Y499308D02*
G03*
X791799Y496808I3578J-1250D01*
G01*
Y491808D02*
G03*
X791799Y489308I3578J-1250D01*
G01*
Y494308D02*
G03*
X791799Y491808I3578J-1250D01*
G01*
Y504308D02*
G03*
X791799Y501808I3578J-1250D01*
G01*
Y506808D02*
G03*
X791799Y504308I3578J-1250D01*
G01*
Y501808D02*
G03*
X791799Y499308I3578J-1250D01*
G01*
Y549308D02*
G03*
X791799Y546808I3578J-1250D01*
G01*
Y551808D02*
G03*
X791799Y549308I3578J-1250D01*
G01*
Y544308D02*
G03*
X791799Y541808I3578J-1250D01*
G01*
Y546808D02*
G03*
X791799Y544308I3578J-1250D01*
G01*
Y556808D02*
G03*
X791799Y554308I3578J-1250D01*
G01*
Y559308D02*
G03*
X791799Y556808I3578J-1250D01*
G01*
Y554308D02*
G03*
X791799Y551808I3578J-1250D01*
G01*
Y531808D02*
G03*
X791799Y529308I3578J-1250D01*
G01*
Y534308D02*
G03*
X791799Y531808I3578J-1250D01*
G01*
Y526808D02*
G03*
X791799Y524308I3578J-1250D01*
G01*
Y529308D02*
G03*
X791799Y526808I3578J-1250D01*
G01*
Y539308D02*
G03*
X791799Y536808I3578J-1250D01*
G01*
Y541808D02*
G03*
X791799Y539308I3578J-1250D01*
G01*
Y536808D02*
G03*
X791799Y534308I3578J-1250D01*
G01*
Y484308D02*
G03*
X791799Y481808I3578J-1250D01*
G01*
Y486808D02*
G03*
X791799Y484308I3578J-1250D01*
G01*
Y479308D02*
G03*
X791799Y476808I3578J-1250D01*
G01*
Y481808D02*
G03*
X791799Y479308I3578J-1250D01*
G01*
Y489308D02*
G03*
X791799Y486808I3578J-1250D01*
G01*
X776479Y476641D02*
G03*
X773979Y476641I-1250J-3578D01*
G01*
X778979D02*
G03*
X776479Y476641I-1250J-3578D01*
G01*
X791479D02*
G03*
X788979Y476641I-1250J-3578D01*
G01*
D02*
G03*
X786479Y476641I-1250J-3578D01*
G01*
X798875Y474098D02*
G03*
X799167Y475558I-3497J1460D01*
G01*
X793979Y469485D02*
G03*
X799019Y473063I1250J3578D01*
G01*
X783979Y476641D02*
G03*
X781479Y476641I-1250J-3578D01*
G01*
D02*
G03*
X778979Y476641I-1250J-3578D01*
G01*
X786479D02*
G03*
X783979Y476641I-1250J-3578D01*
G01*
X751479D02*
G03*
X748979Y476641I-1250J-3578D01*
G01*
D02*
G03*
X746479Y476641I-1250J-3578D01*
G01*
X756479D02*
G03*
X753979Y476641I-1250J-3578D01*
G01*
D02*
G03*
X751479Y476641I-1250J-3578D01*
G01*
X743979D02*
G03*
X741479Y476641I-1250J-3578D01*
G01*
D02*
G03*
X738979Y476641I-1250J-3578D01*
G01*
X746479D02*
G03*
X743979Y476641I-1250J-3578D01*
G01*
X768979D02*
G03*
X766479Y476641I-1250J-3578D01*
G01*
D02*
G03*
X763979Y476641I-1250J-3578D01*
G01*
X773979D02*
G03*
X771479Y476641I-1250J-3578D01*
G01*
D02*
G03*
X768979Y476641I-1250J-3578D01*
G01*
X761479D02*
G03*
X758979Y476641I-1250J-3578D01*
G01*
D02*
G03*
X756479Y476641I-1250J-3578D01*
G01*
X763979D02*
G03*
X761479Y476641I-1250J-3578D01*
G01*
X799167Y462748D02*
G03*
X797401Y465953I-3790J0D01*
G01*
D02*
G03*
X792572Y468284I-3579J-1248D01*
G01*
X798955Y461498D02*
G03*
X799167Y462748I-3578J1250D01*
G01*
X791799Y441498D02*
G03*
X791799Y438998I3578J-1250D01*
G01*
X791479Y469485D02*
G03*
X793979Y469485I1250J3578D01*
G01*
X792572Y468284D02*
G03*
X790072Y468284I-1250J-3578D01*
G01*
X791799Y443998D02*
G03*
X791799Y441498I3578J-1250D01*
G01*
Y446498D02*
G03*
X791799Y443998I3578J-1250D01*
G01*
X799167Y427748D02*
G03*
X798955Y428998I-3790J0D01*
G01*
X791799Y431498D02*
G03*
X791799Y428998I3578J-1250D01*
G01*
X798955Y426498D02*
G03*
X799167Y427748I-3578J1250D01*
G01*
X791799Y428998D02*
G03*
X791799Y426498I3578J-1250D01*
G01*
Y436498D02*
G03*
X791799Y433998I3578J-1250D01*
G01*
Y438998D02*
G03*
X791799Y436498I3578J-1250D01*
G01*
Y433998D02*
G03*
X791799Y431498I3578J-1250D01*
G01*
X788979Y469485D02*
G03*
X791479Y469485I1250J3578D01*
G01*
X786479D02*
G03*
X788979Y469485I1250J3578D01*
G01*
X790072Y468284D02*
G03*
X787572Y468284I-1250J-3578D01*
G01*
X787572Y461128D02*
G03*
X790072Y461128I1250J3578D01*
G01*
X787572Y468284D02*
G03*
X785072Y468284I-1250J-3578D01*
G01*
X783979Y469485D02*
G03*
X786479Y469485I1250J3578D01*
G01*
X785072Y461128D02*
G03*
X787572Y461128I1250J3578D01*
G01*
X791799Y453998D02*
G03*
X791799Y451498I3578J-1250D01*
G01*
Y456498D02*
G03*
X791799Y453998I3578J-1250D01*
G01*
Y448998D02*
G03*
X791799Y446498I3578J-1250D01*
G01*
Y451498D02*
G03*
X791799Y448998I3578J-1250D01*
G01*
X791649Y460930D02*
G03*
X791799Y458998I3728J-681D01*
G01*
X790072Y461128D02*
G03*
X791649Y460930I1250J3578D01*
G01*
X791799Y458998D02*
G03*
X791799Y456498I3578J-1250D01*
G01*
X798955Y416498D02*
G03*
X799167Y417748I-3578J1250D01*
G01*
D02*
G03*
X798955Y418998I-3790J0D01*
G01*
X799167Y412748D02*
G03*
X798955Y413998I-3790J0D01*
G01*
D02*
G03*
X799167Y415248I-3578J1250D01*
G01*
Y420248D02*
G03*
X798955Y421498I-3790J0D01*
G01*
D02*
G03*
X799167Y422748I-3578J1250D01*
G01*
X798955Y418998D02*
G03*
X799167Y420248I-3578J1250D01*
G01*
X798955Y406498D02*
G03*
X799167Y407748I-3578J1250D01*
G01*
D02*
G03*
X798955Y408998I-3790J0D01*
G01*
Y403998D02*
G03*
X799167Y405248I-3578J1250D01*
G01*
D02*
G03*
X798955Y406498I-3790J0D01*
G01*
X799167Y410248D02*
G03*
X798955Y411498I-3790J0D01*
G01*
D02*
G03*
X799167Y412748I-3578J1250D01*
G01*
X798955Y408998D02*
G03*
X799167Y410248I-3578J1250D01*
G01*
X798955Y423998D02*
G03*
X799167Y425248I-3578J1250D01*
G01*
D02*
G03*
X798955Y426498I-3790J0D01*
G01*
X799167Y422748D02*
G03*
X798955Y423998I-3790J0D01*
G01*
X791799Y418998D02*
G03*
X791799Y416498I3578J-1250D01*
G01*
Y423998D02*
G03*
X791799Y421498I3578J-1250D01*
G01*
Y426498D02*
G03*
X791799Y423998I3578J-1250D01*
G01*
Y421498D02*
G03*
X791799Y418998I3578J-1250D01*
G01*
Y406498D02*
G03*
X791799Y403998I3578J-1250D01*
G01*
Y408998D02*
G03*
X791799Y406498I3578J-1250D01*
G01*
Y401498D02*
G03*
X792685Y397581I3578J-1250D01*
G01*
X791799Y403998D02*
G03*
X791799Y401498I3578J-1250D01*
G01*
Y413998D02*
G03*
X791799Y411498I3578J-1250D01*
G01*
Y416498D02*
G03*
X791799Y413998I3578J-1250D01*
G01*
Y411498D02*
G03*
X791799Y408998I3578J-1250D01*
G01*
X766479Y469485D02*
G03*
X768979Y469485I1250J3578D01*
G01*
X763979D02*
G03*
X766479Y469485I1250J3578D01*
G01*
X771479D02*
G03*
X773979Y469485I1250J3578D01*
G01*
X768979D02*
G03*
X771479Y469485I1250J3578D01*
G01*
X758979D02*
G03*
X761479Y469485I1250J3578D01*
G01*
X756479D02*
G03*
X758979Y469485I1250J3578D01*
G01*
X761479D02*
G03*
X763979Y469485I1250J3578D01*
G01*
X776479D02*
G03*
X778979Y469485I1250J3578D01*
G01*
X773979D02*
G03*
X776479Y469485I1250J3578D01*
G01*
X781479D02*
G03*
X783979Y469485I1250J3578D01*
G01*
X778979D02*
G03*
X781479Y469485I1250J3578D01*
G01*
X760072Y468284D02*
G03*
X757572Y468284I-1250J-3578D01*
G01*
D02*
G03*
X755072Y468284I-1250J-3578D01*
G01*
X767572D02*
G03*
X765072Y468284I-1250J-3578D01*
G01*
X748979Y469485D02*
G03*
X751479Y469485I1250J3578D01*
G01*
X746479D02*
G03*
X748979Y469485I1250J3578D01*
G01*
X753979D02*
G03*
X756479Y469485I1250J3578D01*
G01*
X751479D02*
G03*
X753979Y469485I1250J3578D01*
G01*
X741479D02*
G03*
X743979Y469485I1250J3578D01*
G01*
X738979D02*
G03*
X741479Y469485I1250J3578D01*
G01*
X743979D02*
G03*
X746479Y469485I1250J3578D01*
G01*
X750072Y468284D02*
G03*
X747572Y468284I-1250J-3578D01*
G01*
D02*
G03*
X745072Y468284I-1250J-3578D01*
G01*
X755072D02*
G03*
X752572Y468284I-1250J-3578D01*
G01*
D02*
G03*
X750072Y468284I-1250J-3578D01*
G01*
X742572D02*
G03*
X740072Y468284I-1250J-3578D01*
G01*
D02*
G03*
X737572Y468284I-1250J-3578D01*
G01*
X745072D02*
G03*
X742572Y468284I-1250J-3578D01*
G01*
X780072D02*
G03*
X777572Y468284I-1250J-3578D01*
G01*
D02*
G03*
X775072Y468284I-1250J-3578D01*
G01*
X785072D02*
G03*
X782572Y468284I-1250J-3578D01*
G01*
D02*
G03*
X780072Y468284I-1250J-3578D01*
G01*
X772572D02*
G03*
X770072Y468284I-1250J-3578D01*
G01*
D02*
G03*
X767572Y468284I-1250J-3578D01*
G01*
X775072D02*
G03*
X772572Y468284I-1250J-3578D01*
G01*
X777572Y461128D02*
G03*
X780072Y461128I1250J3578D01*
G01*
X775072D02*
G03*
X777572Y461128I1250J3578D01*
G01*
X782572D02*
G03*
X785072Y461128I1250J3578D01*
G01*
X780072D02*
G03*
X782572Y461128I1250J3578D01*
G01*
X770072D02*
G03*
X772572Y461128I1250J3578D01*
G01*
X767572D02*
G03*
X770072Y461128I1250J3578D01*
G01*
X772572D02*
G03*
X775072Y461128I1250J3578D01*
G01*
X765072Y468284D02*
G03*
X762572Y468284I-1250J-3578D01*
G01*
D02*
G03*
X760072Y468284I-1250J-3578D01*
G01*
X747572Y461128D02*
G03*
X750072Y461128I1250J3578D01*
G01*
X745072D02*
G03*
X747572Y461128I1250J3578D01*
G01*
X740072D02*
G03*
X742572Y461128I1250J3578D01*
G01*
X737572D02*
G03*
X740072Y461128I1250J3578D01*
G01*
X742572D02*
G03*
X745072Y461128I1250J3578D01*
G01*
X760072D02*
G03*
X762572Y461128I1250J3578D01*
G01*
X757572D02*
G03*
X760072Y461128I1250J3578D01*
G01*
X765072D02*
G03*
X767572Y461128I1250J3578D01*
G01*
X762572D02*
G03*
X765072Y461128I1250J3578D01*
G01*
X752572D02*
G03*
X755072Y461128I1250J3578D01*
G01*
X750072D02*
G03*
X752572Y461128I1250J3578D01*
G01*
X755072D02*
G03*
X757572Y461128I1250J3578D01*
G01*
X690726Y665220D02*
G03*
X690938Y666470I-3578J1250D01*
G01*
D02*
G03*
X690726Y667720I-3790J0D01*
G01*
Y662720D02*
G03*
X690938Y663970I-3578J1250D01*
G01*
D02*
G03*
X690726Y665220I-3790J0D01*
G01*
X690938Y691470D02*
G03*
X690726Y692720I-3790J0D01*
G01*
D02*
G03*
X690938Y693970I-3578J1250D01*
G01*
X690726Y667720D02*
G03*
X690938Y668970I-3578J1250D01*
G01*
X690726Y680220D02*
G03*
X690938Y681470I-3578J1250D01*
G01*
Y656470D02*
G03*
X690726Y657720I-3790J0D01*
G01*
D02*
G03*
X690938Y658970I-3578J1250D01*
G01*
Y653970D02*
G03*
X690726Y655220I-3790J0D01*
G01*
D02*
G03*
X690938Y656470I-3578J1250D01*
G01*
X690726Y660220D02*
G03*
X690938Y661470I-3578J1250D01*
G01*
D02*
G03*
X690726Y662720I-3790J0D01*
G01*
X690938Y658970D02*
G03*
X690726Y660220I-3790J0D01*
G01*
Y705220D02*
G03*
X690938Y706470I-3578J1250D01*
G01*
D02*
G03*
X690726Y707720I-3790J0D01*
G01*
Y702720D02*
G03*
X690938Y703970I-3578J1250D01*
G01*
D02*
G03*
X690726Y705220I-3790J0D01*
G01*
X690938Y708970D02*
G03*
X690726Y710220I-3790J0D01*
G01*
D02*
G03*
X690938Y711470I-3578J1250D01*
G01*
X690726Y707720D02*
G03*
X690938Y708970I-3578J1250D01*
G01*
Y696470D02*
G03*
X690726Y697720I-3790J0D01*
G01*
D02*
G03*
X690938Y698970I-3578J1250D01*
G01*
Y693970D02*
G03*
X690726Y695220I-3790J0D01*
G01*
D02*
G03*
X690938Y696470I-3578J1250D01*
G01*
X690726Y700220D02*
G03*
X690938Y701470I-3578J1250D01*
G01*
D02*
G03*
X690726Y702720I-3790J0D01*
G01*
X690938Y698970D02*
G03*
X690726Y700220I-3790J0D01*
G01*
X690938Y631470D02*
G03*
X690726Y632720I-3790J0D01*
G01*
D02*
G03*
X690938Y633970I-3578J1250D01*
G01*
Y628970D02*
G03*
X690726Y630220I-3790J0D01*
G01*
D02*
G03*
X690938Y631470I-3578J1250D01*
G01*
X690726Y635220D02*
G03*
X690938Y636470I-3578J1250D01*
G01*
D02*
G03*
X690726Y637720I-3790J0D01*
G01*
X690938Y633970D02*
G03*
X690726Y635220I-3790J0D01*
G01*
X730781Y626791D02*
G03*
X728281Y626791I-1250J-3578D01*
G01*
X723281D02*
G03*
X720781Y626791I-1250J-3578D01*
G01*
X738281D02*
G03*
X735781Y626791I-1250J-3578D01*
G01*
D02*
G03*
X733281Y626791I-1250J-3578D01*
G01*
X715781D02*
G03*
X713281Y626791I-1250J-3578D01*
G01*
X690726Y627720D02*
G03*
X690938Y628970I-3578J1250D01*
G01*
X698084Y626826D02*
G03*
X695671Y626784I-1143J-3614D01*
G01*
X690726Y647720D02*
G03*
X690938Y648970I-3578J1250D01*
G01*
D02*
G03*
X690726Y650220I-3790J0D01*
G01*
Y645220D02*
G03*
X690938Y646470I-3578J1250D01*
G01*
D02*
G03*
X690726Y647720I-3790J0D01*
G01*
X690938Y651470D02*
G03*
X690726Y652720I-3790J0D01*
G01*
D02*
G03*
X690938Y653970I-3578J1250D01*
G01*
X690726Y650220D02*
G03*
X690938Y651470I-3578J1250D01*
G01*
Y638970D02*
G03*
X690726Y640220I-3790J0D01*
G01*
D02*
G03*
X690938Y641470I-3578J1250D01*
G01*
X690726Y637720D02*
G03*
X690938Y638970I-3578J1250D01*
G01*
X690923Y626810D02*
G03*
X690726Y627720I-3775J-340D01*
G01*
Y642720D02*
G03*
X690938Y643970I-3578J1250D01*
G01*
D02*
G03*
X690726Y645220I-3790J0D01*
G01*
X690938Y641470D02*
G03*
X690726Y642720I-3790J0D01*
G01*
Y690220D02*
G03*
X690938Y691470I-3578J1250D01*
G01*
Y711470D02*
G03*
X690684Y712836I-3790J0D01*
G01*
X690726Y687720D02*
G03*
X690938Y688970I-3578J1250D01*
G01*
D02*
G03*
X690726Y690220I-3790J0D01*
G01*
X808958Y713981D02*
G03*
X619761Y722986I-102112J-153367D01*
G01*
X690857Y713969D02*
G03*
X689869Y716520I-3790J0D01*
G01*
X690684Y712836D02*
G03*
X690857Y713969I-3617J1133D01*
G01*
X690938Y681470D02*
G03*
X690726Y682720I-3790J0D01*
G01*
D02*
G03*
X690938Y683970I-3578J1250D01*
G01*
X690726Y677720D02*
G03*
X690938Y678970I-3578J1250D01*
G01*
D02*
G03*
X690726Y680220I-3790J0D01*
G01*
Y685220D02*
G03*
X690938Y686470I-3578J1250D01*
G01*
D02*
G03*
X690726Y687720I-3790J0D01*
G01*
X690938Y683970D02*
G03*
X690726Y685220I-3790J0D01*
G01*
X689869Y716520D02*
G03*
X685747Y720043I-3782J-251D01*
G01*
X683570Y707720D02*
G03*
X683570Y705220I3578J-1250D01*
G01*
Y702720D02*
G03*
X683570Y700220I3578J-1250D01*
G01*
Y705220D02*
G03*
X683570Y702720I3578J-1250D01*
G01*
X685747Y720043D02*
G03*
X679986Y722270I-3672J-937D01*
G01*
X683531Y712602D02*
G03*
X683570Y710220I3617J-1133D01*
G01*
D02*
G03*
X683570Y707720I3578J-1250D01*
G01*
Y687720D02*
G03*
X683570Y685220I3578J-1250D01*
G01*
Y690220D02*
G03*
X683570Y687720I3578J-1250D01*
G01*
Y682720D02*
G03*
X683570Y680220I3578J-1250D01*
G01*
Y685220D02*
G03*
X683570Y682720I3578J-1250D01*
G01*
Y697720D02*
G03*
X683570Y695220I3578J-1250D01*
G01*
Y700220D02*
G03*
X683570Y697720I3578J-1250D01*
G01*
Y692720D02*
G03*
X683570Y690220I3578J-1250D01*
G01*
X690938Y671470D02*
G03*
X690726Y672720I-3790J0D01*
G01*
D02*
G03*
X690938Y673970I-3578J1250D01*
G01*
Y668970D02*
G03*
X690726Y670220I-3790J0D01*
G01*
D02*
G03*
X690938Y671470I-3578J1250D01*
G01*
X690726Y675220D02*
G03*
X690938Y676470I-3578J1250D01*
G01*
D02*
G03*
X690726Y677720I-3790J0D01*
G01*
X690938Y673970D02*
G03*
X690726Y675220I-3790J0D01*
G01*
X683570Y632720D02*
G03*
X683570Y630220I3578J-1250D01*
G01*
Y635220D02*
G03*
X683570Y632720I3578J-1250D01*
G01*
Y627720D02*
G03*
X683570Y625220I3578J-1250D01*
G01*
Y630220D02*
G03*
X683570Y627720I3578J-1250D01*
G01*
Y640220D02*
G03*
X683570Y637720I3578J-1250D01*
G01*
Y642720D02*
G03*
X683570Y640220I3578J-1250D01*
G01*
Y637720D02*
G03*
X683570Y635220I3578J-1250D01*
G01*
Y667720D02*
G03*
X683570Y665220I3578J-1250D01*
G01*
Y670220D02*
G03*
X683570Y667720I3578J-1250D01*
G01*
Y662720D02*
G03*
X683570Y660220I3578J-1250D01*
G01*
Y665220D02*
G03*
X683570Y662720I3578J-1250D01*
G01*
Y677720D02*
G03*
X683570Y675220I3578J-1250D01*
G01*
Y680220D02*
G03*
X683570Y677720I3578J-1250D01*
G01*
Y675220D02*
G03*
X683570Y672720I3578J-1250D01*
G01*
Y650220D02*
G03*
X683570Y647720I3578J-1250D01*
G01*
Y652720D02*
G03*
X683570Y650220I3578J-1250D01*
G01*
Y645220D02*
G03*
X683570Y642720I3578J-1250D01*
G01*
Y647720D02*
G03*
X683570Y645220I3578J-1250D01*
G01*
Y657720D02*
G03*
X683570Y655220I3578J-1250D01*
G01*
Y660220D02*
G03*
X683570Y657720I3578J-1250D01*
G01*
Y655220D02*
G03*
X683570Y652720I3578J-1250D01*
G01*
X733281Y626791D02*
G03*
X730781Y626791I-1250J-3578D01*
G01*
X728281Y619635D02*
G03*
X730781Y619635I1250J3578D01*
G01*
X733281D02*
G03*
X735781Y619635I1250J3578D01*
G01*
X730781D02*
G03*
X733281Y619635I1250J3578D01*
G01*
X728281Y626791D02*
G03*
X725781Y626791I-1250J-3578D01*
G01*
D02*
G03*
X723281Y626791I-1250J-3578D01*
G01*
X725781Y619635D02*
G03*
X728281Y619635I1250J3578D01*
G01*
X723281D02*
G03*
X725781Y619635I1250J3578D01*
G01*
X735781D02*
G03*
X738281Y619635I1250J3578D01*
G01*
X734890Y618434D02*
G03*
X732390Y618434I-1250J-3578D01*
G01*
X739890D02*
G03*
X737390Y618434I-1250J-3578D01*
G01*
D02*
G03*
X734890Y618434I-1250J-3578D01*
G01*
X729890D02*
G03*
X727390Y618434I-1250J-3578D01*
G01*
D02*
G03*
X724890Y618434I-1250J-3578D01*
G01*
X732390D02*
G03*
X729890Y618434I-1250J-3578D01*
G01*
X720781Y626791D02*
G03*
X718281Y626791I-1250J-3578D01*
G01*
D02*
G03*
X715781Y626791I-1250J-3578D01*
G01*
X718281Y619635D02*
G03*
X720781Y619635I1250J3578D01*
G01*
X715781D02*
G03*
X718281Y619635I1250J3578D01*
G01*
X713281Y626791D02*
G03*
X710836Y626809I-1250J-3578D01*
G01*
Y619616D02*
G03*
X713281Y619635I1195J3597D01*
G01*
D02*
G03*
X715781Y619635I1250J3578D01*
G01*
X720781D02*
G03*
X723281Y619635I1250J3578D01*
G01*
X719890Y618434D02*
G03*
X717390Y618434I-1250J-3578D01*
G01*
X724890D02*
G03*
X722390Y618434I-1250J-3578D01*
G01*
D02*
G03*
X719890Y618434I-1250J-3578D01*
G01*
X714890D02*
G03*
X712390Y618434I-1250J-3578D01*
G01*
D02*
G03*
X709890Y618434I-1250J-3578D01*
G01*
X717390D02*
G03*
X714890Y618434I-1250J-3578D01*
G01*
X732390Y611278D02*
G03*
X734890Y611278I1250J3578D01*
G01*
X729890D02*
G03*
X732390Y611278I1250J3578D01*
G01*
X737390D02*
G03*
X739890Y611278I1250J3578D01*
G01*
X734890D02*
G03*
X737390Y611278I1250J3578D01*
G01*
X724890D02*
G03*
X727390Y611278I1250J3578D01*
G01*
X722390D02*
G03*
X724890Y611278I1250J3578D01*
G01*
X727390D02*
G03*
X729890Y611278I1250J3578D01*
G01*
X714890D02*
G03*
X717390Y611278I1250J3578D01*
G01*
X712390D02*
G03*
X714890Y611278I1250J3578D01*
G01*
X719890D02*
G03*
X722390Y611278I1250J3578D01*
G01*
X717390D02*
G03*
X719890Y611278I1250J3578D01*
G01*
X709890D02*
G03*
X712390Y611278I1250J3578D01*
G01*
X710836Y626809D02*
G03*
X708371Y626784I-1195J-3597D01*
G01*
X705704Y626736D02*
G03*
X702910Y626736I-1397J-3523D01*
G01*
X708371Y626784D02*
G03*
X705704Y626736I-1270J-3571D01*
G01*
X702910Y619689D02*
G03*
X705704Y619689I1397J3523D01*
G01*
X702910Y626736D02*
G03*
X700370Y626826I-1397J-3523D01*
G01*
D02*
G03*
X698084Y626826I-1143J-3614D01*
G01*
X700370Y619599D02*
G03*
X702910Y619689I1143J3614D01*
G01*
X708371Y619642D02*
G03*
X710836Y619616I1270J3571D01*
G01*
X705704Y619689D02*
G03*
X708371Y619642I1397J3523D01*
G01*
X709890Y618434D02*
G03*
X707390Y618434I-1250J-3578D01*
G01*
D02*
G03*
X704890Y618434I-1250J-3578D01*
G01*
X702390D02*
G03*
X699890Y618434I-1250J-3578D01*
G01*
X698084Y619599D02*
G03*
X700370Y619599I1143J3614D01*
G01*
X704890Y618434D02*
G03*
X702390Y618434I-1250J-3578D01*
G01*
X695671Y626784D02*
G03*
X693258Y626826I-1270J-3571D01*
G01*
D02*
G03*
X690923Y626810I-1143J-3614D01*
G01*
X695671Y619642D02*
G03*
X698084Y619599I1270J3571D01*
G01*
X693258D02*
G03*
X695671Y619642I1143J3614D01*
G01*
X687298Y620183D02*
G03*
X690845Y619642I2277J3030D01*
G01*
X683570Y625220D02*
G03*
X687298Y620183I3578J-1250D01*
G01*
X690845Y619642D02*
G03*
X693258Y619599I1270J3571D01*
G01*
X694890Y618434D02*
G03*
X692390Y618434I-1250J-3578D01*
G01*
D02*
G03*
X689890Y618434I-1250J-3578D01*
G01*
X699890D02*
G03*
X697390Y618434I-1250J-3578D01*
G01*
D02*
G03*
X694890Y618434I-1250J-3578D01*
G01*
X687317Y618407D02*
G03*
X684885Y618612I-1517J-3473D01*
G01*
D02*
G03*
X683570Y618965I-1625J-3424D01*
G01*
X689890Y618434D02*
G03*
X687317Y618407I-1250J-3578D01*
G01*
X704890Y611278D02*
G03*
X707390Y611278I1250J3578D01*
G01*
X702390D02*
G03*
X704890Y611278I1250J3578D01*
G01*
X707390D02*
G03*
X709890Y611278I1250J3578D01*
G01*
X699890D02*
G03*
X702390Y611278I1250J3578D01*
G01*
X692390D02*
G03*
X694890Y611278I1250J3578D01*
G01*
X689890D02*
G03*
X692390Y611278I1250J3578D01*
G01*
X697390D02*
G03*
X699890Y611278I1250J3578D01*
G01*
X694890D02*
G03*
X697390Y611278I1250J3578D01*
G01*
X684175Y611510D02*
G03*
X687123Y611382I1625J3424D01*
G01*
X680664Y612427D02*
G03*
X684175Y611510I2596J2761D01*
G01*
X687123Y611382D02*
G03*
X689890Y611278I1517J3473D01*
G01*
X676480Y722803D02*
G03*
X673980Y722803I-1250J-3578D01*
G01*
D02*
G03*
X671480Y722803I-1250J-3578D01*
G01*
X679986Y722270D02*
G03*
X676480Y722803I-2256J-3045D01*
G01*
X676480Y715647D02*
G03*
X679818Y716062I1250J3578D01*
G01*
X666480Y722803D02*
G03*
X663980Y722803I-1250J-3578D01*
G01*
D02*
G03*
X661480Y722803I-1250J-3578D01*
G01*
X671480D02*
G03*
X668980Y722803I-1250J-3578D01*
G01*
D02*
G03*
X666480Y722803I-1250J-3578D01*
G01*
X671480Y715647D02*
G03*
X673980Y715647I1250J3578D01*
G01*
X668980D02*
G03*
X671480Y715647I1250J3578D01*
G01*
X679818Y716062D02*
G03*
X682415Y715332I2256J3045D01*
G01*
X673980Y715647D02*
G03*
X676480Y715647I1250J3578D01*
G01*
X663980D02*
G03*
X666480Y715647I1250J3578D01*
G01*
X661480D02*
G03*
X663980Y715647I1250J3578D01*
G01*
X666480D02*
G03*
X668980Y715647I1250J3578D01*
G01*
X656480Y722803D02*
G03*
X653980Y722803I-1250J-3578D01*
G01*
D02*
G03*
X651480Y722803I-1250J-3578D01*
G01*
X661480D02*
G03*
X658980Y722803I-1250J-3578D01*
G01*
D02*
G03*
X656480Y722803I-1250J-3578D01*
G01*
X651480D02*
G03*
X648980Y722803I-1250J-3578D01*
G01*
D02*
G03*
X646480Y722803I-1250J-3578D01*
G01*
X646480Y715647D02*
G03*
X648980Y715647I1250J3578D01*
G01*
X656480D02*
G03*
X658980Y715647I1250J3578D01*
G01*
X653980D02*
G03*
X656480Y715647I1250J3578D01*
G01*
X662600Y714446D02*
G03*
X660100Y714446I-1250J-3578D01*
G01*
X658980Y715647D02*
G03*
X661480Y715647I1250J3578D01*
G01*
X651480D02*
G03*
X653980Y715647I1250J3578D01*
G01*
X648980D02*
G03*
X651480Y715647I1250J3578D01*
G01*
X647600Y714446D02*
G03*
X645100Y714446I-1250J-3578D01*
G01*
X678339Y714094D02*
G03*
X675100Y714446I-1989J-3226D01*
G01*
D02*
G03*
X672600Y714446I-1250J-3578D01*
G01*
X682415Y715332D02*
G03*
X683285Y713717I3672J937D01*
G01*
X682581Y710331D02*
G03*
X678339Y714094I-3790J0D01*
G01*
X670100Y714446D02*
G03*
X667600Y714446I-1250J-3578D01*
G01*
D02*
G03*
X665100Y714446I-1250J-3578D01*
G01*
X672600D02*
G03*
X670100Y714446I-1250J-3578D01*
G01*
X683285Y713717D02*
G03*
X683531Y712602I3782J251D01*
G01*
X682369Y709081D02*
G03*
X682581Y710331I-3578J1250D01*
G01*
X682369Y706581D02*
G03*
X682581Y707831I-3578J1250D01*
G01*
D02*
G03*
X682369Y709081I-3790J0D01*
G01*
X670100Y707290D02*
G03*
X672600Y707290I1250J3578D01*
G01*
X667600D02*
G03*
X670100Y707290I1250J3578D01*
G01*
X672600D02*
G03*
X675043Y707270I1250J3578D01*
G01*
X657600Y714446D02*
G03*
X655100Y714446I-1250J-3578D01*
G01*
D02*
G03*
X652600Y714446I-1250J-3578D01*
G01*
X665100D02*
G03*
X662600Y714446I-1250J-3578D01*
G01*
X660100D02*
G03*
X657600Y714446I-1250J-3578D01*
G01*
X652600D02*
G03*
X650100Y714446I-1250J-3578D01*
G01*
D02*
G03*
X647600Y714446I-1250J-3578D01*
G01*
X647600Y707290D02*
G03*
X650100Y707290I1250J3578D01*
G01*
X660100D02*
G03*
X662600Y707290I1250J3578D01*
G01*
X657600D02*
G03*
X660100Y707290I1250J3578D01*
G01*
X665100D02*
G03*
X667600Y707290I1250J3578D01*
G01*
X662600D02*
G03*
X665100Y707290I1250J3578D01*
G01*
X652600D02*
G03*
X655100Y707290I1250J3578D01*
G01*
X650100D02*
G03*
X652600Y707290I1250J3578D01*
G01*
X655100D02*
G03*
X657600Y707290I1250J3578D01*
G01*
X641480Y722803D02*
G03*
X638980Y722803I-1250J-3578D01*
G01*
D02*
G03*
X636480Y722803I-1250J-3578D01*
G01*
X646480D02*
G03*
X643980Y722803I-1250J-3578D01*
G01*
D02*
G03*
X641480Y722803I-1250J-3578D01*
G01*
X633980D02*
G03*
X631480Y722803I-1250J-3578D01*
G01*
D02*
G03*
X628980Y722803I-1250J-3578D01*
G01*
X636480D02*
G03*
X633980Y722803I-1250J-3578D01*
G01*
X638980Y715647D02*
G03*
X641480Y715647I1250J3578D01*
G01*
X636480D02*
G03*
X638980Y715647I1250J3578D01*
G01*
X643980D02*
G03*
X646480Y715647I1250J3578D01*
G01*
X641480D02*
G03*
X643980Y715647I1250J3578D01*
G01*
X631480D02*
G03*
X633980Y715647I1250J3578D01*
G01*
X628980D02*
G03*
X631480Y715647I1250J3578D01*
G01*
X633980D02*
G03*
X636480Y715647I1250J3578D01*
G01*
X623980Y722803D02*
G03*
X621480Y722803I-1250J-3578D01*
G01*
D02*
G03*
X619761Y722986I-1250J-3578D01*
G01*
X628980Y722803D02*
G03*
X626480Y722803I-1250J-3578D01*
G01*
D02*
G03*
X623980Y722803I-1250J-3578D01*
G01*
X616480Y715647D02*
G03*
X618980Y715647I1250J3578D01*
G01*
X611552Y718308D02*
G03*
X616480Y715647I3677J916D01*
G01*
X611552Y718308D02*
G03*
X605661Y714595I95294J-157694D01*
G01*
X626480Y715647D02*
G03*
X628980Y715647I1250J3578D01*
G01*
X623980D02*
G03*
X626480Y715647I1250J3578D01*
G01*
X627600Y714446D02*
G03*
X625100Y714446I-1250J-3578D01*
G01*
D02*
G03*
X622600Y714446I-1250J-3578D01*
G01*
X621480Y715647D02*
G03*
X623980Y715647I1250J3578D01*
G01*
X618980D02*
G03*
X621480Y715647I1250J3578D01*
G01*
X622600Y714446D02*
G03*
X620100Y714446I-1250J-3578D01*
G01*
X640100D02*
G03*
X637600Y714446I-1250J-3578D01*
G01*
D02*
G03*
X635100Y714446I-1250J-3578D01*
G01*
X645100D02*
G03*
X642600Y714446I-1250J-3578D01*
G01*
D02*
G03*
X640100Y714446I-1250J-3578D01*
G01*
X632600D02*
G03*
X630100Y714446I-1250J-3578D01*
G01*
D02*
G03*
X627600Y714446I-1250J-3578D01*
G01*
X635100D02*
G03*
X632600Y714446I-1250J-3578D01*
G01*
X640100Y707290D02*
G03*
X642600Y707290I1250J3578D01*
G01*
X637600D02*
G03*
X640100Y707290I1250J3578D01*
G01*
X645100D02*
G03*
X647600Y707290I1250J3578D01*
G01*
X642600D02*
G03*
X645100Y707290I1250J3578D01*
G01*
X632600D02*
G03*
X635100Y707290I1250J3578D01*
G01*
X630100D02*
G03*
X632600Y707290I1250J3578D01*
G01*
X635100D02*
G03*
X637600Y707290I1250J3578D01*
G01*
X615100Y714446D02*
G03*
X612600Y714446I-1250J-3578D01*
G01*
D02*
G03*
X610100Y714446I-1250J-3578D01*
G01*
X620100D02*
G03*
X617600Y714446I-1250J-3578D01*
G01*
D02*
G03*
X615100Y714446I-1250J-3578D01*
G01*
X610100D02*
G03*
X607600Y714446I-1250J-3578D01*
G01*
D02*
G03*
X605661Y714595I-1250J-3578D01*
G01*
X597933Y709229D02*
G03*
X602600Y707290I3417J1639D01*
G01*
X622600D02*
G03*
X625100Y707290I1250J3578D01*
G01*
X620100D02*
G03*
X622600Y707290I1250J3578D01*
G01*
X627600D02*
G03*
X630100Y707290I1250J3578D01*
G01*
X625100D02*
G03*
X627600Y707290I1250J3578D01*
G01*
X615100D02*
G03*
X617600Y707290I1250J3578D01*
G01*
X602600D02*
G03*
X605100Y707290I1250J3578D01*
G01*
X617600D02*
G03*
X620100Y707290I1250J3578D01*
G01*
X683570Y672720D02*
G03*
X683570Y670220I3578J-1250D01*
G01*
Y695220D02*
G03*
X683570Y692720I3578J-1250D01*
G01*
X682581Y662831D02*
G03*
X682369Y664081I-3790J0D01*
G01*
D02*
G03*
X682581Y665331I-3578J1250D01*
G01*
Y667831D02*
G03*
X682369Y669081I-3790J0D01*
G01*
D02*
G03*
X682581Y670331I-3578J1250D01*
G01*
Y665331D02*
G03*
X682369Y666581I-3790J0D01*
G01*
D02*
G03*
X682581Y667831I-3578J1250D01*
G01*
X682369Y656581D02*
G03*
X682581Y657831I-3578J1250D01*
G01*
D02*
G03*
X682369Y659081I-3790J0D01*
G01*
Y654081D02*
G03*
X682581Y655331I-3578J1250D01*
G01*
D02*
G03*
X682369Y656581I-3790J0D01*
G01*
X682581Y660331D02*
G03*
X682369Y661581I-3790J0D01*
G01*
D02*
G03*
X682581Y662831I-3578J1250D01*
G01*
X682369Y659081D02*
G03*
X682581Y660331I-3578J1250D01*
G01*
X682369Y681581D02*
G03*
X682581Y682831I-3578J1250D01*
G01*
D02*
G03*
X682369Y684081I-3790J0D01*
G01*
Y679081D02*
G03*
X682581Y680331I-3578J1250D01*
G01*
D02*
G03*
X682369Y681581I-3790J0D01*
G01*
X682581Y685331D02*
G03*
X682369Y686581I-3790J0D01*
G01*
D02*
G03*
X682581Y687831I-3578J1250D01*
G01*
X682369Y684081D02*
G03*
X682581Y685331I-3578J1250D01*
G01*
Y672831D02*
G03*
X682369Y674081I-3790J0D01*
G01*
D02*
G03*
X682581Y675331I-3578J1250D01*
G01*
Y670331D02*
G03*
X682369Y671581I-3790J0D01*
G01*
D02*
G03*
X682581Y672831I-3578J1250D01*
G01*
X682369Y676581D02*
G03*
X682581Y677831I-3578J1250D01*
G01*
D02*
G03*
X682369Y679081I-3790J0D01*
G01*
X682581Y675331D02*
G03*
X682369Y676581I-3790J0D01*
G01*
X682581Y630331D02*
G03*
X682369Y631581I-3790J0D01*
G01*
D02*
G03*
X682581Y632831I-3578J1250D01*
G01*
Y627831D02*
G03*
X682369Y629081I-3790J0D01*
G01*
D02*
G03*
X682581Y630331I-3578J1250D01*
G01*
X682369Y634081D02*
G03*
X682581Y635331I-3578J1250D01*
G01*
D02*
G03*
X682369Y636581I-3790J0D01*
G01*
X682581Y632831D02*
G03*
X682369Y634081I-3790J0D01*
G01*
X682388Y621635D02*
G03*
X682581Y622831I-3596J1196D01*
G01*
D02*
G03*
X682369Y624081I-3790J0D01*
G01*
X683331Y619172D02*
G03*
X682617Y620450I-3604J-1174D01*
G01*
D02*
G03*
X682388Y621635I-3788J-119D01*
G01*
X682581Y625331D02*
G03*
X682369Y626581I-3790J0D01*
G01*
D02*
G03*
X682581Y627831I-3578J1250D01*
G01*
X682369Y624081D02*
G03*
X682581Y625331I-3578J1250D01*
G01*
Y647831D02*
G03*
X682369Y649081I-3790J0D01*
G01*
D02*
G03*
X682581Y650331I-3578J1250D01*
G01*
Y645331D02*
G03*
X682369Y646581I-3790J0D01*
G01*
D02*
G03*
X682581Y647831I-3578J1250D01*
G01*
X682369Y651581D02*
G03*
X682581Y652831I-3578J1250D01*
G01*
D02*
G03*
X682369Y654081I-3790J0D01*
G01*
X682581Y650331D02*
G03*
X682369Y651581I-3790J0D01*
G01*
Y639081D02*
G03*
X682581Y640331I-3578J1250D01*
G01*
D02*
G03*
X682369Y641581I-3790J0D01*
G01*
Y636581D02*
G03*
X682581Y637831I-3578J1250D01*
G01*
D02*
G03*
X682369Y639081I-3790J0D01*
G01*
X682581Y642831D02*
G03*
X682369Y644081I-3790J0D01*
G01*
D02*
G03*
X682581Y645331I-3578J1250D01*
G01*
X682369Y641581D02*
G03*
X682581Y642831I-3578J1250D01*
G01*
X682369Y699081D02*
G03*
X682581Y700331I-3578J1250D01*
G01*
D02*
G03*
X682369Y701581I-3790J0D01*
G01*
Y696581D02*
G03*
X682581Y697831I-3578J1250D01*
G01*
D02*
G03*
X682369Y699081I-3790J0D01*
G01*
X682581Y702831D02*
G03*
X682369Y704081I-3790J0D01*
G01*
D02*
G03*
X682581Y705331I-3578J1250D01*
G01*
X682369Y701581D02*
G03*
X682581Y702831I-3578J1250D01*
G01*
Y690331D02*
G03*
X682369Y691581I-3790J0D01*
G01*
D02*
G03*
X682581Y692831I-3578J1250D01*
G01*
Y687831D02*
G03*
X682369Y689081I-3790J0D01*
G01*
D02*
G03*
X682581Y690331I-3578J1250D01*
G01*
X682369Y694081D02*
G03*
X682581Y695331I-3578J1250D01*
G01*
D02*
G03*
X682369Y696581I-3790J0D01*
G01*
X682581Y692831D02*
G03*
X682369Y694081I-3790J0D01*
G01*
X682581Y705331D02*
G03*
X682369Y706581I-3790J0D01*
G01*
X612600Y707290D02*
G03*
X615100Y707290I1250J3578D01*
G01*
X675213Y704081D02*
G03*
X675213Y701581I3578J-1250D01*
G01*
Y706581D02*
G03*
X675213Y704081I3578J-1250D01*
G01*
X607600Y707290D02*
G03*
X610100Y707290I1250J3578D01*
G01*
X605100D02*
G03*
X607600Y707290I1250J3578D01*
G01*
X610100D02*
G03*
X612600Y707290I1250J3578D01*
G01*
X675213Y691581D02*
G03*
X675213Y689081I3578J-1250D01*
G01*
Y694081D02*
G03*
X675213Y691581I3578J-1250D01*
G01*
Y686581D02*
G03*
X675213Y684081I3578J-1250D01*
G01*
Y689081D02*
G03*
X675213Y686581I3578J-1250D01*
G01*
Y699081D02*
G03*
X675213Y696581I3578J-1250D01*
G01*
Y701581D02*
G03*
X675213Y699081I3578J-1250D01*
G01*
Y696581D02*
G03*
X675213Y694081I3578J-1250D01*
G01*
Y639081D02*
G03*
X675213Y636581I3578J-1250D01*
G01*
Y641581D02*
G03*
X675213Y639081I3578J-1250D01*
G01*
Y634081D02*
G03*
X675213Y631581I3578J-1250D01*
G01*
Y636581D02*
G03*
X675213Y634081I3578J-1250D01*
G01*
Y646581D02*
G03*
X675213Y644081I3578J-1250D01*
G01*
Y649081D02*
G03*
X675213Y646581I3578J-1250D01*
G01*
Y644081D02*
G03*
X675213Y641581I3578J-1250D01*
G01*
X675233Y621527D02*
G03*
X675939Y617879I3596J-1196D01*
G01*
X675213Y624081D02*
G03*
X675233Y621527I3578J-1250D01*
G01*
X677370Y615030D02*
G03*
X680664Y612427I3604J1174D01*
G01*
X675939Y617879D02*
G03*
X677370Y615030I3788J119D01*
G01*
X675213Y629081D02*
G03*
X675213Y626581I3578J-1250D01*
G01*
Y631581D02*
G03*
X675213Y629081I3578J-1250D01*
G01*
Y626581D02*
G03*
X675213Y624081I3578J-1250D01*
G01*
Y674081D02*
G03*
X675213Y671581I3578J-1250D01*
G01*
Y676581D02*
G03*
X675213Y674081I3578J-1250D01*
G01*
Y669081D02*
G03*
X675213Y666581I3578J-1250D01*
G01*
Y671581D02*
G03*
X675213Y669081I3578J-1250D01*
G01*
Y681581D02*
G03*
X675213Y679081I3578J-1250D01*
G01*
Y684081D02*
G03*
X675213Y681581I3578J-1250D01*
G01*
Y679081D02*
G03*
X675213Y676581I3578J-1250D01*
G01*
Y656581D02*
G03*
X675213Y654081I3578J-1250D01*
G01*
Y659081D02*
G03*
X675213Y656581I3578J-1250D01*
G01*
Y651581D02*
G03*
X675213Y649081I3578J-1250D01*
G01*
Y654081D02*
G03*
X675213Y651581I3578J-1250D01*
G01*
Y664081D02*
G03*
X675213Y661581I3578J-1250D01*
G01*
Y666581D02*
G03*
X675213Y664081I3578J-1250D01*
G01*
Y661581D02*
G03*
X675213Y659081I3578J-1250D01*
G01*
X703979Y476641D02*
G03*
X701479Y476641I-1250J-3578D01*
G01*
X733979D02*
G03*
X731479Y476641I-1250J-3578D01*
G01*
D02*
G03*
X728979Y476641I-1250J-3578D01*
G01*
X738979D02*
G03*
X736479Y476641I-1250J-3578D01*
G01*
D02*
G03*
X733979Y476641I-1250J-3578D01*
G01*
X726479D02*
G03*
X723979Y476641I-1250J-3578D01*
G01*
D02*
G03*
X721479Y476641I-1250J-3578D01*
G01*
X728979D02*
G03*
X726479Y476641I-1250J-3578D01*
G01*
X731479Y469485D02*
G03*
X733979Y469485I1250J3578D01*
G01*
X728979D02*
G03*
X731479Y469485I1250J3578D01*
G01*
X736479D02*
G03*
X738979Y469485I1250J3578D01*
G01*
X733979D02*
G03*
X736479Y469485I1250J3578D01*
G01*
X723979D02*
G03*
X726479Y469485I1250J3578D01*
G01*
X721479D02*
G03*
X723979Y469485I1250J3578D01*
G01*
X726479D02*
G03*
X728979Y469485I1250J3578D01*
G01*
X716479Y476641D02*
G03*
X713979Y476641I-1250J-3578D01*
G01*
D02*
G03*
X711479Y476641I-1250J-3578D01*
G01*
X721479D02*
G03*
X718979Y476641I-1250J-3578D01*
G01*
D02*
G03*
X716479Y476641I-1250J-3578D01*
G01*
X708979D02*
G03*
X706479Y476641I-1250J-3578D01*
G01*
D02*
G03*
X703979Y476641I-1250J-3578D01*
G01*
X711479D02*
G03*
X708979Y476641I-1250J-3578D01*
G01*
X713979Y469485D02*
G03*
X716479Y469485I1250J3578D01*
G01*
X711479D02*
G03*
X713979Y469485I1250J3578D01*
G01*
X718979D02*
G03*
X721479Y469485I1250J3578D01*
G01*
X716479D02*
G03*
X718979Y469485I1250J3578D01*
G01*
X706479D02*
G03*
X708979Y469485I1250J3578D01*
G01*
X703979D02*
G03*
X706479Y469485I1250J3578D01*
G01*
X708979D02*
G03*
X711479Y469485I1250J3578D01*
G01*
X698979Y476641D02*
G03*
X696479Y476641I-1250J-3578D01*
G01*
X686479D02*
G03*
X683979Y476641I-1250J-3578D01*
G01*
X678979D02*
G03*
X676479Y476641I-1250J-3578D01*
G01*
D02*
G03*
X673979Y476641I-1250J-3578D01*
G01*
X683979D02*
G03*
X681479Y476641I-1250J-3578D01*
G01*
D02*
G03*
X678979Y476641I-1250J-3578D01*
G01*
X671479D02*
G03*
X668979Y476641I-1250J-3578D01*
G01*
D02*
G03*
X666479Y476641I-1250J-3578D01*
G01*
X673979D02*
G03*
X671479Y476641I-1250J-3578D01*
G01*
X693979D02*
G03*
X691479Y476641I-1250J-3578D01*
G01*
D02*
G03*
X688979Y476641I-1250J-3578D01*
G01*
X701479D02*
G03*
X698979Y476641I-1250J-3578D01*
G01*
X696479D02*
G03*
X693979Y476641I-1250J-3578D01*
G01*
X688979D02*
G03*
X686479Y476641I-1250J-3578D01*
G01*
X676479Y469485D02*
G03*
X678979Y469485I1250J3578D01*
G01*
D02*
G03*
X681479Y469485I1250J3578D01*
G01*
X691479D02*
G03*
X693979Y469485I1250J3578D01*
G01*
X688979D02*
G03*
X691479Y469485I1250J3578D01*
G01*
X696479D02*
G03*
X698979Y469485I1250J3578D01*
G01*
X693979D02*
G03*
X696479Y469485I1250J3578D01*
G01*
X683979D02*
G03*
X686479Y469485I1250J3578D01*
G01*
X681479D02*
G03*
X683979Y469485I1250J3578D01*
G01*
X686479D02*
G03*
X688979Y469485I1250J3578D01*
G01*
X661479Y476641D02*
G03*
X658979Y476641I-1250J-3578D01*
G01*
D02*
G03*
X656479Y476641I-1250J-3578D01*
G01*
X666479D02*
G03*
X663979Y476641I-1250J-3578D01*
G01*
D02*
G03*
X661479Y476641I-1250J-3578D01*
G01*
X656479D02*
G03*
X653979Y476641I-1250J-3578D01*
G01*
X653979Y469485D02*
G03*
X656479Y469485I1250J3578D01*
G01*
D02*
G03*
X658979Y469485I1250J3578D01*
G01*
X668979D02*
G03*
X671479Y469485I1250J3578D01*
G01*
X666479D02*
G03*
X668979Y469485I1250J3578D01*
G01*
X673979D02*
G03*
X676479Y469485I1250J3578D01*
G01*
X671479D02*
G03*
X673979Y469485I1250J3578D01*
G01*
X661479D02*
G03*
X663979Y469485I1250J3578D01*
G01*
X658979D02*
G03*
X661479Y469485I1250J3578D01*
G01*
X663979D02*
G03*
X666479Y469485I1250J3578D01*
G01*
X730072Y468284D02*
G03*
X727572Y468284I-1250J-3578D01*
G01*
D02*
G03*
X725072Y468284I-1250J-3578D01*
G01*
X735072D02*
G03*
X732572Y468284I-1250J-3578D01*
G01*
D02*
G03*
X730072Y468284I-1250J-3578D01*
G01*
X720072D02*
G03*
X717572Y468284I-1250J-3578D01*
G01*
D02*
G03*
X715072Y468284I-1250J-3578D01*
G01*
X725072D02*
G03*
X722572Y468284I-1250J-3578D01*
G01*
D02*
G03*
X720072Y468284I-1250J-3578D01*
G01*
X737572D02*
G03*
X735072Y468284I-1250J-3578D01*
G01*
X725072Y461128D02*
G03*
X727572Y461128I1250J3578D01*
G01*
X730072D02*
G03*
X732572Y461128I1250J3578D01*
G01*
X727572D02*
G03*
X730072Y461128I1250J3578D01*
G01*
X720072D02*
G03*
X722572Y461128I1250J3578D01*
G01*
X717572D02*
G03*
X720072Y461128I1250J3578D01*
G01*
X722572D02*
G03*
X725072Y461128I1250J3578D01*
G01*
X707572Y468284D02*
G03*
X705072Y468284I-1250J-3578D01*
G01*
D02*
G03*
X702572Y468284I-1250J-3578D01*
G01*
X712572D02*
G03*
X710072Y468284I-1250J-3578D01*
G01*
D02*
G03*
X707572Y468284I-1250J-3578D01*
G01*
X701479Y469485D02*
G03*
X703979Y469485I1250J3578D01*
G01*
X698979D02*
G03*
X701479Y469485I1250J3578D01*
G01*
X702572Y468284D02*
G03*
X700072Y468284I-1250J-3578D01*
G01*
X715072D02*
G03*
X712572Y468284I-1250J-3578D01*
G01*
X707572Y461128D02*
G03*
X710072Y461128I1250J3578D01*
G01*
X712572D02*
G03*
X715072Y461128I1250J3578D01*
G01*
X710072D02*
G03*
X712572Y461128I1250J3578D01*
G01*
X702572D02*
G03*
X705072Y461128I1250J3578D01*
G01*
X700072D02*
G03*
X702572Y461128I1250J3578D01*
G01*
X705072D02*
G03*
X707572Y461128I1250J3578D01*
G01*
X735072D02*
G03*
X737572Y461128I1250J3578D01*
G01*
X732572D02*
G03*
X735072Y461128I1250J3578D01*
G01*
X715072D02*
G03*
X717572Y461128I1250J3578D01*
G01*
X682572Y468284D02*
G03*
X680072Y468284I-1250J-3578D01*
G01*
D02*
G03*
X677572Y468284I-1250J-3578D01*
G01*
X687572D02*
G03*
X685072Y468284I-1250J-3578D01*
G01*
D02*
G03*
X682572Y468284I-1250J-3578D01*
G01*
X675072D02*
G03*
X672572Y468284I-1250J-3578D01*
G01*
D02*
G03*
X670072Y468284I-1250J-3578D01*
G01*
X677572D02*
G03*
X675072Y468284I-1250J-3578D01*
G01*
X695072D02*
G03*
X692572Y468284I-1250J-3578D01*
G01*
D02*
G03*
X690072Y468284I-1250J-3578D01*
G01*
X700072D02*
G03*
X697572Y468284I-1250J-3578D01*
G01*
D02*
G03*
X695072Y468284I-1250J-3578D01*
G01*
X690072D02*
G03*
X687572Y468284I-1250J-3578D01*
G01*
X677572Y461128D02*
G03*
X680072Y461128I1250J3578D01*
G01*
X690072D02*
G03*
X692572Y461128I1250J3578D01*
G01*
X665072Y468284D02*
G03*
X662572Y468284I-1250J-3578D01*
G01*
D02*
G03*
X660072Y468284I-1250J-3578D01*
G01*
X670072D02*
G03*
X667572Y468284I-1250J-3578D01*
G01*
D02*
G03*
X665072Y468284I-1250J-3578D01*
G01*
X657572D02*
G03*
X655072Y468284I-1250J-3578D01*
G01*
D02*
G03*
X652572Y468284I-1250J-3578D01*
G01*
X660072D02*
G03*
X657572Y468284I-1250J-3578D01*
G01*
X662572Y461128D02*
G03*
X665072Y461128I1250J3578D01*
G01*
X660072D02*
G03*
X662572Y461128I1250J3578D01*
G01*
X667572D02*
G03*
X670072Y461128I1250J3578D01*
G01*
X665072D02*
G03*
X667572Y461128I1250J3578D01*
G01*
X655072D02*
G03*
X657572Y461128I1250J3578D01*
G01*
X652572D02*
G03*
X655072Y461128I1250J3578D01*
G01*
X657572D02*
G03*
X660072Y461128I1250J3578D01*
G01*
X692572D02*
G03*
X695072Y461128I1250J3578D01*
G01*
X687572D02*
G03*
X690072Y461128I1250J3578D01*
G01*
X697572D02*
G03*
X700072Y461128I1250J3578D01*
G01*
X695072D02*
G03*
X697572Y461128I1250J3578D01*
G01*
X682572D02*
G03*
X685072Y461128I1250J3578D01*
G01*
X680072D02*
G03*
X682572Y461128I1250J3578D01*
G01*
X685072D02*
G03*
X687572Y461128I1250J3578D01*
G01*
X606638Y405996D02*
G03*
X792685Y397581I100207J154618D01*
G01*
X672572Y461128D02*
G03*
X675072Y461128I1250J3578D01*
G01*
X670072D02*
G03*
X672572Y461128I1250J3578D01*
G01*
X675072D02*
G03*
X677572Y461128I1250J3578D01*
G01*
X648979Y476641D02*
G03*
X646479Y476641I-1250J-3578D01*
G01*
D02*
G03*
X643979Y476641I-1250J-3578D01*
G01*
X653979D02*
G03*
X651479Y476641I-1250J-3578D01*
G01*
D02*
G03*
X648979Y476641I-1250J-3578D01*
G01*
X638979D02*
G03*
X636479Y476641I-1250J-3578D01*
G01*
D02*
G03*
X633979Y476641I-1250J-3578D01*
G01*
X643979D02*
G03*
X641479Y476641I-1250J-3578D01*
G01*
D02*
G03*
X638979Y476641I-1250J-3578D01*
G01*
X646479Y469485D02*
G03*
X648979Y469485I1250J3578D01*
G01*
X643979D02*
G03*
X646479Y469485I1250J3578D01*
G01*
X651479D02*
G03*
X653979Y469485I1250J3578D01*
G01*
X648979D02*
G03*
X651479Y469485I1250J3578D01*
G01*
X638979D02*
G03*
X641479Y469485I1250J3578D01*
G01*
X636479D02*
G03*
X638979Y469485I1250J3578D01*
G01*
X641479D02*
G03*
X643979Y469485I1250J3578D01*
G01*
X628979Y476641D02*
G03*
X626479Y476641I-1250J-3578D01*
G01*
D02*
G03*
X623979Y476641I-1250J-3578D01*
G01*
X633979D02*
G03*
X631479Y476641I-1250J-3578D01*
G01*
D02*
G03*
X628979Y476641I-1250J-3578D01*
G01*
X623979D02*
G03*
X621479Y476641I-1250J-3578D01*
G01*
D02*
G03*
X618979Y476641I-1250J-3578D01*
G01*
X618979Y469485D02*
G03*
X621479Y469485I1250J3578D01*
G01*
X631479D02*
G03*
X633979Y469485I1250J3578D01*
G01*
X628979D02*
G03*
X631479Y469485I1250J3578D01*
G01*
X633979D02*
G03*
X636479Y469485I1250J3578D01*
G01*
X632572Y468284D02*
G03*
X630072Y468284I-1250J-3578D01*
G01*
X623979Y469485D02*
G03*
X626479Y469485I1250J3578D01*
G01*
X621479D02*
G03*
X623979Y469485I1250J3578D01*
G01*
X626479D02*
G03*
X628979Y469485I1250J3578D01*
G01*
X647572Y468284D02*
G03*
X645072Y468284I-1250J-3578D01*
G01*
D02*
G03*
X642572Y468284I-1250J-3578D01*
G01*
X652572D02*
G03*
X650072Y468284I-1250J-3578D01*
G01*
D02*
G03*
X647572Y468284I-1250J-3578D01*
G01*
X640072D02*
G03*
X637572Y468284I-1250J-3578D01*
G01*
D02*
G03*
X635072Y468284I-1250J-3578D01*
G01*
X642572D02*
G03*
X640072Y468284I-1250J-3578D01*
G01*
X645072Y461128D02*
G03*
X647572Y461128I1250J3578D01*
G01*
X642572D02*
G03*
X645072Y461128I1250J3578D01*
G01*
X650072D02*
G03*
X652572Y461128I1250J3578D01*
G01*
X647572D02*
G03*
X650072Y461128I1250J3578D01*
G01*
X640072D02*
G03*
X642572Y461128I1250J3578D01*
G01*
X637572D02*
G03*
X640072Y461128I1250J3578D01*
G01*
X627572Y468284D02*
G03*
X625072Y468284I-1250J-3578D01*
G01*
D02*
G03*
X622572Y468284I-1250J-3578D01*
G01*
X635072D02*
G03*
X632572Y468284I-1250J-3578D01*
G01*
X630072D02*
G03*
X627572Y468284I-1250J-3578D01*
G01*
X622572D02*
G03*
X620072Y468284I-1250J-3578D01*
G01*
D02*
G03*
X617572Y468284I-1250J-3578D01*
G01*
X620072Y461128D02*
G03*
X622572Y461128I1250J3578D01*
G01*
X630072D02*
G03*
X632572Y461128I1250J3578D01*
G01*
X627572D02*
G03*
X630072Y461128I1250J3578D01*
G01*
X635072D02*
G03*
X637572Y461128I1250J3578D01*
G01*
X632572D02*
G03*
X635072Y461128I1250J3578D01*
G01*
X625072D02*
G03*
X627572Y461128I1250J3578D01*
G01*
X622572D02*
G03*
X625072Y461128I1250J3578D01*
G01*
X613979Y476641D02*
G03*
X611479Y476641I-1250J-3578D01*
G01*
D02*
G03*
X608979Y476641I-1250J-3578D01*
G01*
X618979D02*
G03*
X616479Y476641I-1250J-3578D01*
G01*
D02*
G03*
X613979Y476641I-1250J-3578D01*
G01*
X608979D02*
G03*
X606479Y476641I-1250J-3578D01*
G01*
X606479Y469485D02*
G03*
X608979Y469485I1250J3578D01*
G01*
D02*
G03*
X611479Y469485I1250J3578D01*
G01*
X616479D02*
G03*
X618979Y469485I1250J3578D01*
G01*
X613979D02*
G03*
X616479Y469485I1250J3578D01*
G01*
X617572Y468284D02*
G03*
X615072Y468284I-1250J-3578D01*
G01*
D02*
G03*
X612572Y468284I-1250J-3578D01*
G01*
X611479Y469485D02*
G03*
X613979Y469485I1250J3578D01*
G01*
X610072Y468284D02*
G03*
X607572Y468284I-1250J-3578D01*
G01*
X612572D02*
G03*
X610072Y468284I-1250J-3578D01*
G01*
X606479Y476641D02*
G03*
X603979Y476641I-1250J-3578D01*
G01*
D02*
G03*
X601214Y476536I-1250J-3578D01*
G01*
X601752Y469401D02*
G03*
X603979Y469485I978J3662D01*
G01*
X601214Y476536D02*
G03*
X597150Y475074I-978J-3662D01*
G01*
X597150D02*
G03*
X594868Y473284I1020J-3650D01*
G01*
D02*
G03*
X592585Y469845I1507J-3478D01*
G01*
Y469845D02*
G03*
X591942Y466222I2941J-2390D01*
G01*
X607572Y468284D02*
G03*
X604391Y467967I-1250J-3578D01*
G01*
X603979Y469485D02*
G03*
X606479Y469485I1250J3578D01*
G01*
X599677Y467946D02*
G03*
X601257Y469225I-1507J3478D01*
G01*
X599304Y464955D02*
G03*
X599098Y466188I-3790J0D01*
G01*
D02*
G03*
X599316Y467416I-3572J1267D01*
G01*
X591942Y466222D02*
G03*
X591936Y463705I3572J-1267D01*
G01*
X599092D02*
G03*
X599304Y464955I-3578J1250D01*
G01*
X612572Y461128D02*
G03*
X615072Y461128I1250J3578D01*
G01*
X610072D02*
G03*
X612572Y461128I1250J3578D01*
G01*
X617572D02*
G03*
X620072Y461128I1250J3578D01*
G01*
X615072D02*
G03*
X617572Y461128I1250J3578D01*
G01*
X607614Y461113D02*
G03*
X610072Y461128I1208J3592D01*
G01*
X604391Y467967D02*
G03*
X600293Y462962I-520J-3754D01*
G01*
X607661Y459212D02*
G03*
X607449Y460462I-3790J0D01*
G01*
Y455462D02*
G03*
X607661Y456712I-3578J1250D01*
G01*
D02*
G03*
X607449Y457962I-3790J0D01*
G01*
X607661Y454212D02*
G03*
X607449Y455462I-3790J0D01*
G01*
Y457962D02*
G03*
X607661Y459212I-3578J1250D01*
G01*
X600293Y457962D02*
G03*
X600293Y455462I3578J-1250D01*
G01*
D02*
G03*
X600293Y452962I3578J-1250D01*
G01*
X599092Y461205D02*
G03*
X599304Y462455I-3578J1250D01*
G01*
D02*
G03*
X599092Y463705I-3790J0D01*
G01*
X600293Y462962D02*
G03*
X600293Y460462I3578J-1250D01*
G01*
X599304Y459955D02*
G03*
X599092Y461205I-3790J0D01*
G01*
X591936D02*
G03*
X591936Y458705I3578J-1250D01*
G01*
Y463705D02*
G03*
X591936Y461205I3578J-1250D01*
G01*
X597933Y709229D02*
G03*
X591802Y416694I108913J-148614D01*
G01*
X600293Y460462D02*
G03*
X600293Y457962I3578J-1250D01*
G01*
X599304Y457455D02*
G03*
X599092Y458705I-3790J0D01*
G01*
X599304Y454955D02*
G03*
X599092Y456205I-3790J0D01*
G01*
D02*
G03*
X599304Y457455I-3578J1250D01*
G01*
X599092Y458705D02*
G03*
X599304Y459955I-3578J1250D01*
G01*
X591936Y458705D02*
G03*
X591936Y456205I3578J-1250D01*
G01*
D02*
G03*
X591936Y453705I3578J-1250D01*
G01*
X607652Y449476D02*
G03*
X607449Y450462I-3781J-264D01*
G01*
X607661Y451712D02*
G03*
X607449Y452962I-3790J0D01*
G01*
D02*
G03*
X607661Y454212I-3578J1250D01*
G01*
X607449Y450462D02*
G03*
X607661Y451712I-3578J1250D01*
G01*
X600293Y430462D02*
G03*
X600293Y427962I3578J-1250D01*
G01*
Y432962D02*
G03*
X600293Y430462I3578J-1250D01*
G01*
Y442962D02*
G03*
X600293Y440462I3578J-1250D01*
G01*
Y450462D02*
G03*
X600293Y447962I3578J-1250D01*
G01*
Y440462D02*
G03*
X600293Y437962I3578J-1250D01*
G01*
Y415462D02*
G03*
X600293Y412962I3578J-1250D01*
G01*
D02*
G03*
X600293Y410462I3578J-1250D01*
G01*
Y425462D02*
G03*
X600293Y422962I3578J-1250D01*
G01*
Y427962D02*
G03*
X600293Y425462I3578J-1250D01*
G01*
Y417962D02*
G03*
X600293Y415462I3578J-1250D01*
G01*
Y447962D02*
G03*
X600293Y445462I3578J-1250D01*
G01*
Y452962D02*
G03*
X600293Y450462I3578J-1250D01*
G01*
Y445462D02*
G03*
X600293Y442962I3578J-1250D01*
G01*
X599304Y442455D02*
G03*
X599092Y443705I-3790J0D01*
G01*
X599304Y444955D02*
G03*
X599092Y446205I-3790J0D01*
G01*
D02*
G03*
X599304Y447455I-3578J1250D01*
G01*
X599092Y443705D02*
G03*
X599304Y444955I-3578J1250D01*
G01*
X599092Y436205D02*
G03*
X599304Y437455I-3578J1250D01*
G01*
D02*
G03*
X599092Y438705I-3790J0D01*
G01*
X600293Y437962D02*
G03*
X600293Y435462I3578J-1250D01*
G01*
X599304Y434955D02*
G03*
X599092Y436205I-3790J0D01*
G01*
X599304Y439955D02*
G03*
X599092Y441205I-3790J0D01*
G01*
D02*
G03*
X599304Y442455I-3578J1250D01*
G01*
X599092Y438705D02*
G03*
X599304Y439955I-3578J1250D01*
G01*
X599092Y451205D02*
G03*
X599304Y452455I-3578J1250D01*
G01*
D02*
G03*
X599092Y453705I-3790J0D01*
G01*
Y448705D02*
G03*
X599304Y449955I-3578J1250D01*
G01*
D02*
G03*
X599092Y451205I-3790J0D01*
G01*
Y453705D02*
G03*
X599304Y454955I-3578J1250D01*
G01*
X591936Y453705D02*
G03*
X591936Y451205I3578J-1250D01*
G01*
D02*
G03*
X591936Y448705I3578J-1250D01*
G01*
X599304Y447455D02*
G03*
X599092Y448705I-3790J0D01*
G01*
X591936Y441205D02*
G03*
X591936Y438705I3578J-1250D01*
G01*
Y436205D02*
G03*
X591936Y433705I3578J-1250D01*
G01*
Y438705D02*
G03*
X591936Y436205I3578J-1250D01*
G01*
Y446205D02*
G03*
X591936Y443705I3578J-1250D01*
G01*
Y448705D02*
G03*
X591936Y446205I3578J-1250D01*
G01*
Y443705D02*
G03*
X591936Y441205I3578J-1250D01*
G01*
X600293Y435462D02*
G03*
X600293Y432962I3578J-1250D01*
G01*
X599092Y421205D02*
G03*
X599304Y422455I-3578J1250D01*
G01*
X600293Y422962D02*
G03*
X600293Y420462I3578J-1250D01*
G01*
X599304Y419955D02*
G03*
X599092Y421205I-3790J0D01*
G01*
Y423705D02*
G03*
X599304Y424955I-3578J1250D01*
G01*
D02*
G03*
X599092Y426205I-3790J0D01*
G01*
X599304Y422455D02*
G03*
X599092Y423705I-3790J0D01*
G01*
X600293Y420462D02*
G03*
X600293Y417962I3578J-1250D01*
G01*
X599304Y417455D02*
G03*
X599092Y418705I-3790J0D01*
G01*
X599304Y414955D02*
G03*
X599092Y416205I-3790J0D01*
G01*
D02*
G03*
X599304Y417455I-3578J1250D01*
G01*
X597909Y412017D02*
G03*
X599304Y414955I-2394J2938D01*
G01*
X599092Y418705D02*
G03*
X599304Y419955I-3578J1250D01*
G01*
X597909Y412017D02*
G03*
X600250Y410329I108937J148597D01*
G01*
X599092Y431205D02*
G03*
X599304Y432455I-3578J1250D01*
G01*
D02*
G03*
X599092Y433705I-3790J0D01*
G01*
Y428705D02*
G03*
X599304Y429955I-3578J1250D01*
G01*
D02*
G03*
X599092Y431205I-3790J0D01*
G01*
Y433705D02*
G03*
X599304Y434955I-3578J1250D01*
G01*
X591936Y433705D02*
G03*
X591936Y431205I3578J-1250D01*
G01*
D02*
G03*
X591936Y428705I3578J-1250D01*
G01*
X599092Y426205D02*
G03*
X599304Y427455I-3578J1250D01*
G01*
D02*
G03*
X599092Y428705I-3790J0D01*
G01*
X591936Y418705D02*
G03*
X591802Y416694I3578J-1250D01*
G01*
X591936Y421205D02*
G03*
X591936Y418705I3578J-1250D01*
G01*
Y426205D02*
G03*
X591936Y423705I3578J-1250D01*
G01*
Y428705D02*
G03*
X591936Y426205I3578J-1250D01*
G01*
Y423705D02*
G03*
X591936Y421205I3578J-1250D01*
G01*
X841562Y681088D02*
X846253D01*
X854142Y668508D02*
Y671088D01*
X841562Y668508D02*
Y671088D01*
X854142Y668508D02*
Y671088D01*
X841562D02*
Y681088D01*
Y668508D02*
Y671088D01*
X831536Y661106D02*
Y666102D01*
X823263D02*
X831536D01*
X854142Y661106D02*
Y668508D01*
X841562Y661106D02*
Y668508D01*
X854936Y661106D02*
X856516D01*
X854936D02*
X856516D01*
X867270Y640136D02*
Y651236D01*
X856516Y661106D02*
X861279D01*
X836902D02*
X838482D01*
X836902D02*
X838482D01*
X854142D02*
X854936D01*
X838482D02*
X841562D01*
X855190Y640136D02*
X856770D01*
X838482Y649026D02*
X844436D01*
X856770Y640136D02*
X867270D01*
X855190D02*
X856770D01*
X836902Y649026D02*
X838482D01*
X831536D02*
X836902D01*
X838482D01*
X831536Y661106D02*
X836902D01*
X831536Y643522D02*
Y649026D01*
X823257Y643522D02*
X831536D01*
X844690Y640136D02*
X855190D01*
X844690D02*
Y649026D01*
X823215Y624111D02*
X879809D01*
X886441Y553570D02*
Y601770D01*
X815359Y553570D02*
Y613154D01*
X815900Y553029D02*
X885900D01*
X723894Y571534D02*
Y573114D01*
Y571534D02*
Y573114D01*
Y563534D02*
Y565114D01*
Y571534D01*
Y579534D02*
Y581114D01*
Y579534D02*
Y581114D01*
Y573114D02*
Y579534D01*
X710314Y589114D02*
X723894D01*
X710314Y581114D02*
Y589114D01*
X723894Y581114D02*
Y589114D01*
X710314Y571534D02*
Y573114D01*
Y565114D02*
Y571534D01*
Y573114D01*
Y579534D02*
Y581114D01*
Y579534D02*
Y581114D01*
Y573114D02*
Y579534D01*
X699894D02*
Y581114D01*
X686314Y589114D02*
X699894D01*
Y581114D02*
Y589114D01*
Y565114D02*
Y571534D01*
Y573114D01*
Y563534D02*
Y565114D01*
Y563534D02*
Y565114D01*
Y573114D02*
Y579534D01*
Y581114D01*
Y571534D02*
Y573114D01*
X686314Y571534D02*
Y573114D01*
Y579534D01*
Y565114D02*
Y571534D01*
Y573114D01*
Y579534D02*
Y581114D01*
Y589114D01*
Y579534D02*
Y581114D01*
X723894Y547534D02*
Y549114D01*
Y555534D01*
Y541114D02*
Y547534D01*
Y549114D01*
Y557114D02*
Y563534D01*
Y565114D01*
Y555534D02*
Y557114D01*
Y555534D02*
Y557114D01*
Y539534D02*
Y541114D01*
Y539534D02*
Y541114D01*
Y531534D02*
Y539534D01*
X710314Y531534D02*
X723894D01*
X710314Y539534D02*
Y541114D01*
Y539534D02*
Y541114D01*
Y531534D02*
Y539534D01*
Y563534D02*
Y565114D01*
Y563534D02*
Y565114D01*
Y555534D02*
Y557114D01*
Y563534D01*
X699894Y555534D02*
Y557114D01*
Y563534D01*
Y555534D02*
Y557114D01*
X710314Y547534D02*
Y549114D01*
Y555534D01*
Y541114D02*
Y547534D01*
Y549114D01*
Y555534D02*
Y557114D01*
X699894Y541114D02*
Y547534D01*
Y549114D01*
Y555534D01*
Y547534D02*
Y549114D01*
X686314Y539534D02*
Y541114D01*
Y547534D01*
Y549114D01*
Y539534D02*
Y541114D01*
X699894Y539534D02*
Y541114D01*
Y539534D02*
Y541114D01*
Y531534D02*
Y539534D01*
X686314Y531534D02*
X699894D01*
X686314D02*
Y539534D01*
Y555534D02*
Y557114D01*
Y555534D02*
Y557114D01*
Y547534D02*
Y549114D01*
Y555534D01*
Y563534D02*
Y565114D01*
Y563534D02*
Y565114D01*
Y557114D02*
Y563534D01*
X719740Y418570D02*
X731820D01*
X719740Y401990D02*
Y418570D01*
X700740D02*
X712820D01*
Y401990D02*
Y418570D01*
X731820Y401990D02*
Y418570D01*
X719740Y401990D02*
X731820D01*
X722320Y378990D02*
Y395570D01*
X710240Y378990D02*
X722320D01*
X710240Y395570D02*
X722320D01*
X700740Y401990D02*
X712820D01*
X710240Y378990D02*
Y395570D01*
X698192Y434800D02*
Y438880D01*
Y439800D01*
Y433880D02*
Y434800D01*
Y438880D01*
Y439800D02*
Y443880D01*
Y448880D01*
Y439800D02*
Y443880D01*
Y424800D02*
Y428880D01*
Y424800D02*
Y428880D01*
X700740Y401990D02*
Y418570D01*
X698192Y419800D02*
Y424800D01*
Y429800D02*
Y433880D01*
Y429800D02*
Y433880D01*
Y428880D02*
Y429800D01*
X688942Y448880D02*
X698192D01*
X688942D02*
Y450380D01*
Y419800D02*
X698192D01*
X688942Y418300D02*
Y419800D01*
X663862Y418300D02*
X688942D01*
X663862Y450380D02*
X688942D01*
X663862Y448880D02*
Y450380D01*
X654612Y448880D02*
X663862D01*
X654612Y439800D02*
Y443880D01*
Y439800D02*
Y443880D01*
Y419800D02*
Y424800D01*
Y429800D02*
Y433880D01*
X663862Y418300D02*
Y419800D01*
X654612D02*
X663862D01*
X654612Y433880D02*
Y434800D01*
Y438880D01*
Y429800D02*
Y433880D01*
X640136Y449476D02*
Y455276D01*
X625136Y446026D02*
Y455276D01*
X616656D02*
X625136D01*
X654612Y443880D02*
Y448880D01*
X650936Y439476D02*
Y440996D01*
X654612Y438880D02*
Y439800D01*
X650936Y435996D02*
Y439476D01*
Y444476D02*
Y449476D01*
X640136D02*
X650936D01*
Y440996D02*
Y444476D01*
Y440996D02*
Y444476D01*
X654612Y434800D02*
Y438880D01*
X650936Y430996D02*
Y434476D01*
X654612Y428880D02*
Y429800D01*
X650936Y429476D02*
Y430996D01*
Y434476D02*
Y435996D01*
Y439476D01*
Y430996D02*
Y434476D01*
X631656Y455276D02*
X640136D01*
X631656Y446026D02*
Y455276D01*
X616656Y449476D02*
Y455276D01*
X625136Y446026D02*
X631656D01*
X607652Y449476D02*
X616656D01*
X654612Y424800D02*
Y428880D01*
Y424800D02*
Y428880D01*
X650936Y419476D02*
Y420996D01*
Y424476D01*
Y425996D01*
Y429476D01*
Y420996D02*
Y424476D01*
Y410996D02*
Y414476D01*
Y415996D01*
Y405996D02*
Y410996D01*
Y414476D01*
Y415996D02*
Y419476D01*
Y415996D02*
Y419476D01*
X640136Y405996D02*
X650936D01*
Y425996D02*
Y429476D01*
X625136Y400196D02*
Y409446D01*
X631656Y400196D02*
Y409446D01*
X625136D02*
X631656D01*
X640136Y400196D02*
Y405996D01*
X631656Y400196D02*
X640136D01*
X616656D02*
Y405996D01*
X606638D02*
X616656D01*
Y400196D02*
X625136D01*
D12*
X903478Y560832D02*
G03*
X903478Y560832I-196596J0D01*
G01*
D83*
X897882Y560614D02*
G03*
X897882Y560614I-191291J0D01*
G01*
D84*
X898188Y565772D02*
D03*
X825145Y711101D02*
D03*
X816133Y717751D02*
D03*
X710286Y369211D02*
D03*
X673420Y749078D02*
D03*
X644259Y379717D02*
D03*
X796276Y391335D02*
D03*
X732612Y370877D02*
D03*
X896226Y532264D02*
D03*
X559592Y682926D02*
D03*
X888565Y620731D02*
D03*
X897502Y543391D02*
D03*
X891781Y610003D02*
D03*
X548224Y453465D02*
D03*
X676802Y371540D02*
D03*
X542243Y462934D02*
D03*
X594737Y405437D02*
D03*
X526492Y624832D02*
D03*
X875355Y651584D02*
D03*
X841320Y424295D02*
D03*
X898156Y554572D02*
D03*
X849624Y688151D02*
D03*
X884417Y489145D02*
D03*
X540489Y655340D02*
D03*
X833123Y416664D02*
D03*
X603968Y399095D02*
D03*
X610643Y726094D02*
D03*
X894395Y599112D02*
D03*
X797069Y729496D02*
D03*
X531904Y482796D02*
D03*
X897596Y576956D02*
D03*
X880368Y641568D02*
D03*
X601109Y720216D02*
D03*
X546262Y664937D02*
D03*
X583196Y706789D02*
D03*
X524042Y503757D02*
D03*
X863004Y449917D02*
D03*
X569354Y427399D02*
D03*
X766174Y742596D02*
D03*
X879970Y478866D02*
D03*
X633791Y383700D02*
D03*
X765334Y378353D02*
D03*
X554724Y444344D02*
D03*
X662450Y746823D02*
D03*
X744524Y748311D02*
D03*
X518077Y592350D02*
D03*
X754571Y375255D02*
D03*
X743653Y372760D02*
D03*
X651622Y743961D02*
D03*
X620489Y731432D02*
D03*
X518687Y525499D02*
D03*
X699087Y369365D02*
D03*
X722359Y751454D02*
D03*
X695653Y751741D02*
D03*
X516557Y581254D02*
D03*
X552650Y674137D02*
D03*
X585872Y412282D02*
D03*
X535259Y645436D02*
D03*
X561751Y435623D02*
D03*
X527618Y493143D02*
D03*
X623561Y388259D02*
D03*
X530589Y635256D02*
D03*
X684500Y750719D02*
D03*
X824455Y409571D02*
D03*
X863508Y670584D02*
D03*
X787054Y734510D02*
D03*
X776727Y738843D02*
D03*
X888285Y499656D02*
D03*
X833773Y703960D02*
D03*
X515658Y570090D02*
D03*
X577403Y419611D02*
D03*
X567013Y691315D02*
D03*
X884756Y631264D02*
D03*
X896383Y588090D02*
D03*
X515381Y558893D02*
D03*
X687914Y370142D02*
D03*
X640995Y740425D02*
D03*
X806450Y724154D02*
D03*
X874957Y468851D02*
D03*
X536956Y472694D02*
D03*
X522981Y614197D02*
D03*
X591917Y713817D02*
D03*
X806003Y396887D02*
D03*
X894237Y521242D02*
D03*
X815406Y402972D02*
D03*
X613600Y393380D02*
D03*
X516925Y536559D02*
D03*
X520211Y603345D02*
D03*
X775908Y382046D02*
D03*
X786255Y386332D02*
D03*
X856811Y679561D02*
D03*
X869244Y459217D02*
D03*
X755429Y745755D02*
D03*
X891561Y510366D02*
D03*
X574889Y699277D02*
D03*
X654932Y376324D02*
D03*
X856255Y440978D02*
D03*
X521062Y514553D02*
D03*
X630617Y736214D02*
D03*
X849020Y432429D02*
D03*
X515781Y547700D02*
D03*
X869696Y661249D02*
D03*
X665785Y373554D02*
D03*
X721477Y369680D02*
D03*
X733494Y750257D02*
D03*
X841970Y696328D02*
D03*
D85*
X844892Y582764D02*
D03*
X855892D02*
D03*
X833892D02*
D03*
Y571764D02*
D03*
X855892D02*
D03*
X844892D02*
D03*
Y593764D02*
D03*
X833892D02*
D03*
X855892D02*
D03*
X866892D02*
D03*
Y571764D02*
D03*
Y582764D02*
D03*
X833892Y604764D02*
D03*
X855892D02*
D03*
X844892D02*
D03*
X866892D02*
D03*
D86*
X598170Y471424D02*
D03*
X680974Y616204D02*
D03*
X689575Y623213D02*
D03*
X692115D02*
D03*
X694401D02*
D03*
X696941D02*
D03*
X699227D02*
D03*
X701513D02*
D03*
X704307D02*
D03*
X707101D02*
D03*
X709641D02*
D03*
X812800Y615950D02*
D03*
X803621Y623213D02*
D03*
X800573D02*
D03*
X797560Y623316D02*
D03*
X794766D02*
D03*
X809463Y625499D02*
D03*
X792191Y623213D02*
D03*
X789651D02*
D03*
X787111D02*
D03*
X784571D02*
D03*
X803734Y518944D02*
D03*
X637729Y473063D02*
D03*
X819482Y646365D02*
D03*
X679727Y617998D02*
D03*
X819482Y681365D02*
D03*
X595514Y449955D02*
D03*
X750229Y473063D02*
D03*
X795377Y510558D02*
D03*
X807031Y623213D02*
D03*
X712729Y473063D02*
D03*
X803734Y541444D02*
D03*
X819482Y643865D02*
D03*
X742031Y623213D02*
D03*
X803734Y443944D02*
D03*
X678791Y665331D02*
D03*
X803734Y513944D02*
D03*
X603871Y416712D02*
D03*
X803734Y438944D02*
D03*
X716322Y464706D02*
D03*
X811125Y698372D02*
D03*
X682729Y473063D02*
D03*
X687148Y651470D02*
D03*
X795377Y523058D02*
D03*
X819433Y623865D02*
D03*
X748640Y614856D02*
D03*
X712031Y623213D02*
D03*
X806062Y614856D02*
D03*
X771322Y464706D02*
D03*
X636322D02*
D03*
X662730Y719225D02*
D03*
X678791Y670331D02*
D03*
X703822Y464706D02*
D03*
X603871Y439212D02*
D03*
X795377Y407748D02*
D03*
X625229Y473063D02*
D03*
X655229D02*
D03*
X785229D02*
D03*
X795377Y402748D02*
D03*
X711140Y614856D02*
D03*
X671350Y710868D02*
D03*
X795377Y495558D02*
D03*
X628850Y710868D02*
D03*
X811125Y665872D02*
D03*
X729531Y623213D02*
D03*
X739531D02*
D03*
X777031D02*
D03*
X735229Y473063D02*
D03*
X795377Y485558D02*
D03*
X726140Y614856D02*
D03*
X803734Y448944D02*
D03*
X701140Y614856D02*
D03*
X767729Y473063D02*
D03*
X678791Y645331D02*
D03*
X667729Y473063D02*
D03*
X795377Y563058D02*
D03*
Y480558D02*
D03*
Y500558D02*
D03*
X678791Y682831D02*
D03*
X795377Y400248D02*
D03*
X595514Y434955D02*
D03*
X803734Y608943D02*
D03*
X595514Y444955D02*
D03*
X603871Y431712D02*
D03*
X760229Y473063D02*
D03*
X803734Y598943D02*
D03*
X643850Y710868D02*
D03*
X678791Y627831D02*
D03*
X803734Y538944D02*
D03*
Y453944D02*
D03*
X603871Y446712D02*
D03*
X687148Y623970D02*
D03*
Y626470D02*
D03*
X775229Y473063D02*
D03*
X819482Y636365D02*
D03*
X696322Y464706D02*
D03*
X595514Y452455D02*
D03*
X795377Y595558D02*
D03*
X761322Y464706D02*
D03*
X645230Y719225D02*
D03*
X678791Y700331D02*
D03*
X792729Y473063D02*
D03*
X795377Y450248D02*
D03*
X678791Y632831D02*
D03*
X759531Y623213D02*
D03*
X678791Y710331D02*
D03*
X603871Y426712D02*
D03*
X793822Y464706D02*
D03*
X690229Y473063D02*
D03*
X611322Y464706D02*
D03*
X758822D02*
D03*
X728640Y614856D02*
D03*
X811125Y670872D02*
D03*
X687148Y633970D02*
D03*
X795377Y540558D02*
D03*
X819482Y688865D02*
D03*
X803734Y411444D02*
D03*
X795377Y437748D02*
D03*
X676350Y710868D02*
D03*
X687148Y711470D02*
D03*
X793640Y614856D02*
D03*
X795377Y425248D02*
D03*
X732031Y623213D02*
D03*
X742729Y473063D02*
D03*
X811125Y685872D02*
D03*
X603850Y710868D02*
D03*
X795377Y462748D02*
D03*
X819482Y683865D02*
D03*
X623850Y710868D02*
D03*
X595526Y467455D02*
D03*
X818513Y621541D02*
D03*
X607729Y473063D02*
D03*
X744531Y623213D02*
D03*
X764531D02*
D03*
X723822Y464706D02*
D03*
X687148Y671470D02*
D03*
X746140Y614856D02*
D03*
X687148Y703970D02*
D03*
X795377Y412748D02*
D03*
X811125Y693372D02*
D03*
X687148Y663970D02*
D03*
X803734Y451444D02*
D03*
X671322Y464706D02*
D03*
X751322D02*
D03*
X803734Y533944D02*
D03*
X630230Y719225D02*
D03*
X627729Y473063D02*
D03*
X693822Y464706D02*
D03*
X737729Y473063D02*
D03*
X655230Y719225D02*
D03*
X673822Y464706D02*
D03*
X803734Y588944D02*
D03*
X795377Y478058D02*
D03*
X803734Y496444D02*
D03*
X658822Y464706D02*
D03*
X668850Y710868D02*
D03*
X781322Y464706D02*
D03*
X778640Y614856D02*
D03*
X776322Y464706D02*
D03*
X653850Y710868D02*
D03*
X803734Y558944D02*
D03*
X819482Y663865D02*
D03*
X736140Y614856D02*
D03*
X687148Y653970D02*
D03*
Y708970D02*
D03*
X603871Y459212D02*
D03*
X757729Y473063D02*
D03*
X788640Y614856D02*
D03*
X631350Y710868D02*
D03*
X676322Y464706D02*
D03*
X803734Y458944D02*
D03*
X752031Y623213D02*
D03*
X770229Y473063D02*
D03*
X811056Y615021D02*
D03*
X678791Y707831D02*
D03*
X803734Y431444D02*
D03*
Y488944D02*
D03*
Y566444D02*
D03*
X603871Y429212D02*
D03*
X678829Y620331D02*
D03*
X819482Y671365D02*
D03*
Y648865D02*
D03*
X803734Y456444D02*
D03*
X795377Y417748D02*
D03*
X682074Y719107D02*
D03*
X769531Y623213D02*
D03*
X803734Y556444D02*
D03*
X595514Y459955D02*
D03*
X803734Y586444D02*
D03*
X678791Y667831D02*
D03*
X731322Y464706D02*
D03*
X678791Y650331D02*
D03*
X795377Y488058D02*
D03*
X780229Y473063D02*
D03*
X776140Y614856D02*
D03*
X678791Y642831D02*
D03*
X687148Y656470D02*
D03*
X811125Y688372D02*
D03*
Y658372D02*
D03*
X603871Y434212D02*
D03*
X595514Y414955D02*
D03*
X603871Y464212D02*
D03*
X795377Y535558D02*
D03*
X803734Y548944D02*
D03*
X795377Y600558D02*
D03*
X803734Y423944D02*
D03*
X678791Y635331D02*
D03*
X783822Y464706D02*
D03*
X635230Y719225D02*
D03*
X795377Y427748D02*
D03*
X642730Y719225D02*
D03*
X721322Y464706D02*
D03*
X772031Y623213D02*
D03*
X795377Y518058D02*
D03*
X596375Y469807D02*
D03*
X771140Y614856D02*
D03*
X687148Y681470D02*
D03*
X657729Y473063D02*
D03*
X803734Y571444D02*
D03*
X733822Y464706D02*
D03*
X765229Y473063D02*
D03*
X687148Y668970D02*
D03*
X803734Y591443D02*
D03*
X652730Y719225D02*
D03*
X698640Y614856D02*
D03*
X803734Y413944D02*
D03*
X687148Y678970D02*
D03*
X623822Y464706D02*
D03*
X603871Y451712D02*
D03*
X795377Y588058D02*
D03*
X787729Y473063D02*
D03*
X795377Y550558D02*
D03*
X803734Y508944D02*
D03*
Y506444D02*
D03*
X795377Y440248D02*
D03*
X595514Y429955D02*
D03*
X678791Y660331D02*
D03*
X731140Y614856D02*
D03*
X733640D02*
D03*
X763640D02*
D03*
X715229Y473063D02*
D03*
X691140Y614856D02*
D03*
X621350Y710868D02*
D03*
X687148Y631470D02*
D03*
X803734Y601443D02*
D03*
X736322Y464706D02*
D03*
X737031Y623213D02*
D03*
X811125Y638372D02*
D03*
X803734Y526444D02*
D03*
X600236Y472875D02*
D03*
X803734Y473944D02*
D03*
X595514Y442455D02*
D03*
X687148Y666470D02*
D03*
X752729Y473063D02*
D03*
X803734Y603943D02*
D03*
Y491444D02*
D03*
X688640Y614856D02*
D03*
X795377Y580558D02*
D03*
X743822Y464706D02*
D03*
X685229Y473063D02*
D03*
X795377Y583058D02*
D03*
X632729Y473063D02*
D03*
X618822Y464706D02*
D03*
X686088Y716269D02*
D03*
X708822Y464706D02*
D03*
X648822D02*
D03*
X606350Y710868D02*
D03*
X811125Y708372D02*
D03*
X795377Y452748D02*
D03*
X803734Y613943D02*
D03*
X603871Y449212D02*
D03*
X753822Y464706D02*
D03*
X768822D02*
D03*
X761140Y614856D02*
D03*
X678791Y687831D02*
D03*
X641350Y710868D02*
D03*
X687148Y646470D02*
D03*
X595514Y454955D02*
D03*
X720229Y473063D02*
D03*
X717031Y623213D02*
D03*
X754531D02*
D03*
X662729Y473063D02*
D03*
X795377Y590558D02*
D03*
X774531Y623213D02*
D03*
X603871Y456712D02*
D03*
X713640Y614856D02*
D03*
X803734Y611443D02*
D03*
X616322Y464706D02*
D03*
X665229Y473063D02*
D03*
X811125Y710872D02*
D03*
X763822Y464706D02*
D03*
X766140Y614856D02*
D03*
X616350Y710868D02*
D03*
X692729Y473063D02*
D03*
X595514Y422455D02*
D03*
X617730Y719225D02*
D03*
X651350Y710868D02*
D03*
X603871Y424212D02*
D03*
X718640Y614856D02*
D03*
X641322Y464706D02*
D03*
X603871Y441712D02*
D03*
X698822Y464706D02*
D03*
X803734Y428944D02*
D03*
X637730Y719225D02*
D03*
X753640Y614856D02*
D03*
X605229Y473063D02*
D03*
X687148Y701470D02*
D03*
X708640Y614856D02*
D03*
X811125Y653372D02*
D03*
X702729Y473063D02*
D03*
X678791Y662831D02*
D03*
X803734Y478944D02*
D03*
Y436444D02*
D03*
X795377Y410248D02*
D03*
Y490558D02*
D03*
X678791Y677831D02*
D03*
X695229Y473063D02*
D03*
X795377Y610558D02*
D03*
X678791Y705331D02*
D03*
X727729Y473063D02*
D03*
X803734Y578944D02*
D03*
X670229Y473063D02*
D03*
X663822Y464706D02*
D03*
X803734Y553944D02*
D03*
X766322Y464706D02*
D03*
X795377Y520558D02*
D03*
X647729Y473063D02*
D03*
X606322Y464706D02*
D03*
X795377Y483058D02*
D03*
X803734Y528944D02*
D03*
X795377Y575558D02*
D03*
X595514Y462455D02*
D03*
X687148Y673970D02*
D03*
X795377Y543058D02*
D03*
X819482Y638865D02*
D03*
X741322Y464706D02*
D03*
X665230Y719225D02*
D03*
X703640Y614856D02*
D03*
X714531Y623213D02*
D03*
X667730Y719225D02*
D03*
X678791Y702831D02*
D03*
X803734Y501444D02*
D03*
X795377Y460248D02*
D03*
X677729Y473063D02*
D03*
X650230Y719225D02*
D03*
X631322Y464706D02*
D03*
X795377Y585558D02*
D03*
X811125Y675872D02*
D03*
X795377Y613058D02*
D03*
X811125Y648372D02*
D03*
X678791Y680331D02*
D03*
X656350Y710868D02*
D03*
X687148Y688970D02*
D03*
X803734Y408944D02*
D03*
X726322Y464706D02*
D03*
X795377Y415248D02*
D03*
X790229Y473063D02*
D03*
X803734Y471444D02*
D03*
X660230Y719225D02*
D03*
X642729Y473063D02*
D03*
X685800Y614934D02*
D03*
X803734Y531444D02*
D03*
X779531Y623213D02*
D03*
X612729Y473063D02*
D03*
X795377Y545558D02*
D03*
X819482Y633865D02*
D03*
X747729Y473063D02*
D03*
X728822Y464706D02*
D03*
X595514Y447455D02*
D03*
X677730Y719225D02*
D03*
X595514Y439955D02*
D03*
X603871Y419212D02*
D03*
Y421712D02*
D03*
X811125Y643372D02*
D03*
Y660872D02*
D03*
X819482Y651365D02*
D03*
X746322Y464706D02*
D03*
X706322D02*
D03*
X687148Y696470D02*
D03*
X711322Y464706D02*
D03*
X803734Y561444D02*
D03*
X795377Y530558D02*
D03*
X700229Y473063D02*
D03*
X687148Y648970D02*
D03*
X741140Y614856D02*
D03*
X678791Y652831D02*
D03*
X725229Y473063D02*
D03*
X626350Y710868D02*
D03*
X803734Y546444D02*
D03*
X595514Y437455D02*
D03*
Y417455D02*
D03*
X666350Y710868D02*
D03*
X795377Y528058D02*
D03*
X803734Y498944D02*
D03*
X811125Y683372D02*
D03*
X803734Y441444D02*
D03*
Y576444D02*
D03*
X795377Y435248D02*
D03*
X819482Y631365D02*
D03*
X791322Y464706D02*
D03*
X811125Y630872D02*
D03*
X658850Y710868D02*
D03*
X795377Y430248D02*
D03*
X722729Y473063D02*
D03*
X773822Y464706D02*
D03*
X603871Y454212D02*
D03*
X615229Y473063D02*
D03*
X687148Y636470D02*
D03*
X717729Y473063D02*
D03*
X678791Y630331D02*
D03*
X782729Y473063D02*
D03*
X608822Y464706D02*
D03*
X645229Y473063D02*
D03*
X795377Y570558D02*
D03*
Y498058D02*
D03*
Y455248D02*
D03*
X803734Y446444D02*
D03*
X595514Y427455D02*
D03*
X795377Y578058D02*
D03*
X608850Y710868D02*
D03*
X603871Y409212D02*
D03*
X661322Y464706D02*
D03*
X795377Y608058D02*
D03*
X618850Y710868D02*
D03*
X687148Y676470D02*
D03*
X803734Y516444D02*
D03*
X678791Y695331D02*
D03*
X696140Y614856D02*
D03*
X678791Y647831D02*
D03*
X724531Y623213D02*
D03*
X819482Y698865D02*
D03*
X693640Y614856D02*
D03*
X795377Y603058D02*
D03*
X643822Y464706D02*
D03*
X719531Y623213D02*
D03*
X819482Y653865D02*
D03*
X795377Y457748D02*
D03*
X788822Y464706D02*
D03*
X734531Y623213D02*
D03*
X803734Y581444D02*
D03*
X661350Y710868D02*
D03*
X626322Y464706D02*
D03*
X811125Y705872D02*
D03*
Y700872D02*
D03*
X602729Y473063D02*
D03*
X811125Y690872D02*
D03*
X687148Y691470D02*
D03*
X795377Y565558D02*
D03*
X722031Y623213D02*
D03*
X795377Y405248D02*
D03*
X803734Y461444D02*
D03*
X755229Y473063D02*
D03*
X650229D02*
D03*
X681322Y464706D02*
D03*
X819482Y691365D02*
D03*
X718822Y464706D02*
D03*
X803734Y511444D02*
D03*
X636350Y710868D02*
D03*
X803734Y503944D02*
D03*
X795377Y447748D02*
D03*
X640229Y473063D02*
D03*
X819482Y658865D02*
D03*
X610229Y473063D02*
D03*
X811125Y655872D02*
D03*
X635229Y473063D02*
D03*
X687148Y693970D02*
D03*
X756140Y614856D02*
D03*
X795377Y573058D02*
D03*
X678791Y657831D02*
D03*
X819482Y661365D02*
D03*
X803734Y563944D02*
D03*
X811125Y663372D02*
D03*
X795377Y420248D02*
D03*
X663850Y710868D02*
D03*
X713822Y464706D02*
D03*
X687148Y683970D02*
D03*
X811125Y703372D02*
D03*
X819482Y656365D02*
D03*
X687729Y473063D02*
D03*
X678822Y464706D02*
D03*
X687067Y713969D02*
D03*
X613822Y464706D02*
D03*
X811125Y650872D02*
D03*
X678791Y690331D02*
D03*
X819482Y703865D02*
D03*
X747031Y623213D02*
D03*
X657730Y719225D02*
D03*
X716140Y614856D02*
D03*
X811125Y673372D02*
D03*
X620229Y473063D02*
D03*
X620230Y719225D02*
D03*
X791140Y614856D02*
D03*
X803734Y606443D02*
D03*
Y493944D02*
D03*
X651322Y464706D02*
D03*
X603871Y411712D02*
D03*
X762729Y473063D02*
D03*
X795377Y515558D02*
D03*
X687148Y661470D02*
D03*
X595514Y432455D02*
D03*
X678791Y672831D02*
D03*
X811125Y645872D02*
D03*
X678791Y640331D02*
D03*
X738822Y464706D02*
D03*
X640230Y719225D02*
D03*
X687148Y706470D02*
D03*
X803734Y573944D02*
D03*
X672729Y473063D02*
D03*
X795377Y432748D02*
D03*
X603871Y461712D02*
D03*
X648850Y710868D02*
D03*
X795377Y508058D02*
D03*
X745229Y473063D02*
D03*
X678791Y685331D02*
D03*
X803734Y466444D02*
D03*
X611350Y710868D02*
D03*
X819482Y666365D02*
D03*
X675229Y473063D02*
D03*
X795377Y503058D02*
D03*
Y568058D02*
D03*
X811125Y635872D02*
D03*
X803734Y481444D02*
D03*
X707729Y473063D02*
D03*
X687148Y643970D02*
D03*
X678791Y692831D02*
D03*
X795377Y513058D02*
D03*
X595514Y424955D02*
D03*
X748822Y464706D02*
D03*
X757031Y623213D02*
D03*
X595514Y464955D02*
D03*
X795229Y473063D02*
D03*
X678791Y655331D02*
D03*
X613850Y710868D02*
D03*
X819482Y628865D02*
D03*
X701322Y464706D02*
D03*
X670230Y719225D02*
D03*
X656322Y464706D02*
D03*
X808562Y614856D02*
D03*
X803734Y551444D02*
D03*
X710229Y473063D02*
D03*
X756322Y464706D02*
D03*
X743640Y614856D02*
D03*
X803734Y583944D02*
D03*
X819482Y701365D02*
D03*
X738640Y614856D02*
D03*
X803734Y523944D02*
D03*
X811125Y695872D02*
D03*
X687148Y641470D02*
D03*
X803734Y596443D02*
D03*
X819482Y641365D02*
D03*
X603871Y414212D02*
D03*
X660229Y473063D02*
D03*
X622730Y719225D02*
D03*
X668822Y464706D02*
D03*
X633850Y710868D02*
D03*
X723640Y614856D02*
D03*
X795377Y475558D02*
D03*
X811125Y640872D02*
D03*
X678791Y697831D02*
D03*
X687148Y686470D02*
D03*
Y658970D02*
D03*
X795377Y553058D02*
D03*
X786140Y614856D02*
D03*
X803734Y476444D02*
D03*
X795377Y593058D02*
D03*
X778822Y464706D02*
D03*
X819482Y696365D02*
D03*
X603871Y444212D02*
D03*
X732729Y473063D02*
D03*
X772729D02*
D03*
X819482Y626365D02*
D03*
X652729Y473063D02*
D03*
X803734Y486444D02*
D03*
X686322Y464706D02*
D03*
X638850Y710868D02*
D03*
X795377Y548058D02*
D03*
X615230Y719225D02*
D03*
X601350Y710868D02*
D03*
X782031Y623213D02*
D03*
X777729Y473063D02*
D03*
X675230Y719225D02*
D03*
X795377Y598058D02*
D03*
X803734Y536444D02*
D03*
Y483944D02*
D03*
X653822Y464706D02*
D03*
X678791Y622831D02*
D03*
X740229Y473063D02*
D03*
X625230Y719225D02*
D03*
X819482Y668865D02*
D03*
X687148Y628970D02*
D03*
X795377Y445248D02*
D03*
X617729Y473063D02*
D03*
X678791Y675331D02*
D03*
X727031Y623213D02*
D03*
X687148Y638970D02*
D03*
X819482Y686365D02*
D03*
X803734Y568944D02*
D03*
X680229Y473063D02*
D03*
X795377Y558058D02*
D03*
X811125Y668372D02*
D03*
X795377Y555558D02*
D03*
Y560558D02*
D03*
X786322Y464706D02*
D03*
X811125Y678372D02*
D03*
X595514Y457455D02*
D03*
X795377Y505558D02*
D03*
X705229Y473063D02*
D03*
X781140Y614856D02*
D03*
X795377Y493058D02*
D03*
X683822Y464706D02*
D03*
X595514Y419955D02*
D03*
X749531Y623213D02*
D03*
X706140Y614856D02*
D03*
X803734Y543944D02*
D03*
X646322Y464706D02*
D03*
X795377Y605558D02*
D03*
X628822Y464706D02*
D03*
X673850Y710868D02*
D03*
X751140Y614856D02*
D03*
X647730Y719225D02*
D03*
X632730D02*
D03*
X603871Y436712D02*
D03*
X773640Y614856D02*
D03*
X630229Y473063D02*
D03*
X803734Y426444D02*
D03*
X633822Y464706D02*
D03*
X795377Y538058D02*
D03*
X622729Y473063D02*
D03*
X819482Y673865D02*
D03*
X762031Y623213D02*
D03*
X688822Y464706D02*
D03*
X638822D02*
D03*
X730229Y473063D02*
D03*
X672730Y719225D02*
D03*
X811125Y628372D02*
D03*
Y680872D02*
D03*
X621322Y464706D02*
D03*
X795377Y533058D02*
D03*
X803734Y406444D02*
D03*
X666322Y464706D02*
D03*
X627730Y719225D02*
D03*
X691322Y464706D02*
D03*
X683260Y615188D02*
D03*
X811125Y633372D02*
D03*
X819482Y678865D02*
D03*
X767031Y623213D02*
D03*
X803734Y593943D02*
D03*
X687148Y698970D02*
D03*
X646350Y710868D02*
D03*
X819482Y693865D02*
D03*
X803734Y421444D02*
D03*
X678791Y637831D02*
D03*
X795377Y442748D02*
D03*
X803734Y468944D02*
D03*
Y433944D02*
D03*
X795377Y422748D02*
D03*
X697729Y473063D02*
D03*
X803734Y416444D02*
D03*
X721140Y614856D02*
D03*
X783640D02*
D03*
X795377Y525558D02*
D03*
X819482Y676365D02*
D03*
X803734Y418944D02*
D03*
X768640Y614856D02*
D03*
X758640D02*
D03*
X678791Y625331D02*
D03*
X803734Y521444D02*
D03*
Y463944D02*
D03*
D87*
X825246Y659812D02*
D03*
Y649812D02*
D03*
X847852Y664798D02*
D03*
Y674798D02*
D03*
D88*
X861230Y646176D02*
D03*
X850730D02*
D03*
X832442Y655066D02*
D03*
X842942D02*
D03*
X860976D02*
D03*
X850476D02*
D03*
D89*
X693104Y584324D02*
D03*
Y576324D02*
D03*
Y568324D02*
D03*
Y560324D02*
D03*
Y552324D02*
D03*
Y544324D02*
D03*
Y536324D02*
D03*
X717104D02*
D03*
Y544324D02*
D03*
Y552324D02*
D03*
Y560324D02*
D03*
Y568324D02*
D03*
Y576324D02*
D03*
Y584324D02*
D03*
D90*
X716280Y387280D02*
D03*
X725780Y410280D02*
D03*
X706780D02*
D03*
D91*
X691402Y444340D02*
D03*
Y439340D02*
D03*
Y434340D02*
D03*
Y429340D02*
D03*
Y424340D02*
D03*
X661402D02*
D03*
Y429340D02*
D03*
Y434340D02*
D03*
Y439340D02*
D03*
Y444340D02*
D03*
D92*
X676402Y434340D02*
D03*
D93*
X628396Y427736D02*
D03*
D94*
X620896Y449236D02*
D03*
Y406236D02*
D03*
X635896D02*
D03*
Y449236D02*
D03*
D95*
X611896Y445236D02*
D03*
Y440236D02*
D03*
Y435236D02*
D03*
Y430236D02*
D03*
Y425236D02*
D03*
Y420236D02*
D03*
Y415236D02*
D03*
Y410236D02*
D03*
X644896D02*
D03*
Y415236D02*
D03*
Y420236D02*
D03*
Y425236D02*
D03*
Y430236D02*
D03*
Y435236D02*
D03*
Y440236D02*
D03*
Y445236D02*
D03*
M02*
