# WaveFront *.obj file (generated by Autodesk ATF)

mtllib d687a8f1-0988-47e4-bb31-0ccef2e431c0.mtl

g Body1

v 22.822335 -2.925413 1.000000
v 22.822335 -2.925413 -7.000000
v 22.816455 -4.750706 -7.000000
v 22.816455 -4.750706 1.000000
v 24.198536 -3.840569 1.000000
v 24.178092 -3.995860 1.000000
v 24.118152 -4.140569 1.000000
v 24.022800 -4.264833 1.000000
v 23.898536 -4.360184 1.000000
v 23.753828 -4.420125 1.000000
v 23.598536 -4.440569 1.000000
v 23.443245 -4.420125 1.000000
v 23.298536 -4.360184 1.000000
v 23.174272 -4.264833 1.000000
v 23.078921 -4.140569 1.000000
v 23.018981 -3.995860 1.000000
v 22.998536 -3.840569 1.000000
v 23.018981 -3.685278 1.000000
v 23.078921 -3.540569 1.000000
v 23.174272 -3.416305 1.000000
v 23.298536 -3.320954 1.000000
v 23.443245 -3.261014 1.000000
v 23.598536 -3.240569 1.000000
v 23.753828 -3.261014 1.000000
v 23.898536 -3.320954 1.000000
v 24.022800 -3.416305 1.000000
v 24.118152 -3.540569 1.000000
v 24.178092 -3.685278 1.000000
v 23.042141 -4.903783 1.000000
v 23.296561 -5.001952 1.000000
v 23.566577 -5.040143 1.000000
v 23.838243 -5.016384 1.000000
v 24.097530 -4.931901 1.000000
v 24.331047 -4.791058 1.000000
v 24.526734 -4.601128 1.000000
v 24.674486 -4.371920 1.000000
v 24.766671 -4.115270 1.000000
v 24.798530 -3.844435 1.000000
v 24.768417 -3.573399 1.000000
v 24.677887 -3.316162 1.000000
v 24.531615 -3.086006 1.000000
v 24.337155 -2.894819 1.000000
v 24.104551 -2.752475 1.000000
v 23.845814 -2.666323 1.000000
v 23.574306 -2.640814 1.000000
v 23.304050 -2.677264 1.000000
v 23.049003 -2.773792 1.000000
v 23.049003 -2.773792 -7.000000
v 23.304050 -2.677264 -7.000000
v 23.574306 -2.640814 -7.000000
v 23.845814 -2.666323 -7.000000
v 24.104551 -2.752475 -7.000000
v 24.337155 -2.894819 -7.000000
v 24.531615 -3.086006 -7.000000
v 24.677887 -3.316162 -7.000000
v 24.768417 -3.573399 -7.000000
v 24.798530 -3.844435 -7.000000
v 24.766671 -4.115270 -7.000000
v 24.674486 -4.371920 -7.000000
v 24.526734 -4.601128 -7.000000
v 24.331047 -4.791058 -7.000000
v 24.097530 -4.931901 -7.000000
v 23.838243 -5.016384 -7.000000
v 23.566577 -5.040143 -7.000000
v 23.296561 -5.001952 -7.000000
v 23.042141 -4.903783 -7.000000
v 24.198536 -3.840569 -7.000000
v 24.178092 -3.685278 -7.000000
v 24.118152 -3.540569 -7.000000
v 24.022800 -3.416305 -7.000000
v 23.898536 -3.320954 -7.000000
v 23.753828 -3.261014 -7.000000
v 23.598536 -3.240569 -7.000000
v 23.443245 -3.261014 -7.000000
v 23.298536 -3.320954 -7.000000
v 23.174272 -3.416305 -7.000000
v 23.078921 -3.540569 -7.000000
v 23.018981 -3.685278 -7.000000
v 22.998536 -3.840569 -7.000000
v 23.018981 -3.995860 -7.000000
v 23.078921 -4.140569 -7.000000
v 23.174272 -4.264833 -7.000000
v 23.298536 -4.360184 -7.000000
v 23.443245 -4.420125 -7.000000
v 23.598536 -4.440569 -7.000000
v 23.753828 -4.420125 -7.000000
v 23.898536 -4.360184 -7.000000
v 24.022800 -4.264833 -7.000000
v 24.118152 -4.140569 -7.000000
v 24.178092 -3.995860 -7.000000
vt -0.227402 0.000000 0.000000
vt -0.044871 0.000000 0.000000
vt -0.227402 0.800000 0.000000
vt -0.044871 0.800000 0.000000
vt -0.040382 0.392758 0.000000
vt -0.099240 0.404699 0.000000
vt -0.042427 0.377229 0.000000
vt -0.102426 0.377615 0.000000
vt -0.099415 0.350512 0.000000
vt -0.090022 0.430364 0.000000
vt -0.034388 0.407229 0.000000
vt -0.075247 0.453285 0.000000
vt -0.024853 0.419655 0.000000
vt -0.055678 0.472278 0.000000
vt -0.012427 0.429190 0.000000
vt -0.032326 0.486362 0.000000
vt 0.002044 0.435184 0.000000
vt -0.006397 0.494810 0.000000
vt 0.017573 0.437229 0.000000
vt 0.020769 0.497186 0.000000
vt 0.033102 0.435184 0.000000
vt 0.047771 0.493367 0.000000
vt 0.047573 0.429190 0.000000
vt 0.073213 0.483550 0.000000
vt 0.060000 0.419655 0.000000
vt 0.095781 0.468242 0.000000
vt 0.069535 0.407229 0.000000
vt 0.075529 0.392758 0.000000
vt 0.077573 0.377229 0.000000
vt 0.095193 0.285713 0.000000
vt 0.075529 0.361700 0.000000
vt 0.069535 0.347229 0.000000
vt 0.060000 0.334802 0.000000
vt 0.072527 0.270551 0.000000
vt 0.047573 0.325267 0.000000
vt 0.047022 0.260898 0.000000
vt 0.033102 0.319273 0.000000
vt 0.019996 0.257253 0.000000
vt 0.017573 0.317229 0.000000
vt -0.007155 0.259804 0.000000
vt 0.002044 0.319273 0.000000
vt -0.033028 0.268419 0.000000
vt -0.012427 0.325267 0.000000
vt -0.024853 0.334802 0.000000
vt -0.034388 0.347229 0.000000
vt -0.075735 0.301773 0.000000
vt -0.056289 0.282654 0.000000
vt -0.090362 0.324788 0.000000
vt -0.040382 0.361700 0.000000
vt -0.095193 0.285713 0.000000
vt -0.077573 0.377229 0.000000
vt -0.095781 0.468242 0.000000
vt -0.075529 0.392758 0.000000
vt -0.069535 0.407229 0.000000
vt -0.072527 0.270551 0.000000
vt -0.060000 0.334802 0.000000
vt -0.069535 0.347229 0.000000
vt -0.075529 0.361700 0.000000
vt -0.047573 0.325267 0.000000
vt -0.047022 0.260898 0.000000
vt -0.033102 0.319273 0.000000
vt -0.019996 0.257253 0.000000
vt -0.017573 0.317229 0.000000
vt 0.007155 0.259804 0.000000
vt -0.002044 0.319273 0.000000
vt 0.033028 0.268419 0.000000
vt 0.012427 0.325267 0.000000
vt 0.024853 0.334802 0.000000
vt 0.056289 0.282654 0.000000
vt 0.075735 0.301773 0.000000
vt 0.034388 0.347229 0.000000
vt 0.090362 0.324788 0.000000
vt 0.040382 0.361700 0.000000
vt 0.099415 0.350512 0.000000
vt 0.042427 0.377229 0.000000
vt 0.102426 0.377615 0.000000
vt 0.099240 0.404699 0.000000
vt 0.040382 0.392758 0.000000
vt 0.090022 0.430364 0.000000
vt 0.034388 0.407229 0.000000
vt 0.075247 0.453285 0.000000
vt 0.024853 0.419655 0.000000
vt 0.055678 0.472278 0.000000
vt 0.012427 0.429190 0.000000
vt 0.032326 0.486362 0.000000
vt -0.002044 0.435184 0.000000
vt 0.006397 0.494810 0.000000
vt -0.017573 0.437229 0.000000
vt -0.020769 0.497186 0.000000
vt -0.033102 0.435184 0.000000
vt -0.047771 0.493367 0.000000
vt -0.047573 0.429190 0.000000
vt -0.073213 0.483550 0.000000
vt -0.060000 0.419655 0.000000
vt -0.800000 -0.272907 0.000000
vt -0.000000 -0.272907 0.000000
vt -0.800000 -0.245577 0.000000
vt -0.000000 -0.245577 0.000000
vt -0.000000 -0.218248 0.000000
vt -0.800000 -0.218248 0.000000
vt -0.000000 -0.190919 0.000000
vt -0.800000 -0.190919 0.000000
vt -0.000000 -0.163589 0.000000
vt -0.800000 -0.163589 0.000000
vt -0.000000 -0.136260 0.000000
vt -0.800000 -0.136260 0.000000
vt -0.000000 -0.108931 0.000000
vt -0.800000 -0.108931 0.000000
vt -0.000000 -0.081601 0.000000
vt -0.800000 -0.081601 0.000000
vt -0.000000 -0.054272 0.000000
vt -0.800000 -0.054272 0.000000
vt -0.000000 -0.026943 0.000000
vt -0.800000 -0.026943 0.000000
vt -0.000000 0.000387 0.000000
vt -0.800000 0.000387 0.000000
vt -0.000000 0.027716 0.000000
vt -0.800000 0.027716 0.000000
vt -0.000000 0.055045 0.000000
vt -0.800000 0.055045 0.000000
vt -0.000000 0.082375 0.000000
vt -0.800000 0.082375 0.000000
vt -0.000000 0.109704 0.000000
vt -0.800000 0.109704 0.000000
vt -0.000000 0.137033 0.000000
vt -0.800000 0.137033 0.000000
vt -0.000000 0.164363 0.000000
vt -0.800000 0.164363 0.000000
vt -0.000000 0.191692 0.000000
vt -0.800000 0.191692 0.000000
vt -0.000000 0.219021 0.000000
vt -0.800000 0.219021 0.000000
vt -0.000000 0.246351 0.000000
vt -0.800000 0.246351 0.000000
vt -0.800000 0.273680 0.000000
vt 0.000000 0.273680 0.000000
vt 0.800000 -0.172788 0.000000
vt 0.000000 -0.172788 0.000000
vt 0.800000 -0.188496 0.000000
vt 0.000000 -0.188496 0.000000
vt 0.800000 0.188496 0.000000
vt 0.000000 0.188496 0.000000
vt 0.800000 0.172788 0.000000
vt 0.000000 0.172788 0.000000
vt 0.800000 0.157080 0.000000
vt 0.000000 0.157080 0.000000
vt 0.800000 0.141372 0.000000
vt 0.000000 0.141372 0.000000
vt 0.800000 0.125664 0.000000
vt 0.000000 0.125664 0.000000
vt 0.800000 0.109956 0.000000
vt 0.000000 0.109956 0.000000
vt 0.800000 0.094248 0.000000
vt 0.000000 0.094248 0.000000
vt 0.800000 0.078540 0.000000
vt 0.000000 0.078540 0.000000
vt 0.800000 0.062832 0.000000
vt 0.000000 0.062832 0.000000
vt 0.800000 0.047124 0.000000
vt 0.000000 0.047124 0.000000
vt 0.800000 0.031416 0.000000
vt 0.000000 0.031416 0.000000
vt 0.800000 0.015708 0.000000
vt 0.000000 0.015708 0.000000
vt 0.800000 0.000000 0.000000
vt 0.000000 0.000000 0.000000
vt 0.800000 -0.015708 0.000000
vt 0.000000 -0.015708 0.000000
vt 0.800000 -0.031416 0.000000
vt 0.000000 -0.031416 0.000000
vt 0.800000 -0.047124 0.000000
vt 0.000000 -0.047124 0.000000
vt 0.800000 -0.062832 0.000000
vt -0.000000 -0.062832 0.000000
vt 0.800000 -0.078540 0.000000
vt 0.000000 -0.078540 0.000000
vt 0.800000 -0.094248 0.000000
vt 0.000000 -0.094248 0.000000
vt 0.800000 -0.109956 0.000000
vt 0.000000 -0.109956 0.000000
vt 0.800000 -0.125664 0.000000
vt 0.000000 -0.125664 0.000000
vt 0.800000 -0.141372 0.000000
vt 0.000000 -0.141372 0.000000
vt 0.800000 -0.157080 0.000000
vt 0.000000 -0.157080 0.000000
vn -0.099999 0.000322 -0.000000
vn -0.099999 0.000322 -0.000000
vn -0.099999 0.000322 -0.000000
vn -0.099999 0.000322 -0.000000
vn 0.000000 0.000000 0.100000
vn 0.000000 0.000000 0.100000
vn 0.000000 0.000000 0.100000
vn 0.000000 0.000000 0.100000
vn 0.000000 0.000000 0.100000
vn 0.000000 0.000000 0.100000
vn 0.000000 0.000000 0.100000
vn 0.000000 0.000000 0.100000
vn 0.000000 0.000000 0.100000
vn 0.000000 0.000000 0.100000
vn 0.000000 0.000000 0.100000
vn 0.000000 0.000000 0.100000
vn 0.000000 0.000000 0.100000
vn 0.000000 0.000000 0.100000
vn 0.000000 0.000000 0.100000
vn 0.000000 0.000000 0.100000
vn 0.000000 0.000000 0.100000
vn 0.000000 0.000000 0.100000
vn 0.000000 0.000000 0.100000
vn 0.000000 0.000000 0.100000
vn 0.000000 0.000000 0.100000
vn 0.000000 0.000000 0.100000
vn 0.000000 0.000000 0.100000
vn 0.000000 0.000000 0.100000
vn 0.000000 0.000000 0.100000
vn 0.000000 0.000000 0.100000
vn 0.000000 0.000000 0.100000
vn 0.000000 0.000000 0.100000
vn 0.000000 0.000000 0.100000
vn 0.000000 0.000000 0.100000
vn 0.000000 0.000000 0.100000
vn 0.000000 0.000000 0.100000
vn 0.000000 0.000000 0.100000
vn 0.000000 0.000000 0.100000
vn 0.000000 0.000000 0.100000
vn 0.000000 0.000000 0.100000
vn 0.000000 0.000000 0.100000
vn 0.000000 0.000000 0.100000
vn 0.000000 0.000000 0.100000
vn 0.000000 0.000000 0.100000
vn 0.000000 0.000000 0.100000
vn 0.000000 0.000000 0.100000
vn 0.000000 0.000000 0.100000
vn 0.000000 0.000000 0.100000
vn 0.000000 0.000000 0.100000
vn 0.000000 0.000000 -0.100000
vn 0.000000 0.000000 -0.100000
vn 0.000000 0.000000 -0.100000
vn 0.000000 0.000000 -0.100000
vn 0.000000 0.000000 -0.100000
vn 0.000000 0.000000 -0.100000
vn 0.000000 0.000000 -0.100000
vn 0.000000 0.000000 -0.100000
vn 0.000000 0.000000 -0.100000
vn 0.000000 0.000000 -0.100000
vn 0.000000 0.000000 -0.100000
vn 0.000000 0.000000 -0.100000
vn 0.000000 0.000000 -0.100000
vn 0.000000 0.000000 -0.100000
vn 0.000000 0.000000 -0.100000
vn 0.000000 0.000000 -0.100000
vn 0.000000 0.000000 -0.100000
vn 0.000000 0.000000 -0.100000
vn 0.000000 0.000000 -0.100000
vn 0.000000 0.000000 -0.100000
vn 0.000000 0.000000 -0.100000
vn 0.000000 0.000000 -0.100000
vn 0.000000 0.000000 -0.100000
vn 0.000000 0.000000 -0.100000
vn 0.000000 0.000000 -0.100000
vn 0.000000 0.000000 -0.100000
vn 0.000000 0.000000 -0.100000
vn 0.000000 0.000000 -0.100000
vn 0.000000 0.000000 -0.100000
vn 0.000000 0.000000 -0.100000
vn 0.000000 0.000000 -0.100000
vn 0.000000 0.000000 -0.100000
vn 0.000000 0.000000 -0.100000
vn 0.000000 0.000000 -0.100000
vn 0.000000 0.000000 -0.100000
vn 0.000000 0.000000 -0.100000
vn 0.000000 0.000000 -0.100000
vn 0.000000 0.000000 -0.100000
vn 0.000000 0.000000 -0.100000
vn 0.000000 0.000000 -0.100000
vn 0.000000 0.000000 -0.100000
vn 0.000000 0.000000 -0.100000
vn 0.000000 0.000000 -0.100000
vn 0.000000 0.000000 -0.100000
vn 0.000000 0.000000 -0.100000
vn -0.064683 0.076263 -0.000000
vn -0.064683 0.076263 -0.000000
vn -0.045794 0.088898 -0.000000
vn -0.045794 0.088898 -0.000000
vn -0.024541 0.096942 -0.000000
vn -0.024541 0.096942 -0.000000
vn -0.002019 0.099980 -0.000000
vn -0.002019 0.099980 -0.000000
vn 0.020606 0.097854 0.000000
vn 0.020606 0.097854 0.000000
vn 0.042168 0.090675 0.000000
vn 0.042168 0.090675 0.000000
vn 0.061552 0.078812 0.000000
vn 0.061552 0.078812 0.000000
vn 0.077757 0.062880 0.000000
vn 0.077757 0.062880 0.000000
vn 0.089946 0.043701 0.000000
vn 0.089946 0.043701 0.000000
vn 0.097490 0.022264 0.000000
vn 0.097490 0.022264 0.000000
vn 0.099999 -0.000322 0.000000
vn 0.099999 -0.000322 0.000000
vn 0.097345 -0.022892 0.000000
vn 0.097345 -0.022892 0.000000
vn 0.089662 -0.044279 0.000000
vn 0.089662 -0.044279 0.000000
vn 0.077350 -0.063380 0.000000
vn 0.077350 -0.063380 0.000000
vn 0.061043 -0.079207 0.000000
vn 0.061043 -0.079207 0.000000
vn 0.041583 -0.090944 0.000000
vn 0.041583 -0.090944 0.000000
vn 0.019976 -0.097985 0.000000
vn 0.019976 -0.097985 0.000000
vn -0.002663 -0.099965 0.000000
vn -0.002663 -0.099965 0.000000
vn -0.025165 -0.096782 0.000000
vn -0.025165 -0.096782 0.000000
vn -0.046366 -0.088601 0.000000
vn -0.046366 -0.088601 0.000000
vn -0.065173 -0.075845 0.000000
vn -0.065173 -0.075845 0.000000
vn -0.096593 0.025882 0.000000
vn -0.096593 0.025882 0.000000
vn -0.100000 0.000000 0.000000
vn -0.100000 0.000000 0.000000
vn -0.096593 -0.025882 0.000000
vn -0.096593 -0.025882 0.000000
vn -0.086603 -0.050000 0.000000
vn -0.086603 -0.050000 0.000000
vn -0.070711 -0.070711 0.000000
vn -0.070711 -0.070711 0.000000
vn -0.050000 -0.086603 0.000000
vn -0.050000 -0.086603 0.000000
vn -0.025882 -0.096593 0.000000
vn -0.025882 -0.096593 0.000000
vn 0.000000 -0.100000 0.000000
vn 0.000000 -0.100000 0.000000
vn 0.025882 -0.096593 0.000000
vn 0.025882 -0.096593 0.000000
vn 0.050000 -0.086603 0.000000
vn 0.050000 -0.086603 0.000000
vn 0.070711 -0.070711 0.000000
vn 0.070711 -0.070711 0.000000
vn 0.086603 -0.050000 0.000000
vn 0.086603 -0.050000 0.000000
vn 0.096593 -0.025882 0.000000
vn 0.096593 -0.025882 0.000000
vn 0.100000 -0.000000 0.000000
vn 0.100000 -0.000000 0.000000
vn 0.096593 0.025882 0.000000
vn 0.096593 0.025882 0.000000
vn 0.086603 0.050000 0.000000
vn 0.086603 0.050000 0.000000
vn 0.070711 0.070711 0.000000
vn 0.070711 0.070711 0.000000
vn 0.050000 0.086603 0.000000
vn 0.050000 0.086603 0.000000
vn 0.025882 0.096593 0.000000
vn 0.025882 0.096593 0.000000
vn 0.000000 0.100000 0.000000
vn 0.000000 0.100000 0.000000
vn -0.025882 0.096593 0.000000
vn -0.025882 0.096593 0.000000
vn -0.050000 0.086603 0.000000
vn -0.050000 0.086603 0.000000
vn -0.070711 0.070711 0.000000
vn -0.070711 0.070711 0.000000
vn -0.086603 0.050000 0.000000
vn -0.086603 0.050000 0.000000
usemtl Tough_2000_(with_Formlabs_SLA_3D_Printers)
f 2/1/1 3/2/2 1/3/3
f 1/3/3 3/2/2 4/4/4
f 6/5/5 37/6/6 5/7/7
f 5/7/7 37/6/6 38/8/8
f 5/7/7 38/8/8 39/9/9
f 37/6/6 6/5/5 36/10/10
f 36/10/10 6/5/5 7/11/11
f 36/10/10 7/11/11 35/12/12
f 35/12/12 7/11/11 8/13/13
f 35/12/12 8/13/13 34/14/14
f 34/14/14 8/13/13 9/15/15
f 34/14/14 9/15/15 33/16/16
f 33/16/16 9/15/15 10/17/17
f 33/16/16 10/17/17 32/18/18
f 32/18/18 10/17/17 11/19/19
f 32/18/18 11/19/19 31/20/20
f 31/20/20 11/19/19 12/21/21
f 31/20/20 12/21/21 30/22/22
f 30/22/22 12/21/21 13/23/23
f 30/22/22 13/23/23 29/24/24
f 29/24/24 13/23/23 14/25/25
f 29/24/24 14/25/25 4/26/26
f 4/26/26 14/25/25 15/27/27
f 4/26/26 15/27/27 16/28/28
f 16/28/28 17/29/29 4/26/26
f 4/26/26 17/29/29 1/30/30
f 1/30/30 17/29/29 18/31/31
f 1/30/30 18/31/31 19/32/32
f 19/32/32 20/33/33 1/30/30
f 1/30/30 20/33/33 47/34/34
f 47/34/34 20/33/33 21/35/35
f 47/34/34 21/35/35 46/36/36
f 46/36/36 21/35/35 22/37/37
f 46/36/36 22/37/37 45/38/38
f 45/38/38 22/37/37 23/39/39
f 45/38/38 23/39/39 44/40/40
f 44/40/40 23/39/39 24/41/41
f 44/40/40 24/41/41 43/42/42
f 43/42/42 24/41/41 25/43/43
f 43/42/42 25/43/43 26/44/44
f 27/45/45 41/46/46 26/44/44
f 26/44/44 41/46/46 42/47/47
f 26/44/44 42/47/47 43/42/42
f 41/46/46 27/45/45 40/48/48
f 40/48/48 27/45/45 28/49/49
f 40/48/48 28/49/49 39/9/9
f 39/9/9 28/49/49 5/7/7
f 2/50/50 79/51/51 3/52/52
f 3/52/52 79/51/51 80/53/53
f 3/52/52 80/53/53 81/54/54
f 48/55/55 76/56/56 2/50/50
f 2/50/50 76/56/56 77/57/57
f 2/50/50 77/57/57 78/58/58
f 76/56/56 48/55/55 75/59/59
f 75/59/59 48/55/55 49/60/60
f 75/59/59 49/60/60 74/61/61
f 74/61/61 49/60/60 50/62/62
f 74/61/61 50/62/62 73/63/63
f 73/63/63 50/62/62 51/64/64
f 73/63/63 51/64/64 72/65/65
f 72/65/65 51/64/64 52/66/66
f 72/65/65 52/66/66 71/67/67
f 71/67/67 52/66/66 70/68/68
f 70/68/68 52/66/66 53/69/69
f 70/68/68 53/69/69 54/70/70
f 70/68/68 54/70/70 69/71/71
f 69/71/71 54/70/70 55/72/72
f 69/71/71 55/72/72 68/73/73
f 68/73/73 55/72/72 56/74/74
f 68/73/73 56/74/74 67/75/75
f 67/75/75 56/74/74 57/76/76
f 67/75/75 57/76/76 58/77/77
f 67/75/75 58/77/77 90/78/78
f 90/78/78 58/77/77 59/79/79
f 90/78/78 59/79/79 89/80/80
f 89/80/80 59/79/79 60/81/81
f 89/80/80 60/81/81 88/82/82
f 88/82/82 60/81/81 61/83/83
f 88/82/82 61/83/83 87/84/84
f 87/84/84 61/83/83 62/85/85
f 87/84/84 62/85/85 86/86/86
f 86/86/86 62/85/85 63/87/87
f 86/86/86 63/87/87 85/88/88
f 85/88/88 63/87/87 64/89/89
f 85/88/88 64/89/89 84/90/90
f 84/90/90 64/89/89 65/91/91
f 84/90/90 65/91/91 83/92/92
f 83/92/92 65/91/91 66/93/93
f 83/92/92 66/93/93 82/94/94
f 82/94/94 66/93/93 3/52/52
f 82/94/94 3/52/52 81/54/54
f 78/58/58 79/51/51 2/50/50
f 2/95/95 1/96/96 48/97/97
f 48/97/97 1/96/96 47/98/98
f 48/97/97 47/98/98 46/99/99
f 48/97/97 46/99/99 49/100/100
f 49/100/100 46/99/99 45/101/101
f 49/100/100 45/101/101 50/102/102
f 50/102/102 45/101/101 44/103/103
f 50/102/102 44/103/103 51/104/104
f 51/104/104 44/103/103 43/105/105
f 51/104/104 43/105/105 52/106/106
f 52/106/106 43/105/105 42/107/107
f 52/106/106 42/107/107 53/108/108
f 53/108/108 42/107/107 41/109/109
f 53/108/108 41/109/109 54/110/110
f 54/110/110 41/109/109 40/111/111
f 54/110/110 40/111/111 55/112/112
f 55/112/112 40/111/111 39/113/113
f 55/112/112 39/113/113 56/114/114
f 56/114/114 39/113/113 38/115/115
f 56/114/114 38/115/115 57/116/116
f 57/116/116 38/115/115 37/117/117
f 57/116/116 37/117/117 58/118/118
f 58/118/118 37/117/117 36/119/119
f 58/118/118 36/119/119 59/120/120
f 59/120/120 36/119/119 35/121/121
f 59/120/120 35/121/121 60/122/122
f 60/122/122 35/121/121 34/123/123
f 60/122/122 34/123/123 61/124/124
f 61/124/124 34/123/123 33/125/125
f 61/124/124 33/125/125 62/126/126
f 62/126/126 33/125/125 32/127/127
f 62/126/126 32/127/127 63/128/128
f 63/128/128 32/127/127 31/129/129
f 63/128/128 31/129/129 64/130/130
f 64/130/130 31/129/129 30/131/131
f 64/130/130 30/131/131 65/132/132
f 65/132/132 30/131/131 29/133/133
f 65/132/132 29/133/133 66/134/134
f 66/134/134 29/133/133 3/135/135
f 3/135/135 29/133/133 4/136/136
f 90/137/137 6/138/138 67/139/139
f 67/139/139 6/138/138 5/140/140
f 67/141/139 5/142/140 68/143/141
f 68/143/141 5/142/140 28/144/142
f 68/143/141 28/144/142 69/145/143
f 69/145/143 28/144/142 27/146/144
f 69/145/143 27/146/144 70/147/145
f 70/147/145 27/146/144 26/148/146
f 70/147/145 26/148/146 71/149/147
f 71/149/147 26/148/146 25/150/148
f 71/149/147 25/150/148 72/151/149
f 72/151/149 25/150/148 24/152/150
f 72/151/149 24/152/150 73/153/151
f 73/153/151 24/152/150 23/154/152
f 73/153/151 23/154/152 74/155/153
f 74/155/153 23/154/152 22/156/154
f 74/155/153 22/156/154 75/157/155
f 75/157/155 22/156/154 21/158/156
f 75/157/155 21/158/156 76/159/157
f 76/159/157 21/158/156 20/160/158
f 76/159/157 20/160/158 77/161/159
f 77/161/159 20/160/158 19/162/160
f 77/161/159 19/162/160 78/163/161
f 78/163/161 19/162/160 18/164/162
f 78/163/161 18/164/162 79/165/163
f 79/165/163 18/164/162 17/166/164
f 79/165/163 17/166/164 80/167/165
f 80/167/165 17/166/164 16/168/166
f 80/167/165 16/168/166 81/169/167
f 81/169/167 16/168/166 15/170/168
f 81/169/167 15/170/168 82/171/169
f 82/171/169 15/170/168 14/172/170
f 82/171/169 14/172/170 83/173/171
f 83/173/171 14/172/170 13/174/172
f 83/173/171 13/174/172 84/175/173
f 84/175/173 13/174/172 12/176/174
f 84/175/173 12/176/174 85/177/175
f 85/177/175 12/176/174 11/178/176
f 85/177/175 11/178/176 86/179/177
f 86/179/177 11/178/176 10/180/178
f 86/179/177 10/180/178 87/181/179
f 87/181/179 10/180/178 9/182/180
f 87/181/179 9/182/180 88/183/181
f 88/183/181 9/182/180 8/184/182
f 88/183/181 8/184/182 89/185/183
f 89/185/183 8/184/182 7/186/184
f 89/185/183 7/186/184 90/137/137
f 90/137/137 7/186/184 6/138/138
# 90 vertices
# 186 texture params
# 184 normals
# 180 facets

# 1 groups
