# WaveFront *.obj file (generated by Autodesk ATF)

mtllib c5afa718-b4b4-4952-9129-3c41723b03b0.mtl

g Body1

v 22.847060 4.749881 1.000000
v 22.847060 4.749881 -7.000000
v 22.841048 2.883610 -7.000000
v 22.841048 2.883610 1.000000
v 22.998536 3.814315 1.000000
v 23.018981 3.969607 1.000000
v 23.078921 4.114315 1.000000
v 23.174272 4.238579 1.000000
v 23.298536 4.333931 1.000000
v 23.443245 4.393871 1.000000
v 23.598536 4.414315 1.000000
v 23.753828 4.393871 1.000000
v 23.898536 4.333931 1.000000
v 24.022800 4.238579 1.000000
v 24.118152 4.114315 1.000000
v 24.178092 3.969607 1.000000
v 24.198536 3.814315 1.000000
v 24.178092 3.659024 1.000000
v 24.118152 3.514315 1.000000
v 24.022800 3.390051 1.000000
v 23.898536 3.294700 1.000000
v 23.753828 3.234760 1.000000
v 23.598536 3.214315 1.000000
v 23.443245 3.234760 1.000000
v 23.298536 3.294700 1.000000
v 23.174272 3.390051 1.000000
v 23.078921 3.514315 1.000000
v 23.018981 3.659024 1.000000
v 23.080652 2.731820 1.000000
v 23.349190 2.640507 1.000000
v 23.631657 2.614772 1.000000
v 23.912275 2.656054 1.000000
v 24.175364 2.762047 1.000000
v 24.406227 2.926827 1.000000
v 24.591966 3.141190 1.000000
v 24.722204 3.393160 1.000000
v 24.789664 3.668659 1.000000
v 24.790577 3.952295 1.000000
v 24.724894 4.228223 1.000000
v 24.596282 4.481026 1.000000
v 24.411929 4.696581 1.000000
v 24.182132 4.862846 1.000000
v 23.919731 4.970531 1.000000
v 23.639385 5.013620 1.000000
v 23.356757 4.989706 1.000000
v 23.087637 4.900125 1.000000
v 23.087637 4.900125 -7.000000
v 23.356757 4.989706 -7.000000
v 23.639385 5.013620 -7.000000
v 23.919731 4.970531 -7.000000
v 24.182132 4.862846 -7.000000
v 24.411929 4.696581 -7.000000
v 24.596282 4.481026 -7.000000
v 24.724894 4.228223 -7.000000
v 24.790577 3.952295 -7.000000
v 24.789664 3.668659 -7.000000
v 24.722204 3.393160 -7.000000
v 24.591966 3.141190 -7.000000
v 24.406227 2.926827 -7.000000
v 24.175364 2.762047 -7.000000
v 23.912275 2.656054 -7.000000
v 23.631657 2.614772 -7.000000
v 23.349190 2.640507 -7.000000
v 23.080652 2.731820 -7.000000
v 22.998536 3.814315 -7.000000
v 23.018981 3.659024 -7.000000
v 23.078921 3.514315 -7.000000
v 23.174272 3.390051 -7.000000
v 23.298536 3.294700 -7.000000
v 23.443245 3.234760 -7.000000
v 23.598536 3.214315 -7.000000
v 23.753828 3.234760 -7.000000
v 23.898536 3.294700 -7.000000
v 24.022800 3.390051 -7.000000
v 24.118152 3.514315 -7.000000
v 24.178092 3.659024 -7.000000
v 24.198536 3.814315 -7.000000
v 24.178092 3.969607 -7.000000
v 24.118152 4.114315 -7.000000
v 24.022800 4.238579 -7.000000
v 23.898536 4.333931 -7.000000
v 23.753828 4.393871 -7.000000
v 23.598536 4.414315 -7.000000
v 23.443245 4.393871 -7.000000
v 23.298536 4.333931 -7.000000
v 23.174272 4.238579 -7.000000
v 23.078921 4.114315 -7.000000
v 23.018981 3.969607 -7.000000
vt -0.994935 0.000000 0.000000
vt -0.808307 0.000000 0.000000
vt -0.994935 0.800000 0.000000
vt -0.808307 0.800000 0.000000
vt 0.166226 0.058424 0.000000
vt 0.183418 -0.019603 0.000000
vt 0.168271 0.073953 0.000000
vt 0.184020 0.167024 0.000000
vt 0.166226 0.089482 0.000000
vt 0.160232 0.103953 0.000000
vt 0.150697 0.116380 0.000000
vt 0.160059 0.182203 0.000000
vt 0.138271 0.125915 0.000000
vt 0.133205 0.191334 0.000000
vt 0.123800 0.131909 0.000000
vt 0.108271 0.133953 0.000000
vt 0.104959 0.193907 0.000000
vt 0.092742 0.131909 0.000000
vt 0.076897 0.189779 0.000000
vt 0.078271 0.125915 0.000000
vt 0.050588 0.179180 0.000000
vt 0.065844 0.116380 0.000000
vt 0.027502 0.162702 0.000000
vt 0.056309 0.103953 0.000000
vt 0.008928 0.141266 0.000000
vt 0.050315 0.089482 0.000000
vt -0.004096 0.116069 0.000000
vt -0.010842 0.088519 0.000000
vt 0.160232 0.043953 0.000000
vt 0.150697 0.031527 0.000000
vt 0.159361 -0.034628 0.000000
vt 0.138271 0.021992 0.000000
vt 0.132449 -0.043586 0.000000
vt 0.123800 0.015998 0.000000
vt 0.108271 0.013953 0.000000
vt 0.104186 -0.045977 0.000000
vt 0.092742 0.015998 0.000000
vt 0.076151 -0.041668 0.000000
vt 0.078271 0.021992 0.000000
vt 0.049911 -0.030900 0.000000
vt 0.065844 0.031527 0.000000
vt 0.026932 -0.014273 0.000000
vt 0.056309 0.043953 0.000000
vt 0.008496 0.007282 0.000000
vt 0.050315 0.058424 0.000000
vt -0.004365 0.032562 0.000000
vt -0.010933 0.060155 0.000000
vt 0.048271 0.073953 0.000000
vt -0.183418 -0.019603 0.000000
vt -0.168271 0.073953 0.000000
vt -0.184020 0.167024 0.000000
vt -0.166226 0.089482 0.000000
vt -0.160232 0.103953 0.000000
vt -0.159361 -0.034628 0.000000
vt -0.150697 0.031527 0.000000
vt -0.160232 0.043953 0.000000
vt -0.166226 0.058424 0.000000
vt -0.138271 0.021992 0.000000
vt -0.132449 -0.043586 0.000000
vt -0.123800 0.015998 0.000000
vt -0.108271 0.013953 0.000000
vt -0.104186 -0.045977 0.000000
vt -0.092742 0.015998 0.000000
vt -0.076151 -0.041668 0.000000
vt -0.078271 0.021992 0.000000
vt -0.049911 -0.030900 0.000000
vt -0.065844 0.031527 0.000000
vt -0.026932 -0.014273 0.000000
vt -0.056309 0.043953 0.000000
vt -0.008496 0.007282 0.000000
vt -0.050315 0.058424 0.000000
vt 0.004365 0.032562 0.000000
vt 0.010933 0.060155 0.000000
vt -0.048271 0.073953 0.000000
vt 0.010842 0.088519 0.000000
vt -0.050315 0.089482 0.000000
vt 0.004096 0.116069 0.000000
vt -0.008928 0.141266 0.000000
vt -0.056309 0.103953 0.000000
vt -0.027502 0.162702 0.000000
vt -0.065844 0.116380 0.000000
vt -0.050588 0.179180 0.000000
vt -0.078271 0.125915 0.000000
vt -0.076897 0.189779 0.000000
vt -0.092742 0.131909 0.000000
vt -0.104959 0.193907 0.000000
vt -0.108271 0.133953 0.000000
vt -0.133205 0.191334 0.000000
vt -0.123800 0.131909 0.000000
vt -0.138271 0.125915 0.000000
vt -0.160059 0.182203 0.000000
vt -0.150697 0.116380 0.000000
vt -0.800000 -0.269701 0.000000
vt -0.000000 -0.269701 0.000000
vt -0.800000 -0.241270 0.000000
vt -0.000000 -0.241270 0.000000
vt -0.800000 -0.212840 0.000000
vt -0.000000 -0.212840 0.000000
vt -0.800000 -0.184410 0.000000
vt -0.000000 -0.184410 0.000000
vt -0.800000 -0.155980 0.000000
vt -0.000000 -0.155980 0.000000
vt -0.800000 -0.127549 0.000000
vt -0.000000 -0.127549 0.000000
vt -0.800000 -0.099119 0.000000
vt -0.000000 -0.099119 0.000000
vt -0.800000 -0.070689 0.000000
vt -0.000000 -0.070689 0.000000
vt -0.800000 -0.042259 0.000000
vt -0.000000 -0.042259 0.000000
vt -0.800000 -0.013829 0.000000
vt -0.000000 -0.013829 0.000000
vt -0.800000 0.014602 0.000000
vt -0.000000 0.014602 0.000000
vt -0.800000 0.043032 0.000000
vt -0.000000 0.043032 0.000000
vt -0.800000 0.071462 0.000000
vt -0.000000 0.071462 0.000000
vt -0.800000 0.099892 0.000000
vt -0.000000 0.099892 0.000000
vt -0.800000 0.128323 0.000000
vt -0.000000 0.128323 0.000000
vt -0.800000 0.156753 0.000000
vt -0.000000 0.156753 0.000000
vt -0.800000 0.185183 0.000000
vt -0.000000 0.185183 0.000000
vt -0.800000 0.213613 0.000000
vt 0.000000 0.213613 0.000000
vt -0.800000 0.242043 0.000000
vt 0.000000 0.242043 0.000000
vt -0.800000 0.270474 0.000000
vt 0.000000 0.270474 0.000000
vt 0.800000 -0.172788 0.000000
vt -0.000000 -0.172788 0.000000
vt 0.800000 -0.188496 0.000000
vt 0.000000 -0.188496 0.000000
vt 0.800000 0.188496 0.000000
vt 0.000000 0.188496 0.000000
vt 0.800000 0.172788 0.000000
vt -0.000000 0.172788 0.000000
vt 0.800000 0.157080 0.000000
vt -0.000000 0.157080 0.000000
vt 0.800000 0.141372 0.000000
vt -0.000000 0.141372 0.000000
vt 0.800000 0.125664 0.000000
vt -0.000000 0.125664 0.000000
vt 0.800000 0.109956 0.000000
vt -0.000000 0.109956 0.000000
vt 0.800000 0.094248 0.000000
vt 0.000000 0.094248 0.000000
vt 0.800000 0.078540 0.000000
vt -0.000000 0.078540 0.000000
vt 0.800000 0.062832 0.000000
vt -0.000000 0.062832 0.000000
vt 0.800000 0.047124 0.000000
vt -0.000000 0.047124 0.000000
vt 0.800000 0.031416 0.000000
vt -0.000000 0.031416 0.000000
vt 0.800000 0.015708 0.000000
vt -0.000000 0.015708 0.000000
vt 0.800000 0.000000 0.000000
vt 0.000000 0.000000 0.000000
vt 0.800000 -0.015708 0.000000
vt -0.000000 -0.015708 0.000000
vt 0.800000 -0.031416 0.000000
vt -0.000000 -0.031416 0.000000
vt 0.800000 -0.047124 0.000000
vt -0.000000 -0.047124 0.000000
vt 0.800000 -0.062832 0.000000
vt 0.000000 -0.062832 0.000000
vt 0.800000 -0.078540 0.000000
vt -0.000000 -0.078540 0.000000
vt 0.800000 -0.094248 0.000000
vt 0.000000 -0.094248 0.000000
vt 0.800000 -0.109956 0.000000
vt -0.000000 -0.109956 0.000000
vt 0.800000 -0.125664 0.000000
vt -0.000000 -0.125664 0.000000
vt 0.800000 -0.141372 0.000000
vt -0.000000 -0.141372 0.000000
vt 0.800000 -0.157080 0.000000
vt -0.000000 -0.157080 0.000000
vn -0.099999 0.000322 -0.000000
vn -0.099999 0.000322 -0.000000
vn -0.099999 0.000322 -0.000000
vn -0.099999 0.000322 -0.000000
vn 0.000000 0.000000 0.100000
vn 0.000000 0.000000 0.100000
vn 0.000000 0.000000 0.100000
vn 0.000000 0.000000 0.100000
vn 0.000000 0.000000 0.100000
vn 0.000000 0.000000 0.100000
vn 0.000000 0.000000 0.100000
vn 0.000000 0.000000 0.100000
vn 0.000000 0.000000 0.100000
vn 0.000000 0.000000 0.100000
vn 0.000000 0.000000 0.100000
vn 0.000000 0.000000 0.100000
vn 0.000000 0.000000 0.100000
vn 0.000000 0.000000 0.100000
vn 0.000000 0.000000 0.100000
vn 0.000000 0.000000 0.100000
vn 0.000000 0.000000 0.100000
vn 0.000000 0.000000 0.100000
vn 0.000000 0.000000 0.100000
vn 0.000000 0.000000 0.100000
vn 0.000000 0.000000 0.100000
vn 0.000000 0.000000 0.100000
vn 0.000000 0.000000 0.100000
vn 0.000000 0.000000 0.100000
vn 0.000000 0.000000 0.100000
vn 0.000000 0.000000 0.100000
vn 0.000000 0.000000 0.100000
vn 0.000000 0.000000 0.100000
vn 0.000000 0.000000 0.100000
vn 0.000000 0.000000 0.100000
vn 0.000000 0.000000 0.100000
vn 0.000000 0.000000 0.100000
vn 0.000000 0.000000 0.100000
vn 0.000000 0.000000 0.100000
vn 0.000000 0.000000 0.100000
vn 0.000000 0.000000 0.100000
vn 0.000000 0.000000 0.100000
vn 0.000000 0.000000 0.100000
vn 0.000000 0.000000 0.100000
vn 0.000000 0.000000 0.100000
vn 0.000000 0.000000 0.100000
vn 0.000000 0.000000 0.100000
vn 0.000000 0.000000 0.100000
vn 0.000000 0.000000 0.100000
vn 0.000000 0.000000 -0.100000
vn 0.000000 0.000000 -0.100000
vn 0.000000 0.000000 -0.100000
vn 0.000000 0.000000 -0.100000
vn 0.000000 0.000000 -0.100000
vn 0.000000 0.000000 -0.100000
vn 0.000000 0.000000 -0.100000
vn 0.000000 0.000000 -0.100000
vn 0.000000 0.000000 -0.100000
vn 0.000000 0.000000 -0.100000
vn 0.000000 0.000000 -0.100000
vn 0.000000 0.000000 -0.100000
vn 0.000000 0.000000 -0.100000
vn 0.000000 0.000000 -0.100000
vn 0.000000 0.000000 -0.100000
vn 0.000000 0.000000 -0.100000
vn 0.000000 0.000000 -0.100000
vn 0.000000 0.000000 -0.100000
vn 0.000000 0.000000 -0.100000
vn 0.000000 0.000000 -0.100000
vn 0.000000 0.000000 -0.100000
vn 0.000000 0.000000 -0.100000
vn 0.000000 0.000000 -0.100000
vn 0.000000 0.000000 -0.100000
vn 0.000000 0.000000 -0.100000
vn 0.000000 0.000000 -0.100000
vn 0.000000 0.000000 -0.100000
vn 0.000000 0.000000 -0.100000
vn 0.000000 0.000000 -0.100000
vn 0.000000 0.000000 -0.100000
vn 0.000000 0.000000 -0.100000
vn 0.000000 0.000000 -0.100000
vn 0.000000 0.000000 -0.100000
vn 0.000000 0.000000 -0.100000
vn 0.000000 0.000000 -0.100000
vn 0.000000 0.000000 -0.100000
vn 0.000000 0.000000 -0.100000
vn 0.000000 0.000000 -0.100000
vn 0.000000 0.000000 -0.100000
vn 0.000000 0.000000 -0.100000
vn 0.000000 0.000000 -0.100000
vn 0.000000 0.000000 -0.100000
vn 0.000000 0.000000 -0.100000
vn 0.000000 0.000000 -0.100000
vn -0.062623 0.077964 -0.000000
vn -0.062623 0.077964 -0.000000
vn -0.042575 0.090484 -0.000000
vn -0.042575 0.090484 -0.000000
vn -0.020148 0.097949 -0.000000
vn -0.020148 0.097949 -0.000000
vn 0.003404 0.099942 0.000000
vn 0.003404 0.099942 0.000000
vn 0.026766 0.096351 0.000000
vn 0.026766 0.096351 0.000000
vn 0.048633 0.087378 0.000000
vn 0.048633 0.087378 0.000000
vn 0.067783 0.073522 0.000000
vn 0.067783 0.073522 0.000000
vn 0.083145 0.055559 0.000000
vn 0.083145 0.055559 0.000000
vn 0.093863 0.034492 0.000000
vn 0.093863 0.034492 0.000000
vn 0.099337 0.011498 0.000000
vn 0.099337 0.011498 0.000000
vn 0.099261 -0.012138 0.000000
vn 0.099261 -0.012138 0.000000
vn 0.093639 -0.035096 0.000000
vn 0.093639 -0.035096 0.000000
vn 0.082786 -0.056094 0.000000
vn 0.082786 -0.056094 0.000000
vn 0.067308 -0.073957 0.000000
vn 0.067308 -0.073957 0.000000
vn 0.048069 -0.087689 0.000000
vn 0.048069 -0.087689 0.000000
vn 0.026145 -0.096522 0.000000
vn 0.026145 -0.096522 0.000000
vn 0.002760 -0.099962 0.000000
vn 0.002760 -0.099962 0.000000
vn -0.020779 -0.097817 0.000000
vn -0.020779 -0.097817 0.000000
vn -0.043157 -0.090208 0.000000
vn -0.043157 -0.090208 0.000000
vn -0.063124 -0.077559 0.000000
vn -0.063124 -0.077559 0.000000
vn 0.096593 -0.025882 0.000000
vn 0.096593 -0.025882 0.000000
vn 0.100000 -0.000000 0.000000
vn 0.100000 -0.000000 0.000000
vn 0.096593 0.025882 0.000000
vn 0.096593 0.025882 0.000000
vn 0.086603 0.050000 0.000000
vn 0.086603 0.050000 0.000000
vn 0.070711 0.070711 0.000000
vn 0.070711 0.070711 0.000000
vn 0.050000 0.086603 0.000000
vn 0.050000 0.086603 0.000000
vn 0.025882 0.096593 0.000000
vn 0.025882 0.096593 0.000000
vn -0.000000 0.100000 0.000000
vn -0.000000 0.100000 0.000000
vn -0.025882 0.096593 0.000000
vn -0.025882 0.096593 0.000000
vn -0.050000 0.086603 0.000000
vn -0.050000 0.086603 0.000000
vn -0.070711 0.070711 0.000000
vn -0.070711 0.070711 0.000000
vn -0.086603 0.050000 0.000000
vn -0.086603 0.050000 0.000000
vn -0.096593 0.025882 0.000000
vn -0.096593 0.025882 0.000000
vn -0.100000 0.000000 0.000000
vn -0.100000 0.000000 0.000000
vn -0.096593 -0.025882 0.000000
vn -0.096593 -0.025882 0.000000
vn -0.086603 -0.050000 0.000000
vn -0.086603 -0.050000 0.000000
vn -0.070711 -0.070711 0.000000
vn -0.070711 -0.070711 0.000000
vn -0.050000 -0.086603 0.000000
vn -0.050000 -0.086603 0.000000
vn -0.025882 -0.096593 0.000000
vn -0.025882 -0.096593 0.000000
vn -0.000000 -0.100000 0.000000
vn -0.000000 -0.100000 0.000000
vn 0.025882 -0.096593 0.000000
vn 0.025882 -0.096593 0.000000
vn 0.050000 -0.086603 0.000000
vn 0.050000 -0.086603 0.000000
vn 0.070711 -0.070711 0.000000
vn 0.070711 -0.070711 0.000000
vn 0.086603 -0.050000 0.000000
vn 0.086603 -0.050000 0.000000
usemtl Tough_2000_(with_Formlabs_SLA_3D_Printers)
f 2/1/1 3/2/2 1/3/3
f 1/3/3 3/2/2 4/4/4
f 6/5/5 1/6/6 5/7/7
f 5/7/7 1/6/6 4/8/8
f 5/7/7 4/8/8 28/9/9
f 28/9/9 4/8/8 27/10/10
f 27/10/10 4/8/8 26/11/11
f 26/11/11 4/8/8 29/12/12
f 26/11/11 29/12/12 25/13/13
f 25/13/13 29/12/12 30/14/14
f 25/13/13 30/14/14 24/15/15
f 24/15/15 30/14/14 23/16/16
f 23/16/16 30/14/14 31/17/17
f 23/16/16 31/17/17 22/18/18
f 22/18/18 31/17/17 32/19/19
f 22/18/18 32/19/19 21/20/20
f 21/20/20 32/19/19 33/21/21
f 21/20/20 33/21/21 20/22/22
f 20/22/22 33/21/21 34/23/23
f 20/22/22 34/23/23 19/24/24
f 19/24/24 34/23/23 35/25/25
f 19/24/24 35/25/25 18/26/26
f 18/26/26 35/25/25 36/27/27
f 18/26/26 36/27/27 37/28/28
f 6/5/5 7/29/29 1/6/6
f 1/6/6 7/29/29 8/30/30
f 1/6/6 8/30/30 46/31/31
f 46/31/31 8/30/30 9/32/32
f 46/31/31 9/32/32 45/33/33
f 45/33/33 9/32/32 10/34/34
f 45/33/33 10/34/34 11/35/35
f 45/33/33 11/35/35 44/36/36
f 44/36/36 11/35/35 12/37/37
f 44/36/36 12/37/37 43/38/38
f 43/38/38 12/37/37 13/39/39
f 43/38/38 13/39/39 42/40/40
f 42/40/40 13/39/39 14/41/41
f 42/40/40 14/41/41 41/42/42
f 41/42/42 14/41/41 15/43/43
f 41/42/42 15/43/43 40/44/44
f 40/44/44 15/43/43 16/45/45
f 40/44/44 16/45/45 39/46/46
f 39/46/46 16/45/45 38/47/47
f 38/47/47 16/45/45 17/48/48
f 38/47/47 17/48/48 37/28/28
f 37/28/28 17/48/48 18/26/26
f 2/49/49 65/50/50 3/51/51
f 3/51/51 65/50/50 66/52/52
f 3/51/51 66/52/52 67/53/53
f 47/54/54 86/55/55 2/49/49
f 2/49/49 86/55/55 87/56/56
f 2/49/49 87/56/56 88/57/57
f 86/55/55 47/54/54 85/58/58
f 85/58/58 47/54/54 48/59/59
f 85/58/58 48/59/59 84/60/60
f 84/60/60 48/59/59 83/61/61
f 83/61/61 48/59/59 49/62/62
f 83/61/61 49/62/62 82/63/63
f 82/63/63 49/62/62 50/64/64
f 82/63/63 50/64/64 81/65/65
f 81/65/65 50/64/64 51/66/66
f 81/65/65 51/66/66 80/67/67
f 80/67/67 51/66/66 52/68/68
f 80/67/67 52/68/68 79/69/69
f 79/69/69 52/68/68 53/70/70
f 79/69/69 53/70/70 78/71/71
f 78/71/71 53/70/70 54/72/72
f 78/71/71 54/72/72 55/73/73
f 78/71/71 55/73/73 77/74/74
f 77/74/74 55/73/73 56/75/75
f 77/74/74 56/75/75 76/76/76
f 76/76/76 56/75/75 57/77/77
f 76/76/76 57/77/77 58/78/78
f 76/76/76 58/78/78 75/79/79
f 75/79/79 58/78/78 59/80/80
f 75/79/79 59/80/80 74/81/81
f 74/81/81 59/80/80 60/82/82
f 74/81/81 60/82/82 73/83/83
f 73/83/83 60/82/82 61/84/84
f 73/83/83 61/84/84 72/85/85
f 72/85/85 61/84/84 62/86/86
f 72/85/85 62/86/86 71/87/87
f 71/87/87 62/86/86 63/88/88
f 71/87/87 63/88/88 70/89/89
f 70/89/89 63/88/88 69/90/90
f 69/90/90 63/88/88 64/91/91
f 69/90/90 64/91/91 68/92/92
f 68/92/92 64/91/91 3/51/51
f 68/92/92 3/51/51 67/53/53
f 88/57/57 65/50/50 2/49/49
f 2/93/93 1/94/94 47/95/95
f 47/95/95 1/94/94 46/96/96
f 47/95/95 46/96/96 48/97/97
f 48/97/97 46/96/96 45/98/98
f 48/97/97 45/98/98 49/99/99
f 49/99/99 45/98/98 44/100/100
f 49/99/99 44/100/100 50/101/101
f 50/101/101 44/100/100 43/102/102
f 50/101/101 43/102/102 51/103/103
f 51/103/103 43/102/102 42/104/104
f 51/103/103 42/104/104 52/105/105
f 52/105/105 42/104/104 41/106/106
f 52/105/105 41/106/106 53/107/107
f 53/107/107 41/106/106 40/108/108
f 53/107/107 40/108/108 54/109/109
f 54/109/109 40/108/108 39/110/110
f 54/109/109 39/110/110 55/111/111
f 55/111/111 39/110/110 38/112/112
f 55/111/111 38/112/112 56/113/113
f 56/113/113 38/112/112 37/114/114
f 56/113/113 37/114/114 57/115/115
f 57/115/115 37/114/114 36/116/116
f 57/115/115 36/116/116 58/117/117
f 58/117/117 36/116/116 35/118/118
f 58/117/117 35/118/118 59/119/119
f 59/119/119 35/118/118 34/120/120
f 59/119/119 34/120/120 60/121/121
f 60/121/121 34/120/120 33/122/122
f 60/121/121 33/122/122 61/123/123
f 61/123/123 33/122/122 32/124/124
f 61/123/123 32/124/124 62/125/125
f 62/125/125 32/124/124 31/126/126
f 62/125/125 31/126/126 63/127/127
f 63/127/127 31/126/126 30/128/128
f 63/127/127 30/128/128 64/129/129
f 64/129/129 30/128/128 29/130/130
f 64/129/129 29/130/130 3/131/131
f 3/131/131 29/130/130 4/132/132
f 88/133/133 6/134/134 65/135/135
f 65/135/135 6/134/134 5/136/136
f 65/137/135 5/138/136 66/139/137
f 66/139/137 5/138/136 28/140/138
f 66/139/137 28/140/138 67/141/139
f 67/141/139 28/140/138 27/142/140
f 67/141/139 27/142/140 68/143/141
f 68/143/141 27/142/140 26/144/142
f 68/143/141 26/144/142 69/145/143
f 69/145/143 26/144/142 25/146/144
f 69/145/143 25/146/144 70/147/145
f 70/147/145 25/146/144 24/148/146
f 70/147/145 24/148/146 71/149/147
f 71/149/147 24/148/146 23/150/148
f 71/149/147 23/150/148 72/151/149
f 72/151/149 23/150/148 22/152/150
f 72/151/149 22/152/150 73/153/151
f 73/153/151 22/152/150 21/154/152
f 73/153/151 21/154/152 74/155/153
f 74/155/153 21/154/152 20/156/154
f 74/155/153 20/156/154 75/157/155
f 75/157/155 20/156/154 19/158/156
f 75/157/155 19/158/156 76/159/157
f 76/159/157 19/158/156 18/160/158
f 76/159/157 18/160/158 77/161/159
f 77/161/159 18/160/158 17/162/160
f 77/161/159 17/162/160 78/163/161
f 78/163/161 17/162/160 16/164/162
f 78/163/161 16/164/162 79/165/163
f 79/165/163 16/164/162 15/166/164
f 79/165/163 15/166/164 80/167/165
f 80/167/165 15/166/164 14/168/166
f 80/167/165 14/168/166 81/169/167
f 81/169/167 14/168/166 13/170/168
f 81/169/167 13/170/168 82/171/169
f 82/171/169 13/170/168 12/172/170
f 82/171/169 12/172/170 83/173/171
f 83/173/171 12/172/170 11/174/172
f 83/173/171 11/174/172 84/175/173
f 84/175/173 11/174/172 10/176/174
f 84/175/173 10/176/174 85/177/175
f 85/177/175 10/176/174 9/178/176
f 85/177/175 9/178/176 86/179/177
f 86/179/177 9/178/176 8/180/178
f 86/179/177 8/180/178 87/181/179
f 87/181/179 8/180/178 7/182/180
f 87/181/179 7/182/180 88/133/133
f 88/133/133 7/182/180 6/134/134
# 88 vertices
# 182 texture params
# 180 normals
# 176 facets

# 1 groups
